<svg width="136" height="21" viewBox="0 0 136 21" fill="none" xmlns="http://www.w3.org/2000/svg">
<path d="M33.3513 14.0382H28.6953L27.8953 16.3102H25.9913L29.9753 5.17415H32.0873L36.0713 16.3102H34.1513L33.3513 14.0382ZM32.8393 12.5501L31.0313 7.38215L29.2073 12.5501H32.8393ZM37.1955 11.8621C37.1955 10.9768 37.3768 10.1928 37.7395 9.51015C38.1128 8.82748 38.6142 8.29948 39.2435 7.92615C39.8835 7.54215 40.5928 7.35015 41.3715 7.35015C41.9475 7.35015 42.5128 7.47815 43.0675 7.73415C43.6328 7.97948 44.0808 8.31015 44.4115 8.72615V4.47015H46.2515V16.3102H44.4115V14.9822C44.1128 15.4088 43.6968 15.7608 43.1635 16.0382C42.6408 16.3155 42.0382 16.4542 41.3555 16.4542C40.5875 16.4542 39.8835 16.2622 39.2435 15.8782C38.6142 15.4835 38.1128 14.9395 37.7395 14.2462C37.3768 13.5422 37.1955 12.7475 37.1955 11.8621ZM44.4115 11.8941C44.4115 11.2861 44.2835 10.7581 44.0275 10.3101C43.7822 9.86215 43.4568 9.52082 43.0515 9.28615C42.6462 9.05148 42.2088 8.93415 41.7395 8.93415C41.2702 8.93415 40.8328 9.05148 40.4275 9.28615C40.0222 9.51015 39.6915 9.84615 39.4355 10.2941C39.1902 10.7315 39.0675 11.2541 39.0675 11.8621C39.0675 12.4701 39.1902 13.0035 39.4355 13.4622C39.6915 13.9208 40.0222 14.2728 40.4275 14.5182C40.8435 14.7528 41.2808 14.8702 41.7395 14.8702C42.2088 14.8702 42.6462 14.7528 43.0515 14.5182C43.4568 14.2835 43.7822 13.9422 44.0275 13.4941C44.2835 13.0355 44.4115 12.5021 44.4115 11.8941ZM48.0393 11.8621C48.0393 10.9768 48.2206 10.1928 48.5833 9.51015C48.9566 8.82748 49.4579 8.29948 50.0873 7.92615C50.7273 7.54215 51.4366 7.35015 52.2153 7.35015C52.7913 7.35015 53.3566 7.47815 53.9113 7.73415C54.4766 7.97948 54.9246 8.31015 55.2553 8.72615V4.47015H57.0953V16.3102H55.2553V14.9822C54.9566 15.4088 54.5406 15.7608 54.0073 16.0382C53.4846 16.3155 52.8819 16.4542 52.1993 16.4542C51.4313 16.4542 50.7273 16.2622 50.0873 15.8782C49.4579 15.4835 48.9566 14.9395 48.5833 14.2462C48.2206 13.5422 48.0393 12.7475 48.0393 11.8621ZM55.2553 11.8941C55.2553 11.2861 55.1273 10.7581 54.8713 10.3101C54.6259 9.86215 54.3006 9.52082 53.8953 9.28615C53.4899 9.05148 53.0526 8.93415 52.5833 8.93415C52.1139 8.93415 51.6766 9.05148 51.2713 9.28615C50.8659 9.51015 50.5353 9.84615 50.2793 10.2941C50.0339 10.7315 49.9113 11.2541 49.9113 11.8621C49.9113 12.4701 50.0339 13.0035 50.2793 13.4622C50.5353 13.9208 50.8659 14.2728 51.2713 14.5182C51.6873 14.7528 52.1246 14.8702 52.5833 14.8702C53.0526 14.8702 53.4899 14.7528 53.8953 14.5182C54.3006 14.2835 54.6259 13.9422 54.8713 13.4941C55.1273 13.0355 55.2553 12.5021 55.2553 11.8941ZM69.4233 16.3102L66.8633 11.8621H65.4713V16.3102H63.6473V5.19015H67.4873C68.3406 5.19015 69.0606 5.33948 69.6473 5.63815C70.2446 5.93682 70.6873 6.33682 70.9753 6.83815C71.2739 7.33948 71.4233 7.89948 71.4233 8.51815C71.4233 9.24348 71.2099 9.90482 70.7833 10.5022C70.3673 11.0888 69.7219 11.4888 68.8473 11.7021L71.5993 16.3102H69.4233ZM65.4713 10.4061H67.4873C68.1699 10.4061 68.6819 10.2355 69.0233 9.89415C69.3753 9.55282 69.5513 9.09415 69.5513 8.51815C69.5513 7.94215 69.3806 7.49415 69.0393 7.17415C68.6979 6.84348 68.1806 6.67815 67.4873 6.67815H65.4713V10.4061ZM81.8366 11.6862C81.8366 12.0168 81.8153 12.3155 81.7726 12.5821H75.0366C75.09 13.2861 75.3513 13.8515 75.8206 14.2782C76.29 14.7048 76.866 14.9182 77.5486 14.9182C78.53 14.9182 79.2233 14.5075 79.6286 13.6862H81.5966C81.33 14.4968 80.8446 15.1635 80.1406 15.6862C79.4473 16.1982 78.5833 16.4542 77.5486 16.4542C76.706 16.4542 75.9486 16.2675 75.2766 15.8942C74.6153 15.5102 74.0926 14.9768 73.7086 14.2942C73.3353 13.6008 73.1486 12.8008 73.1486 11.8941C73.1486 10.9875 73.33 10.1928 73.6926 9.51015C74.066 8.81682 74.5833 8.28348 75.2446 7.91015C75.9166 7.53682 76.6846 7.35015 77.5486 7.35015C78.3806 7.35015 79.122 7.53148 79.7726 7.89415C80.4233 8.25682 80.93 8.76882 81.2926 9.43015C81.6553 10.0808 81.8366 10.8328 81.8366 11.6862ZM79.9326 11.1101C79.922 10.4381 79.682 9.89948 79.2126 9.49415C78.7433 9.08882 78.162 8.88615 77.4686 8.88615C76.8393 8.88615 76.3006 9.08882 75.8526 9.49415C75.4046 9.88882 75.138 10.4275 75.0526 11.1101H79.9326ZM87.0396 14.6782L89.5356 7.49415H91.4716L88.1116 16.3102H85.9356L82.5916 7.49415H84.5436L87.0396 14.6782ZM93.7784 6.32615C93.4477 6.32615 93.1704 6.21415 92.9464 5.99015C92.7224 5.76615 92.6104 5.48882 92.6104 5.15815C92.6104 4.82748 92.7224 4.55015 92.9464 4.32615C93.1704 4.10215 93.4477 3.99015 93.7784 3.99015C94.0984 3.99015 94.3704 4.10215 94.5944 4.32615C94.8184 4.55015 94.9304 4.82748 94.9304 5.15815C94.9304 5.48882 94.8184 5.76615 94.5944 5.99015C94.3704 6.21415 94.0984 6.32615 93.7784 6.32615ZM94.6744 7.49415V16.3102H92.8504V7.49415H94.6744ZM105.149 11.6862C105.149 12.0168 105.128 12.3155 105.085 12.5821H98.3491C98.4025 13.2861 98.6638 13.8515 99.1331 14.2782C99.6025 14.7048 100.178 14.9182 100.861 14.9182C101.842 14.9182 102.536 14.5075 102.941 13.6862H104.909C104.642 14.4968 104.157 15.1635 103.453 15.6862C102.76 16.1982 101.896 16.4542 100.861 16.4542C100.018 16.4542 99.2611 16.2675 98.5891 15.8942C97.9278 15.5102 97.4051 14.9768 97.0211 14.2942C96.6478 13.6008 96.4611 12.8008 96.4611 11.8941C96.4611 10.9875 96.6425 10.1928 97.0051 9.51015C97.3785 8.81682 97.8958 8.28348 98.5571 7.91015C99.2291 7.53682 99.9971 7.35015 100.861 7.35015C101.693 7.35015 102.434 7.53148 103.085 7.89415C103.736 8.25682 104.242 8.76882 104.605 9.43015C104.968 10.0808 105.149 10.8328 105.149 11.6862ZM103.245 11.1101C103.234 10.4381 102.994 9.89948 102.525 9.49415C102.056 9.08882 101.474 8.88615 100.781 8.88615C100.152 8.88615 99.6131 9.08882 99.1651 9.49415C98.7171 9.88882 98.4505 10.4275 98.3651 11.1101H103.245ZM118.784 7.49415L116.048 16.3102H114.128L112.352 9.79815L110.576 16.3102H108.656L105.904 7.49415H107.76L109.6 14.5822L111.472 7.49415H113.376L115.168 14.5502L116.992 7.49415H118.784ZM128.227 11.6862C128.227 12.0168 128.206 12.3155 128.163 12.5821H121.427C121.481 13.2861 121.742 13.8515 122.211 14.2782C122.681 14.7048 123.257 14.9182 123.939 14.9182C124.921 14.9182 125.614 14.5075 126.019 13.6862H127.987C127.721 14.4968 127.235 15.1635 126.531 15.6862C125.838 16.1982 124.974 16.4542 123.939 16.4542C123.097 16.4542 122.339 16.2675 121.667 15.8942C121.006 15.5102 120.483 14.9768 120.099 14.2942C119.726 13.6008 119.539 12.8008 119.539 11.8941C119.539 10.9875 119.721 10.1928 120.083 9.51015C120.457 8.81682 120.974 8.28348 121.635 7.91015C122.307 7.53682 123.075 7.35015 123.939 7.35015C124.771 7.35015 125.513 7.53148 126.163 7.89415C126.814 8.25682 127.321 8.76882 127.683 9.43015C128.046 10.0808 128.227 10.8328 128.227 11.6862ZM126.323 11.1101C126.313 10.4381 126.073 9.89948 125.603 9.49415C125.134 9.08882 124.553 8.88615 123.859 8.88615C123.23 8.88615 122.691 9.08882 122.243 9.49415C121.795 9.88882 121.529 10.4275 121.443 11.1101H126.323ZM131.846 8.77415C132.113 8.32615 132.465 7.97948 132.902 7.73415C133.35 7.47815 133.878 7.35015 134.486 7.35015V9.23815H134.022C133.308 9.23815 132.764 9.41948 132.39 9.78215C132.028 10.1448 131.846 10.7741 131.846 11.6701V16.3102H130.022V7.49415H131.846V8.77415Z" fill="#0D2B68"/>
<path d="M9.77227 15.3102H11.2723V11.1602H15.4473V9.66015H11.2723V5.31015H9.77227V9.66015H5.44727V11.1602H9.77227V15.3102ZM10.4473 20.3102C9.0806 20.3102 7.78893 20.0476 6.57227 19.5226C5.3556 18.9977 4.2931 18.281 3.38477 17.3727C2.47643 16.4643 1.75977 15.4018 1.23477 14.1852C0.709766 12.9685 0.447266 11.6685 0.447266 10.2852C0.447266 8.91848 0.709766 7.62682 1.23477 6.41015C1.75977 5.19348 2.47643 4.13515 3.38477 3.23515C4.2931 2.33515 5.3556 1.62265 6.57227 1.09765C7.78893 0.57265 9.08893 0.31015 10.4723 0.31015C11.8389 0.31015 13.1306 0.57265 14.3473 1.09765C15.5639 1.62265 16.6223 2.33515 17.5223 3.23515C18.4223 4.13515 19.1348 5.19348 19.6598 6.41015C20.1848 7.62682 20.4473 8.92682 20.4473 10.3102C20.4473 11.6768 20.1848 12.9685 19.6598 14.1852C19.1348 15.4018 18.4223 16.4643 17.5223 17.3727C16.6223 18.281 15.5639 18.9977 14.3473 19.5226C13.1306 20.0476 11.8306 20.3102 10.4473 20.3102ZM10.4723 18.8102C12.8223 18.8102 14.8223 17.981 16.4723 16.3227C18.1223 14.6643 18.9473 12.6518 18.9473 10.2852C18.9473 7.93515 18.1223 5.93515 16.4723 4.28515C14.8223 2.63515 12.8139 1.81015 10.4473 1.81015C8.09727 1.81015 6.0931 2.63515 4.43477 4.28515C2.77643 5.93515 1.94727 7.94348 1.94727 10.3102C1.94727 12.6602 2.77643 14.6643 4.43477 16.3227C6.0931 17.981 8.1056 18.8102 10.4723 18.8102Z" fill="#0D2B68"/>
</svg>
