<svg width="126" height="29" viewBox="0 0 126 29" fill="none" xmlns="http://www.w3.org/2000/svg">
<g opacity="0.35" filter="url(#filter0_d_507_30)">
<path d="M37.2302 14.0382H32.5742L31.7742 16.3102H29.8702L33.8542 5.17415H35.9662L39.9502 16.3102H38.0302L37.2302 14.0382ZM36.7182 12.5501L34.9102 7.38215L33.0862 12.5501H36.7182ZM41.0744 11.8621C41.0744 10.9768 41.2558 10.1928 41.6184 9.51015C41.9918 8.82748 42.4931 8.29948 43.1224 7.92615C43.7624 7.54215 44.4718 7.35015 45.2504 7.35015C45.8264 7.35015 46.3918 7.47815 46.9464 7.73415C47.5118 7.97948 47.9598 8.31015 48.2904 8.72615V4.47015H50.1304V16.3102H48.2904V14.9822C47.9918 15.4088 47.5758 15.7608 47.0424 16.0382C46.5198 16.3155 45.9171 16.4542 45.2344 16.4542C44.4664 16.4542 43.7624 16.2622 43.1224 15.8782C42.4931 15.4835 41.9918 14.9395 41.6184 14.2462C41.2558 13.5422 41.0744 12.7475 41.0744 11.8621ZM48.2904 11.8941C48.2904 11.2861 48.1624 10.7581 47.9064 10.3101C47.6611 9.86215 47.3358 9.52082 46.9304 9.28615C46.5251 9.05148 46.0878 8.93415 45.6184 8.93415C45.1491 8.93415 44.7118 9.05148 44.3064 9.28615C43.9011 9.51015 43.5704 9.84615 43.3144 10.2941C43.0691 10.7315 42.9464 11.2541 42.9464 11.8621C42.9464 12.4701 43.0691 13.0035 43.3144 13.4622C43.5704 13.9208 43.9011 14.2728 44.3064 14.5182C44.7224 14.7528 45.1598 14.8702 45.6184 14.8702C46.0878 14.8702 46.5251 14.7528 46.9304 14.5182C47.3358 14.2835 47.6611 13.9422 47.9064 13.4941C48.1624 13.0355 48.2904 12.5021 48.2904 11.8941ZM51.9182 11.8621C51.9182 10.9768 52.0995 10.1928 52.4622 9.51015C52.8355 8.82748 53.3368 8.29948 53.9662 7.92615C54.6062 7.54215 55.3155 7.35015 56.0942 7.35015C56.6702 7.35015 57.2355 7.47815 57.7902 7.73415C58.3555 7.97948 58.8035 8.31015 59.1342 8.72615V4.47015H60.9742V16.3102H59.1342V14.9822C58.8355 15.4088 58.4195 15.7608 57.8862 16.0382C57.3635 16.3155 56.7608 16.4542 56.0782 16.4542C55.3102 16.4542 54.6062 16.2622 53.9662 15.8782C53.3368 15.4835 52.8355 14.9395 52.4622 14.2462C52.0995 13.5422 51.9182 12.7475 51.9182 11.8621ZM59.1342 11.8941C59.1342 11.2861 59.0062 10.7581 58.7502 10.3101C58.5048 9.86215 58.1795 9.52082 57.7742 9.28615C57.3688 9.05148 56.9315 8.93415 56.4622 8.93415C55.9928 8.93415 55.5555 9.05148 55.1502 9.28615C54.7448 9.51015 54.4142 9.84615 54.1582 10.2941C53.9128 10.7315 53.7902 11.2541 53.7902 11.8621C53.7902 12.4701 53.9128 13.0035 54.1582 13.4622C54.4142 13.9208 54.7448 14.2728 55.1502 14.5182C55.5662 14.7528 56.0035 14.8702 56.4622 14.8702C56.9315 14.8702 57.3688 14.7528 57.7742 14.5182C58.1795 14.2835 58.5048 13.9422 58.7502 13.4941C59.0062 13.0355 59.1342 12.5021 59.1342 11.8941ZM75.3022 8.50215C75.3022 9.06748 75.1688 9.60082 74.9022 10.1021C74.6355 10.6035 74.2088 11.0141 73.6222 11.3341C73.0355 11.6435 72.2835 11.7982 71.3662 11.7982H69.3502V16.3102H67.5262V5.19015H71.3662C72.2195 5.19015 72.9395 5.33948 73.5262 5.63815C74.1235 5.92615 74.5662 6.32082 74.8542 6.82215C75.1528 7.32348 75.3022 7.88348 75.3022 8.50215ZM71.3662 10.3101C72.0595 10.3101 72.5768 10.1555 72.9182 9.84615C73.2595 9.52615 73.4302 9.07815 73.4302 8.50215C73.4302 7.28615 72.7422 6.67815 71.3662 6.67815H69.3502V10.3101H71.3662ZM85.1218 11.6862C85.1218 12.0168 85.1005 12.3155 85.0578 12.5821H78.3218C78.3751 13.2861 78.6365 13.8515 79.1058 14.2782C79.5751 14.7048 80.1511 14.9182 80.8338 14.9182C81.8151 14.9182 82.5085 14.5075 82.9138 13.6862H84.8818C84.6151 14.4968 84.1298 15.1635 83.4258 15.6862C82.7325 16.1982 81.8685 16.4542 80.8338 16.4542C79.9911 16.4542 79.2338 16.2675 78.5618 15.8942C77.9005 15.5102 77.3778 14.9768 76.9938 14.2942C76.6205 13.6008 76.4338 12.8008 76.4338 11.8941C76.4338 10.9875 76.6151 10.1928 76.9778 9.51015C77.3511 8.81682 77.8685 8.28348 78.5298 7.91015C79.2018 7.53682 79.9698 7.35015 80.8338 7.35015C81.6658 7.35015 82.4071 7.53148 83.0578 7.89415C83.7085 8.25682 84.2151 8.76882 84.5778 9.43015C84.9405 10.0808 85.1218 10.8328 85.1218 11.6862ZM83.2178 11.1101C83.2071 10.4381 82.9671 9.89948 82.4978 9.49415C82.0285 9.08882 81.4471 8.88615 80.7538 8.88615C80.1245 8.88615 79.5858 9.08882 79.1378 9.49415C78.6898 9.88882 78.4231 10.4275 78.3378 11.1101H83.2178ZM90.7408 16.4542C89.9088 16.4542 89.1568 16.2675 88.4848 15.8942C87.8128 15.5102 87.2848 14.9768 86.9008 14.2942C86.5168 13.6008 86.3248 12.8008 86.3248 11.8941C86.3248 10.9981 86.5221 10.2035 86.9168 9.51015C87.3115 8.81682 87.8501 8.28348 88.5328 7.91015C89.2155 7.53682 89.9781 7.35015 90.8208 7.35015C91.6635 7.35015 92.4261 7.53682 93.1088 7.91015C93.7915 8.28348 94.3301 8.81682 94.7248 9.51015C95.1195 10.2035 95.3168 10.9981 95.3168 11.8941C95.3168 12.7902 95.1141 13.5848 94.7088 14.2782C94.3035 14.9715 93.7488 15.5102 93.0448 15.8942C92.3515 16.2675 91.5835 16.4542 90.7408 16.4542ZM90.7408 14.8702C91.2101 14.8702 91.6475 14.7582 92.0528 14.5342C92.4688 14.3102 92.8048 13.9742 93.0608 13.5261C93.3168 13.0782 93.4448 12.5341 93.4448 11.8941C93.4448 11.2541 93.3221 10.7155 93.0768 10.2782C92.8315 9.83015 92.5061 9.49415 92.1008 9.27015C91.6955 9.04615 91.2581 8.93415 90.7888 8.93415C90.3195 8.93415 89.8821 9.04615 89.4768 9.27015C89.0821 9.49415 88.7675 9.83015 88.5328 10.2782C88.2981 10.7155 88.1808 11.2541 88.1808 11.8941C88.1808 12.8435 88.4208 13.5795 88.9008 14.1021C89.3915 14.6142 90.0048 14.8702 90.7408 14.8702ZM98.9439 8.79015C99.2533 8.38482 99.6746 8.04348 100.208 7.76615C100.741 7.48882 101.344 7.35015 102.016 7.35015C102.784 7.35015 103.483 7.54215 104.112 7.92615C104.752 8.29948 105.253 8.82748 105.616 9.51015C105.979 10.1928 106.16 10.9768 106.16 11.8621C106.16 12.7475 105.979 13.5422 105.616 14.2462C105.253 14.9395 104.752 15.4835 104.112 15.8782C103.483 16.2622 102.784 16.4542 102.016 16.4542C101.344 16.4542 100.747 16.3208 100.224 16.0542C99.7013 15.7768 99.2746 15.4355 98.9439 15.0302V20.5022H97.1199V7.49415H98.9439V8.79015ZM104.304 11.8621C104.304 11.2541 104.176 10.7315 103.92 10.2941C103.675 9.84615 103.344 9.51015 102.928 9.28615C102.523 9.05148 102.085 8.93415 101.616 8.93415C101.157 8.93415 100.72 9.05148 100.304 9.28615C99.8986 9.52082 99.5679 9.86215 99.3119 10.3101C99.0666 10.7581 98.9439 11.2861 98.9439 11.8941C98.9439 12.5021 99.0666 13.0355 99.3119 13.4941C99.5679 13.9422 99.8986 14.2835 100.304 14.5182C100.72 14.7528 101.157 14.8702 101.616 14.8702C102.085 14.8702 102.523 14.7528 102.928 14.5182C103.344 14.2728 103.675 13.9208 103.92 13.4622C104.176 13.0035 104.304 12.4701 104.304 11.8621ZM109.788 4.47015V16.3102H107.964V4.47015H109.788ZM120.262 11.6862C120.262 12.0168 120.241 12.3155 120.198 12.5821H113.462C113.516 13.2861 113.777 13.8515 114.246 14.2782C114.716 14.7048 115.292 14.9182 115.974 14.9182C116.956 14.9182 117.649 14.5075 118.054 13.6862H120.022C119.756 14.4968 119.27 15.1635 118.566 15.6862C117.873 16.1982 117.009 16.4542 115.974 16.4542C115.132 16.4542 114.374 16.2675 113.702 15.8942C113.041 15.5102 112.518 14.9768 112.134 14.2942C111.761 13.6008 111.574 12.8008 111.574 11.8941C111.574 10.9875 111.756 10.1928 112.118 9.51015C112.492 8.81682 113.009 8.28348 113.67 7.91015C114.342 7.53682 115.11 7.35015 115.974 7.35015C116.806 7.35015 117.548 7.53148 118.198 7.89415C118.849 8.25682 119.356 8.76882 119.718 9.43015C120.081 10.0808 120.262 10.8328 120.262 11.6862ZM118.358 11.1101C118.348 10.4381 118.108 9.89948 117.638 9.49415C117.169 9.08882 116.588 8.88615 115.894 8.88615C115.265 8.88615 114.726 9.08882 114.278 9.49415C113.83 9.88882 113.564 10.4275 113.478 11.1101H118.358Z" fill="#0D2B68"/>
<path d="M13.6512 15.3102H15.1512V11.1602H19.3262V9.66015H15.1512V5.31015H13.6512V9.66015H9.32617V11.1602H13.6512V15.3102ZM14.3262 20.3102C12.9595 20.3102 11.6678 20.0476 10.4512 19.5226C9.23451 18.9977 8.17201 18.281 7.26367 17.3727C6.35534 16.4643 5.63867 15.4018 5.11367 14.1852C4.58867 12.9685 4.32617 11.6685 4.32617 10.2852C4.32617 8.91848 4.58867 7.62682 5.11367 6.41015C5.63867 5.19348 6.35534 4.13515 7.26367 3.23515C8.17201 2.33515 9.23451 1.62265 10.4512 1.09765C11.6678 0.57265 12.9678 0.31015 14.3512 0.31015C15.7178 0.31015 17.0095 0.57265 18.2262 1.09765C19.4428 1.62265 20.5012 2.33515 21.4012 3.23515C22.3012 4.13515 23.0137 5.19348 23.5387 6.41015C24.0637 7.62682 24.3262 8.92682 24.3262 10.3102C24.3262 11.6768 24.0637 12.9685 23.5387 14.1852C23.0137 15.4018 22.3012 16.4643 21.4012 17.3727C20.5012 18.281 19.4428 18.9977 18.2262 19.5226C17.0095 20.0476 15.7095 20.3102 14.3262 20.3102ZM14.3512 18.8102C16.7012 18.8102 18.7012 17.981 20.3512 16.3227C22.0012 14.6643 22.8262 12.6518 22.8262 10.2852C22.8262 7.93515 22.0012 5.93515 20.3512 4.28515C18.7012 2.63515 16.6928 1.81015 14.3262 1.81015C11.9762 1.81015 9.97201 2.63515 8.31367 4.28515C6.65534 5.93515 5.82617 7.94348 5.82617 10.3102C5.82617 12.6602 6.65534 14.6643 8.31367 16.3227C9.97201 17.981 11.9845 18.8102 14.3512 18.8102Z" fill="#0D2B68"/>
</g>
<defs>
<filter id="filter0_d_507_30" x="0" y="0" width="130" height="29" filterUnits="userSpaceOnUse" color-interpolation-filters="sRGB">
<feFlood flood-opacity="0" result="BackgroundImageFix"/>
<feColorMatrix in="SourceAlpha" type="matrix" values="0 0 0 0 0 0 0 0 0 0 0 0 0 0 0 0 0 0 127 0" result="hardAlpha"/>
<feOffset dy="4"/>
<feGaussianBlur stdDeviation="2"/>
<feComposite in2="hardAlpha" operator="out"/>
<feColorMatrix type="matrix" values="0 0 0 0 0 0 0 0 0 0 0 0 0 0 0 0 0 0 0.25 0"/>
<feBlend mode="normal" in2="BackgroundImageFix" result="effect1_dropShadow_507_30"/>
<feBlend mode="normal" in="SourceGraphic" in2="effect1_dropShadow_507_30" result="shape"/>
</filter>
</defs>
</svg>
