<svg width="60" height="20" viewBox="0 0 60 20" fill="none" xmlns="http://www.w3.org/2000/svg">
<path d="M33.2038 13.728H28.5478L27.7478 16H25.8438L29.8278 4.864H31.9398L35.9238 16H34.0038L33.2038 13.728ZM32.6918 12.24L30.8838 7.072L29.0598 12.24H32.6918ZM41.2881 4.88C42.4721 4.88 43.5067 5.10933 44.3921 5.568C45.2881 6.016 45.9761 6.66667 46.4561 7.52C46.9467 8.36267 47.1921 9.34933 47.1921 10.48C47.1921 11.6107 46.9467 12.592 46.4561 13.424C45.9761 14.256 45.2881 14.896 44.3921 15.344C43.5067 15.7813 42.4721 16 41.2881 16H37.6561V4.88H41.2881ZM41.2881 14.512C42.5894 14.512 43.5867 14.16 44.2801 13.456C44.9734 12.752 45.3201 11.76 45.3201 10.48C45.3201 9.18933 44.9734 8.18133 44.2801 7.456C43.5867 6.73067 42.5894 6.368 41.2881 6.368H39.4801V14.512H41.2881ZM52.6318 4.88C53.8158 4.88 54.8505 5.10933 55.7358 5.568C56.6318 6.016 57.3198 6.66667 57.7998 7.52C58.2905 8.36267 58.5358 9.34933 58.5358 10.48C58.5358 11.6107 58.2905 12.592 57.7998 13.424C57.3198 14.256 56.6318 14.896 55.7358 15.344C54.8505 15.7813 53.8158 16 52.6318 16H48.9998V4.88H52.6318ZM52.6318 14.512C53.9331 14.512 54.9305 14.16 55.6238 13.456C56.3171 12.752 56.6638 11.76 56.6638 10.48C56.6638 9.18933 56.3171 8.18133 55.6238 7.456C54.9305 6.73067 53.9331 6.368 52.6318 6.368H50.8238V14.512H52.6318Z" fill="#0D2B68"/>
<path d="M9.6248 15H11.1248V10.85H15.2998V9.35H11.1248V5H9.6248V9.35H5.2998V10.85H9.6248V15ZM10.2998 20C8.93314 20 7.64147 19.7375 6.4248 19.2125C5.20814 18.6875 4.14564 17.9708 3.2373 17.0625C2.32897 16.1542 1.6123 15.0917 1.0873 13.875C0.562305 12.6583 0.299805 11.3583 0.299805 9.975C0.299805 8.60833 0.562305 7.31667 1.0873 6.1C1.6123 4.88333 2.32897 3.825 3.2373 2.925C4.14564 2.025 5.20814 1.3125 6.4248 0.7875C7.64147 0.2625 8.94147 0 10.3248 0C11.6915 0 12.9831 0.2625 14.1998 0.7875C15.4165 1.3125 16.4748 2.025 17.3748 2.925C18.2748 3.825 18.9873 4.88333 19.5123 6.1C20.0373 7.31667 20.2998 8.61667 20.2998 10C20.2998 11.3667 20.0373 12.6583 19.5123 13.875C18.9873 15.0917 18.2748 16.1542 17.3748 17.0625C16.4748 17.9708 15.4165 18.6875 14.1998 19.2125C12.9831 19.7375 11.6831 20 10.2998 20ZM10.3248 18.5C12.6748 18.5 14.6748 17.6708 16.3248 16.0125C17.9748 14.3542 18.7998 12.3417 18.7998 9.975C18.7998 7.625 17.9748 5.625 16.3248 3.975C14.6748 2.325 12.6665 1.5 10.2998 1.5C7.9498 1.5 5.94564 2.325 4.2873 3.975C2.62897 5.625 1.7998 7.63333 1.7998 10C1.7998 12.35 2.62897 14.3542 4.2873 16.0125C5.94564 17.6708 7.95814 18.5 10.3248 18.5Z" fill="#0D2B68"/>
</svg>
