<svg width="122" height="21" viewBox="0 0 122 21" fill="none" xmlns="http://www.w3.org/2000/svg">
<path d="M33.2302 14.0382H28.5742L27.7742 16.3102H25.8702L29.8542 5.17415H31.9662L35.9502 16.3102H34.0302L33.2302 14.0382ZM32.7182 12.5501L30.9102 7.38215L29.0862 12.5501H32.7182ZM37.0744 11.8621C37.0744 10.9768 37.2558 10.1928 37.6184 9.51015C37.9918 8.82748 38.4931 8.29948 39.1224 7.92615C39.7624 7.54215 40.4718 7.35015 41.2504 7.35015C41.8264 7.35015 42.3918 7.47815 42.9464 7.73415C43.5118 7.97948 43.9598 8.31015 44.2904 8.72615V4.47015H46.1304V16.3102H44.2904V14.9822C43.9918 15.4088 43.5758 15.7608 43.0424 16.0382C42.5198 16.3155 41.9171 16.4542 41.2344 16.4542C40.4664 16.4542 39.7624 16.2622 39.1224 15.8782C38.4931 15.4835 37.9918 14.9395 37.6184 14.2462C37.2558 13.5422 37.0744 12.7475 37.0744 11.8621ZM44.2904 11.8941C44.2904 11.2861 44.1624 10.7581 43.9064 10.3101C43.6611 9.86215 43.3358 9.52082 42.9304 9.28615C42.5251 9.05148 42.0878 8.93415 41.6184 8.93415C41.1491 8.93415 40.7118 9.05148 40.3064 9.28615C39.9011 9.51015 39.5704 9.84615 39.3144 10.2941C39.0691 10.7315 38.9464 11.2541 38.9464 11.8621C38.9464 12.4701 39.0691 13.0035 39.3144 13.4622C39.5704 13.9208 39.9011 14.2728 40.3064 14.5182C40.7224 14.7528 41.1598 14.8702 41.6184 14.8702C42.0878 14.8702 42.5251 14.7528 42.9304 14.5182C43.3358 14.2835 43.6611 13.9422 43.9064 13.4941C44.1624 13.0355 44.2904 12.5021 44.2904 11.8941ZM47.9182 11.8621C47.9182 10.9768 48.0995 10.1928 48.4622 9.51015C48.8355 8.82748 49.3368 8.29948 49.9662 7.92615C50.6062 7.54215 51.3155 7.35015 52.0942 7.35015C52.6702 7.35015 53.2355 7.47815 53.7902 7.73415C54.3555 7.97948 54.8035 8.31015 55.1342 8.72615V4.47015H56.9742V16.3102H55.1342V14.9822C54.8355 15.4088 54.4195 15.7608 53.8862 16.0382C53.3635 16.3155 52.7608 16.4542 52.0782 16.4542C51.3102 16.4542 50.6062 16.2622 49.9662 15.8782C49.3368 15.4835 48.8355 14.9395 48.4622 14.2462C48.0995 13.5422 47.9182 12.7475 47.9182 11.8621ZM55.1342 11.8941C55.1342 11.2861 55.0062 10.7581 54.7502 10.3101C54.5048 9.86215 54.1795 9.52082 53.7742 9.28615C53.3688 9.05148 52.9315 8.93415 52.4622 8.93415C51.9928 8.93415 51.5555 9.05148 51.1502 9.28615C50.7448 9.51015 50.4142 9.84615 50.1582 10.2941C49.9128 10.7315 49.7902 11.2541 49.7902 11.8621C49.7902 12.4701 49.9128 13.0035 50.1582 13.4622C50.4142 13.9208 50.7448 14.2728 51.1502 14.5182C51.5662 14.7528 52.0035 14.8702 52.4622 14.8702C52.9315 14.8702 53.3688 14.7528 53.7742 14.5182C54.1795 14.2835 54.5048 13.9422 54.7502 13.4941C55.0062 13.0355 55.1342 12.5021 55.1342 11.8941ZM71.3022 8.50215C71.3022 9.06748 71.1688 9.60082 70.9022 10.1021C70.6355 10.6035 70.2088 11.0141 69.6222 11.3341C69.0355 11.6435 68.2835 11.7982 67.3662 11.7982H65.3502V16.3102H63.5262V5.19015H67.3662C68.2195 5.19015 68.9395 5.33948 69.5262 5.63815C70.1235 5.92615 70.5662 6.32082 70.8542 6.82215C71.1528 7.32348 71.3022 7.88348 71.3022 8.50215ZM67.3662 10.3101C68.0595 10.3101 68.5768 10.1555 68.9182 9.84615C69.2595 9.52615 69.4302 9.07815 69.4302 8.50215C69.4302 7.28615 68.7422 6.67815 67.3662 6.67815H65.3502V10.3101H67.3662ZM81.1218 11.6862C81.1218 12.0168 81.1005 12.3155 81.0578 12.5821H74.3218C74.3751 13.2861 74.6365 13.8515 75.1058 14.2782C75.5751 14.7048 76.1511 14.9182 76.8338 14.9182C77.8151 14.9182 78.5085 14.5075 78.9138 13.6862H80.8818C80.6151 14.4968 80.1298 15.1635 79.4258 15.6862C78.7325 16.1982 77.8685 16.4542 76.8338 16.4542C75.9911 16.4542 75.2338 16.2675 74.5618 15.8942C73.9005 15.5102 73.3778 14.9768 72.9938 14.2942C72.6205 13.6008 72.4338 12.8008 72.4338 11.8941C72.4338 10.9875 72.6151 10.1928 72.9778 9.51015C73.3511 8.81682 73.8685 8.28348 74.5298 7.91015C75.2018 7.53682 75.9698 7.35015 76.8338 7.35015C77.6658 7.35015 78.4071 7.53148 79.0578 7.89415C79.7085 8.25682 80.2151 8.76882 80.5778 9.43015C80.9405 10.0808 81.1218 10.8328 81.1218 11.6862ZM79.2178 11.1101C79.2071 10.4381 78.9671 9.89948 78.4978 9.49415C78.0285 9.08882 77.4471 8.88615 76.7538 8.88615C76.1245 8.88615 75.5858 9.08882 75.1378 9.49415C74.6898 9.88882 74.4231 10.4275 74.3378 11.1101H79.2178ZM86.7408 16.4542C85.9088 16.4542 85.1568 16.2675 84.4848 15.8942C83.8128 15.5102 83.2848 14.9768 82.9008 14.2942C82.5168 13.6008 82.3248 12.8008 82.3248 11.8941C82.3248 10.9981 82.5221 10.2035 82.9168 9.51015C83.3115 8.81682 83.8501 8.28348 84.5328 7.91015C85.2155 7.53682 85.9781 7.35015 86.8208 7.35015C87.6635 7.35015 88.4261 7.53682 89.1088 7.91015C89.7915 8.28348 90.3301 8.81682 90.7248 9.51015C91.1195 10.2035 91.3168 10.9981 91.3168 11.8941C91.3168 12.7902 91.1141 13.5848 90.7088 14.2782C90.3035 14.9715 89.7488 15.5102 89.0448 15.8942C88.3515 16.2675 87.5835 16.4542 86.7408 16.4542ZM86.7408 14.8702C87.2101 14.8702 87.6475 14.7582 88.0528 14.5342C88.4688 14.3102 88.8048 13.9742 89.0608 13.5261C89.3168 13.0782 89.4448 12.5341 89.4448 11.8941C89.4448 11.2541 89.3221 10.7155 89.0768 10.2782C88.8315 9.83015 88.5061 9.49415 88.1008 9.27015C87.6955 9.04615 87.2581 8.93415 86.7888 8.93415C86.3195 8.93415 85.8821 9.04615 85.4768 9.27015C85.0821 9.49415 84.7675 9.83015 84.5328 10.2782C84.2981 10.7155 84.1808 11.2541 84.1808 11.8941C84.1808 12.8435 84.4208 13.5795 84.9008 14.1021C85.3915 14.6142 86.0048 14.8702 86.7408 14.8702ZM94.9439 8.79015C95.2533 8.38482 95.6746 8.04348 96.2079 7.76615C96.7413 7.48882 97.3439 7.35015 98.0159 7.35015C98.7839 7.35015 99.4826 7.54215 100.112 7.92615C100.752 8.29948 101.253 8.82748 101.616 9.51015C101.979 10.1928 102.16 10.9768 102.16 11.8621C102.16 12.7475 101.979 13.5422 101.616 14.2462C101.253 14.9395 100.752 15.4835 100.112 15.8782C99.4826 16.2622 98.7839 16.4542 98.0159 16.4542C97.3439 16.4542 96.7466 16.3208 96.2239 16.0542C95.7013 15.7768 95.2746 15.4355 94.9439 15.0302V20.5022H93.1199V7.49415H94.9439V8.79015ZM100.304 11.8621C100.304 11.2541 100.176 10.7315 99.9199 10.2941C99.6746 9.84615 99.3439 9.51015 98.9279 9.28615C98.5226 9.05148 98.0853 8.93415 97.6159 8.93415C97.1573 8.93415 96.7199 9.05148 96.3039 9.28615C95.8986 9.52082 95.5679 9.86215 95.3119 10.3101C95.0666 10.7581 94.9439 11.2861 94.9439 11.8941C94.9439 12.5021 95.0666 13.0355 95.3119 13.4941C95.5679 13.9422 95.8986 14.2835 96.3039 14.5182C96.7199 14.7528 97.1573 14.8702 97.6159 14.8702C98.0853 14.8702 98.5226 14.7528 98.9279 14.5182C99.3439 14.2728 99.6746 13.9208 99.9199 13.4622C100.176 13.0035 100.304 12.4701 100.304 11.8621ZM105.788 4.47015V16.3102H103.964V4.47015H105.788ZM116.262 11.6862C116.262 12.0168 116.241 12.3155 116.198 12.5821H109.462C109.516 13.2861 109.777 13.8515 110.246 14.2782C110.716 14.7048 111.292 14.9182 111.974 14.9182C112.956 14.9182 113.649 14.5075 114.054 13.6862H116.022C115.756 14.4968 115.27 15.1635 114.566 15.6862C113.873 16.1982 113.009 16.4542 111.974 16.4542C111.132 16.4542 110.374 16.2675 109.702 15.8942C109.041 15.5102 108.518 14.9768 108.134 14.2942C107.761 13.6008 107.574 12.8008 107.574 11.8941C107.574 10.9875 107.756 10.1928 108.118 9.51015C108.492 8.81682 109.009 8.28348 109.67 7.91015C110.342 7.53682 111.11 7.35015 111.974 7.35015C112.806 7.35015 113.548 7.53148 114.198 7.89415C114.849 8.25682 115.356 8.76882 115.718 9.43015C116.081 10.0808 116.262 10.8328 116.262 11.6862ZM114.358 11.1101C114.348 10.4381 114.108 9.89948 113.638 9.49415C113.169 9.08882 112.588 8.88615 111.894 8.88615C111.265 8.88615 110.726 9.08882 110.278 9.49415C109.83 9.88882 109.564 10.4275 109.478 11.1101H114.358Z" fill="#0D2B68"/>
<path d="M9.65117 15.3102H11.1512V11.1602H15.3262V9.66015H11.1512V5.31015H9.65117V9.66015H5.32617V11.1602H9.65117V15.3102ZM10.3262 20.3102C8.95951 20.3102 7.66784 20.0476 6.45117 19.5226C5.23451 18.9977 4.17201 18.281 3.26367 17.3727C2.35534 16.4643 1.63867 15.4018 1.11367 14.1852C0.588672 12.9685 0.326172 11.6685 0.326172 10.2852C0.326172 8.91848 0.588672 7.62682 1.11367 6.41015C1.63867 5.19348 2.35534 4.13515 3.26367 3.23515C4.17201 2.33515 5.23451 1.62265 6.45117 1.09765C7.66784 0.57265 8.96784 0.31015 10.3512 0.31015C11.7178 0.31015 13.0095 0.57265 14.2262 1.09765C15.4428 1.62265 16.5012 2.33515 17.4012 3.23515C18.3012 4.13515 19.0137 5.19348 19.5387 6.41015C20.0637 7.62682 20.3262 8.92682 20.3262 10.3102C20.3262 11.6768 20.0637 12.9685 19.5387 14.1852C19.0137 15.4018 18.3012 16.4643 17.4012 17.3727C16.5012 18.281 15.4428 18.9977 14.2262 19.5226C13.0095 20.0476 11.7095 20.3102 10.3262 20.3102ZM10.3512 18.8102C12.7012 18.8102 14.7012 17.981 16.3512 16.3227C18.0012 14.6643 18.8262 12.6518 18.8262 10.2852C18.8262 7.93515 18.0012 5.93515 16.3512 4.28515C14.7012 2.63515 12.6928 1.81015 10.3262 1.81015C7.97617 1.81015 5.97201 2.63515 4.31367 4.28515C2.65534 5.93515 1.82617 7.94348 1.82617 10.3102C1.82617 12.6602 2.65534 14.6643 4.31367 16.3227C5.97201 17.981 7.9845 18.8102 10.3512 18.8102Z" fill="#0D2B68"/>
</svg>
