<svg width="167" height="21" viewBox="0 0 167 21" fill="none" xmlns="http://www.w3.org/2000/svg">
<path d="M33.704 16L32.904 13.728H28.248L27.448 16H25.544L29.528 4.864H31.64L35.624 16H33.704ZM32.392 12.24L30.584 7.072L28.76 12.24H32.392ZM36.7483 11.552C36.7483 8.832 38.5883 7.04 40.9243 7.04C42.0763 7.04 43.2923 7.584 43.9643 8.416V4.16H45.8043V16H43.9643V14.672C43.4043 15.472 42.3483 16.144 40.9083 16.144C38.5883 16.144 36.7483 14.272 36.7483 11.552ZM43.9643 11.584C43.9643 9.696 42.6683 8.624 41.2923 8.624C39.9323 8.624 38.6203 9.648 38.6203 11.552C38.6203 13.456 39.9323 14.56 41.2923 14.56C42.6683 14.56 43.9643 13.488 43.9643 11.584ZM47.592 11.552C47.592 8.832 49.432 7.04 51.768 7.04C52.92 7.04 54.136 7.584 54.808 8.416V4.16H56.648V16H54.808V14.672C54.248 15.472 53.192 16.144 51.752 16.144C49.432 16.144 47.592 14.272 47.592 11.552ZM54.808 11.584C54.808 9.696 53.512 8.624 52.136 8.624C50.776 8.624 49.464 9.648 49.464 11.552C49.464 13.456 50.776 14.56 52.136 14.56C53.512 14.56 54.808 13.488 54.808 11.584ZM63.2 16V4.88H65.024V16H63.2ZM79.9148 16V11.072C79.9148 9.456 79.0348 8.624 77.7068 8.624C76.3628 8.624 75.4828 9.456 75.4828 11.072V16H73.6748V11.072C73.6748 9.456 72.7948 8.624 71.4668 8.624C70.1228 8.624 69.2428 9.456 69.2428 11.072V16H67.4188V7.184H69.2428V8.192C69.8348 7.472 70.7948 7.04 71.8508 7.04C73.2428 7.04 74.4108 7.632 75.0188 8.784C75.5628 7.712 76.8108 7.04 78.0908 7.04C80.1548 7.04 81.7228 8.336 81.7228 10.8V16H79.9148ZM85.8678 8.48C86.4278 7.744 87.4998 7.04 88.9398 7.04C91.2598 7.04 93.0838 8.832 93.0838 11.552C93.0838 14.272 91.2598 16.144 88.9398 16.144C87.4838 16.144 86.4438 15.408 85.8678 14.72V20.192H84.0438V7.184H85.8678V8.48ZM91.2278 11.552C91.2278 9.648 89.9158 8.624 88.5398 8.624C87.1798 8.624 85.8678 9.696 85.8678 11.584C85.8678 13.488 87.1798 14.56 88.5398 14.56C89.9158 14.56 91.2278 13.456 91.2278 11.552ZM94.8875 16V4.16H96.7115V16H94.8875ZM102.818 8.576C101.586 8.576 100.594 9.408 100.402 10.8H105.282C105.25 9.44 104.178 8.576 102.818 8.576ZM106.946 13.376C106.45 14.912 105.058 16.144 102.898 16.144C100.37 16.144 98.4983 14.352 98.4983 11.584C98.4983 8.816 100.29 7.04 102.898 7.04C105.41 7.04 107.186 8.784 107.186 11.376C107.186 11.68 107.17 11.968 107.122 12.272H100.386C100.514 13.728 101.554 14.608 102.898 14.608C104.018 14.608 104.642 14.064 104.978 13.376H106.946ZM121.477 16V11.072C121.477 9.456 120.597 8.624 119.269 8.624C117.925 8.624 117.045 9.456 117.045 11.072V16H115.237V11.072C115.237 9.456 114.357 8.624 113.029 8.624C111.685 8.624 110.805 9.456 110.805 11.072V16H108.981V7.184H110.805V8.192C111.397 7.472 112.357 7.04 113.413 7.04C114.805 7.04 115.973 7.632 116.581 8.784C117.125 7.712 118.373 7.04 119.653 7.04C121.717 7.04 123.285 8.336 123.285 10.8V16H121.477ZM129.318 8.576C128.086 8.576 127.094 9.408 126.902 10.8H131.782C131.75 9.44 130.678 8.576 129.318 8.576ZM133.446 13.376C132.95 14.912 131.558 16.144 129.398 16.144C126.87 16.144 124.998 14.352 124.998 11.584C124.998 8.816 126.79 7.04 129.398 7.04C131.91 7.04 133.686 8.784 133.686 11.376C133.686 11.68 133.67 11.968 133.622 12.272H126.886C127.014 13.728 128.054 14.608 129.398 14.608C130.518 14.608 131.142 14.064 131.478 13.376H133.446ZM141.737 16V11.072C141.737 9.456 140.857 8.624 139.529 8.624C138.185 8.624 137.305 9.456 137.305 11.072V16H135.481V7.184H137.305V8.192C137.897 7.472 138.873 7.04 139.929 7.04C141.993 7.04 143.545 8.336 143.545 10.8V16H141.737ZM146.16 13.552V8.672H145.12V7.184H146.16V4.992H148V7.184H150.144V8.672H148V13.552C148 14.208 148.256 14.48 149.024 14.48H150.144V16H148.704C147.136 16 146.16 15.344 146.16 13.552ZM155.537 8.576C154.305 8.576 153.313 9.408 153.121 10.8H158.001C157.969 9.44 156.897 8.576 155.537 8.576ZM159.665 13.376C159.169 14.912 157.777 16.144 155.617 16.144C153.089 16.144 151.217 14.352 151.217 11.584C151.217 8.816 153.009 7.04 155.617 7.04C158.129 7.04 159.905 8.784 159.905 11.376C159.905 11.68 159.889 11.968 159.841 12.272H153.105C153.233 13.728 154.273 14.608 155.617 14.608C156.737 14.608 157.361 14.064 157.697 13.376H159.665ZM163.524 11.36V16H161.7V7.184H163.524V8.464C164.036 7.584 164.916 7.04 166.164 7.04V8.928H165.7C164.356 8.928 163.524 9.488 163.524 11.36Z" fill="#0D2B68"/>
<path d="M9.325 15H10.825V10.85H15V9.35H10.825V5H9.325V9.35H5V10.85H9.325V15ZM10 20C8.63333 20 7.34167 19.7375 6.125 19.2125C4.90833 18.6875 3.84583 17.9708 2.9375 17.0625C2.02917 16.1542 1.3125 15.0917 0.7875 13.875C0.2625 12.6583 0 11.3583 0 9.975C0 8.60833 0.2625 7.31667 0.7875 6.1C1.3125 4.88333 2.02917 3.825 2.9375 2.925C3.84583 2.025 4.90833 1.3125 6.125 0.7875C7.34167 0.2625 8.64167 0 10.025 0C11.3917 0 12.6833 0.2625 13.9 0.7875C15.1167 1.3125 16.175 2.025 17.075 2.925C17.975 3.825 18.6875 4.88333 19.2125 6.1C19.7375 7.31667 20 8.61667 20 10C20 11.3667 19.7375 12.6583 19.2125 13.875C18.6875 15.0917 17.975 16.1542 17.075 17.0625C16.175 17.9708 15.1167 18.6875 13.9 19.2125C12.6833 19.7375 11.3833 20 10 20ZM10.025 18.5C12.375 18.5 14.375 17.6708 16.025 16.0125C17.675 14.3542 18.5 12.3417 18.5 9.975C18.5 7.625 17.675 5.625 16.025 3.975C14.375 2.325 12.3667 1.5 10 1.5C7.65 1.5 5.64583 2.325 3.9875 3.975C2.32917 5.625 1.5 7.63333 1.5 10C1.5 12.35 2.32917 14.3542 3.9875 16.0125C5.64583 17.6708 7.65833 18.5 10.025 18.5Z" fill="#0D2B68"/>
</svg>
