<svg width="226" height="109" viewBox="0 0 226 109" fill="none" xmlns="http://www.w3.org/2000/svg">
<path d="M150.971 37.8219C148.746 33.6924 146.941 31.6802 142.869 29.0391L142.848 33.3568C147.214 38.9746 147.613 38.9955 148.767 45.5978C150.299 54.4431 146.983 63.1001 137.684 66.0968C133.466 67.2921 128.89 66.9148 124.693 65.7195C118.102 63.8122 112.834 59.4529 108.929 54.0033C109.014 53.8142 109.076 53.6052 109.16 53.4161C109.685 52.2001 109.958 50.8592 109.958 49.4549C109.958 43.837 105.403 39.3094 99.7992 39.3094C94.1953 39.3094 89.6406 43.8578 89.6406 49.4549C89.6406 51.2781 90.1226 52.9972 90.9625 54.4639C91.8441 56.3504 93.3346 57.9437 95.307 58.9915C96.1886 59.4529 97.1336 59.7669 98.0568 59.9352C105.991 70.9601 117.514 79.8054 129.227 80.0153C134.201 79.9312 136.614 79.7846 141.337 77.1019C147.886 73.3705 151.6 67.3337 153.805 61.0671C156.512 53.3112 154.854 44.9897 150.971 37.8219Z" fill="#019FFE"/>
<path d="M138.643 13.3521C135.035 8.2924 135.623 8.54435 131.093 4.93336C125.389 0.377604 117.063 -0.609135 110.458 0.314614C102.258 1.46927 95.6735 6.52891 91.1012 13.2891C88.4588 17.173 87.2014 20.6161 87.1172 24.7939L90.9545 22.7995C94.0586 16.3542 94.0586 16.2912 99.0917 11.9035C105.865 5.98308 115.449 5.39519 122.39 12.2604C125.389 15.4515 127.171 19.6923 128.031 23.9542C129.373 30.6723 127.947 37.3695 124.907 43.3744C121.907 43.6472 119.308 45.2422 117.693 47.5939C116.455 49.2732 115.721 51.3522 115.721 53.5979C115.721 59.2249 120.272 63.7598 125.871 63.7598C131.47 63.7598 136.021 59.204 136.021 53.5979C136.021 52.2965 135.769 51.0577 135.329 49.9239C141.368 37.8734 143.697 24.2272 138.643 13.3521Z" fill="#03A1FA"/>
<path d="M116.896 18.4649C113.939 18.4649 111.275 19.7257 109.429 21.743C95.8802 22.2893 82.1846 26.9754 75.5564 36.6205C72.4736 42.0421 72.4736 42.7569 71.8444 47.3168C70.8584 54.5663 73.7945 62.2992 77.78 67.6365C82.7505 74.2763 90.5738 77.3867 98.6904 78.1224C103.368 78.5424 106.786 78.185 110.478 76.2311L106.891 73.8355C98.8588 73.772 99.6348 73.9616 93.4266 71.9859C84.869 69.2756 79.8352 60.7861 82.478 51.3933C83.8206 47.2116 86.6517 43.5969 89.9654 40.7813C95.1459 36.3683 101.648 34.3936 108.318 34.1196C110.122 36.957 113.289 38.8274 116.896 38.8274C122.517 38.8274 127.048 34.2675 127.048 28.6562C127.048 23.0458 122.496 18.4649 116.896 18.4649Z" fill="#019FFE"/>
<path d="M16.5712 94.2197V108.897H13.0068V100.094L9.73429 108.897H6.85778L3.56438 100.073V108.897H0V94.2197H4.21055L8.31688 104.38L12.3815 94.2197H16.5712Z" fill="#4D4D4D"/>
<path d="M31.7226 94.2197L26.6443 104.046V108.897H23.0706V104.046L17.9922 94.2197H22.0465L24.8888 100.366L27.7101 94.2197H31.7226Z" fill="#4D4D4D"/>
<path d="M32.5117 101.41C32.5117 99.9565 32.8258 98.6634 33.4538 97.531C34.0819 96.385 34.9542 95.497 36.0707 94.8679C37.2012 94.2252 38.4783 93.9033 39.9019 93.9033C41.6465 93.9033 43.14 94.3647 44.3821 95.2873C45.6246 96.21 46.4547 97.4681 46.8735 99.0618H42.9375C42.6444 98.4464 42.2257 97.9787 41.6814 97.6568C41.1511 97.335 40.544 97.1745 39.86 97.1745C38.7575 97.1745 37.8642 97.5593 37.1803 98.3278C36.4964 99.0964 36.1545 100.123 36.1545 101.41C36.1545 102.696 36.4964 103.724 37.1803 104.492C37.8642 105.261 38.7575 105.646 39.86 105.646C40.544 105.646 41.1511 105.485 41.6814 105.163C42.2257 104.841 42.6444 104.374 42.9375 103.758H46.8735C46.4547 105.352 45.6246 106.61 44.3821 107.533C43.14 108.442 41.6465 108.896 39.9019 108.896C38.4783 108.896 37.2012 108.581 36.0707 107.952C34.9542 107.309 34.0819 106.421 33.4538 105.289C32.8258 104.157 32.5117 102.864 32.5117 101.41Z" fill="#4D4D4D"/>
<path d="M58.1259 106.304H52.6204L51.7379 108.897H47.9766L53.3139 94.2197H57.4745L62.8118 108.897H59.0084L58.1259 106.304ZM57.2013 103.544L55.3731 98.1713L53.566 103.544H57.2013Z" fill="#4D4D4D"/>
<path d="M71.7736 108.738L68.7626 103.198H67.9171V108.738H64.3906V94.0615H70.3093C71.4508 94.0615 72.42 94.2633 73.2172 94.6679C74.0286 95.0724 74.6339 95.6296 75.032 96.3405C75.431 97.0377 75.63 97.8177 75.63 98.6822C75.63 99.6576 75.3556 100.529 74.8051 101.295C74.2689 102.062 73.4718 102.605 72.4129 102.926L75.7538 108.738H71.7736ZM67.9171 100.668H70.1031C70.7496 100.668 71.2311 100.508 71.5467 100.187C71.8767 99.8667 72.0417 99.414 72.0417 98.8286C72.0417 98.2713 71.8767 97.8322 71.5467 97.5113C71.2311 97.1905 70.7496 97.0305 70.1031 97.0305H67.9171V100.668Z" fill="#4D4D4D"/>
<path d="M81.5422 96.9259V99.8948H86.3331V102.654H81.5422V105.874H86.9607V108.738H77.9648V94.0615H86.9607V96.9259H81.5422Z" fill="#4D4D4D"/>
<path d="M99.742 94.0615V96.9259H95.8497V108.738H92.2712V96.9259H88.3789V94.0615H99.742Z" fill="#4D4D4D"/>
<path d="M105.058 96.9259V99.8948H109.849V102.654H105.058V105.874H110.476V108.738H101.48V94.0615H110.476V96.9259H105.058Z" fill="#4D4D4D"/>
<path d="M121.936 106.146H116.489L115.616 108.738H111.895L117.175 94.0615H121.291L126.572 108.738H122.809L121.936 106.146ZM121.021 103.386L119.212 98.0131L117.425 103.386H121.021Z" fill="#4D4D4D"/>
<path d="M144.724 94.0615V108.738H141.159V99.9365L137.887 108.738H135.01L131.717 99.9155V108.738H128.152V94.0615H132.363L136.469 104.222L140.534 94.0615H144.724Z" fill="#4D4D4D"/>
<path d="M148.915 108.896C148.285 108.896 147.767 108.713 147.361 108.345C146.97 107.963 146.773 107.496 146.773 106.945C146.773 106.379 146.97 105.905 147.361 105.523C147.767 105.142 148.285 104.951 148.915 104.951C149.531 104.951 150.034 105.142 150.426 105.523C150.832 105.905 151.035 106.379 151.035 106.945C151.035 107.496 150.832 107.963 150.426 108.345C150.034 108.713 149.531 108.896 148.915 108.896Z" fill="#4D4D4D"/>
<path d="M160.131 108.896C158.756 108.896 157.493 108.576 156.341 107.937C155.203 107.297 154.294 106.407 153.613 105.268C152.946 104.113 152.613 102.82 152.613 101.389C152.613 99.9575 152.946 98.6713 153.613 97.5317C154.294 96.3921 155.203 95.5017 156.341 94.8626C157.493 94.2234 158.756 93.9033 160.131 93.9033C161.505 93.9033 162.762 94.2234 163.9 94.8626C165.052 95.5017 165.955 96.3921 166.607 97.5317C167.273 98.6713 167.606 99.9575 167.606 101.389C167.606 102.82 167.273 104.113 166.607 105.268C165.94 106.407 165.039 107.297 163.9 107.937C162.762 108.576 161.505 108.896 160.131 108.896ZM160.131 105.643C161.297 105.643 162.227 105.254 162.921 104.475C163.629 103.696 163.983 102.668 163.983 101.389C163.983 100.096 163.629 99.0675 162.921 98.3032C162.227 97.5244 161.297 97.1355 160.131 97.1355C158.951 97.1355 158.007 97.5181 157.299 98.2824C156.605 99.0467 156.257 100.082 156.257 101.389C156.257 102.682 156.605 103.717 157.299 104.496C158.007 105.26 158.951 105.643 160.131 105.643Z" fill="#4D4D4D"/>
<path d="M182.599 108.738H179.032L173.067 99.6858V108.738H169.5V94.0615H173.067L179.032 103.156V94.0615H182.599V108.738Z" fill="#4D4D4D"/>
<path d="M188.834 105.979H193.488V108.738H185.281V94.0615H188.834V105.979Z" fill="#4D4D4D"/>
<path d="M198.699 94.0615V108.738H195.227V94.0615H198.699Z" fill="#4D4D4D"/>
<path d="M214.478 108.738H210.911L204.946 99.6858V108.738H201.379V94.0615H204.946L210.911 103.156V94.0615H214.478V108.738Z" fill="#4D4D4D"/>
<path d="M220.581 96.9259V99.8948H225.372V102.654H220.581V105.874H226V108.738H217.004V94.0615H226V96.9259H220.581Z" fill="#4D4D4D"/>
</svg>
