<svg width="17" height="16" viewBox="0 0 17 16" fill="none" xmlns="http://www.w3.org/2000/svg">
<path d="M15.965 2.22492C14.5989 0.858812 12.3702 0.858812 11.004 2.22492L3.63458 9.63033C2.80783 10.4571 2.80783 11.7874 3.63458 12.6141C4.46133 13.4408 5.79162 13.4408 6.61831 12.6141L11.1838 8.01264C11.4715 7.72502 11.4715 7.29374 11.1838 7.00608C10.8962 6.71843 10.4649 6.71846 10.1773 7.00608L5.57587 11.5716C5.32411 11.8234 4.89278 11.8234 4.64127 11.5716C4.38951 11.3199 4.38951 10.8885 4.64127 10.637L12.0107 3.23161C12.8016 2.44074 14.1316 2.44074 14.9225 3.23161C15.7134 4.02248 15.7134 5.35251 14.9225 6.14338L7.55304 13.5488C6.18693 14.9149 3.99407 14.9149 2.66403 13.5488C1.29792 12.1827 1.29792 9.98981 2.66403 8.65978L9.27857 2.04524C9.56619 1.75762 9.56619 1.32634 9.27857 1.03868C8.99095 0.751062 8.55967 0.751062 8.27201 1.03868L1.65747 7.61727C-0.247803 9.52255 -0.247803 12.6499 1.65747 14.5554C3.56275 16.4606 6.69015 16.4606 8.59555 14.5554L15.965 7.18589C17.3311 5.81978 17.3311 3.59103 15.965 2.22492Z" fill="#969CBA"/>
</svg>
