<svg width="26" height="20" viewBox="0 0 26 20" fill="none" xmlns="http://www.w3.org/2000/svg">
<path fill-rule="evenodd" clip-rule="evenodd" d="M22.9111 19.7826H3.085C2.53151 19.7826 2.00068 19.5627 1.6093 19.1714C1.21792 18.78 0.998047 18.2491 0.998047 17.6957V3.08696C0.998047 2.53346 1.21792 2.00264 1.6093 1.61126C2.00068 1.21988 2.53151 1 3.085 1H22.9111C23.4646 1 23.9954 1.21988 24.3868 1.61126C24.7782 2.00264 24.998 2.53346 24.998 3.08696V17.6957C24.998 18.2491 24.7782 18.78 24.3868 19.1714C23.9954 19.5627 23.4646 19.7826 22.9111 19.7826ZM6.73718 2.04348H3.085C2.80826 2.04348 2.54284 2.15342 2.34715 2.34911C2.15146 2.5448 2.04153 2.81021 2.04153 3.08696V4.13043H6.73718V2.04348ZM12.4763 2.04348H7.78066V4.13043H12.4763V2.04348ZM18.2154 2.04348H13.5198V4.13043H18.2154V2.04348ZM23.9546 3.08696C23.9546 2.81021 23.8446 2.5448 23.6489 2.34911C23.4533 2.15342 23.1878 2.04348 22.9111 2.04348H19.2589V4.13043H23.9546V3.08696ZM23.9546 5.17391H2.04153V15.6087H23.9546V5.17391ZM23.9546 16.6522H19.2589V18.7391H18.2154V16.6522H13.5198V18.7391H12.4763V16.6522H7.78066V18.7391H6.73718V16.6522H2.04153V17.6957C2.04153 17.9724 2.15146 18.2378 2.34715 18.4335C2.54284 18.6292 2.80826 18.7391 3.085 18.7391H22.9111C23.1878 18.7391 23.4533 18.6292 23.6489 18.4335C23.8446 18.2378 23.9546 17.9724 23.9546 17.6957V16.6522ZM11.7568 13.3991C11.6662 13.4762 11.5517 13.5195 11.4328 13.5217C11.2945 13.5217 11.1617 13.4668 11.0639 13.3689C10.9661 13.2711 10.9111 13.1384 10.9111 13V7.78261C10.9111 7.64423 10.9661 7.51153 11.0639 7.41368C11.1617 7.31584 11.2945 7.26087 11.4328 7.26087C11.5392 7.26416 11.6419 7.30065 11.7266 7.36522L15.781 9.90713C15.8698 9.9367 15.9488 9.99023 16.0091 10.0618C16.0695 10.1334 16.1088 10.2203 16.1229 10.3128C16.137 10.4054 16.1253 10.5001 16.0889 10.5864C16.0526 10.6727 15.9932 10.7473 15.9172 10.8019L11.7568 13.3991Z" fill="#A2B4DA" stroke="#A2B4DA" stroke-width="0.4"/>
</svg>
