<svg width="28" height="29" viewBox="0 0 28 29" fill="none" xmlns="http://www.w3.org/2000/svg">
<circle cx="14" cy="14.3226" r="14" fill="#E0D8F8"/>
<path d="M9.625 20.156C9.39167 20.156 9.1875 20.0685 9.0125 19.8935C8.8375 19.7185 8.75 19.5143 8.75 19.281V10.2393C8.75 10.006 8.8375 9.8018 9.0125 9.6268C9.1875 9.4518 9.39167 9.3643 9.625 9.3643H10.5729V8.4893H11.5208V9.3643H16.4792V8.4893H17.4271V9.3643H18.375C18.6083 9.3643 18.8125 9.4518 18.9875 9.6268C19.1625 9.8018 19.25 10.006 19.25 10.2393V19.281C19.25 19.5143 19.1625 19.7185 18.9875 19.8935C18.8125 20.0685 18.6083 20.156 18.375 20.156H9.625ZM9.625 19.281H18.375V13.0101H9.625V19.281ZM9.625 12.1351H18.375V10.2393H9.625V12.1351ZM14 15.4893C13.8347 15.4893 13.6962 15.4334 13.5844 15.3216C13.4726 15.2098 13.4167 15.0712 13.4167 14.906C13.4167 14.7407 13.4726 14.6022 13.5844 14.4903C13.6962 14.3785 13.8347 14.3226 14 14.3226C14.1653 14.3226 14.3038 14.3785 14.4156 14.4903C14.5274 14.6022 14.5833 14.7407 14.5833 14.906C14.5833 15.0712 14.5274 15.2098 14.4156 15.3216C14.3038 15.4334 14.1653 15.4893 14 15.4893ZM11.6667 15.4893C11.5014 15.4893 11.3628 15.4334 11.251 15.3216C11.1392 15.2098 11.0833 15.0712 11.0833 14.906C11.0833 14.7407 11.1392 14.6022 11.251 14.4903C11.3628 14.3785 11.5014 14.3226 11.6667 14.3226C11.8319 14.3226 11.9705 14.3785 12.0823 14.4903C12.1941 14.6022 12.25 14.7407 12.25 14.906C12.25 15.0712 12.1941 15.2098 12.0823 15.3216C11.9705 15.4334 11.8319 15.4893 11.6667 15.4893ZM16.3333 15.4893C16.1681 15.4893 16.0295 15.4334 15.9177 15.3216C15.8059 15.2098 15.75 15.0712 15.75 14.906C15.75 14.7407 15.8059 14.6022 15.9177 14.4903C16.0295 14.3785 16.1681 14.3226 16.3333 14.3226C16.4986 14.3226 16.6372 14.3785 16.749 14.4903C16.8608 14.6022 16.9167 14.7407 16.9167 14.906C16.9167 15.0712 16.8608 15.2098 16.749 15.3216C16.6372 15.4334 16.4986 15.4893 16.3333 15.4893ZM14 17.8226C13.8347 17.8226 13.6962 17.7667 13.5844 17.6549C13.4726 17.5431 13.4167 17.4046 13.4167 17.2393C13.4167 17.074 13.4726 16.9355 13.5844 16.8237C13.6962 16.7119 13.8347 16.656 14 16.656C14.1653 16.656 14.3038 16.7119 14.4156 16.8237C14.5274 16.9355 14.5833 17.074 14.5833 17.2393C14.5833 17.4046 14.5274 17.5431 14.4156 17.6549C14.3038 17.7667 14.1653 17.8226 14 17.8226ZM11.6667 17.8226C11.5014 17.8226 11.3628 17.7667 11.251 17.6549C11.1392 17.5431 11.0833 17.4046 11.0833 17.2393C11.0833 17.074 11.1392 16.9355 11.251 16.8237C11.3628 16.7119 11.5014 16.656 11.6667 16.656C11.8319 16.656 11.9705 16.7119 12.0823 16.8237C12.1941 16.9355 12.25 17.074 12.25 17.2393C12.25 17.4046 12.1941 17.5431 12.0823 17.6549C11.9705 17.7667 11.8319 17.8226 11.6667 17.8226ZM16.3333 17.8226C16.1681 17.8226 16.0295 17.7667 15.9177 17.6549C15.8059 17.5431 15.75 17.4046 15.75 17.2393C15.75 17.074 15.8059 16.9355 15.9177 16.8237C16.0295 16.7119 16.1681 16.656 16.3333 16.656C16.4986 16.656 16.6372 16.7119 16.749 16.8237C16.8608 16.9355 16.9167 17.074 16.9167 17.2393C16.9167 17.4046 16.8608 17.5431 16.749 17.6549C16.6372 17.7667 16.4986 17.8226 16.3333 17.8226Z" fill="#09121F"/>
</svg>
