<svg width="28" height="28" viewBox="0 0 28 28" fill="none" xmlns="http://www.w3.org/2000/svg">
<circle cx="14" cy="14" r="14" fill="#FCEEB7"/>
<path d="M9.625 19.8333C9.39167 19.8333 9.1875 19.7458 9.0125 19.5708C8.8375 19.3958 8.75 19.1917 8.75 18.9583V9.91667C8.75 9.68334 8.8375 9.47917 9.0125 9.30417C9.1875 9.12917 9.39167 9.04167 9.625 9.04167H10.5729V8.16667H11.5208V9.04167H16.4792V8.16667H17.4271V9.04167H18.375C18.6083 9.04167 18.8125 9.12917 18.9875 9.30417C19.1625 9.47917 19.25 9.68334 19.25 9.91667V18.9583C19.25 19.1917 19.1625 19.3958 18.9875 19.5708C18.8125 19.7458 18.6083 19.8333 18.375 19.8333H9.625ZM9.625 18.9583H18.375V12.6875H9.625V18.9583ZM9.625 11.8125H18.375V9.91667H9.625V11.8125ZM14 15.1667C13.8347 15.1667 13.6962 15.1108 13.5844 14.999C13.4726 14.8872 13.4167 14.7486 13.4167 14.5833C13.4167 14.4181 13.4726 14.2795 13.5844 14.1677C13.6962 14.0559 13.8347 14 14 14C14.1653 14 14.3038 14.0559 14.4156 14.1677C14.5274 14.2795 14.5833 14.4181 14.5833 14.5833C14.5833 14.7486 14.5274 14.8872 14.4156 14.999C14.3038 15.1108 14.1653 15.1667 14 15.1667ZM11.6667 15.1667C11.5014 15.1667 11.3628 15.1108 11.251 14.999C11.1392 14.8872 11.0833 14.7486 11.0833 14.5833C11.0833 14.4181 11.1392 14.2795 11.251 14.1677C11.3628 14.0559 11.5014 14 11.6667 14C11.8319 14 11.9705 14.0559 12.0823 14.1677C12.1941 14.2795 12.25 14.4181 12.25 14.5833C12.25 14.7486 12.1941 14.8872 12.0823 14.999C11.9705 15.1108 11.8319 15.1667 11.6667 15.1667ZM16.3333 15.1667C16.1681 15.1667 16.0295 15.1108 15.9177 14.999C15.8059 14.8872 15.75 14.7486 15.75 14.5833C15.75 14.4181 15.8059 14.2795 15.9177 14.1677C16.0295 14.0559 16.1681 14 16.3333 14C16.4986 14 16.6372 14.0559 16.749 14.1677C16.8608 14.2795 16.9167 14.4181 16.9167 14.5833C16.9167 14.7486 16.8608 14.8872 16.749 14.999C16.6372 15.1108 16.4986 15.1667 16.3333 15.1667ZM14 17.5C13.8347 17.5 13.6962 17.4441 13.5844 17.3323C13.4726 17.2205 13.4167 17.0819 13.4167 16.9167C13.4167 16.7514 13.4726 16.6129 13.5844 16.501C13.6962 16.3892 13.8347 16.3333 14 16.3333C14.1653 16.3333 14.3038 16.3892 14.4156 16.501C14.5274 16.6129 14.5833 16.7514 14.5833 16.9167C14.5833 17.0819 14.5274 17.2205 14.4156 17.3323C14.3038 17.4441 14.1653 17.5 14 17.5ZM11.6667 17.5C11.5014 17.5 11.3628 17.4441 11.251 17.3323C11.1392 17.2205 11.0833 17.0819 11.0833 16.9167C11.0833 16.7514 11.1392 16.6129 11.251 16.501C11.3628 16.3892 11.5014 16.3333 11.6667 16.3333C11.8319 16.3333 11.9705 16.3892 12.0823 16.501C12.1941 16.6129 12.25 16.7514 12.25 16.9167C12.25 17.0819 12.1941 17.2205 12.0823 17.3323C11.9705 17.4441 11.8319 17.5 11.6667 17.5ZM16.3333 17.5C16.1681 17.5 16.0295 17.4441 15.9177 17.3323C15.8059 17.2205 15.75 17.0819 15.75 16.9167C15.75 16.7514 15.8059 16.6129 15.9177 16.501C16.0295 16.3892 16.1681 16.3333 16.3333 16.3333C16.4986 16.3333 16.6372 16.3892 16.749 16.501C16.8608 16.6129 16.9167 16.7514 16.9167 16.9167C16.9167 17.0819 16.8608 17.2205 16.749 17.3323C16.6372 17.4441 16.4986 17.5 16.3333 17.5Z" fill="#09121F"/>
</svg>
