<svg width="25" height="25" viewBox="0 0 25 25" fill="none" xmlns="http://www.w3.org/2000/svg">
<path d="M5 22.3376C4.6 22.3376 4.25 22.1876 3.95 21.8876C3.65 21.5876 3.5 21.2376 3.5 20.8376V5.33765C3.5 4.93765 3.65 4.58765 3.95 4.28765C4.25 3.98765 4.6 3.83765 5 3.83765H6.625V2.33765H8.25V3.83765H16.75V2.33765H18.375V3.83765H20C20.4 3.83765 20.75 3.98765 21.05 4.28765C21.35 4.58765 21.5 4.93765 21.5 5.33765V20.8376C21.5 21.2376 21.35 21.5876 21.05 21.8876C20.75 22.1876 20.4 22.3376 20 22.3376H5ZM5 20.8376H20V10.0876H5V20.8376ZM5 8.58765H20V5.33765H5V8.58765ZM12.5 14.3376C12.2167 14.3376 11.9792 14.2418 11.7875 14.0501C11.5958 13.8585 11.5 13.621 11.5 13.3376C11.5 13.0543 11.5958 12.8168 11.7875 12.6251C11.9792 12.4335 12.2167 12.3376 12.5 12.3376C12.7833 12.3376 13.0208 12.4335 13.2125 12.6251C13.4042 12.8168 13.5 13.0543 13.5 13.3376C13.5 13.621 13.4042 13.8585 13.2125 14.0501C13.0208 14.2418 12.7833 14.3376 12.5 14.3376ZM8.5 14.3376C8.21667 14.3376 7.97917 14.2418 7.7875 14.0501C7.59583 13.8585 7.5 13.621 7.5 13.3376C7.5 13.0543 7.59583 12.8168 7.7875 12.6251C7.97917 12.4335 8.21667 12.3376 8.5 12.3376C8.78333 12.3376 9.02083 12.4335 9.2125 12.6251C9.40417 12.8168 9.5 13.0543 9.5 13.3376C9.5 13.621 9.40417 13.8585 9.2125 14.0501C9.02083 14.2418 8.78333 14.3376 8.5 14.3376ZM16.5 14.3376C16.2167 14.3376 15.9792 14.2418 15.7875 14.0501C15.5958 13.8585 15.5 13.621 15.5 13.3376C15.5 13.0543 15.5958 12.8168 15.7875 12.6251C15.9792 12.4335 16.2167 12.3376 16.5 12.3376C16.7833 12.3376 17.0208 12.4335 17.2125 12.6251C17.4042 12.8168 17.5 13.0543 17.5 13.3376C17.5 13.621 17.4042 13.8585 17.2125 14.0501C17.0208 14.2418 16.7833 14.3376 16.5 14.3376ZM12.5 18.3376C12.2167 18.3376 11.9792 18.2418 11.7875 18.0501C11.5958 17.8585 11.5 17.621 11.5 17.3376C11.5 17.0543 11.5958 16.8168 11.7875 16.6251C11.9792 16.4335 12.2167 16.3376 12.5 16.3376C12.7833 16.3376 13.0208 16.4335 13.2125 16.6251C13.4042 16.8168 13.5 17.0543 13.5 17.3376C13.5 17.621 13.4042 17.8585 13.2125 18.0501C13.0208 18.2418 12.7833 18.3376 12.5 18.3376ZM8.5 18.3376C8.21667 18.3376 7.97917 18.2418 7.7875 18.0501C7.59583 17.8585 7.5 17.621 7.5 17.3376C7.5 17.0543 7.59583 16.8168 7.7875 16.6251C7.97917 16.4335 8.21667 16.3376 8.5 16.3376C8.78333 16.3376 9.02083 16.4335 9.2125 16.6251C9.40417 16.8168 9.5 17.0543 9.5 17.3376C9.5 17.621 9.40417 17.8585 9.2125 18.0501C9.02083 18.2418 8.78333 18.3376 8.5 18.3376ZM16.5 18.3376C16.2167 18.3376 15.9792 18.2418 15.7875 18.0501C15.5958 17.8585 15.5 17.621 15.5 17.3376C15.5 17.0543 15.5958 16.8168 15.7875 16.6251C15.9792 16.4335 16.2167 16.3376 16.5 16.3376C16.7833 16.3376 17.0208 16.4335 17.2125 16.6251C17.4042 16.8168 17.5 17.0543 17.5 17.3376C17.5 17.621 17.4042 17.8585 17.2125 18.0501C17.0208 18.2418 16.7833 18.3376 16.5 18.3376Z" fill="#CCCCCC"/>
</svg>
