<svg width="18" height="16" viewBox="0 0 18 16" fill="none" xmlns="http://www.w3.org/2000/svg">
<path d="M9 12.7556C10.08 12.7556 10.9875 12.3926 11.7225 11.6667C12.4575 10.9407 12.825 10.037 12.825 8.95556C12.825 7.88889 12.4575 6.9963 11.7225 6.27778C10.9875 5.55926 10.08 5.2 9 5.2C7.905 5.2 6.99375 5.55926 6.26625 6.27778C5.53875 6.9963 5.175 7.88889 5.175 8.95556C5.175 10.037 5.53875 10.9407 6.26625 11.6667C6.99375 12.3926 7.905 12.7556 9 12.7556ZM9 11.4222C8.28 11.4222 7.6875 11.1889 7.2225 10.7222C6.7575 10.2556 6.525 9.66667 6.525 8.95556C6.525 8.25926 6.7575 7.68148 7.2225 7.22222C7.6875 6.76296 8.28 6.53333 9 6.53333C9.705 6.53333 10.2937 6.76296 10.7662 7.22222C11.2387 7.68148 11.475 8.25926 11.475 8.95556C11.475 9.66667 11.2387 10.2556 10.7662 10.7222C10.2937 11.1889 9.705 11.4222 9 11.4222ZM1.35 16C0.99 16 0.675 15.8667 0.405 15.6C0.135 15.3333 0 15.0222 0 14.6667V3.26667C0 2.92593 0.135 2.61852 0.405 2.34444C0.675 2.07037 0.99 1.93333 1.35 1.93333H4.6575L6.3 0H11.7L13.3425 1.93333H16.65C16.995 1.93333 17.3062 2.07037 17.5837 2.34444C17.8612 2.61852 18 2.92593 18 3.26667V14.6667C18 15.0222 17.8612 15.3333 17.5837 15.6C17.3062 15.8667 16.995 16 16.65 16H1.35ZM16.65 14.6667V3.26667H12.7125L11.07 1.33333H6.93L5.2875 3.26667H1.35V14.6667H16.65Z" fill="#FEFFFF"/>
</svg>
