<svg width="12" height="14" viewBox="0 0 12 14" fill="none" xmlns="http://www.w3.org/2000/svg">
<g clip-path="url(#clip0_502_27)">
<path d="M6 13.124C7.59124 13.124 9.11727 12.4919 10.2427 11.3667C11.3679 10.2415 12 8.71543 12 7.12402C12 5.53262 11.3679 4.00675 10.2427 2.88131C9.11744 1.75614 7.5914 1.12402 6 1.12402C4.4086 1.12402 2.88273 1.75614 1.75729 2.88131C0.632113 4.00659 0 5.53262 0 7.12402C0.00177533 8.71481 0.634433 10.2399 1.75925 11.3648C2.88405 12.4896 4.40907 13.1222 6 13.124ZM6 1.96123C7.36923 1.96123 8.6824 2.50522 9.65069 3.47343C10.6189 4.44164 11.1628 5.75481 11.1628 7.12412C11.1628 8.49342 10.6189 9.80652 9.65069 10.7748C8.68247 11.743 7.36931 12.2869 6 12.2869C4.63069 12.2869 3.3176 11.743 2.34931 10.7748C1.3811 9.80659 0.837204 8.49342 0.837204 7.12412C0.838605 5.75534 1.38306 4.44291 2.35089 3.4751C3.31882 2.50727 4.63125 1.96261 6 1.96123Z" fill="#F69220"/>
<path d="M8.3553 9.73761C8.46219 9.83722 8.61318 9.87384 8.75381 9.83441C8.89443 9.79498 9.00432 9.6851 9.04374 9.54448C9.08317 9.40385 9.04654 9.25287 8.94694 9.14597L6.83721 7.03566V4.41857C6.83721 4.26907 6.75741 4.13088 6.62791 4.05613C6.4984 3.98129 6.3388 3.98129 6.2093 4.05613C6.0798 4.13088 6 4.26908 6 4.41857V7.20932C5.99991 7.32033 6.0441 7.42685 6.12278 7.50515L8.3553 9.73761Z" fill="#F69220"/>
</g>
<defs>
<clipPath id="clip0_502_27">
<rect width="12" height="13" fill="white" transform="translate(0 0.5)"/>
</clipPath>
</defs>
</svg>
