<svg width="235" height="116" viewBox="0 0 235 116" fill="none" xmlns="http://www.w3.org/2000/svg">
<g filter="url(#filter0_d_1_6234)">
<rect x="36.2881" y="31" width="162.424" height="44" rx="5" fill="white"/>
<rect x="36.7881" y="31.5" width="161.424" height="43" rx="4.5" stroke="#64B4F5" stroke-dasharray="2 2"/>
</g>
<path d="M80.9978 53.416C80.9978 50.088 83.5418 47.736 86.6778 47.736C88.9978 47.736 90.9978 48.904 91.8458 51.08H89.6538C89.0618 49.896 88.0058 49.336 86.6778 49.336C84.4698 49.336 82.8698 50.904 82.8698 53.416C82.8698 55.928 84.4698 57.512 86.6778 57.512C88.0058 57.512 89.0618 56.952 89.6538 55.768H91.8458C90.9978 57.944 88.9978 59.096 86.6778 59.096C83.5418 59.096 80.9978 56.76 80.9978 53.416ZM95.8048 54.36V59H93.9808V50.184H95.8048V51.464C96.3168 50.584 97.1968 50.04 98.4448 50.04V51.928H97.9808C96.6368 51.928 95.8048 52.488 95.8048 54.36ZM103.833 51.576C102.601 51.576 101.609 52.408 101.417 53.8H106.297C106.265 52.44 105.193 51.576 103.833 51.576ZM107.961 56.376C107.465 57.912 106.073 59.144 103.913 59.144C101.385 59.144 99.5134 57.352 99.5134 54.584C99.5134 51.816 101.305 50.04 103.913 50.04C106.425 50.04 108.201 51.784 108.201 54.376C108.201 54.68 108.185 54.968 108.137 55.272H101.401C101.529 56.728 102.569 57.608 103.913 57.608C105.033 57.608 105.657 57.064 105.993 56.376H107.961ZM109.388 54.552C109.388 51.832 111.228 50.04 113.548 50.04C115.036 50.04 116.06 50.744 116.604 51.464V50.184H118.444V59H116.604V57.688C116.044 58.44 114.988 59.144 113.516 59.144C111.228 59.144 109.388 57.272 109.388 54.552ZM116.604 54.584C116.604 52.696 115.308 51.624 113.932 51.624C112.572 51.624 111.26 52.648 111.26 54.552C111.26 56.456 112.572 57.56 113.932 57.56C115.308 57.56 116.604 56.488 116.604 54.584ZM121.128 56.552V51.672H120.088V50.184H121.128V47.992H122.968V50.184H125.112V51.672H122.968V56.552C122.968 57.208 123.224 57.48 123.992 57.48H125.112V59H123.672C122.104 59 121.128 58.344 121.128 56.552ZM130.505 51.576C129.273 51.576 128.281 52.408 128.089 53.8H132.969C132.937 52.44 131.865 51.576 130.505 51.576ZM134.633 56.376C134.137 57.912 132.745 59.144 130.585 59.144C128.057 59.144 126.185 57.352 126.185 54.584C126.185 51.816 127.977 50.04 130.585 50.04C133.097 50.04 134.873 51.784 134.873 54.376C134.873 54.68 134.857 54.968 134.809 55.272H128.073C128.201 56.728 129.241 57.608 130.585 57.608C131.705 57.608 132.329 57.064 132.665 56.376H134.633ZM145.897 47.736C148.217 47.736 150.217 48.904 151.065 51.08H148.873C148.281 49.96 147.225 49.4 145.897 49.4C143.689 49.4 142.089 50.968 142.089 53.416C142.089 55.864 143.689 57.448 145.897 57.448C147.913 57.448 149.177 56.232 149.449 54.36H145.273V52.904H151.401V54.328C151.065 56.904 148.889 59.096 145.897 59.096C142.761 59.096 140.217 56.76 140.217 53.416C140.217 50.088 142.761 47.736 145.897 47.736ZM161.6 54.584C161.6 57.352 159.552 59.144 157.024 59.144C154.512 59.144 152.608 57.352 152.608 54.584C152.608 51.816 154.592 50.04 157.104 50.04C159.616 50.04 161.6 51.816 161.6 54.584ZM154.464 54.584C154.464 56.584 155.648 57.56 157.024 57.56C158.384 57.56 159.728 56.584 159.728 54.584C159.728 52.584 158.432 51.624 157.072 51.624C155.696 51.624 154.464 52.584 154.464 54.584ZM162.795 54.552C162.795 51.832 164.635 50.04 166.955 50.04C168.443 50.04 169.467 50.744 170.011 51.464V50.184H171.851V59H170.011V57.688C169.451 58.44 168.395 59.144 166.923 59.144C164.635 59.144 162.795 57.272 162.795 54.552ZM170.011 54.584C170.011 52.696 168.715 51.624 167.339 51.624C165.979 51.624 164.667 52.648 164.667 54.552C164.667 56.456 165.979 57.56 167.339 57.56C168.715 57.56 170.011 56.488 170.011 54.584ZM174.246 59V47.16H176.07V59H174.246Z" fill="#019FFE"/>
<path d="M66.8432 56.9706H68.0818V53.7004H71.3716V52.4619H68.0818V49.0342H66.8432V52.4619H63.4352V53.7004H66.8432V56.9706ZM67.4093 61C66.3035 61 65.2657 60.7907 64.2959 60.372C63.3262 59.9533 62.4781 59.3807 61.7515 58.6542C61.025 57.9277 60.4524 57.0793 60.0337 56.109C59.6151 55.1387 59.4058 54.1001 59.4058 52.9932C59.4058 51.8862 59.6151 50.8474 60.0337 49.8767C60.4524 48.906 61.0248 48.0605 61.7508 47.3404C62.4768 46.6203 63.3251 46.0502 64.2956 45.6301C65.2661 45.21 66.305 45 67.4122 45C68.5194 45 69.5586 45.2099 70.5297 45.6298C71.5007 46.0496 72.3462 46.6194 73.0661 47.3391C73.786 48.0588 74.3559 48.9051 74.7758 49.878C75.1958 50.851 75.4058 51.8907 75.4058 52.9971C75.4058 54.1034 75.1957 55.1414 74.7756 56.1111C74.3556 57.0807 73.7855 57.9274 73.0654 58.6512C72.3452 59.3749 71.499 59.9473 70.5266 60.3684C69.5542 60.7895 68.5151 61 67.4093 61ZM67.4132 59.6579C69.259 59.6579 70.8281 59.0094 72.1204 57.7125C73.4127 56.4156 74.0589 54.8422 74.0589 52.9925C74.0589 51.1467 73.414 49.5777 72.1241 48.2854C70.8342 46.993 69.2599 46.3469 67.401 46.3469C65.5603 46.3469 63.9912 46.9918 62.6939 48.2817C61.3966 49.5715 60.7479 51.1459 60.7479 53.0047C60.7479 54.8455 61.3964 56.4146 62.6933 57.7119C63.9902 59.0092 65.5635 59.6579 67.4132 59.6579Z" fill="#019FFE"/>
<defs>
<filter id="filter0_d_1_6234" x="0.288086" y="0" width="234.424" height="116" filterUnits="userSpaceOnUse" color-interpolation-filters="sRGB">
<feFlood flood-opacity="0" result="BackgroundImageFix"/>
<feColorMatrix in="SourceAlpha" type="matrix" values="0 0 0 0 0 0 0 0 0 0 0 0 0 0 0 0 0 0 127 0" result="hardAlpha"/>
<feOffset dy="5"/>
<feGaussianBlur stdDeviation="18"/>
<feComposite in2="hardAlpha" operator="out"/>
<feColorMatrix type="matrix" values="0 0 0 0 0.875 0 0 0 0 0.955357 0 0 0 0 1 0 0 0 0.35 0"/>
<feBlend mode="normal" in2="BackgroundImageFix" result="effect1_dropShadow_1_6234"/>
<feBlend mode="normal" in="SourceGraphic" in2="effect1_dropShadow_1_6234" result="shape"/>
</filter>
</defs>
</svg>
