<svg width="24" height="24" viewBox="0 0 24 24" fill="none" xmlns="http://www.w3.org/2000/svg">
<mask id="path-1-inside-1_337_2328" fill="white">
<path d="M23.3529 10.4388C23.3524 10.4382 23.3518 10.4377 23.3513 10.4371L13.5612 0.6474C13.1439 0.229919 12.5891 -6.10352e-05 11.9989 -6.10352e-05C11.4088 -6.10352e-05 10.854 0.229736 10.4365 0.647217L0.651514 10.432C0.648218 10.4353 0.644922 10.4388 0.641626 10.4421C-0.215307 11.304 -0.213843 12.7023 0.645838 13.562C1.0386 13.955 1.55734 14.1826 2.11196 14.2064C2.13448 14.2086 2.15719 14.2097 2.18008 14.2097H2.57028V21.4143C2.57028 22.84 3.73025 23.9999 5.15627 23.9999H8.98647C9.37466 23.9999 9.6896 23.6852 9.6896 23.2968V17.6484C9.6896 16.9978 10.2188 16.4686 10.8693 16.4686H13.1285C13.7791 16.4686 14.3082 16.9978 14.3082 17.6484V23.2968C14.3082 23.6852 14.623 23.9999 15.0114 23.9999H18.8416C20.2676 23.9999 21.4276 22.84 21.4276 21.4143V14.2097H21.7894C22.3794 14.2097 22.9342 13.9799 23.3518 13.5624C24.2124 12.7012 24.2128 11.3005 23.3529 10.4388Z"/>
</mask>
<path d="M23.3513 10.4371L24.5534 9.23505L24.5533 9.23503L23.3513 10.4371ZM13.5612 0.6474L12.3588 1.84922L12.3591 1.8495L13.5612 0.6474ZM10.4365 0.647217L11.6386 1.84931L11.6386 1.8493L10.4365 0.647217ZM0.651514 10.432L-0.550557 9.22991L-0.550568 9.22993L0.651514 10.432ZM0.641626 10.4421L-0.560469 9.24L-0.563908 9.24346L0.641626 10.4421ZM0.645838 13.562L1.8482 12.3602L1.84792 12.3599L0.645838 13.562ZM2.11196 14.2064L2.27704 12.5144L2.23103 12.5099L2.18486 12.5079L2.11196 14.2064ZM2.57028 14.2097H4.27028V12.5097H2.57028V14.2097ZM21.4276 14.2097V12.5097H19.7276V14.2097H21.4276ZM23.3518 13.5624L24.5536 14.7647L24.5543 14.7641L23.3518 13.5624ZM24.555 9.2367C24.5545 9.23615 24.5539 9.2356 24.5534 9.23505L22.1492 11.6392C22.1497 11.6398 22.1503 11.6403 22.1508 11.6409L24.555 9.2367ZM24.5533 9.23503L14.7632 -0.554704L12.3591 1.8495L22.1492 11.6392L24.5533 9.23503ZM14.7635 -0.554418C14.0276 -1.29069 13.0403 -1.70006 11.9989 -1.70006V1.69994C12.1378 1.69994 12.2602 1.75053 12.3588 1.84922L14.7635 -0.554418ZM11.9989 -1.70006C10.9578 -1.70006 9.97064 -1.2911 9.2344 -0.554865L11.6386 1.8493C11.7373 1.75057 11.8597 1.69994 11.9989 1.69994V-1.70006ZM9.23442 -0.554876L-0.550557 9.22991L1.85358 11.6341L11.6386 1.84931L9.23442 -0.554876ZM-0.550568 9.22993C-0.556816 9.23617 -0.561975 9.24142 -0.565361 9.24487C-0.568538 9.24812 -0.571372 9.25103 -0.571857 9.25153C-0.573021 9.25273 -0.571836 9.25151 -0.570309 9.24995C-0.568572 9.24818 -0.565063 9.2446 -0.560464 9.24L1.84372 11.6442C1.84996 11.6379 1.85512 11.6327 1.85851 11.6292C1.86168 11.626 1.86451 11.623 1.865 11.6226C1.86616 11.6214 1.86497 11.6226 1.86344 11.6241C1.86171 11.6259 1.8582 11.6295 1.8536 11.6341L-0.550568 9.22993ZM-0.563908 9.24346C-2.08106 10.7694 -2.07888 13.2415 -0.556244 14.7641L1.84792 12.3599C1.65119 12.1632 1.65045 11.8385 1.84716 11.6407L-0.563908 9.24346ZM-0.556524 14.7638C0.137834 15.4585 1.05988 15.8628 2.03907 15.9048L2.18486 12.5079C2.0548 12.5023 1.93936 12.4514 1.8482 12.3602L-0.556524 14.7638ZM1.94689 15.8983C2.0249 15.9059 2.1027 15.9097 2.18008 15.9097V12.5097C2.21168 12.5097 2.24407 12.5112 2.27704 12.5144L1.94689 15.8983ZM2.18008 15.9097H2.57028V12.5097H2.18008V15.9097ZM0.870276 14.2097V21.4143H4.27028V14.2097H0.870276ZM0.870276 21.4143C0.870276 23.779 2.79152 25.6999 5.15627 25.6999V22.2999C4.66898 22.2999 4.27028 21.9009 4.27028 21.4143H0.870276ZM5.15627 25.6999H8.98647V22.2999H5.15627V25.6999ZM8.98647 25.6999C10.3133 25.6999 11.3896 24.6244 11.3896 23.2968H7.9896C7.9896 22.746 8.43606 22.2999 8.98647 22.2999V25.6999ZM11.3896 23.2968V17.6484H7.9896V23.2968H11.3896ZM11.3896 17.6484C11.3896 17.9367 11.1577 18.1686 10.8693 18.1686V14.7686C9.27989 14.7686 7.9896 16.0589 7.9896 17.6484H11.3896ZM10.8693 18.1686H13.1285V14.7686H10.8693V18.1686ZM13.1285 18.1686C12.8402 18.1686 12.6082 17.9367 12.6082 17.6484H16.0082C16.0082 16.0589 14.718 14.7686 13.1285 14.7686V18.1686ZM12.6082 17.6484V23.2968H16.0082V17.6484H12.6082ZM12.6082 23.2968C12.6082 24.6241 13.6841 25.6999 15.0114 25.6999V22.2999C15.5619 22.2999 16.0082 22.7463 16.0082 23.2968H12.6082ZM15.0114 25.6999H18.8416V22.2999H15.0114V25.6999ZM18.8416 25.6999C21.2063 25.6999 23.1276 23.779 23.1276 21.4143H19.7276C19.7276 21.9009 19.3289 22.2999 18.8416 22.2999V25.6999ZM23.1276 21.4143V14.2097H19.7276V21.4143H23.1276ZM21.4276 15.9097H21.7894V12.5097H21.4276V15.9097ZM21.7894 15.9097C22.8304 15.9097 23.8174 15.5006 24.5536 14.7647L22.15 12.36C22.0509 12.4591 21.9283 12.5097 21.7894 12.5097V15.9097ZM24.5543 14.7641C26.078 13.2394 26.0786 10.7635 24.5563 9.23798L22.1496 11.6396C22.347 11.8374 22.3468 12.1631 22.1494 12.3607L24.5543 14.7641Z" fill="#A2B4DA" mask="url(#path-1-inside-1_337_2328)"/>
</svg>
