<svg width="23" height="23" viewBox="0 0 23 23" fill="none" xmlns="http://www.w3.org/2000/svg">
<path d="M6.05548 17.0785H16.6999V15.4818H6.05548V17.0785ZM11.2978 13.751L15.5024 9.57308L14.3847 8.45542L12.1228 10.6907V5.39517H10.5261V10.6907L8.26419 8.45542L7.14653 9.57308L11.2978 13.751ZM11.3785 22.5852C9.89777 22.5852 8.50033 22.3025 7.18623 21.7369C5.87213 21.1714 4.72438 20.3979 3.74297 19.4165C2.76156 18.4351 1.98807 17.2876 1.42252 15.9741C0.856986 14.6606 0.574219 13.2634 0.574219 11.7827C0.574219 10.2842 0.856986 8.87785 1.42252 7.56375C1.98807 6.24964 2.76122 5.10621 3.74196 4.13344C4.72271 3.16068 5.87 2.39058 7.18384 1.82313C8.49765 1.25568 9.89513 0.971954 11.3763 0.971954C12.8751 0.971954 14.2819 1.25552 15.5965 1.82265C16.9111 2.38977 18.0546 3.15943 19.027 4.13163C19.9995 5.10383 20.7693 6.24706 21.3366 7.56132C21.9039 8.8756 22.1875 10.2824 22.1875 11.7818C22.1875 13.2631 21.9038 14.6608 21.3363 15.9749C20.7689 17.2889 19.9988 18.4364 19.026 19.4173C18.0532 20.3982 16.9101 21.1714 15.5966 21.7369C14.2831 22.3025 12.8771 22.5852 11.3785 22.5852ZM11.3777 20.7722C13.8799 20.7722 16.0038 19.8963 17.7495 18.1444C19.4953 16.3924 20.3681 14.2716 20.3681 11.7818C20.3681 9.2796 19.4953 7.15564 17.7495 5.40991C16.0038 3.6642 13.8788 2.79134 11.3745 2.79134C8.88789 2.79134 6.76838 3.6642 5.01593 5.40991C3.26346 7.15564 2.38722 9.28066 2.38722 11.785C2.38722 14.2716 3.26318 16.3911 5.0151 18.1435C6.76702 19.896 8.88788 20.7722 11.3777 20.7722Z" fill="#02AF47"/>
</svg>
