<svg width="248" height="185" viewBox="0 0 248 185" fill="none" xmlns="http://www.w3.org/2000/svg">
<path d="M247.11 161.808H0V161.906H247.11V161.808Z" fill="#EBEBEB"/>
<path d="M201.197 165.218H164.724V165.317H201.197V165.218Z" fill="#EBEBEB"/>
<path d="M55.5009 166.008H51.2012V166.107H55.5009V166.008Z" fill="#EBEBEB"/>
<path d="M211.18 169.765H201.691V169.863H211.18V169.765Z" fill="#EBEBEB"/>
<path d="M122.913 168.134H98.8442V168.233H122.913V168.134Z" fill="#EBEBEB"/>
<path d="M94.4457 168.134H82.3867V168.233H94.4457V168.134Z" fill="#EBEBEB"/>
<path d="M42.3055 166.008H25.9468V166.107H42.3055V166.008Z" fill="#EBEBEB"/>
<path d="M117.13 139.765H21.6964C20.1644 139.765 18.8794 138.48 18.8794 136.948V2.81705C18.8794 1.28497 20.1644 0 21.6964 0H117.13C118.662 0 119.947 1.28497 119.947 2.81705V136.948C119.947 138.53 118.712 139.765 117.13 139.765ZM21.6964 0.098844C20.2138 0.098844 18.9782 1.28497 18.9782 2.81705V136.948C18.9782 138.431 20.1644 139.667 21.6964 139.667H117.13C118.613 139.667 119.849 138.48 119.849 136.948V2.81705C119.849 1.33439 118.662 0.098844 117.13 0.098844H21.6964Z" fill="#EBEBEB"/>
<path d="M224.03 139.765H128.596C127.064 139.765 125.779 138.48 125.779 136.948V2.81705C125.779 1.28497 127.064 0 128.596 0H224.03C225.562 0 226.847 1.28497 226.847 2.81705V136.948C226.847 138.53 225.612 139.765 224.03 139.765ZM128.596 0.098844C127.114 0.098844 125.878 1.28497 125.878 2.81705V136.948C125.878 138.431 127.064 139.667 128.596 139.667H224.03C225.513 139.667 226.748 138.48 226.748 136.948V2.81705C226.748 1.33439 225.562 0.098844 224.03 0.098844H128.596Z" fill="#EBEBEB"/>
<path d="M37.5581 108.832L113.668 108.832L113.668 19.6745L37.5581 19.6745L37.5581 108.832Z" fill="#E6E6E6"/>
<path d="M35.8491 108.832L111.959 108.832L111.959 19.6745L35.8491 19.6745L35.8491 108.832Z" fill="#F5F5F5"/>
<path d="M37.5581 111.688L113.668 111.688V108.822L37.5581 108.822V111.688Z" fill="#E6E6E6"/>
<path d="M32.83 111.688L108.94 111.688V108.822L32.83 108.822V111.688Z" fill="#F5F5F5"/>
<path d="M108.937 105.954L108.938 22.4801L38.9065 22.4801L38.9065 105.954L108.937 105.954Z" fill="#FAFAFA"/>
<path d="M102.056 105.961L90.0468 22.487H70.8711L82.8806 105.961H102.056Z" fill="white"/>
<path d="M78.4328 105.961L66.4232 22.487H53.2275L65.2371 105.961H78.4328Z" fill="white"/>
<path d="M40.1704 105.975L40.1704 22.5009H38.8854L38.8854 105.975H40.1704Z" fill="#E6E6E6"/>
<path d="M37.1343 98.121L110.724 98.121V94.3155L37.1343 94.3155V98.121Z" fill="#F5F5F5"/>
<path d="M142.188 161.821H153.95L153.95 44.147H142.188V161.821Z" fill="#E6E6E6"/>
<path d="M144.411 161.808H142.187V155.482H146.783L144.411 161.808Z" fill="#F0F0F0"/>
<path d="M201.178 161.821H212.941L212.941 44.147H201.178V161.821Z" fill="#E6E6E6"/>
<path d="M142.192 158.697H203.179V44.1864L142.192 44.1864V158.697Z" fill="#F0F0F0"/>
<path d="M169.864 150.243H145.993C144.708 150.243 143.67 149.205 143.67 147.92V48.0876C143.67 46.8027 144.708 45.7648 145.993 45.7648H169.864C171.149 45.7648 172.186 46.8027 172.186 48.0876V147.92C172.186 149.205 171.149 150.243 169.864 150.243ZM145.993 46.259C145.004 46.259 144.164 47.0498 144.164 48.0876V147.92C144.164 148.909 144.955 149.749 145.993 149.749H169.864C170.852 149.749 171.692 148.958 171.692 147.92V48.0876C171.692 47.0992 170.901 46.259 169.864 46.259H145.993Z" fill="#E0E0E0"/>
<path d="M199.368 150.243H175.497C174.212 150.243 173.174 149.205 173.174 147.92V48.0876C173.174 46.8027 174.212 45.7648 175.497 45.7648H199.368C200.653 45.7648 201.691 46.8027 201.691 48.0876V147.92C201.691 149.205 200.653 150.243 199.368 150.243ZM175.497 46.259C174.509 46.259 173.669 47.0498 173.669 48.0876V147.92C173.669 148.909 174.459 149.749 175.497 149.749H199.368C200.356 149.749 201.197 148.958 201.197 147.92V48.0876C201.197 47.0992 200.406 46.259 199.368 46.259H175.497Z" fill="#E0E0E0"/>
<path d="M179.698 98.3992C179.698 99.4865 178.809 100.376 177.722 100.376C176.634 100.376 175.745 99.4865 175.745 98.3992C175.745 97.3119 176.634 96.4223 177.722 96.4223C178.809 96.4223 179.698 97.2625 179.698 98.3992Z" fill="#FAFAFA"/>
<path d="M169.616 98.3992C169.616 99.4865 168.727 100.376 167.639 100.376C166.552 100.376 165.663 99.4865 165.663 98.3992C165.663 97.3119 166.552 96.4223 167.639 96.4223C168.727 96.4223 169.616 97.2625 169.616 98.3992Z" fill="#FAFAFA"/>
<path d="M200.949 161.808H203.173V155.482H198.577L200.949 161.808Z" fill="#F0F0F0"/>
<path d="M180.142 27.281H161.461L169.22 24.6122H187.951L180.142 27.281Z" fill="#E6E6E6"/>
<path d="M184.613 44.1533H203.344V27.2509L184.613 27.2509V44.1533Z" fill="#EBEBEB"/>
<path d="M158.305 44.1876H163.297V36.033H158.305V44.1876Z" fill="#EBEBEB"/>
<path d="M158.298 36.0287H152.121V44.1833H158.298V36.0287Z" fill="#F5F5F5"/>
<path d="M184.591 27.2809H203.322L195.513 25.5018H176.832L184.591 27.2809Z" fill="#EBEBEB"/>
<path d="M184.64 27.281H161.461V44.1833H184.64V27.281Z" fill="#F5F5F5"/>
<path d="M87.9219 161.808H103.984L102.057 123.209H87.9219V161.808Z" fill="#F5F5F5"/>
<path d="M37.1655 161.808H98.7948L103.045 121.924H41.4652L37.1655 161.808Z" fill="#E6E6E6"/>
<path d="M35.3862 161.808H97.0155L101.266 121.924H39.6365L35.3862 161.808Z" fill="#F0F0F0"/>
<path d="M94.0994 157.409L98.0038 126.372H42.5523L38.6479 157.409H94.0994Z" fill="#FAFAFA"/>
<path d="M123.555 184.146C176.48 184.146 219.384 181.646 219.384 178.562C219.384 175.477 176.48 172.977 123.555 172.977C70.6298 172.977 27.7256 175.477 27.7256 178.562C27.7256 181.646 70.6298 184.146 123.555 184.146Z" fill="#F5F5F5"/>
<path d="M178.003 53.5071L177.415 65.2542L177.957 65.2814L178.546 53.5343L178.003 53.5071Z" fill="#407BFF"/>
<path d="M177.284 67.7072L177.071 71.952L177.614 71.9792L177.827 67.7344L177.284 67.7072Z" fill="#407BFF"/>
<path d="M165.168 148.464H114.659C111.002 148.464 108.135 145.449 108.333 141.792L113.967 30.098C114.165 26.4408 117.328 23.426 120.985 23.426H171.494C175.151 23.426 178.018 26.4408 177.82 30.098L172.186 141.792C172.038 145.449 168.875 148.464 165.168 148.464Z" fill="#407BFF"/>
<path opacity="0.2" d="M151.577 137.838H136.355C134.082 137.838 132.006 136.948 130.474 135.367C128.942 133.736 128.151 131.611 128.299 129.387L131.018 75.7639C131.265 71.1182 135.218 67.3127 139.914 67.3127H155.136C157.409 67.3127 159.485 68.2023 161.017 69.7838C162.549 71.4148 163.34 73.5399 163.191 75.7639L160.473 129.387C160.226 134.032 156.223 137.838 151.577 137.838ZM139.864 67.807C135.515 67.807 131.759 71.3653 131.512 75.7145L128.794 129.337C128.695 131.463 129.436 133.439 130.82 134.922C132.253 136.405 134.181 137.245 136.306 137.245H151.528C155.877 137.245 159.633 133.687 159.88 129.337L162.598 75.7145C162.697 73.5893 161.956 71.6125 160.572 70.1298C159.139 68.6471 157.211 67.807 155.086 67.807H139.864Z" fill="white"/>
<path opacity="0.1" d="M138.777 82.0899H125.878C122.22 82.0899 119.354 79.0752 119.552 75.418L120.194 62.5188C120.392 58.8616 123.555 55.8468 127.212 55.8468H140.111C143.768 55.8468 146.635 58.8616 146.437 62.5188L145.795 75.418C145.646 79.0752 142.483 82.0899 138.777 82.0899Z" fill="black"/>
<path d="M135.021 78.1362H122.122C118.465 78.1362 115.598 75.1214 115.796 71.4642L116.438 58.5651C116.636 54.9078 119.799 51.8931 123.456 51.8931H136.355C140.013 51.8931 142.879 54.9078 142.681 58.5651L142.039 71.4642C141.891 75.1214 138.728 78.1362 135.021 78.1362Z" fill="white"/>
<path opacity="0.1" d="M156.865 131.907H147.673C145.053 131.907 143.027 129.782 143.126 127.163L143.571 117.97C143.719 115.351 145.943 113.226 148.562 113.226H157.755C160.374 113.226 162.401 115.351 162.302 117.97L161.857 127.163C161.758 129.782 159.485 131.907 156.865 131.907Z" fill="black"/>
<path d="M154.196 129.09H145.004C142.385 129.09 140.358 126.965 140.457 124.346L140.902 115.153C141.05 112.534 143.274 110.409 145.894 110.409H155.086C157.705 110.409 159.732 112.534 159.633 115.153L159.188 124.346C159.089 126.965 156.816 129.09 154.196 129.09Z" fill="white"/>
<path d="M123.604 101.315H116.982C115.104 101.315 113.621 99.783 113.72 97.8555L114.066 91.233C114.165 89.3549 115.796 87.7734 117.674 87.7734H124.296C126.174 87.7734 127.657 89.3055 127.558 91.233L127.212 97.8555C127.163 99.7336 125.532 101.315 123.604 101.315Z" fill="white"/>
<path d="M166.107 101.315H159.485C157.607 101.315 156.124 99.783 156.223 97.8555L156.569 91.233C156.668 89.3549 158.299 87.7734 160.177 87.7734H166.799C168.677 87.7734 170.16 89.3055 170.061 91.233L169.715 97.8555C169.616 99.7336 167.985 101.315 166.107 101.315Z" fill="white"/>
<path d="M144.856 101.315H138.233C136.355 101.315 134.873 99.783 134.971 97.8555L135.317 91.233C135.416 89.3549 137.047 87.7734 138.925 87.7734H145.548C147.426 87.7734 148.908 89.3055 148.81 91.233L148.464 97.8555C148.365 99.7336 146.734 101.315 144.856 101.315Z" fill="white"/>
<path d="M169.517 42.8489H121.034C118.959 42.8489 117.377 41.1685 117.476 39.0928V38.9939C117.575 36.9182 119.354 35.2379 121.38 35.2379H169.863C171.939 35.2379 173.521 36.9182 173.422 38.9939V39.0928C173.323 41.1685 171.544 42.8489 169.517 42.8489Z" fill="white"/>
<path d="M167.343 36.9676L167.936 38.3515L169.468 38.5986L168.282 39.6858L168.48 41.2179L167.145 40.4766L165.712 41.2179L166.058 39.6858L165.02 38.5986L166.552 38.3515L167.343 36.9676Z" fill="#407BFF"/>
<path opacity="0.1" d="M123.802 39.0928C123.752 39.8836 123.11 40.4766 122.319 40.4766C121.528 40.4766 120.935 39.8341 120.985 39.0928C121.034 38.302 121.677 37.709 122.467 37.709C123.258 37.709 123.851 38.302 123.802 39.0928Z" fill="#407BFF"/>
<path opacity="0.1" d="M127.36 39.0928C127.311 39.8836 126.669 40.4766 125.878 40.4766C125.087 40.4766 124.494 39.8341 124.543 39.0928C124.593 38.302 125.235 37.709 126.026 37.709C126.817 37.709 127.41 38.302 127.36 39.0928Z" fill="#407BFF"/>
<path opacity="0.1" d="M130.968 39.0928C130.919 39.8836 130.276 40.4766 129.486 40.4766C128.695 40.4766 128.102 39.8341 128.151 39.0928C128.201 38.302 128.843 37.709 129.634 37.709C130.375 37.709 130.968 38.302 130.968 39.0928Z" fill="#407BFF"/>
<path opacity="0.2" d="M141.446 29.4061L144.263 31.5806L144.51 27.2315L141.446 29.4061Z" fill="white"/>
<path opacity="0.2" d="M150.391 29.4061L147.376 31.5806L147.574 27.2315L150.391 29.4061Z" fill="white"/>
<path opacity="0.2" d="M167.738 59.6523H150.094C149.699 59.6523 149.353 59.5041 149.106 59.2076C148.859 58.911 148.71 58.5651 148.71 58.1697C148.76 57.3789 149.402 56.7365 150.193 56.7365H167.837C168.232 56.7365 168.578 56.8847 168.825 57.1812C169.072 57.4778 169.221 57.8237 169.221 58.2191C169.171 59.0099 168.529 59.6523 167.738 59.6523ZM150.193 57.033C149.551 57.033 149.007 57.5766 148.958 58.2191C148.958 58.5156 149.056 58.8122 149.254 59.0593C149.452 59.257 149.748 59.4052 150.045 59.4052H167.688C168.331 59.4052 168.875 58.8616 168.924 58.2191C168.924 57.9226 168.825 57.626 168.628 57.3789C168.43 57.1812 168.133 57.033 167.837 57.033H150.193Z" fill="white"/>
<path opacity="0.2" d="M167.491 63.6061H149.847C149.452 63.6061 149.106 63.4578 148.859 63.1613C148.612 62.8648 148.463 62.5188 148.463 62.1234C148.513 61.3327 149.155 60.6902 149.946 60.6902H167.59C167.985 60.6902 168.331 60.8385 168.578 61.135C168.825 61.4315 168.974 61.7775 168.974 62.1729C168.974 62.9636 168.282 63.6061 167.491 63.6061ZM149.995 60.9867C149.353 60.9867 148.809 61.5304 148.76 62.1729C148.76 62.4694 148.859 62.7659 149.056 63.013C149.254 63.2107 149.551 63.359 149.847 63.359H167.491C168.133 63.359 168.677 62.8153 168.726 62.1729C168.726 61.8763 168.628 61.5798 168.43 61.3327C168.232 61.135 167.936 60.9867 167.639 60.9867H149.995Z" fill="white"/>
<path opacity="0.2" d="M119.601 130.771C119.206 130.771 118.86 130.622 118.613 130.326C118.366 130.029 118.217 129.683 118.217 129.288L119.107 111.694C119.156 110.903 119.799 110.26 120.59 110.26C120.985 110.26 121.331 110.409 121.578 110.705C121.825 111.002 121.973 111.348 121.973 111.743L121.084 129.387C121.034 130.128 120.392 130.771 119.601 130.771ZM120.59 110.508C119.947 110.508 119.403 111.051 119.354 111.694L118.464 129.337C118.464 129.634 118.563 129.93 118.761 130.178C118.959 130.375 119.255 130.524 119.552 130.524C120.194 130.524 120.738 129.98 120.787 129.337L121.677 111.694C121.677 111.397 121.578 111.101 121.38 110.854C121.183 110.656 120.886 110.508 120.59 110.508Z" fill="white"/>
<path d="M73.3424 75.6157L75.7146 77.6914L71.3655 79.6683C71.3655 79.6683 71.1678 78.6304 71.0195 77.0489C70.9701 76.4064 71.4643 75.8134 72.1068 75.7639L73.3424 75.6157Z" fill="#FFC3BD"/>
<path d="M76.5546 81.8428H72.6997L71.3159 79.6188L75.7145 77.642L76.5546 81.8428Z" fill="#FFC3BD"/>
<path d="M98.6462 44.9246C100.277 47.0003 102.007 49.1749 103.687 51.2012C105.417 53.2769 107.147 55.3526 108.926 57.2307L109.618 57.9226L109.865 58.1697C109.914 58.2191 110.013 58.318 110.112 58.3674C110.458 58.6639 110.903 58.9604 111.446 59.2076C112.484 59.7512 113.67 60.2454 114.906 60.6902C117.328 61.5798 119.947 62.3706 122.566 63.1119L122.171 66.0278C119.305 65.9784 116.488 65.6818 113.67 65.0888C112.237 64.7922 110.804 64.3969 109.371 63.8038C108.629 63.5073 107.888 63.1613 107.097 62.6177C106.9 62.4694 106.702 62.3706 106.504 62.1729L106.208 61.9258L106.01 61.7281L105.219 60.9867C103.094 59.0099 101.167 56.9836 99.2886 54.8584C97.4106 52.7333 95.6808 50.6081 94.0005 48.3347L98.6462 44.9246Z" fill="#FFC3BD"/>
<path d="M127.113 62.7659L128.201 66.8185L124.049 66.6208L124.988 62.0246L127.113 62.7659Z" fill="#FFC3BD"/>
<path d="M121.331 63.2601L124.939 62.074L124 66.6208C124 66.6208 120.787 67.5599 119.65 65.237L121.331 63.2601Z" fill="#FFC3BD"/>
<path d="M77.9382 46.7038C77.1969 49.2737 76.4061 51.8931 75.6154 54.4136L74.4293 58.2685L73.8362 60.196L73.5891 61.135L73.342 61.9752C73.2431 62.3211 73.1937 62.8648 73.1937 63.4578C73.1937 64.0509 73.1937 64.6934 73.1937 65.2865C73.2431 66.5714 73.342 67.8564 73.4902 69.1908C73.7373 71.8102 74.0833 74.5284 74.4293 77.1477L71.6122 77.8891C70.6238 75.2697 69.833 72.6503 69.1411 69.9321C68.7951 68.5977 68.4986 67.2139 68.3009 65.7807C68.2021 65.0394 68.1032 64.3474 68.0538 63.5567C68.0044 62.7659 67.955 61.9752 68.1032 60.9867C68.1527 60.6902 68.1527 60.5914 68.2021 60.3937L68.3009 59.85L68.4986 58.8122C68.6469 58.1203 68.7951 57.4284 68.9434 56.7859C69.2399 55.4515 69.5859 54.1171 69.9319 52.7827C70.6238 50.1139 71.4145 47.544 72.2547 44.9246L77.9382 46.7038Z" fill="#FFC3BD"/>
<path d="M92.3695 29.4061C92.3201 29.7026 92.419 29.9992 92.6166 30.0486C92.8143 30.098 93.012 29.9003 93.1109 29.6038C93.1603 29.3073 93.0614 29.0107 92.8637 28.9613C92.6661 28.8625 92.419 29.0601 92.3695 29.4061Z" fill="#263238"/>
<path d="M92.3695 29.9992C92.3695 29.9992 92.6661 31.976 93.2591 33.0139C92.6166 33.4093 91.7271 32.9151 91.7271 32.9151L92.3695 29.9992Z" fill="#ED847E"/>
<path d="M93.21 27.528C93.2594 27.528 93.3088 27.4786 93.3583 27.4292C93.4077 27.3303 93.4077 27.2315 93.3088 27.1821C93.2594 27.1821 92.5675 26.6879 91.6285 27.0338C91.5296 27.0832 91.4802 27.1821 91.5296 27.2809C91.5791 27.3798 91.6779 27.4292 91.7768 27.3798C92.5181 27.0832 93.1111 27.4786 93.1111 27.4786C93.1111 27.528 93.1606 27.528 93.21 27.528Z" fill="#263238"/>
<path d="M81.7934 30.3451C81.4474 33.9529 81.9416 37.4124 81.1509 40.526C81.1509 40.526 82.0405 43.4419 87.3286 43.4419C93.1604 43.4419 89.9974 40.526 89.9974 40.526C86.785 39.7847 86.785 37.4124 87.2298 35.1884L81.7934 30.3451Z" fill="#FFC3BD"/>
<path d="M80.014 41.5145C79.5692 40.5755 79.2727 39.2905 80.2117 38.994C81.2496 38.648 86.7848 38.4997 88.7617 39.1916C90.788 39.8836 90.2938 41.7122 90.2938 41.7122L80.014 41.5145Z" fill="#407BFF"/>
<path d="M69.4379 171.84C69.0425 171.741 68.6471 171.593 68.4 171.445C68.3506 171.445 68.3506 171.396 68.3506 171.346C68.3506 171.297 68.4 171.247 68.4 171.247C68.5977 171.198 70.1298 170.704 70.5252 171.05C70.5746 171.099 70.6734 171.198 70.624 171.346C70.5746 171.593 70.4757 171.741 70.278 171.84C70.0309 171.939 69.7344 171.939 69.4379 171.84ZM68.6965 171.396C69.3884 171.692 69.9321 171.791 70.1792 171.692C70.278 171.643 70.3769 171.544 70.3769 171.346C70.3769 171.247 70.3769 171.247 70.3275 171.198C70.1298 171 69.2896 171.198 68.6965 171.396Z" fill="#407BFF"/>
<path d="M68.4 171.445C68.4 171.445 68.3505 171.445 68.3505 171.396C68.3011 171.346 68.3011 171.346 68.3505 171.297C68.3505 171.247 68.7459 170.061 69.339 169.814C69.4872 169.765 69.6355 169.715 69.7838 169.765C70.0309 169.863 70.0309 170.012 70.0309 170.111C70.0309 170.605 68.9436 171.297 68.4988 171.445C68.4 171.445 68.4 171.445 68.4 171.445ZM69.6355 169.962C69.5367 169.962 69.4872 169.962 69.3884 170.012C69.0424 170.209 68.7459 170.852 68.5977 171.198C69.0919 170.951 69.7838 170.407 69.7838 170.111C69.7838 170.111 69.7838 170.061 69.6355 169.962Z" fill="#407BFF"/>
<path d="M96.4221 174.855C96.0267 174.855 95.5819 174.756 95.2854 174.707C95.2359 174.707 95.2359 174.657 95.1865 174.608C95.1865 174.559 95.1865 174.509 95.2359 174.509C95.3842 174.41 96.768 173.57 97.2128 173.817C97.2622 173.867 97.3611 173.916 97.4105 174.114C97.4105 174.361 97.3611 174.509 97.2128 174.657C97.0646 174.806 96.7186 174.855 96.4221 174.855ZM95.5819 174.559C96.3232 174.707 96.8669 174.657 97.114 174.46C97.2128 174.361 97.2622 174.262 97.2622 174.114C97.2622 174.015 97.2128 174.015 97.2128 174.015C96.9163 173.916 96.1255 174.262 95.5819 174.559Z" fill="#407BFF"/>
<path d="M95.3352 174.707H95.2858C95.2363 174.707 95.2363 174.657 95.2363 174.608C95.2363 174.558 95.3352 173.323 95.8294 172.928C95.9777 172.829 96.1259 172.779 96.2742 172.779C96.5213 172.829 96.5707 172.977 96.5707 173.026C96.6696 173.521 95.8294 174.46 95.3352 174.707ZM96.1754 172.977C96.0765 172.977 96.0271 173.026 95.9282 173.076C95.6317 173.323 95.4834 174.064 95.434 174.41C95.8788 174.064 96.4225 173.372 96.373 173.076C96.373 173.076 96.373 173.026 96.1754 172.977Z" fill="#407BFF"/>
<path d="M90.7388 174.559H94.6431L94.6925 165.514H90.7882L90.7388 174.559Z" fill="#FFC3BD"/>
<path d="M63.5566 171.247L67.3127 171.939L69.9815 163.043L66.2254 162.351L63.5566 171.247Z" fill="#FFC3BD"/>
<path d="M68.0046 170.901L63.7543 169.913C63.606 169.863 63.4578 169.962 63.3589 170.111L61.9257 173.323C61.7774 173.669 61.9751 174.064 62.3705 174.114C63.8531 174.46 64.5945 174.509 66.4725 174.954C67.6092 175.25 69.9815 175.893 71.563 176.288C73.1445 176.634 73.6881 175.102 73.0456 174.806C70.2286 173.471 69.339 172.335 68.5482 171.247C68.4494 171.099 68.2517 170.951 68.0046 170.901Z" fill="#263238"/>
<path d="M94.5936 174.114H90.3433C90.1951 174.114 90.0468 174.213 89.9974 174.361L89.3549 177.82C89.3055 178.166 89.5526 178.512 89.948 178.512C91.48 178.463 93.704 178.413 95.6315 178.413C97.9049 178.413 98.6957 178.512 101.364 178.512C102.946 178.512 103.341 176.881 102.649 176.733C99.5853 176.041 98.2509 175.992 95.5326 174.361C95.2361 174.262 94.9396 174.114 94.5936 174.114Z" fill="#263238"/>
<path d="M73.9847 41.9593C70.1792 45.5671 69.0425 53.7217 69.0425 53.7217L75.9121 57.0824C75.9121 57.0824 77.9879 52.8815 79.3223 48.2853C80.6567 43.5408 76.7029 39.3399 73.9847 41.9593Z" fill="#264A99"/>
<path opacity="0.2" d="M77.3947 47.3463L73.8857 56.094L75.912 57.0824C75.912 57.0824 77.0487 54.809 78.1855 51.7942L77.3947 47.3463Z" fill="black"/>
<path d="M98.0533 58.8616C98.0038 63.2108 97.7567 68.6472 97.1142 75.3686H76.2582C76.011 72.3044 77.296 57.8732 74.1824 43.3925C73.9353 42.3052 74.6767 41.2674 75.7639 41.1191C77.0983 40.9214 78.9269 40.6743 80.7061 40.5755C83.3749 40.4272 87.2298 40.3778 89.5527 40.5755C92.6663 40.872 95.5822 41.6628 95.5822 41.6628C95.5822 41.6628 97.3614 43.5902 97.905 52.6839C98.0038 54.4136 98.0533 56.4894 98.0533 58.8616Z" fill="#264A99"/>
<path d="M78.2349 40.4272L77.3453 40.526C77.197 40.526 77.0981 40.6743 77.0981 40.8226C77.3947 42.7006 79.7669 53.7711 97.3612 69.9816C97.5094 70.1298 97.806 70.031 97.806 69.7839L97.8554 68.746C97.8554 68.6472 97.806 68.5977 97.7565 68.5483C80.0635 52.3873 78.6302 42.5029 78.5314 40.7237C78.5314 40.526 78.3831 40.4272 78.2349 40.4272Z" fill="#407BFF"/>
<path d="M89.5034 61.6786L97.5098 69.3885L96.5708 69.9815C95.3352 70.7723 93.8031 70.7723 92.5182 70.0804L90.393 68.8943C88.7621 67.9552 87.9713 65.9784 88.6138 64.1992L89.5034 61.6786Z" fill="#407BFF"/>
<path d="M92.1721 68.5977C92.2215 68.746 92.5674 68.746 92.9134 68.5483C93.2594 68.3506 93.457 68.1035 93.4076 67.9058C93.3582 67.7081 93.0122 67.7576 92.6663 67.9553C92.3203 68.1529 92.1226 68.4001 92.1721 68.5977Z" fill="#263238"/>
<path opacity="0.2" d="M98.053 58.8616C96.768 56.5388 94.4946 51.9425 94.8406 49.2737L97.9047 52.585C98.0036 54.4136 98.053 56.4894 98.053 58.8616Z" fill="black"/>
<path d="M91.4801 45.1717C91.1341 48.8784 99.5853 57.8237 99.5853 57.8237L106.356 52.3379C106.356 52.3379 103.588 47.544 100.03 44.0844C96.0763 40.2789 91.826 40.9708 91.4801 45.1717Z" fill="#264A99"/>
<g opacity="0.2">
<path d="M94.6925 165.564L94.6431 170.555H90.7388L90.7882 165.564H94.6925Z" fill="black"/>
<path d="M66.2256 162.351L69.9817 163.043L68.5979 167.59L64.8418 166.948L66.2256 162.351Z" fill="black"/>
</g>
<path d="M82.337 26.1442C81.7439 29.9992 81.2497 32.1737 82.7324 34.5954C84.9564 38.2526 89.948 37.6596 91.6283 34.1012C93.1604 30.8887 93.8523 25.1558 90.4916 22.7341C87.1804 20.4113 82.9301 22.3387 82.337 26.1442Z" fill="#FFC3BD"/>
<path d="M89.2564 29.7026C89.207 30.7899 86.4394 34.3483 84.0177 34.7931C81.4478 35.2873 80.7558 34.546 80.3605 31.037C79.8663 26.9844 78.5319 26.9844 77.9388 24.4145C77.1975 21.1526 80.4099 18.1873 84.166 19.9665C87.4278 21.548 90.4426 18.4838 92.716 17.5448C94.9894 16.6552 95.3353 19.2251 93.8033 21.0043C92.3206 22.7341 94.6929 21.6962 95.3848 22.4376C96.6203 23.772 94.594 26.7373 89.553 27.9234C90.4426 28.8624 89.2564 29.7026 89.2564 29.7026Z" fill="#263238"/>
<path d="M88.0698 28.5165C88.0698 29.5544 88.4652 30.5428 89.0088 31.2347C89.7996 32.2726 90.6892 31.7784 90.9363 30.6416C91.134 29.6038 90.9857 27.874 89.9479 27.2315C88.9594 26.6385 88.0698 27.3798 88.0698 28.5165Z" fill="#FFC3BD"/>
<path d="M89.7011 75.3685C89.7011 75.3685 86.4393 105.17 84.413 116.339C82.2384 128.547 70.8713 166.948 70.8713 166.948L63.9028 165.465C63.9028 165.465 71.7115 129.535 72.7494 117.427C73.8861 104.28 76.2089 75.3191 76.2089 75.3191H89.7011V75.3685Z" fill="#407BFF"/>
<path opacity="0.15" d="M89.7011 75.3685C89.7011 75.3685 86.4393 105.17 84.413 116.339C82.2384 128.547 70.8713 166.948 70.8713 166.948L63.9028 165.465C63.9028 165.465 71.7115 129.535 72.7494 117.427C73.8861 104.28 76.2089 75.3191 76.2089 75.3191H89.7011V75.3685Z" fill="white"/>
<path d="M72.4529 164.575C72.5023 164.575 71.2668 167.145 71.2668 167.145L63.4087 165.465L63.9523 163.093L72.4529 164.575Z" fill="#263238"/>
<path opacity="0.2" d="M87.3287 85.9449C82.2383 86.9333 83.5232 106.06 84.5117 115.845C85.6978 108.926 87.3781 95.5327 88.4654 86.0931C88.1195 85.9449 87.7241 85.8954 87.3287 85.9449Z" fill="black"/>
<path d="M97.1143 75.3686C97.1143 75.3686 98.7947 104.528 98.7947 116.438C98.8441 128.794 96.0765 169.32 96.0765 169.32H89.4539C89.4539 169.32 87.6747 129.535 86.9334 117.377C86.0932 104.132 83.375 75.3686 83.375 75.3686H97.1143Z" fill="#407BFF"/>
<path opacity="0.15" d="M97.1143 75.3686C97.1143 75.3686 98.7947 104.528 98.7947 116.438C98.8441 128.794 96.0765 169.32 96.0765 169.32H89.4539C89.4539 169.32 87.6747 129.535 86.9334 117.377C86.0932 104.132 83.375 75.3686 83.375 75.3686H97.1143Z" fill="white"/>
<path d="M97.2625 166.651C97.3119 166.651 97.0154 169.419 97.0154 169.419H88.9596L88.6631 166.948L97.2625 166.651Z" fill="#263238"/>
</svg>
