<svg width="31" height="32" viewBox="0 0 31 32" fill="none" xmlns="http://www.w3.org/2000/svg">
<g clip-path="url(#clip0_1_1341)">
<path d="M31 16C31 7.16344 24.0604 0 15.5 0C6.93958 0 0 7.16344 0 16C0 23.9861 5.66813 30.6053 13.0781 31.8056V20.625H9.14258V16H13.0781V12.475C13.0781 8.465 15.3922 6.25 18.9327 6.25C20.6285 6.25 22.4023 6.5625 22.4023 6.5625V10.5H20.4478C18.5223 10.5 17.9219 11.7333 17.9219 12.9987V16H22.2207L21.5335 20.625H17.9219V31.8056C25.3319 30.6053 31 23.9861 31 16Z" fill="#1877F2"/>
<path d="M21.5335 20.625L22.2207 16H17.9219V12.9987C17.9219 11.7333 18.5223 10.5 20.4478 10.5H22.4023V6.5625C22.4023 6.5625 20.6285 6.25 18.9327 6.25C15.3922 6.25 13.0781 8.465 13.0781 12.475V16H9.14258V20.625H13.0781V31.8056C13.8673 31.9334 14.6761 32 15.5 32C16.3239 32 17.1327 31.9334 17.9219 31.8056V20.625H21.5335Z" fill="white"/>
</g>
<defs>
<clipPath id="clip0_1_1341">
<rect width="31" height="32" fill="white"/>
</clipPath>
</defs>
</svg>
