<svg width="257" height="192" viewBox="0 0 257 192" fill="none" xmlns="http://www.w3.org/2000/svg">
<path d="M257 168.532H0V168.634H257V168.532Z" fill="#EBEBEB"/>
<path d="M162.27 172.078H149.163V172.181H162.27V172.078Z" fill="#EBEBEB"/>
<path d="M234.076 174.854H203.082V174.957H234.076V174.854Z" fill="#EBEBEB"/>
<path d="M146.387 172.13H114.365V172.232H146.387V172.13Z" fill="#EBEBEB"/>
<path d="M93.5482 175.985H86.8662V176.087H93.5482V175.985Z" fill="#EBEBEB"/>
<path d="M130.608 175.985H100.076V176.087H130.608V175.985Z" fill="#EBEBEB"/>
<path d="M46.7744 173.774H26.9854V173.877H46.7744V173.774Z" fill="#EBEBEB"/>
<path d="M121.818 145.607H22.5646C20.9712 145.607 19.6348 144.271 19.6348 142.677V3.17779C19.6348 1.58439 20.9712 0.247986 22.5646 0.247986H121.818C123.411 0.247986 124.748 1.58439 124.748 3.17779V142.677C124.748 144.322 123.463 145.607 121.818 145.607ZM22.5646 0.350786C21.0226 0.350786 19.7376 1.58439 19.7376 3.17779V142.677C19.7376 144.219 20.9712 145.504 22.5646 145.504H121.818C123.36 145.504 124.645 144.271 124.645 142.677V3.17779C124.645 1.63579 123.411 0.350786 121.818 0.350786H22.5646Z" fill="#EBEBEB"/>
<path d="M232.996 145.607H133.743C132.149 145.607 130.813 144.271 130.813 142.677V3.17779C130.813 1.58439 132.149 0.247986 133.743 0.247986H232.996C234.59 0.247986 235.926 1.58439 235.926 3.17779V142.677C235.926 144.322 234.641 145.607 232.996 145.607ZM133.743 0.350786C132.201 0.350786 130.916 1.58439 130.916 3.17779V142.677C130.916 144.219 132.149 145.504 133.743 145.504H232.996C234.538 145.504 235.823 144.271 235.823 142.677V3.17779C235.823 1.63579 234.59 0.350786 232.996 0.350786H133.743Z" fill="#EBEBEB"/>
<path d="M100.745 123.968H66.6152L64.5078 100.067H98.6374L100.745 123.968Z" fill="#E6E6E6"/>
<path d="M102.492 123.968H68.3626L66.3066 100.067H100.436L102.492 123.968Z" fill="#F0F0F0"/>
<path d="M73.04 118.828L71.9092 105.207H95.7588L96.8896 118.828H73.04Z" fill="white"/>
<path d="M108.403 123.968H104.394V168.532H108.403V123.968Z" fill="#E6E6E6"/>
<path d="M109.637 123.968H106.861V168.532H109.637V123.968Z" fill="#F0F0F0"/>
<path d="M70.926 128.903H109.682V123.968H70.926V128.903Z" fill="#F0F0F0"/>
<path d="M72.269 128.902H68.2598V168.583H72.269V128.902Z" fill="#E6E6E6"/>
<path d="M73.5539 128.902H70.7783V168.583H73.5539V128.902Z" fill="#F0F0F0"/>
<path d="M43.7934 128.902H39.7842V168.583H43.7934V128.902Z" fill="#E6E6E6"/>
<path d="M45.0276 128.902H42.252V168.583H45.0276V128.902Z" fill="#F0F0F0"/>
<path d="M83.0629 128.902H79.0537V168.583H83.0629V128.902Z" fill="#E6E6E6"/>
<path d="M84.2971 128.902H81.5215V168.583H84.2971V128.902Z" fill="#F0F0F0"/>
<path d="M70.9326 123.968H39.7842V128.902H70.9326V123.968Z" fill="#E6E6E6"/>
<path d="M186.994 12.841H66.5635V79.918H186.994V12.841Z" fill="#E0E0E0"/>
<path d="M193.624 12.841H67.1797V79.918H193.624V12.841Z" fill="#F5F5F5"/>
<path d="M191.562 77.8054V14.8918L69.23 14.8918L69.23 77.8054L191.562 77.8054Z" fill="white"/>
<path d="M118.786 77.8106L141.865 14.897H103.726L80.6475 77.8106H118.786Z" fill="#F5F5F5"/>
<path d="M155.434 77.8106L178.564 14.897H149.78L126.701 77.8106H155.434Z" fill="#F5F5F5"/>
<path d="M225.184 104.539H214.955V168.583H225.184V104.539Z" fill="#E6E6E6"/>
<path d="M222.511 168.532H225.184V163.649H219.684L222.511 168.532Z" fill="#FAFAFA"/>
<path d="M130.762 104.539H120.533V168.583H130.762V104.539Z" fill="#E6E6E6"/>
<path d="M225.184 104.539H128.449V167.247H225.184V104.539Z" fill="#FAFAFA"/>
<path d="M223.333 124.739H130.248V107.006H223.333V124.739ZM130.762 124.225H222.819V107.52H130.762V124.225Z" fill="#E6E6E6"/>
<path d="M206.988 115.641H148.443C145.719 115.641 143.098 113.431 141.247 109.627L141.093 109.267H214.338L214.184 109.627C212.282 113.431 209.712 115.641 206.988 115.641ZM141.916 109.781C143.663 113.174 146.028 115.127 148.443 115.127H206.937C209.352 115.127 211.717 113.174 213.464 109.781H141.916Z" fill="#E6E6E6"/>
<path d="M131.122 168.532H128.449V163.649H133.949L131.122 168.532Z" fill="#FAFAFA"/>
<path d="M223.333 144.733H130.248V127H223.333V144.733ZM130.762 144.219H222.819V127.514H130.762V144.219Z" fill="#E6E6E6"/>
<path d="M206.988 135.636H148.443C145.719 135.636 143.098 133.425 141.247 129.622L141.093 129.262H214.338L214.184 129.622C212.282 133.425 209.712 135.636 206.988 135.636ZM141.916 129.725C143.663 133.117 146.028 135.07 148.443 135.07H206.937C209.352 135.07 211.717 133.117 213.464 129.725H141.916Z" fill="#E6E6E6"/>
<path d="M223.333 164.677H130.248V146.944H223.333V164.677ZM130.762 164.163H222.819V147.458H130.762V164.163Z" fill="#E6E6E6"/>
<path d="M206.988 155.579H148.443C145.719 155.579 143.098 153.369 141.247 149.565L141.093 149.205H214.338L214.184 149.565C212.282 153.42 209.712 155.579 206.988 155.579ZM141.916 149.719C143.663 153.112 146.028 155.065 148.443 155.065H206.937C209.352 155.065 211.717 153.112 213.464 149.719H141.916Z" fill="#E6E6E6"/>
<path d="M62.1946 112.968V114.202H61.3722L60.7554 123.968H51.0408L50.3726 114.202H49.6016V112.968H62.1946Z" fill="#E6E6E6"/>
<path d="M59.0075 88.8102C58.2365 83.002 50.3723 81.3572 40.4521 81.1516C30.9945 80.946 27.9619 77.605 27.9619 77.605C27.9619 77.605 28.0133 91.1746 41.6343 96.0576C54.5357 100.684 59.7785 94.6184 59.0075 88.8102Z" fill="#E6E6E6"/>
<path d="M54.1764 101.969C54.3306 99.6042 58.1342 95.1838 67.3348 97.1884C73.9654 98.6276 76.4326 95.1838 76.4326 95.1838C76.4326 95.1838 75.8158 104.898 65.8442 107.828C56.3352 110.552 53.868 106.132 54.1764 101.969Z" fill="#E6E6E6"/>
<path d="M56.2837 116.669C56.3865 116.669 56.4893 116.618 56.5407 116.566C57.2089 115.795 56.6435 113.893 55.9239 111.272C54.9473 107.931 53.7651 103.768 54.7931 100.735C55.3585 99.0387 56.0781 97.5481 56.7463 96.0575C58.1855 93.0249 59.4191 90.4035 58.3911 87.6279C58.3397 87.4223 58.1341 87.3709 57.9285 87.4223C57.7229 87.4737 57.6715 87.6793 57.7229 87.8849C58.6481 90.3521 57.5173 92.7165 56.0781 95.7491C55.4099 97.1369 54.6389 98.7303 54.0735 100.478C52.9941 103.716 54.2277 107.982 55.2043 111.426C55.7697 113.431 56.3865 115.538 55.9753 116.052C55.8725 116.206 55.8725 116.412 56.0267 116.566C56.0781 116.618 56.1809 116.669 56.2837 116.669Z" fill="#E6E6E6"/>
<path d="M128.501 191.764C183.544 191.764 228.165 189.164 228.165 185.956C228.165 182.748 183.544 180.148 128.501 180.148C73.4573 180.148 28.8359 182.748 28.8359 185.956C28.8359 189.164 73.4573 191.764 128.501 191.764Z" fill="#F5F5F5"/>
<path d="M128.5 157.583H55.5121L51.5029 40.1858H124.491L128.5 157.583Z" fill="#407BFF"/>
<path d="M132.098 153.934H59.1101L55.1523 36.5364H128.14L132.098 153.934Z" fill="#407BFF"/>
<path opacity="0.3" d="M132.098 153.934H59.1101L55.1523 36.5364H128.14L132.098 153.934Z" fill="white"/>
<path d="M107.648 84.842C115.469 76.8865 115.147 63.8868 106.929 55.8064C98.7099 47.7261 85.7067 47.6248 77.885 55.5804C70.0634 63.5359 70.3852 76.5356 78.6039 84.616C86.8226 92.6964 99.8259 92.7976 107.648 84.842Z" fill="#407BFF"/>
<path d="M109.739 70.2034C109.842 73.1332 109.174 75.8574 107.992 78.2732C105.319 83.5674 99.8192 87.1654 93.3942 87.1654C86.9692 87.1654 81.2124 83.5674 78.1798 78.2732C76.792 75.8574 75.9696 73.1332 75.8668 70.2034C75.5584 60.8486 82.8572 53.2414 92.212 53.2414C101.567 53.2928 109.38 60.8486 109.739 70.2034Z" fill="white"/>
<path opacity="0.6" d="M107.941 78.2732C105.268 83.5674 99.7683 87.1654 93.3433 87.1654C86.9183 87.1654 81.1615 83.5674 78.1289 78.2732C82.2923 75.4462 87.3809 73.75 92.8807 73.75C98.4319 73.8014 103.572 75.4462 107.941 78.2732Z" fill="#407BFF"/>
<path opacity="0.6" d="M98.0543 69.816C100.92 66.901 100.798 62.134 97.7823 59.1685C94.766 56.203 89.9976 56.1621 87.1316 59.0771C84.2657 61.9921 84.3875 66.7592 87.4037 69.7247C90.42 72.6901 95.1884 72.731 98.0543 69.816Z" fill="#407BFF"/>
<path d="M117.449 111.426H70.8807L70.5723 102.174H117.141L117.449 111.426Z" fill="white"/>
<path d="M118.014 127.977H71.4461L71.1377 118.725H117.706L118.014 127.977Z" fill="white"/>
<path d="M100.076 120.01L88.8706 121.552C88.408 121.603 88.0996 122.015 88.2024 122.477L89.693 129.982C89.7958 130.444 90.207 130.753 90.6696 130.701L101.875 129.159C102.337 129.108 102.646 128.697 102.543 128.234L101.052 120.73C100.95 120.267 100.538 119.907 100.076 120.01ZM96.8376 127.617L94.7816 127.874L94.576 125.458C94.1648 125.253 93.805 124.893 93.7536 124.43C93.5994 123.711 94.1134 122.991 94.8844 122.888C95.6554 122.786 96.375 123.3 96.5292 124.019C96.632 124.482 96.4778 124.893 96.118 125.201L96.8376 127.617Z" fill="#407BFF"/>
<path d="M98.9452 119.599C98.534 119.65 98.1228 119.393 98.0714 118.982L97.9172 118.262C97.506 116.258 95.6042 114.716 93.4968 114.87C91.2352 115.076 89.7446 117.029 90.1558 119.188L90.31 120.01C90.4128 120.421 90.1044 120.781 89.6932 120.832C89.282 120.884 88.8708 120.627 88.8194 120.216L88.6652 119.496C88.0998 116.669 89.8988 113.945 92.7772 113.482C95.8098 112.968 98.791 114.973 99.3564 117.954L99.5106 118.776C99.6134 119.136 99.3564 119.547 98.9452 119.599Z" fill="#407BFF"/>
<path d="M110.356 140.93H80.0298L79.8242 134.916H110.15L110.356 140.93Z" fill="#407BFF"/>
<path d="M95.7073 106.8C95.7587 107.725 94.9877 108.496 94.0625 108.496C93.1373 108.496 92.3663 107.725 92.3149 106.8C92.2635 105.875 93.0345 105.104 93.9597 105.104C94.8849 105.104 95.7073 105.875 95.7073 106.8Z" fill="#263238"/>
<path d="M88.4085 106.8C88.4599 107.725 87.6889 108.496 86.7637 108.496C85.8385 108.496 85.0675 107.725 85.0161 106.8C84.9647 105.875 85.7357 105.104 86.6609 105.104C87.5861 105.104 88.4085 105.875 88.4085 106.8Z" fill="#263238"/>
<path d="M81.1605 106.8C81.2119 107.725 80.4409 108.496 79.5157 108.496C78.5905 108.496 77.8195 107.725 77.7681 106.8C77.7167 105.875 78.4877 105.104 79.4129 105.104C80.3381 105.104 81.1091 105.875 81.1605 106.8Z" fill="#263238"/>
<path d="M103.006 106.8C103.058 107.725 102.287 108.496 101.361 108.496C100.436 108.496 99.6652 107.725 99.6138 106.8C99.5624 105.875 100.333 105.104 101.259 105.104C102.184 105.104 102.955 105.875 103.006 106.8Z" fill="#263238"/>
<path d="M110.304 106.8C110.355 107.725 109.584 108.496 108.659 108.496C107.734 108.496 106.963 107.725 106.912 106.8C106.86 105.875 107.631 105.104 108.556 105.104C109.482 105.104 110.253 105.875 110.304 106.8Z" fill="#263238"/>
<path d="M171.625 61.5682C172.293 62.6476 172.858 63.727 173.475 64.8064C174.041 65.8858 174.606 67.0166 175.12 68.1474C176.148 70.409 177.073 72.722 177.741 75.1892C177.844 75.4976 177.896 75.806 177.998 76.1144L178.101 76.577L178.153 76.834L178.204 77.2452C178.358 78.2732 178.204 79.147 178.05 79.918C177.69 81.4086 177.073 82.5908 176.456 83.773C175.171 86.0346 173.629 87.9364 171.882 89.7868L169.723 88.142C170.802 86.1374 171.83 83.9786 172.601 81.974C172.961 80.946 173.27 79.918 173.372 79.0956C173.424 78.6844 173.372 78.3246 173.321 78.1704L173.115 77.5536C173.013 77.2966 172.961 77.0396 172.858 76.7826C172.139 74.7266 171.162 72.6192 170.134 70.5632C169.106 68.5072 168.027 66.4512 166.896 64.498L171.625 61.5682Z" fill="#FF8B7B"/>
<path d="M170.237 87.371L167.873 88.6046L170.597 91.7914C170.597 91.7914 172.293 90.6606 172.344 88.913L170.237 87.371Z" fill="#FF8B7B"/>
<path d="M164.737 90.5578L167.616 92.8708L170.597 91.7914L167.873 88.6046L164.737 90.5578Z" fill="#FF8B7B"/>
<path d="M154.817 44.7604C154.765 45.0688 154.56 45.223 154.354 45.223C154.148 45.1716 154.046 44.9146 154.097 44.6576C154.148 44.3492 154.354 44.195 154.56 44.195C154.765 44.195 154.868 44.5034 154.817 44.7604Z" fill="#263238"/>
<path d="M154.56 45.2744C154.56 45.2744 153.583 46.8164 152.709 47.4332C153.121 47.9986 154.046 47.9472 154.046 47.9472L154.56 45.2744Z" fill="#FF5652"/>
<path d="M153.635 55.3488V51.9564L158.107 52.4704C158.107 52.4704 158.055 55.3488 155.537 56.2226L153.635 55.3488Z" fill="#FF8B7B"/>
<path d="M154.92 49.5406L158.055 50.4658L158.107 52.5218L153.635 51.9564L154.92 49.5406Z" fill="#FF8B7B"/>
<path opacity="0.2" d="M158.055 50.4658L154.92 49.5406L154.303 50.7228C154.355 52.7274 155.588 54.3208 157.182 55.0918C158.055 53.961 158.107 52.5218 158.107 52.5218L158.055 50.4658Z" fill="black"/>
<path d="M156.153 43.3726C156.205 43.3726 156.256 43.3726 156.256 43.3212C156.307 43.2698 156.307 43.167 156.256 43.0642C155.588 42.3446 154.817 42.4988 154.817 42.4988C154.714 42.4988 154.663 42.6016 154.663 42.7044C154.663 42.8072 154.765 42.8586 154.868 42.8586C154.868 42.8586 155.485 42.7558 155.999 43.3212C156.05 43.3726 156.102 43.3726 156.153 43.3726Z" fill="#263238"/>
<path d="M162.732 49.9518C162.218 52.5732 161.91 56.274 163.76 58.0216C163.76 58.0216 163.041 60.6944 158.106 60.6944C152.709 60.6944 155.485 58.33 155.485 58.33C157.747 57.6104 157.695 55.0918 157.181 53.0358L162.732 49.9518Z" fill="#FF8B7B"/>
<path d="M164.737 59.8206C165.2 59.1524 165.2 56.9936 164.686 56.5824C163.863 55.9656 160.317 55.8114 155.537 56.9422C156.051 59.0496 154.971 60.129 154.971 60.129L164.737 59.8206Z" fill="#407BFF"/>
<path d="M180.825 181.844C180.465 181.947 180.106 181.947 179.9 181.793C179.849 181.741 179.746 181.587 179.797 181.382C179.849 181.279 179.9 181.176 180.003 181.125C180.465 180.868 181.596 181.33 181.648 181.382C181.699 181.382 181.699 181.433 181.699 181.433C181.699 181.484 181.699 181.484 181.648 181.536C181.545 181.639 181.185 181.741 180.825 181.844ZM180.26 181.279C180.208 181.279 180.208 181.279 180.157 181.33C180.106 181.382 180.054 181.433 180.003 181.484C179.951 181.639 180.003 181.69 180.054 181.69C180.26 181.844 180.979 181.69 181.493 181.484C181.134 181.33 180.568 181.176 180.26 181.279Z" fill="#407BFF"/>
<path d="M181.699 181.536C181.237 181.433 180.363 180.816 180.363 180.405C180.363 180.354 180.363 180.199 180.568 180.148C180.671 180.097 180.825 180.097 180.928 180.199C181.391 180.456 181.699 181.433 181.751 181.484C181.802 181.484 181.751 181.484 181.699 181.536ZM180.671 180.251C180.517 180.302 180.517 180.354 180.517 180.354C180.517 180.611 181.082 181.073 181.545 181.279C181.442 180.97 181.185 180.405 180.877 180.251C180.825 180.251 180.774 180.251 180.671 180.251Z" fill="#407BFF"/>
<path d="M154.149 182.461C153.686 182.461 153.224 182.41 153.07 182.204C153.018 182.153 152.967 181.998 153.07 181.844C153.121 181.741 153.224 181.69 153.327 181.639C153.943 181.484 155.177 182.204 155.228 182.204C155.28 182.204 155.28 182.255 155.28 182.307C155.28 182.358 155.228 182.358 155.228 182.358C155.023 182.41 154.56 182.461 154.149 182.461ZM153.532 181.741C153.481 181.741 153.429 181.741 153.378 181.741C153.275 181.741 153.224 181.793 153.224 181.844C153.172 181.947 153.172 181.998 153.224 182.05C153.378 182.307 154.303 182.307 154.971 182.204C154.612 182.05 153.995 181.741 153.532 181.741Z" fill="#407BFF"/>
<path d="M155.228 182.358C154.765 182.153 153.892 181.382 153.943 180.97C153.943 180.868 154.046 180.765 154.251 180.713C154.406 180.713 154.611 180.765 154.714 180.868C155.177 181.227 155.279 182.204 155.279 182.255C155.331 182.255 155.279 182.307 155.228 182.358ZM154.354 180.868H154.303C154.149 180.868 154.149 180.919 154.149 180.97C154.097 181.227 154.714 181.844 155.125 182.101C155.074 181.793 154.971 181.227 154.663 180.97C154.56 180.919 154.457 180.868 154.354 180.868Z" fill="#407BFF"/>
<path d="M159.186 182.255H155.588L155.228 173.877H158.826L159.186 182.255Z" fill="#FF8B7B"/>
<path d="M185.708 180.559L182.213 181.33L178.667 173.569L182.162 172.798L185.708 180.559Z" fill="#FF8B7B"/>
<path d="M181.854 180.97L185.811 180.097C185.966 180.045 186.12 180.148 186.171 180.251L187.559 183.232C187.713 183.54 187.508 183.9 187.199 183.952C185.811 184.209 185.092 184.311 183.396 184.671C182.316 184.928 179.9 185.494 178.41 185.802C176.971 186.11 176.405 184.723 176.971 184.414C179.541 183.232 180.671 182.204 181.34 181.227C181.442 181.176 181.648 181.022 181.854 180.97Z" fill="#263238"/>
<path d="M155.588 181.844H159.546C159.7 181.844 159.803 181.947 159.854 182.101L160.574 185.339C160.625 185.648 160.419 186.008 160.06 186.008C158.62 186.008 156.564 185.905 154.765 185.905C152.658 185.905 150.859 186.008 148.392 186.008C146.901 186.008 146.49 184.517 147.107 184.363C149.934 183.746 152.247 183.695 154.714 182.153C155.022 181.947 155.279 181.844 155.588 181.844Z" fill="#263238"/>
<path d="M170.237 58.844C173.629 59.615 176.405 68.2502 176.405 68.2502L169.62 73.493C169.62 73.493 167.101 71.1286 166.022 66.811C164.84 62.2364 166.742 58.073 170.237 58.844Z" fill="#407BFF"/>
<path opacity="0.4" d="M170.237 58.844C173.629 59.615 176.405 68.2502 176.405 68.2502L169.62 73.493C169.62 73.493 167.101 71.1286 166.022 66.811C164.84 62.2364 166.742 58.073 170.237 58.844Z" fill="black"/>
<path d="M152.401 69.1754C151.579 70.1006 150.705 70.923 149.831 71.7454C149.42 72.1566 148.957 72.5678 148.495 72.979L147.827 73.5958L147.672 73.75C147.57 73.8014 147.467 73.9042 147.364 74.007C147.158 74.1612 146.901 74.3668 146.387 74.5724C146.13 74.6752 145.771 74.8294 145.154 74.8294C144.845 74.8294 144.434 74.778 144.074 74.6238C143.663 74.4696 143.303 74.2126 143.046 73.9556C142.532 73.3902 142.327 72.9276 142.224 72.6192C142.121 72.3108 142.121 72.0538 142.07 71.8482C142.018 71.437 142.07 71.18 142.07 70.923C142.07 70.666 142.121 70.4604 142.173 70.2548C142.327 69.4838 142.532 68.8156 142.789 68.1988C143.046 67.582 143.303 66.9652 143.612 66.3484C143.92 65.6802 144.229 65.2176 144.588 64.6522C145.873 62.5448 147.364 60.5916 148.957 58.7412C150.551 56.9422 152.298 55.246 154.252 53.7554L156.153 55.7086C154.817 57.5076 153.532 59.4094 152.298 61.2598C151.116 63.1616 149.985 65.0634 149.009 67.0166C148.803 67.4792 148.495 68.0446 148.341 68.4558C148.135 68.9184 147.981 69.381 147.878 69.8436C147.724 70.3062 147.621 70.7688 147.57 71.1286C147.57 71.2314 147.57 71.2828 147.57 71.3342C147.57 71.3856 147.57 71.3856 147.57 71.2828C147.57 71.2314 147.57 71.1286 147.518 70.923C147.467 70.7688 147.364 70.409 146.901 69.9464C146.696 69.7408 146.387 69.5352 146.079 69.4324C145.771 69.3296 145.411 69.2782 145.205 69.2782C144.743 69.2782 144.537 69.381 144.383 69.4324C144.126 69.5352 144.126 69.5866 144.126 69.5352L144.331 69.381L144.948 68.8156L146.182 67.6848C147.004 66.9138 147.827 66.0914 148.598 65.3204L152.401 69.1754Z" fill="#FF8B7B"/>
<path opacity="0.2" d="M167.307 65.2176C169.158 67.0166 169.723 70.3576 169.877 73.236L169.569 73.493C169.569 73.493 167.05 71.1286 165.971 66.811C165.92 66.554 165.868 66.2456 165.817 65.9886L167.307 65.2176Z" fill="black"/>
<path d="M148.803 62.4934C148.083 66.3998 147.621 74.4182 149.728 90.3008H169.106C169.26 87.3196 167.358 72.8762 170.237 58.844C170.237 58.844 166.947 58.1758 163.76 58.0216C161.293 57.9188 157.695 57.816 155.536 58.0216C154.611 58.1244 153.737 58.2272 152.966 58.3814C150.859 58.7412 149.214 60.386 148.803 62.4934Z" fill="#407BFF"/>
<path opacity="0.4" d="M148.803 62.4934C148.083 66.3998 147.621 74.4182 149.728 90.3008H169.106C169.26 87.3196 167.358 72.8762 170.237 58.844C170.237 58.844 166.947 58.1758 163.76 58.0216C161.293 57.9188 157.695 57.816 155.536 58.0216C154.611 58.1244 153.737 58.2272 152.966 58.3814C150.859 58.7412 149.214 60.386 148.803 62.4934Z" fill="black"/>
<path opacity="0.2" d="M151.784 68.2502L148.289 67.4278C148.186 69.5352 148.186 72.1566 148.34 75.3948C149.934 73.5958 151.99 70.7174 151.784 68.2502Z" fill="black"/>
<path opacity="0.2" d="M155.228 173.877L155.434 178.195H159.032L158.826 173.877H155.228Z" fill="black"/>
<path opacity="0.2" d="M182.213 172.798L178.667 173.569L180.466 177.578L184.012 176.807L182.213 172.798Z" fill="black"/>
<path d="M164.429 46.0968C163.503 49.5406 163.144 51.648 160.985 53.0872C157.747 55.246 153.737 52.7788 153.635 49.078C153.532 45.7884 155.074 40.6484 158.775 39.9802C162.475 39.2606 165.354 42.653 164.429 46.0968Z" fill="#FF8B7B"/>
<path d="M156.307 46.251C156.153 45.7884 155.331 42.1904 156.102 41.2652C156.873 40.34 165.405 41.0082 166.69 42.2418C168.798 44.2978 167.358 46.1482 165.045 48.5126C163.298 50.3116 163.246 52.3162 162.373 52.6246C160.831 53.1386 158.466 52.676 158.004 51.0312C157.541 49.3864 156.307 46.251 156.307 46.251Z" fill="#263238"/>
<path d="M165.662 38.1812C162.63 36.8962 156.976 38.3354 153.892 37.5644C153.789 39.1578 154.714 41.6764 157.798 42.396C157.798 42.396 162.167 43.2184 165.508 43.1156C168.849 42.9614 168.232 39.2606 165.662 38.1812Z" fill="#263238"/>
<path d="M166.125 42.3446C166.125 42.3446 167.975 42.5502 169.312 41.7278C169.877 43.1156 166.793 43.4754 166.125 42.3446Z" fill="#263238"/>
<path d="M158.004 46.3538C157.952 47.279 157.49 48.1528 156.976 48.7696C156.205 49.6434 155.382 49.078 155.228 48.05C155.125 47.0734 155.382 45.48 156.308 45.0174C157.284 44.5548 158.055 45.3258 158.004 46.3538Z" fill="#FF8B7B"/>
<path d="M156.616 90.3008C156.616 90.3008 160.728 117.954 162.989 128.285C165.457 139.645 178.666 177.115 178.666 177.115L185.143 175.728C185.143 175.728 175.891 145.145 173.835 129.313C172.241 117.132 169.106 90.3008 169.106 90.3008H156.616Z" fill="#407BFF"/>
<path d="M177.125 174.957C177.073 174.957 178.307 177.321 178.307 177.321L185.606 175.728L184.989 173.517L177.125 174.957Z" fill="#263238"/>
<path opacity="0.3" d="M159.186 100.118C163.915 101.043 163.452 118.725 162.835 127.823C161.447 121.398 159.443 109.01 158.106 100.221C158.466 100.118 158.826 100.067 159.186 100.118Z" fill="black"/>
<path d="M149.729 90.3008C149.729 90.3008 149.215 117.337 149.626 128.337C150.037 139.799 154.046 177.372 154.046 177.372H160.163C160.163 177.372 160.368 140.519 160.677 129.211C160.985 116.926 162.476 90.3008 162.476 90.3008H149.729Z" fill="#407BFF"/>
<path d="M152.864 174.905C152.812 174.905 153.224 177.424 153.224 177.424H160.677L160.882 175.162L152.864 174.905Z" fill="#263238"/>
<path d="M156.411 63.6756C158.158 68.353 147.981 73.8528 147.981 73.8528L143.561 68.1988C143.561 68.1988 146.49 62.3392 150.088 59.7178C154.56 56.4282 155.074 60.129 156.411 63.6756Z" fill="#407BFF"/>
<path opacity="0.4" d="M156.411 63.6756C158.158 68.353 147.981 73.8528 147.981 73.8528L143.561 68.1988C143.561 68.1988 146.49 62.3392 150.088 59.7178C154.56 56.4282 155.074 60.129 156.411 63.6756Z" fill="black"/>
<path d="M196.297 28.2096C206.544 28.2096 214.852 22.9167 214.852 16.3876C214.852 9.85844 206.544 4.56555 196.297 4.56555C186.049 4.56555 177.741 9.85844 177.741 16.3876C177.741 22.9167 186.049 28.2096 196.297 28.2096Z" fill="#407BFF"/>
<path d="M189.563 22.35C188.535 22.35 187.507 22.0416 186.633 21.4248C185.451 20.6024 184.68 19.4202 184.423 18.0324C183.961 15.3596 185.76 12.6868 188.381 12.07C190.54 11.556 192.75 12.4812 193.932 14.383L205.857 11.9158C206.834 11.7102 207.81 12.2756 208.016 13.2008C208.119 13.6634 208.067 14.1774 207.81 14.5886C207.553 14.9998 207.142 15.3082 206.628 15.411L206.32 15.4624C206.217 15.4624 206.165 15.5138 206.114 15.6166C206.063 15.7194 206.063 15.7708 206.114 15.8736L206.32 16.439C206.474 16.7988 206.32 17.21 206.011 17.4156C205.754 17.5698 205.6 17.8268 205.549 18.1352C205.497 18.495 205.24 18.8034 204.932 18.8548L204.675 18.9062C204.366 18.9576 204.007 18.8034 203.801 18.495C203.595 18.1352 203.184 17.9296 202.722 18.0324C202.31 18.1352 202.002 18.4436 201.951 18.9062C201.899 19.266 201.642 19.5744 201.334 19.6258L201.077 19.6772C200.768 19.7286 200.409 19.5744 200.203 19.266C200.049 19.009 199.792 18.8034 199.483 18.8034C199.124 18.752 198.815 18.3922 198.815 18.0324V17.467C198.815 17.3642 198.764 17.3128 198.712 17.21C198.661 17.1586 198.558 17.1072 198.455 17.1586L194.652 17.9296C194.343 20.0884 192.699 21.7846 190.54 22.2472C190.283 22.2986 189.923 22.35 189.563 22.35ZM188.535 12.584C186.171 13.1494 184.526 15.5138 184.989 17.9296C185.194 19.2146 185.914 20.294 186.942 21.0136C188.021 21.7332 189.255 21.9902 190.54 21.7332C192.544 21.322 194.035 19.6772 194.241 17.6726V17.467L198.404 16.5932C198.661 16.5418 198.918 16.5932 199.072 16.7474C199.278 16.9016 199.381 17.1072 199.381 17.3642V17.9296C199.381 18.0838 199.483 18.1866 199.638 18.238C200.1 18.2894 200.511 18.5978 200.717 18.9576C200.768 19.0604 200.871 19.1632 201.025 19.1118L201.282 19.0604C201.437 19.009 201.488 18.9062 201.488 18.8034C201.539 18.1352 202.053 17.6212 202.67 17.5184C203.287 17.3642 203.955 17.6726 204.264 18.238C204.315 18.3408 204.418 18.4436 204.572 18.3922L204.829 18.3408C204.983 18.2894 205.035 18.1866 205.035 18.0838C205.086 17.6212 205.343 17.21 205.754 17.0044C205.857 16.953 205.908 16.7988 205.857 16.6446L205.651 16.0792C205.549 15.8736 205.6 15.6166 205.703 15.3596C205.806 15.154 206.011 14.9998 206.268 14.9484L206.577 14.897C206.936 14.8456 207.193 14.64 207.399 14.3316C207.605 14.0232 207.656 13.6634 207.553 13.355C207.399 12.6868 206.679 12.2756 205.96 12.4298L193.675 14.9484L193.572 14.7942C192.647 12.9952 190.591 12.1214 188.535 12.584ZM189.615 20.4482C188.998 20.4482 188.381 20.2426 187.816 19.8828C187.096 19.4202 186.582 18.6492 186.376 17.7754C186.222 16.9016 186.376 16.0278 186.839 15.3082C187.302 14.5886 188.073 14.0746 188.946 13.9204C189.82 13.7662 190.694 13.9204 191.414 14.383C192.133 14.8456 192.647 15.6166 192.801 16.4904C192.956 17.3642 192.801 18.238 192.339 18.9576C191.876 19.6772 191.105 20.1912 190.231 20.3968C190.026 20.3968 189.82 20.4482 189.615 20.4482ZM189.615 14.3316C189.409 14.3316 189.255 14.3316 189.049 14.383C188.33 14.5372 187.713 14.9484 187.302 15.5652C186.89 16.182 186.736 16.9016 186.89 17.6726C187.045 18.3922 187.456 19.009 188.073 19.4202C188.689 19.8314 189.409 19.9856 190.18 19.8314C190.9 19.6772 191.516 19.266 191.928 18.6492C192.339 18.0324 192.493 17.3128 192.339 16.5418C192.185 15.8222 191.773 15.2054 191.157 14.7942C190.694 14.5372 190.129 14.3316 189.615 14.3316Z" fill="white"/>
<path opacity="0.6" d="M181.185 35.1486C184.563 35.1486 187.302 33.3996 187.302 31.2422C187.302 29.0847 184.563 27.3358 181.185 27.3358C177.807 27.3358 175.068 29.0847 175.068 31.2422C175.068 33.3996 177.807 35.1486 181.185 35.1486Z" fill="#407BFF"/>
<path opacity="0.3" d="M171.47 36.742C172.861 36.742 173.989 36.0286 173.989 35.1486C173.989 34.2686 172.861 33.5552 171.47 33.5552C170.079 33.5552 168.952 34.2686 168.952 35.1486C168.952 36.0286 170.079 36.742 171.47 36.742Z" fill="#407BFF"/>
</svg>
