<svg width="27" height="27" viewBox="0 0 27 27" fill="none" xmlns="http://www.w3.org/2000/svg">
<path d="M25.4565 4.07885H22.9197L22.9199 1.54364C22.9199 1.32376 22.7876 1.12568 22.5846 1.04151C22.3814 0.957345 22.1483 1.00341 21.9923 1.15941L19.646 3.50527C17.709 2.28779 15.4822 1.64654 13.1767 1.64654C6.46289 1.64635 1 7.10894 1 13.8233C1 20.5376 6.4624 26 13.1767 26C19.8911 26 25.3535 20.5376 25.3535 13.8233C25.3535 11.5176 24.7118 9.29041 23.494 7.35302L25.8408 5.00676C25.9962 4.85134 26.0427 4.61743 25.9587 4.41443C25.8742 4.21123 25.6761 4.07892 25.4562 4.07892L25.4565 4.07885ZM24.2666 13.823C24.2666 19.9381 19.2914 24.9128 13.1768 24.9128C7.06228 24.9128 2.08706 19.9381 2.08706 13.823C2.08706 7.70799 7.06179 2.73326 13.1768 2.73326C15.1925 2.73326 17.1414 3.2729 18.8542 4.29667L17.2808 5.87013C17.1788 5.97211 17.1215 6.11028 17.1215 6.25434V7.42369C15.9416 6.69679 14.577 6.29928 13.1772 6.29928H13.1767C9.02781 6.29928 5.65294 9.67459 5.65294 13.823C5.65294 17.9714 9.02825 21.3467 13.1767 21.3467C17.3247 21.3467 20.6994 17.9714 20.6994 13.823C20.6994 12.4228 20.3015 11.0569 19.5744 9.8766H20.7443C20.8884 9.8766 21.0267 9.81954 21.1285 9.71757L22.7024 8.14411C23.7263 9.85761 24.2663 11.8069 24.2663 13.8229L24.2666 13.823ZM17.1214 9.10913L14.7843 11.4467C14.3254 11.1352 13.7717 10.9527 13.1767 10.9527C11.5938 10.9527 10.3064 12.2405 10.3064 13.823C10.3064 15.4055 11.5938 16.6933 13.1767 16.6933C14.759 16.6933 16.0468 15.4055 16.0468 13.823C16.0468 13.2276 15.8645 12.6741 15.5528 12.215L17.8911 9.87674H18.2539C19.1287 11.0021 19.6126 12.3917 19.6126 13.8231C19.6126 17.3726 16.7256 20.2599 13.1768 20.2599C9.62736 20.2599 6.74005 17.3725 6.74005 13.8231C6.73968 10.2737 9.62745 7.38588 13.1768 7.38588H13.1774C14.6083 7.38588 15.9968 7.8698 17.1217 8.74399V9.10925L17.1214 9.10913ZM14.9596 13.823C14.9596 14.8064 14.1599 15.6065 13.1765 15.6065C12.1931 15.6065 11.393 14.8064 11.393 13.823C11.393 12.8396 12.1931 12.0396 13.1765 12.0396C13.4703 12.0396 13.7473 12.1124 13.9918 12.2388L12.7918 13.439C12.5795 13.6513 12.5795 13.9953 12.7918 14.2074C12.8981 14.3138 13.0368 14.3666 13.176 14.3666C13.3151 14.3666 13.454 14.3136 13.5602 14.2074L14.7602 13.0074C14.8868 13.2521 14.9596 13.5288 14.9596 13.823ZM22.4154 6.89375C22.4104 6.89868 22.4059 6.90304 22.4012 6.90797L20.5191 8.7894H18.2084V6.4794L20.0868 4.60097C20.0942 4.59414 20.1012 4.58675 20.1082 4.57955L21.8327 2.85543V4.62201C21.8327 4.92206 22.0763 5.16543 22.3761 5.16543H24.1441L22.4154 6.89375Z" fill="#A2B4DA"/>
<path fill-rule="evenodd" clip-rule="evenodd" d="M25.4564 4.07886C25.4735 4.07887 25.4907 4.07975 25.5074 4.08132C25.7065 4.1 25.881 4.22709 25.9589 4.41444C26.0429 4.61745 25.9964 4.85135 25.841 5.00678L23.4942 7.35303C24.712 9.29042 25.3537 11.5176 25.3537 13.8233C25.3537 20.5376 19.8913 26 13.1769 26C6.4626 26 1.0002 20.5376 1.0002 13.8233C1.0002 7.10895 6.46308 1.64637 13.1769 1.64656C15.4824 1.64656 17.7092 2.28781 19.6462 3.50529L21.9925 1.15942C22.1485 1.00342 22.3816 0.957359 22.5848 1.04152C22.7878 1.12569 22.9201 1.32378 22.9201 1.54365L22.9199 4.07886H25.4564ZM23.22 3.77886H25.4567C25.7978 3.77896 26.1049 3.98443 26.2359 4.2992C26.3662 4.61417 26.2944 4.97764 26.0531 5.21891L23.8739 7.39765C25.0403 9.33466 25.6537 11.5419 25.6537 13.8233C25.6537 20.7033 20.0569 26.3 13.1769 26.3C6.29691 26.3 0.700195 20.7033 0.700195 13.8233C0.700195 6.94327 6.2974 1.34636 13.1769 1.34656C15.458 1.34656 17.665 1.95954 19.6016 3.12564L21.7803 0.947289C21.7803 0.947296 21.7803 0.947283 21.7803 0.947289C22.0222 0.705406 22.3845 0.633819 22.6996 0.764353C23.0147 0.895 23.2201 1.20251 23.2201 1.54367L23.22 3.77886ZM24.2665 13.8229C24.2665 11.9116 23.7811 10.0602 22.8581 8.41284C22.8075 8.32265 22.7557 8.23307 22.7025 8.14413L21.1287 9.71758C21.0269 9.81956 20.8885 9.87661 20.7445 9.87661H19.5746C19.6354 9.97534 19.694 10.0754 19.7501 10.1766C20.3655 11.2857 20.6996 12.54 20.6996 13.823C20.6996 17.9714 17.3249 21.3467 13.1769 21.3467C9.02845 21.3467 5.65313 17.9714 5.65313 13.823C5.65313 9.6746 9.02801 6.29929 13.1769 6.29929C14.4595 6.29929 15.7132 6.63306 16.8217 7.24818C16.923 7.30435 17.023 7.36287 17.1217 7.4237V6.25436C17.1217 6.1103 17.179 5.97212 17.281 5.87014L18.8544 4.29669C18.7655 4.24352 18.6759 4.19167 18.5857 4.14113C16.9391 3.21833 15.088 2.73328 13.177 2.73328C7.06199 2.73328 2.08726 7.708 2.08726 13.8231C2.08726 19.9381 7.06247 24.9128 13.177 24.9128C19.2916 24.9128 24.2665 19.938 24.2665 13.8229ZM23.9665 13.9086C23.9204 19.8187 19.0974 24.6128 13.177 24.6128C7.22815 24.6128 2.38726 19.7724 2.38726 13.8231C2.38726 7.87369 7.22767 3.03328 13.177 3.03328C15.0082 3.03328 16.7819 3.49078 18.3651 4.36176L17.0688 5.65801C16.9106 5.81621 16.8217 6.03068 16.8217 6.25436V6.90707C15.706 6.3181 14.4563 5.99929 13.1774 5.99929C8.86288 5.99929 5.35313 9.50893 5.35313 13.823C5.35313 18.1371 8.86276 21.6467 13.1769 21.6467C17.4906 21.6467 20.9996 18.1371 20.9996 13.823C20.9996 12.5438 20.6805 11.2929 20.0912 10.1766H20.7445C20.9677 10.1766 21.1826 10.0882 21.341 9.92952L22.6374 8.63344C23.5087 10.2173 23.9665 11.9915 23.9665 13.8229V13.9086ZM17.1219 9.1083V8.744C15.997 7.86982 14.6085 7.3859 13.1776 7.3859C9.62822 7.3859 6.73987 10.2737 6.74025 13.8232C6.74025 17.3725 9.62755 20.2599 13.177 20.2599C16.7258 20.2599 19.6128 17.3726 19.6128 13.8232C19.6128 12.3917 19.1289 11.0021 18.2541 9.87676H17.8913L15.553 12.2151C15.8647 12.6741 16.047 13.2276 16.047 13.823C16.047 15.4055 14.7592 16.6933 13.1769 16.6933C11.594 16.6933 10.3066 15.4055 10.3066 13.823C10.3066 12.2405 11.594 10.9527 13.1769 10.9527C13.7719 10.9527 14.3256 11.1352 14.7845 11.4467L17.1215 9.10926L17.1219 9.1083ZM16.8219 8.89297V8.98459L14.7406 11.0662C14.279 10.8034 13.7448 10.6527 13.1769 10.6527C11.4283 10.6527 10.0066 12.0748 10.0066 13.823C10.0066 15.5712 11.4283 16.9933 13.1769 16.9933C14.9249 16.9933 16.347 15.5712 16.347 13.823C16.347 13.2548 16.1965 12.7207 15.9335 12.2589L18.0156 10.1768H18.1052C18.884 11.2289 19.3128 12.5079 19.3128 13.8232C19.3128 17.207 16.5601 19.9599 13.177 19.9599C9.79324 19.9599 7.04025 17.2068 7.04025 13.8232C7.03989 10.4394 9.79333 7.6859 13.177 7.6859C14.4916 7.6859 15.7701 8.11467 16.8219 8.89297ZM13.7725 14.4196C13.6079 14.5842 13.3917 14.6667 13.1762 14.6667C12.9607 14.6667 12.7447 14.5844 12.5798 14.4196C12.2503 14.0902 12.2505 13.5563 12.5798 13.2269C12.5798 13.2269 12.5798 13.2269 12.5798 13.2269L13.4427 12.3639C13.3563 12.348 13.2675 12.3396 13.1767 12.3396C12.359 12.3396 11.6932 13.0053 11.6932 13.8231C11.6932 14.6408 12.359 15.3065 13.1767 15.3065C13.9943 15.3065 14.6598 14.6409 14.6598 13.8231C14.6598 13.7321 14.6514 13.6431 14.6354 13.5567L13.7725 14.4196ZM13.5604 14.2074C13.4542 14.3136 13.3153 14.3667 13.1762 14.3667C13.037 14.3667 12.8983 14.3138 12.792 14.2074C12.5797 13.9953 12.5797 13.6513 12.792 13.439L13.992 12.2388C13.8961 12.1893 13.7953 12.1479 13.6905 12.116C13.5278 12.0665 13.3554 12.0396 13.1767 12.0396C12.1933 12.0396 11.3932 12.8397 11.3932 13.8231C11.3932 14.8065 12.1933 15.6065 13.1767 15.6065C14.1601 15.6065 14.9598 14.8065 14.9598 13.8231C14.9598 13.6441 14.9329 13.4716 14.8833 13.3088C14.8513 13.204 14.81 13.1033 14.7604 13.0074L13.5604 14.2074ZM22.2035 6.68161L23.4199 5.46545H22.3763C21.9109 5.46545 21.5329 5.08783 21.5329 4.62202V3.57959L20.3233 4.78885L20.3218 4.79044C20.3175 4.7949 20.3071 4.80565 20.2959 4.81637L18.5085 6.60368V8.48942H20.3951L22.1893 6.69581L22.1973 6.68767L22.2035 6.68161ZM22.4014 6.90798L20.5193 8.78942H18.2085V6.47941L20.087 4.60098C20.0944 4.59416 20.1014 4.58677 20.1084 4.57956L21.8329 2.85544V4.62202C21.8329 4.92208 22.0765 5.16545 22.3763 5.16545H24.1443L22.4156 6.89376C22.4106 6.89869 22.4061 6.90305 22.4014 6.90798Z" fill="#A2B4DA"/>
</svg>
