<svg width="31" height="32" viewBox="0 0 31 32" fill="none" xmlns="http://www.w3.org/2000/svg">
<path d="M6.8705 19.3392L5.7914 23.4976L1.84729 23.5837C0.668583 21.327 0 18.7449 0 16.0011C0 13.3478 0.625109 10.8457 1.73316 8.64258H1.734L5.24537 9.3071L6.78356 12.91C6.46162 13.8788 6.28615 14.9189 6.28615 16.0011C6.28627 17.1756 6.49238 18.301 6.8705 19.3392Z" fill="#FBBB00"/>
<path d="M30.7288 13.0117C30.9068 13.9796 30.9996 14.9792 30.9996 16.0008C30.9996 17.1464 30.883 18.2638 30.6607 19.3416C29.9061 23.0095 27.9345 26.2122 25.2032 28.4787L25.2023 28.4778L20.7796 28.2448L20.1536 24.2113C21.966 23.1141 23.3823 21.3971 24.1284 19.3416H15.8398V13.0117H24.2493H30.7288Z" fill="#518EF8"/>
<path d="M25.2051 28.4773L25.2059 28.4782C22.5496 30.6822 19.1752 32.001 15.5019 32.001C9.59891 32.001 4.46671 28.5951 1.84863 23.5831L6.87184 19.3386C8.18085 22.9448 11.551 25.512 15.5019 25.512C17.2001 25.512 18.7911 25.0381 20.1563 24.2108L25.2051 28.4773Z" fill="#28B446"/>
<path d="M25.3928 3.68363L20.3713 7.92729C18.9584 7.01563 17.2882 6.48899 15.4989 6.48899C11.4585 6.48899 8.02534 9.1739 6.7819 12.9095L1.73229 8.64207H1.73145C4.3112 3.50782 9.50813 0 15.4989 0C19.2599 0 22.7083 1.38293 25.3928 3.68363Z" fill="#F14336"/>
</svg>
