<svg width="20" height="20" viewBox="0 0 20 20" fill="none" xmlns="http://www.w3.org/2000/svg">
<path d="M8.70748 19.4558L0.544218 11.2925C-0.181406 10.5669 -0.181406 9.43311 0.544218 8.70748L8.70748 0.544218C9.43311 -0.181406 10.5669 -0.181406 11.2925 0.544218L19.4558 8.70748C20.1814 9.43311 20.1814 10.5669 19.4558 11.2925L11.2925 19.4558C10.5669 20.1814 9.38775 20.1814 8.70748 19.4558Z" fill="#A8A8A8"/>
<path d="M8.89062 13.9683C8.89062 13.8322 8.93598 13.6961 8.98133 13.5601C9.02668 13.424 9.11738 13.3333 9.20809 13.2426C9.29879 13.1519 9.43484 13.0612 9.5709 13.0159C9.70695 12.9705 9.84301 12.9252 10.0244 12.9252C10.2058 12.9252 10.3419 12.9705 10.4779 13.0159C10.614 13.0612 10.75 13.1519 10.8407 13.2426C10.9314 13.3333 11.0221 13.424 11.0675 13.5601C11.1128 13.6961 11.1582 13.8322 11.1582 13.9683C11.1582 14.1043 11.1128 14.2404 11.0675 14.3764C11.0221 14.5125 10.9314 14.6032 10.8407 14.6939C10.75 14.7846 10.614 14.8753 10.4779 14.9206C10.3419 14.966 10.2058 15.0113 10.0244 15.0113C9.84301 15.0113 9.70695 14.966 9.5709 14.9206C9.43484 14.8753 9.34414 14.7846 9.20809 14.6939C9.11738 14.6032 9.02668 14.5125 8.98133 14.3764C8.93598 14.2404 8.89062 14.1497 8.89062 13.9683ZM10.7954 11.8821H9.16273L8.93598 5.03401H11.0221L10.7954 11.8821Z" fill="white"/>
</svg>
