<svg width="319" height="209" viewBox="0 0 319 209" fill="none" xmlns="http://www.w3.org/2000/svg">
<path d="M275.085 30.7106C252.387 14.7091 223.35 7.42756 194.988 9.49517C176.874 10.7987 158.985 16.8217 144.871 28.9576C129.949 41.8127 114.756 48.8246 95.0241 49.2741C70.1679 49.8584 43.2441 43.9253 22.4332 61.6347C7.96 73.9504 1.12792 93.1881 0.139067 112.111C-0.804839 129.821 3.06068 148.114 11.6008 163.577C17.8036 174.814 26.2987 184.837 36.6817 192.118C54.0316 204.299 75.4717 208.075 96.0579 206.771C115.925 205.558 136.062 196.254 155.973 197.917C180.065 199.894 221.013 217.02 259.578 203.311C304.931 187.174 326.551 129.686 313.291 84.0637C306.953 62.264 293.244 43.5207 275.085 30.7106Z" fill="#92E3A9"/>
<path opacity="0.7" d="M275.085 30.7106C252.387 14.7091 223.35 7.42756 194.988 9.49517C176.874 10.7987 158.985 16.8217 144.871 28.9576C129.949 41.8127 114.756 48.8246 95.0241 49.2741C70.1679 49.8584 43.2441 43.9253 22.4332 61.6347C7.96 73.9504 1.12792 93.1881 0.139067 112.111C-0.804839 129.821 3.06068 148.114 11.6008 163.577C17.8036 174.814 26.2987 184.837 36.6817 192.118C54.0316 204.299 75.4717 208.075 96.0579 206.771C115.925 205.558 136.062 196.254 155.973 197.917C180.065 199.894 221.013 217.02 259.578 203.311C304.931 187.174 326.551 129.686 313.291 84.0637C306.953 62.264 293.244 43.5207 275.085 30.7106Z" fill="white"/>
<path d="M138.668 166.363H121.229V207.895H138.668V166.363Z" stroke="#263238" stroke-miterlimit="10" stroke-linecap="round" stroke-linejoin="round"/>
<path d="M114.172 175.982H96.7324V207.895H114.172V175.982Z" stroke="#263238" stroke-miterlimit="10" stroke-linecap="round" stroke-linejoin="round"/>
<path d="M89.6751 189.242H72.2354V207.895H89.6751V189.242Z" stroke="#263238" stroke-miterlimit="10" stroke-linecap="round" stroke-linejoin="round"/>
<path d="M65.179 201.243H47.7393V207.85H65.179V201.243Z" stroke="#263238" stroke-miterlimit="10" stroke-linecap="round" stroke-linejoin="round"/>
<path d="M40.682 204.794H23.2422V207.85H40.682V204.794Z" stroke="#263238" stroke-miterlimit="10" stroke-linecap="round" stroke-linejoin="round"/>
<path d="M309.066 129.596H268.118C267.04 129.596 266.141 128.697 266.141 127.618V92.1094C266.141 91.0307 267.04 90.1317 268.118 90.1317H309.066C310.145 90.1317 311.044 91.0307 311.044 92.1094V127.618C311.044 128.742 310.145 129.596 309.066 129.596Z" fill="#263238" stroke="#263238" stroke-miterlimit="10" stroke-linecap="round" stroke-linejoin="round"/>
<path d="M307.627 127.483H266.68C265.601 127.483 264.702 126.584 264.702 125.506V89.9969C264.702 88.9181 265.601 88.0192 266.68 88.0192H307.627C308.706 88.0192 309.605 88.9181 309.605 89.9969V125.506C309.605 126.584 308.751 127.483 307.627 127.483Z" fill="white" stroke="#263238" stroke-miterlimit="10" stroke-linecap="round" stroke-linejoin="round"/>
<path d="M309.605 93.0084V89.9969C309.605 88.9181 308.706 88.0192 307.627 88.0192H266.68C265.601 88.0192 264.702 88.9181 264.702 89.9969V93.0084H309.605Z" fill="#92E3A9" stroke="#263238" stroke-miterlimit="10" stroke-linecap="round" stroke-linejoin="round"/>
<path d="M297.784 91.8847C298.454 91.8847 298.998 91.3414 298.998 90.6711C298.998 90.0009 298.454 89.4575 297.784 89.4575C297.114 89.4575 296.57 90.0009 296.57 90.6711C296.57 91.3414 297.114 91.8847 297.784 91.8847Z" fill="white" stroke="#263238" stroke-miterlimit="10" stroke-linecap="round" stroke-linejoin="round"/>
<path d="M302.773 90.6711C302.773 89.9969 302.234 89.4575 301.559 89.4575C300.885 89.4575 300.346 89.9969 300.346 90.6711C300.346 91.3453 300.885 91.8847 301.559 91.8847C302.234 91.8398 302.773 91.3004 302.773 90.6711Z" fill="white" stroke="#263238" stroke-miterlimit="10" stroke-linecap="round" stroke-linejoin="round"/>
<path d="M305.381 91.8847C306.051 91.8847 306.594 91.3414 306.594 90.6711C306.594 90.0009 306.051 89.4575 305.381 89.4575C304.71 89.4575 304.167 90.0009 304.167 90.6711C304.167 91.3414 304.71 91.8847 305.381 91.8847Z" fill="white" stroke="#263238" stroke-miterlimit="10" stroke-linecap="round" stroke-linejoin="round"/>
<path d="M304.032 95.7502H270.815C270.231 95.7502 269.781 96.1997 269.781 96.784V105.639V109.369L272.163 105.639H303.987C304.571 105.639 305.02 105.189 305.02 104.605V96.784C305.065 96.1997 304.616 95.7502 304.032 95.7502Z" stroke="#263238" stroke-miterlimit="10"/>
<path d="M270.86 111.482H304.077C304.661 111.482 305.11 111.931 305.11 112.516V121.37V125.101L302.728 121.37H270.905C270.321 121.37 269.871 120.921 269.871 120.337V112.516C269.826 111.931 270.276 111.482 270.86 111.482Z" stroke="#263238" stroke-miterlimit="10"/>
<path d="M275.894 103.616C277.558 103.616 278.906 102.268 278.906 100.605C278.906 98.9414 277.558 97.5931 275.894 97.5931C274.231 97.5931 272.883 98.9414 272.883 100.605C272.883 102.268 274.231 103.616 275.894 103.616Z" fill="#92E3A9" stroke="#263238" stroke-miterlimit="10" stroke-linecap="round" stroke-linejoin="round"/>
<path d="M275.894 101.009C276.589 101.009 277.153 100.446 277.153 99.7506C277.153 99.0555 276.589 98.492 275.894 98.492C275.199 98.492 274.636 99.0555 274.636 99.7506C274.636 100.446 275.199 101.009 275.894 101.009Z" fill="white" stroke="#263238" stroke-miterlimit="10" stroke-linecap="round" stroke-linejoin="round"/>
<path d="M275.895 103.616C276.569 103.616 277.153 103.391 277.648 103.032C277.648 102.088 276.838 101.279 275.895 101.279C274.951 101.279 274.142 102.043 274.142 103.032C274.636 103.391 275.22 103.616 275.895 103.616Z" fill="white" stroke="#263238" stroke-miterlimit="10" stroke-linecap="round" stroke-linejoin="round"/>
<path d="M281.019 98.0875H291.222" stroke="#263238" stroke-miterlimit="10"/>
<path d="M281.198 101.009H302.279" stroke="#263238" stroke-miterlimit="10"/>
<path d="M281.198 102.852H302.279" stroke="#263238" stroke-miterlimit="10"/>
<path d="M275.894 119.707C277.558 119.707 278.906 118.359 278.906 116.696C278.906 115.033 277.558 113.684 275.894 113.684C274.231 113.684 272.883 115.033 272.883 116.696C272.883 118.359 274.231 119.707 275.894 119.707Z" fill="#263238" stroke="#263238" stroke-miterlimit="10" stroke-linecap="round" stroke-linejoin="round"/>
<path d="M275.894 117.056C276.589 117.056 277.153 116.492 277.153 115.797C277.153 115.102 276.589 114.538 275.894 114.538C275.199 114.538 274.636 115.102 274.636 115.797C274.636 116.492 275.199 117.056 275.894 117.056Z" fill="white" stroke="#263238" stroke-miterlimit="10" stroke-linecap="round" stroke-linejoin="round"/>
<path d="M275.895 119.707C276.569 119.707 277.153 119.483 277.648 119.123C277.648 118.179 276.838 117.37 275.895 117.37C274.951 117.37 274.142 118.134 274.142 119.123C274.636 119.483 275.22 119.707 275.895 119.707Z" fill="white" stroke="#263238" stroke-miterlimit="10" stroke-linecap="round" stroke-linejoin="round"/>
<path d="M281.019 114.179H291.222" stroke="#263238" stroke-miterlimit="10"/>
<path d="M281.198 117.1H302.279" stroke="#263238" stroke-miterlimit="10"/>
<path d="M281.198 118.943H302.279" stroke="#263238" stroke-miterlimit="10"/>
<path d="M299.132 39.1158C306.684 39.2507 312.976 42.0824 317.966 47.8357C318.64 48.5998 318.55 49.7235 317.786 50.3528C317.067 50.9821 315.988 50.8922 315.314 50.128C313.516 48.0155 311.403 46.3075 308.976 45.004C301.29 40.9587 292.121 41.9475 285.468 47.566C284.569 48.3301 283.76 49.2291 282.906 50.0831C282.187 50.8472 281.153 50.9371 280.389 50.3078C279.625 49.6786 279.58 48.5549 280.254 47.7908C284.434 42.9813 289.648 40.1047 295.941 39.2507C296.436 39.1608 296.93 39.1158 297.424 39.1158C298.054 39.1158 298.593 39.1158 299.132 39.1158Z" fill="#263238"/>
<path d="M299.762 46.1277C304.527 46.2625 309.021 48.2852 312.572 52.3754C313.247 53.1845 313.202 54.2183 312.393 54.8925C311.673 55.5218 310.595 55.4319 309.92 54.6678C308.078 52.5552 305.83 50.9821 303.133 50.2179C297.605 48.7347 292.795 50.0831 288.75 54.1734C288.615 54.3082 288.48 54.488 288.3 54.6678C287.626 55.4319 286.548 55.5218 285.828 54.8925C285.064 54.2633 284.974 53.1845 285.649 52.3754C287.222 50.5326 289.11 49.0493 291.267 47.9705C293.784 46.757 296.391 46.1277 299.762 46.1277Z" fill="#263238"/>
<path d="M307.628 58.0838C307.628 58.803 307.178 59.4323 306.504 59.7019C305.83 59.9716 305.066 59.7918 304.571 59.2075C303.807 58.3535 302.953 57.6793 301.919 57.2298C299.043 56.0162 295.896 56.7803 293.739 59.1626C293.244 59.7469 292.615 59.9267 291.851 59.7019C291.132 59.4772 290.727 58.9828 290.637 58.2636C290.548 57.7692 290.727 57.3197 291.042 56.9152C294.683 52.5103 301.425 51.881 305.785 55.5667C306.279 55.9713 306.774 56.4657 307.178 56.9601C307.403 57.2748 307.538 57.6793 307.673 58.0389L307.628 58.0838Z" fill="#263238"/>
<path d="M299.133 67.2532C297.155 67.2532 295.627 65.68 295.627 63.7473C295.627 61.8145 297.2 60.2413 299.133 60.2413C301.066 60.2413 302.639 61.8145 302.639 63.7473C302.639 65.68 301.066 67.2532 299.133 67.2532Z" fill="#263238"/>
<path d="M271.558 183.449C283.319 171.688 283.319 152.621 271.558 140.86C259.797 129.1 240.73 129.1 228.969 140.86C217.209 152.621 217.209 171.688 228.969 183.449C240.73 195.21 259.797 195.21 271.558 183.449Z" stroke="#263238" stroke-width="2" stroke-miterlimit="10" stroke-linecap="round" stroke-linejoin="round"/>
<path d="M250.274 192.253C258.516 192.253 265.197 178.77 265.197 162.138C265.197 145.506 258.516 132.023 250.274 132.023C242.033 132.023 235.352 145.506 235.352 162.138C235.352 178.77 242.033 192.253 250.274 192.253Z" stroke="#263238" stroke-width="2" stroke-miterlimit="10" stroke-linecap="round" stroke-linejoin="round"/>
<path d="M229.553 140.833C234.946 145.957 242.273 149.103 250.274 149.103C258.454 149.103 265.871 145.867 271.309 140.563" stroke="#263238" stroke-width="2" stroke-miterlimit="10" stroke-linecap="round" stroke-linejoin="round"/>
<path d="M271.13 183.533C265.736 178.364 258.365 175.173 250.319 175.173C242.093 175.173 234.632 178.454 229.193 183.803" stroke="#263238" stroke-width="2" stroke-miterlimit="10" stroke-linecap="round" stroke-linejoin="round"/>
<path d="M220.159 162.138H280.434" stroke="#263238" stroke-width="2" stroke-miterlimit="10" stroke-linecap="round" stroke-linejoin="round"/>
<path d="M250.274 132.023V192.298" stroke="#263238" stroke-width="2" stroke-miterlimit="10" stroke-linecap="round" stroke-linejoin="round"/>
<path d="M251.398 104.021C250.679 104.021 250.005 104.29 249.42 104.695L241.644 98.8516C241.779 98.492 241.869 98.0874 241.869 97.6829C241.869 95.885 240.431 94.4467 238.633 94.4467C236.835 94.4467 235.396 95.885 235.396 97.6829C235.396 99.4808 236.835 100.919 238.633 100.919C239.352 100.919 240.026 100.649 240.61 100.245L248.386 106.088C248.252 106.448 248.162 106.852 248.162 107.257C248.162 107.661 248.252 108.066 248.386 108.425L240.61 114.269C240.071 113.864 239.397 113.594 238.633 113.594C236.835 113.594 235.396 115.033 235.396 116.831C235.396 118.629 236.835 120.067 238.633 120.067C240.431 120.067 241.869 118.629 241.869 116.831C241.869 116.426 241.779 116.022 241.644 115.662L249.42 109.819C249.96 110.223 250.634 110.493 251.398 110.493C253.196 110.493 254.634 109.055 254.634 107.257C254.634 105.459 253.196 104.021 251.398 104.021Z" fill="#263238"/>
<path d="M211.215 36.4189C206.675 36.4189 203.034 40.1047 203.034 44.5995C203.034 49.1392 211.215 58.3535 211.215 58.3535C211.215 58.3535 219.395 49.0943 219.395 44.5995C219.395 40.1047 215.709 36.4189 211.215 36.4189ZM211.215 48.3301C209.147 48.3301 207.484 46.6671 207.484 44.5995C207.484 42.5319 209.147 40.8688 211.215 40.8688C213.282 40.8688 214.945 42.5319 214.945 44.5995C214.9 46.6671 213.237 48.3301 211.215 48.3301Z" fill="#263238" stroke="#263238" stroke-miterlimit="10" stroke-linecap="round" stroke-linejoin="round"/>
<path d="M295.672 146.676C292.84 146.676 290.503 148.968 290.503 151.845C290.503 154.677 295.672 160.52 295.672 160.52C295.672 160.52 300.841 154.677 300.841 151.845C300.841 149.013 298.549 146.676 295.672 146.676ZM295.672 154.182C294.368 154.182 293.335 153.149 293.335 151.845C293.335 150.542 294.368 149.508 295.672 149.508C296.975 149.508 298.009 150.542 298.009 151.845C298.009 153.149 296.975 154.182 295.672 154.182Z" fill="#263238" stroke="#263238" stroke-miterlimit="10" stroke-linecap="round" stroke-linejoin="round"/>
<path d="M269.871 6.57355V78.5801C269.871 80.7376 268.208 82.4906 266.186 82.4906H234.407C232.34 82.4906 230.722 80.7376 230.722 78.5801V6.57355C230.722 4.41605 232.385 2.66309 234.407 2.66309H266.186C268.208 2.70803 269.871 4.461 269.871 6.57355Z" stroke="#263238" stroke-miterlimit="10"/>
<path d="M269.871 8.19165V6.61847C269.871 4.46098 268.208 2.70801 266.186 2.70801H234.407C232.34 2.70801 230.722 4.46098 230.722 6.61847V8.19165H269.871Z" fill="#92E3A9" stroke="#263238" stroke-miterlimit="10" stroke-linecap="round" stroke-linejoin="round"/>
<path d="M270.905 5.53974V7.96692H271.624V14.9338H270.905V16.507H271.624V23.474H270.905V25.0471H271.624V32.0141H270.905V79.6139C270.905 82.131 268.972 84.1536 266.59 84.1536H233.913C231.531 84.1536 229.598 82.131 229.598 79.6139V20.5074H229.059V13.5405H229.598V5.53974C229.598 3.02266 231.531 1 233.913 1H266.59C268.972 1 270.905 3.02266 270.905 5.53974ZM259.623 2.70802L258.365 4.68573C257.96 5.27005 257.331 5.62963 256.657 5.62963H243.891C243.217 5.62963 242.543 5.27005 242.183 4.68573L240.925 2.70802H234.992C232.609 2.70802 230.677 4.73068 230.677 7.24776V77.9508C230.677 80.4679 232.609 82.4905 234.992 82.4905H265.556C267.939 82.4905 269.871 80.4679 269.871 77.9508V7.24776C269.871 4.73068 267.939 2.70802 265.556 2.70802H259.623Z" fill="#263238" stroke="#263238" stroke-miterlimit="10"/>
<path d="M230.677 77.5013V78.625C230.677 80.7825 232.34 82.5355 234.362 82.5355H266.141C268.208 82.5355 269.826 80.7825 269.826 78.625V77.5013H230.677Z" fill="#92E3A9" stroke="#263238" stroke-miterlimit="10" stroke-linecap="round" stroke-linejoin="round"/>
<path d="M220.295 98.2673C217.777 93.0982 212.384 89.5474 206.181 89.5474C198.854 89.5474 192.741 94.4467 191.033 101.099C190.764 101.099 190.539 101.054 190.269 101.054C184.876 101.054 180.516 105.324 180.516 110.583C180.516 115.437 184.201 119.438 189.011 120.022V120.112H218.407C224.61 120.112 229.689 115.168 229.689 109.1C229.689 103.706 225.643 99.1662 220.295 98.2673Z" fill="#263238" stroke="#263238" stroke-miterlimit="10" stroke-linecap="round" stroke-linejoin="round"/>
<path d="M218.901 96.6491C216.384 91.4801 210.99 87.9292 204.787 87.9292C197.461 87.9292 191.348 92.8286 189.64 99.4808C189.37 99.4808 189.145 99.4359 188.876 99.4359C183.482 99.4359 179.122 103.706 179.122 108.965C179.122 113.819 182.808 117.82 187.617 118.404V118.494H217.013C223.216 118.494 228.295 113.55 228.295 107.482C228.295 102.088 224.25 97.5481 218.901 96.6491Z" fill="white" stroke="#263238" stroke-miterlimit="10" stroke-linecap="round" stroke-linejoin="round"/>
<path d="M214.361 113.954L204.158 96.2895L193.955 113.954H196.967V125.236H211.35V113.954H214.361Z" fill="#263238" stroke="#263238" stroke-miterlimit="10" stroke-linecap="round" stroke-linejoin="round"/>
<path d="M213.462 113.01L203.259 95.3456L193.056 113.01H196.067V124.292H210.451V113.01H213.462Z" fill="#92E3A9" stroke="#263238" stroke-miterlimit="10" stroke-linecap="round" stroke-linejoin="round"/>
<path d="M102.89 22.7548C102.44 23.1143 101.991 23.3391 101.496 23.429C100.103 23.7436 96.4173 23.5638 95.788 25.2718C95.1587 26.9799 93.4957 27.4293 93.4957 27.4293C93.4957 27.4293 90.5741 27.5642 90.3943 28.1935C90.2594 28.8227 89.1807 29.9015 89.1807 29.9015H139.657C139.657 29.9015 141.365 27.2945 138.578 24.8224C136.151 22.6649 131.701 25.9461 131.162 23.2941" stroke="#263238" stroke-miterlimit="10" stroke-linecap="round" stroke-linejoin="round"/>
<path d="M130.668 19.3387C130.083 17.3161 128.915 14.5742 126.532 13.5404C122.532 11.8324 119.116 14.1697 118.217 16.4621C117.273 18.7544 116.689 20.3276 113.138 18.3049C109.587 16.2823 106.486 16.4621 105.407 19.069C105.047 19.923 104.688 20.6422 104.283 21.2265" stroke="#263238" stroke-miterlimit="10" stroke-linecap="round" stroke-linejoin="round"/>
<path d="M35.0188 171.982H43.2892C43.2892 171.982 44.323 170.409 42.615 168.88C40.9519 167.397 37.6707 170.184 38.1202 166.993C38.1202 166.993 37.7606 163.082 35.3334 162.048C32.9062 161.014 30.8386 162.408 30.2993 163.801C29.7599 165.195 29.3554 166.139 27.1979 164.925C25.0404 163.711 23.1975 163.801 22.5233 165.374C21.8491 166.948 21.04 167.802 20.186 167.981C19.332 168.161 17.0846 168.071 16.725 169.105C16.3654 170.139 15.3316 170.409 15.3316 170.409C15.3316 170.409 13.5786 170.498 13.4438 170.858C13.3539 171.218 12.6797 171.892 12.6797 171.892H32.1871" stroke="#263238" stroke-miterlimit="10" stroke-linecap="round" stroke-linejoin="round"/>
<path d="M91.2034 111.392H105.182C105.182 111.392 106.935 108.695 104.059 106.178C101.227 103.661 95.6982 108.381 96.5073 103.032C96.5073 103.032 95.878 96.4244 91.7878 94.6714C87.6975 92.9184 84.2365 95.3007 83.2477 97.6829C82.3038 100.065 81.6745 101.638 78.0337 99.5707C74.3929 97.5031 71.2466 97.6829 70.1229 100.38C68.9992 103.077 67.6058 104.47 66.1675 104.785C64.7291 105.099 60.9535 104.964 60.3242 106.672C59.695 108.425 57.942 108.875 57.942 108.875C57.942 108.875 54.9305 109.055 54.7957 109.684C54.6159 110.313 53.5371 111.437 53.5371 111.437H86.4839" stroke="#263238" stroke-miterlimit="10" stroke-linecap="round" stroke-linejoin="round"/>
<path d="M165.098 15.4283H152.692V27.8339H165.098V15.4283Z" stroke="#263238" stroke-miterlimit="10" stroke-linecap="round" stroke-linejoin="round"/>
<path d="M177.099 27.0698H171.076V33.0928H177.099V27.0698Z" stroke="#263238" stroke-miterlimit="10" stroke-linecap="round" stroke-linejoin="round"/>
<path d="M165.098 39.835H161.322V43.6106H165.098V39.835Z" stroke="#263238" stroke-miterlimit="10" stroke-linecap="round" stroke-linejoin="round"/>
<path d="M173.009 42.8465H170.357V45.4984H173.009V42.8465Z" stroke="#263238" stroke-miterlimit="10" stroke-linecap="round" stroke-linejoin="round"/>
<path d="M172.559 142.856H169.548V145.867H172.559V142.856Z" stroke="#263238" stroke-miterlimit="10" stroke-linecap="round" stroke-linejoin="round"/>
<path d="M206.81 77.4114H202.675V81.5466H206.81V77.4114Z" stroke="#263238" stroke-miterlimit="10" stroke-linecap="round" stroke-linejoin="round"/>
<path d="M172.605 88.2888H168.829V92.0644H172.605V88.2888Z" stroke="#263238" stroke-miterlimit="10" stroke-linecap="round" stroke-linejoin="round"/>
<path d="M164.379 100.784H156.108V109.055H164.379V100.784Z" stroke="#263238" stroke-miterlimit="10" stroke-linecap="round" stroke-linejoin="round"/>
<path d="M184.605 133.012H181.234V136.383H184.605V133.012Z" stroke="#263238" stroke-miterlimit="10" stroke-linecap="round" stroke-linejoin="round"/>
<path d="M160.963 165.734H150.805V175.892H160.963V165.734Z" stroke="#263238" stroke-miterlimit="10" stroke-linecap="round" stroke-linejoin="round"/>
<path d="M178.627 183.758H173.368V189.017H178.627V183.758Z" stroke="#263238" stroke-miterlimit="10" stroke-linecap="round" stroke-linejoin="round"/>
<path d="M164.334 150.677H156.828V158.183H164.334V150.677Z" stroke="#263238" stroke-miterlimit="10" stroke-linecap="round" stroke-linejoin="round"/>
<path d="M174.133 164.206H170.357V167.981H174.133V164.206Z" stroke="#263238" stroke-miterlimit="10" stroke-linecap="round" stroke-linejoin="round"/>
<path d="M164.334 184.522H160.559V188.298H164.334V184.522Z" stroke="#263238" stroke-miterlimit="10" stroke-linecap="round" stroke-linejoin="round"/>
<path d="M185.37 178.859H180.471V183.758H185.37V178.859Z" stroke="#263238" stroke-miterlimit="10" stroke-linecap="round" stroke-linejoin="round"/>
<path d="M204.518 184.118H202.271V186.365H204.518V184.118Z" stroke="#263238" stroke-miterlimit="10" stroke-linecap="round" stroke-linejoin="round"/>
<path d="M191.393 196.164H187.617V199.939H191.393V196.164Z" stroke="#263238" stroke-miterlimit="10" stroke-linecap="round" stroke-linejoin="round"/>
<path d="M206.809 142.406H203.798V145.418H206.809V142.406Z" stroke="#263238" stroke-miterlimit="10" stroke-linecap="round" stroke-linejoin="round"/>
<path d="M189.145 10.8885H185.369V14.6641H189.145V10.8885Z" stroke="#263238" stroke-miterlimit="10" stroke-linecap="round" stroke-linejoin="round"/>
<path d="M169.593 4.14633H162.851V10.8885H169.593V4.14633Z" stroke="#263238" stroke-miterlimit="10" stroke-linecap="round" stroke-linejoin="round"/>
<path d="M146.13 1.13483V20.6422H150.265V28.553H144.916V41.4081H154.85V51.3866H150.265V55.5218H145.5V92.8735H157.322V97.0536H150.984V114.044H145.725V121.101H150.714V147.71H145.276V157.239H149.86V162.633H145.725V173.016H149.051V185.421H153.906V195.669H144.781V202.456H149.501V208.165" stroke="#263238" stroke-miterlimit="10" stroke-linecap="round" stroke-linejoin="round"/>
<path d="M83.6526 133.372C83.6526 133.372 81.2254 131.933 80.686 131.439C80.1916 130.944 76.0114 126.18 75.0226 126.45C73.9888 126.764 72.6853 128.967 71.5616 130.899C70.4379 132.832 66.9769 136.877 66.0779 139.619C65.179 142.361 66.4825 141.957 66.9769 141.552C67.4713 141.148 71.9661 138.406 74.1686 137.372C76.416 136.338 77.4048 136.068 77.4048 136.068L81.3602 137.776L83.6526 133.372Z" fill="white" stroke="#263238" stroke-miterlimit="10" stroke-linecap="round" stroke-linejoin="round"/>
<path d="M79.5173 130.135C78.079 128.562 75.7867 126.27 75.0675 126.495C74.0337 126.809 72.7302 129.012 71.6065 130.944C70.4828 132.877 67.0218 136.922 66.1229 139.664C65.2239 142.406 66.5274 142.002 67.0218 141.597C67.5163 141.192 72.011 138.451 74.2135 137.417C75.1574 136.967 75.8766 136.698 76.4159 136.473L74.5281 134.585C74.5281 134.585 77.3598 131.484 79.5173 130.135Z" fill="white" stroke="#263238" stroke-miterlimit="10" stroke-linecap="round" stroke-linejoin="round"/>
<path d="M76.2808 127.034C76.2358 126.989 76.1909 126.944 76.1459 126.899C76.1459 126.899 76.1459 126.899 76.101 126.854C76.0111 126.809 75.9212 126.764 75.8762 126.719L75.8313 126.674C75.7863 126.629 75.6964 126.584 75.6515 126.584C75.6515 126.584 75.6066 126.584 75.6066 126.54C75.5616 126.495 75.4717 126.495 75.4268 126.45H75.3818C75.3369 126.45 75.2919 126.405 75.247 126.405H75.202C75.1571 126.405 75.1121 126.405 75.0672 126.405C74.0334 126.719 72.7299 128.922 71.6062 130.855C70.4825 132.787 67.0215 136.833 66.1225 139.574C65.718 140.743 65.763 141.327 65.9428 141.597C66.8417 138.855 69.9431 134.765 72.64 131.529C74.5278 129.281 75.6964 127.843 76.2808 127.034Z" fill="white" stroke="#263238" stroke-miterlimit="10" stroke-linecap="round" stroke-linejoin="round"/>
<path d="M193.146 141.507C193.146 141.507 198.315 138.136 199.663 137.057C200.966 135.934 202.719 134.72 203.124 135.529C203.528 136.338 203.214 138.765 201.82 141.912C200.382 145.058 196.741 149.508 196.427 149.912C196.112 150.317 195.797 151.531 194.314 151.62C192.831 151.71 189.729 148.07 189.729 148.07L193.146 141.507Z" fill="white" stroke="#263238" stroke-miterlimit="10" stroke-linecap="round" stroke-linejoin="round"/>
<path d="M194.269 151.665C195.797 151.575 196.112 150.362 196.381 149.957C196.651 149.553 200.337 145.103 201.775 141.957C203.213 138.81 203.483 136.383 203.079 135.574C202.989 135.439 202.854 135.349 202.719 135.304C202.584 136.338 202.27 138.181 201.281 140.653C200.247 143.26 196.246 148.609 193.864 151.665C193.999 151.665 194.134 151.665 194.269 151.665Z" fill="white" stroke="#263238" stroke-miterlimit="10" stroke-linecap="round" stroke-linejoin="round"/>
<path d="M107.52 101.189C107.52 101.189 105.767 103.301 106.037 106.403C106.262 109.504 112.734 115.258 112.734 115.258C112.734 115.258 115.341 111.302 117.858 109.235C120.375 107.167 124.421 105.594 124.421 105.594L142.894 111.662C142.894 111.662 150.221 106.987 151.524 102.358C152.783 97.6829 149.771 87.1651 148.198 84.7379C146.625 82.3108 145.771 80.0634 145.771 80.0634L120.465 83.5243C120.465 83.5243 121.005 87.255 117.319 91.4352C113.633 95.6603 107.52 101.189 107.52 101.189Z" fill="#263238" stroke="#263238" stroke-miterlimit="10" stroke-linecap="round" stroke-linejoin="round"/>
<path d="M121.139 105.594C121.139 105.594 119.116 113.505 119.61 116.651C120.105 119.797 121.543 122.045 121.543 122.045L117.093 139.529L82.8431 132.473L80.5957 138.99C80.5957 138.99 102.261 144.339 110.351 146.901C118.487 149.418 122.937 151.171 123.746 150.856C124.555 150.542 125.364 149.643 125.364 149.643L135.387 125.371L159.12 127.034C159.12 127.034 166.311 133.237 171.93 137.372C177.503 141.552 189.729 149.373 189.729 149.373C189.729 149.373 191.437 148.564 192.066 146.451C192.696 144.339 193.1 141.597 193.1 141.597C193.1 141.597 191.977 140.473 191.168 140.069C190.358 139.664 189.235 139.979 188.516 139.754C187.796 139.529 171.795 124.067 169.997 122.359C168.154 120.651 165.817 116.561 163.21 115.572C160.603 114.583 142.624 110.178 142.624 110.178L142.309 107.527L121.139 105.594Z" fill="#263238" stroke="#263238" stroke-miterlimit="10" stroke-linecap="round" stroke-linejoin="round"/>
<path d="M121.229 90.3564C121.229 90.3564 121.634 100.694 121.544 101.009C121.454 101.324 120.645 105.189 121.139 105.594C121.634 105.998 139.838 108.246 140.737 108.246C141.636 108.246 142.265 108.47 142.355 107.437C142.445 106.403 142.58 105.414 142.58 105.414L148.063 84.1087L146.535 68.7814L122.263 70.7142L121.229 90.3564Z" fill="white" stroke="#263238" stroke-miterlimit="10" stroke-linecap="round" stroke-linejoin="round"/>
<path d="M135.792 92.8286C136.511 92.2892 137.006 91.9296 137.006 91.9296" stroke="#263238" stroke-miterlimit="10" stroke-linecap="round" stroke-linejoin="round"/>
<path d="M121.724 103.167C121.724 103.167 124.421 100.829 125.904 99.9753C126.893 99.391 131.702 95.885 134.624 93.7275" stroke="#263238" stroke-miterlimit="10" stroke-linecap="round" stroke-linejoin="round"/>
<path d="M136.871 88.0191C136.871 88.0191 130.219 95.031 126.893 97.8627" stroke="#263238" stroke-miterlimit="10" stroke-linecap="round" stroke-linejoin="round"/>
<path d="M135.343 103.077C133.006 103.706 130.039 104.515 127.837 105.099" stroke="#263238" stroke-miterlimit="10" stroke-linecap="round" stroke-linejoin="round"/>
<path d="M139.208 102.043C139.208 102.043 138.22 102.313 136.781 102.717" stroke="#263238" stroke-miterlimit="10" stroke-linecap="round" stroke-linejoin="round"/>
<path d="M182.987 40.1946L187.707 32.3736C187.707 32.3736 189.774 28.8228 189.909 29.3621C190.089 29.9015 190.134 29.9914 189.819 30.6207C189.505 31.2499 188.381 34.8008 188.381 34.8008L191.842 31.2499C191.842 31.2499 192.876 30.7106 192.696 31.4297C192.516 32.1489 190.269 35.1604 190.269 35.1604C190.269 35.1604 194.359 33.4973 194.539 33.9918C194.719 34.4862 190.673 37.0932 190.673 37.0932C190.673 37.0932 194.764 37.273 194.719 37.7224C194.674 38.1719 191.168 38.5315 191.168 38.5315C191.168 38.5315 190.673 39.5653 188.786 40.9137C186.898 42.2622 185.37 42.7117 185.37 42.7117L182.987 40.1946Z" fill="white" stroke="#263238" stroke-miterlimit="10" stroke-linecap="round" stroke-linejoin="round"/>
<path d="M185.145 38.2169C185.145 38.2169 187.257 37.8124 188.92 36.7336C190.583 35.6099 192.067 34.666 192.067 35.2503C192.067 35.7897 190.179 37.3629 189.954 37.5427C189.729 37.7225 189.325 38.8911 188.516 39.9249C187.707 40.9587 185.594 41.8127 185.594 41.8127" fill="white"/>
<path d="M185.145 38.2169C185.145 38.2169 187.257 37.8124 188.92 36.7336C190.583 35.6099 192.067 34.666 192.067 35.2503C192.067 35.7897 190.179 37.3629 189.954 37.5427C189.729 37.7225 189.325 38.8911 188.516 39.9249C187.707 40.9587 185.594 41.8127 185.594 41.8127" stroke="#263238" stroke-miterlimit="10" stroke-linecap="round" stroke-linejoin="round"/>
<path d="M180.875 41.6329L183.392 39.4305L186.404 43.296L184.111 45.2737L180.875 41.6329Z" fill="white" stroke="#263238" stroke-miterlimit="10" stroke-linecap="round" stroke-linejoin="round"/>
<path d="M144.018 73.7706C144.018 73.7706 143.928 75.2539 145.905 80.6477C147.883 86.0414 150.4 95.4355 150.984 98.1324C151.524 100.829 151.524 102.402 151.524 102.402C151.524 102.402 153.951 96.2446 153.906 89.9069C153.816 83.5693 150.175 74.7146 150.175 74.7146C150.175 74.7146 163.75 65.5452 166.132 63.5675C168.514 61.5898 184.561 45.858 184.561 45.858L180.83 41.588L162.491 54.488L146.939 62.3988C146.939 62.3988 143.793 64.1967 143.298 65.0957C142.804 65.9497 142.13 68.8264 142.265 69.6804C142.444 70.5344 144.018 73.7706 144.018 73.7706Z" fill="#92E3A9" stroke="#263238" stroke-miterlimit="10" stroke-linecap="round" stroke-linejoin="round"/>
<path d="M147.703 81.9961C147.973 82.6254 148.242 83.0299 148.287 83.1648" stroke="#263238" stroke-miterlimit="10" stroke-linecap="round" stroke-linejoin="round"/>
<path d="M144.512 66.8936L147.343 73.5459L144.736 73.0066L147.748 75.5236C147.748 75.5236 147.209 77.7261 147.209 79.6139C147.209 80.2432 147.343 80.8275 147.478 81.3219" stroke="#263238" stroke-miterlimit="10" stroke-linecap="round" stroke-linejoin="round"/>
<path d="M155.3 62.7584L155.974 61.1403" stroke="#263238" stroke-miterlimit="10" stroke-linecap="round" stroke-linejoin="round"/>
<path d="M150.04 64.1518L150.175 74.7595L154.625 64.3316" stroke="#263238" stroke-miterlimit="10" stroke-linecap="round" stroke-linejoin="round"/>
<path d="M136.871 74.4448L139.613 77.9957C139.613 77.9957 140.422 77.771 141.546 76.6473C142.669 75.5236 143.748 73.1863 143.928 72.7368C144.063 72.2873 142.535 70.9839 142.535 70.9839L135.163 71.2985L136.871 74.4448Z" fill="#263238" stroke="#263238" stroke-miterlimit="10" stroke-linecap="round" stroke-linejoin="round"/>
<path d="M137.905 48.1054C137.905 48.1054 142.13 49.8134 142.399 50.5775C142.669 51.3417 142.894 53.0047 142.894 53.0047C142.894 53.0047 147.523 54.533 147.299 55.4769C147.074 56.4208 145.501 57.4995 145.501 57.4995C145.501 57.4995 146.31 59.702 146.624 61.2302C146.894 62.7584 146.759 63.5225 146.265 64.4215C145.77 65.3205 144.871 65.9497 144.871 65.9497C144.871 65.9497 143.074 69.9501 142.399 72.0177C141.725 74.0853 141.366 75.1191 140.332 74.7146C139.298 74.31 138.804 73.5909 138.804 73.5909C138.804 73.5909 137.006 69.7253 135.612 68.332C134.219 66.9386 133.005 66.1745 132.78 66.0396C132.556 65.9048 131.522 65.3654 131.522 64.4664C131.522 63.5675 132.78 62.7584 132.78 62.7584C132.78 62.7584 129.409 62.6685 128.87 58.4884C128.331 54.2633 132.241 50.3978 133.679 49.2291C135.163 48.0155 137.905 48.1054 137.905 48.1054Z" fill="white" stroke="#263238" stroke-miterlimit="10" stroke-linecap="round" stroke-linejoin="round"/>
<path d="M141.995 53.6789C142.265 54.1284 142.31 54.533 142.13 54.6229C141.95 54.7127 141.591 54.488 141.366 54.0385C141.096 53.589 141.051 53.1845 141.231 53.0946C141.411 53.0047 141.77 53.2744 141.995 53.6789Z" fill="#263238"/>
<path d="M139.837 53.0047C139.837 53.0047 140.062 51.8361 141.41 51.7012" stroke="#263238" stroke-miterlimit="10" stroke-linecap="round" stroke-linejoin="round"/>
<path d="M139.837 47.2064C139.837 47.2064 139.927 47.611 138.938 48.1054C137.994 48.5998 136.242 49.4988 134.848 50.8472C133.455 52.2406 134.578 52.0159 135.118 52.2856C135.657 52.5552 135.927 52.8249 135.253 54.1284C134.578 55.4319 134.578 55.9263 134.578 55.9263C134.578 55.9263 138.938 59.657 139.702 60.2863C140.467 60.9155 141.276 60.6908 141.276 60.6908C141.276 60.6908 144.107 58.1288 144.782 57.8141C145.456 57.4546 145.456 57.4546 145.456 57.4546C145.456 57.4546 146.49 58.0838 147.029 60.0615C147.568 62.0842 148.422 64.826 147.838 65.4553C147.299 66.0846 144.197 66.1295 141.096 65.725C137.994 65.3204 137.185 63.2528 136.826 62.264C136.466 61.3201 134.893 58.0389 133.994 57.5894C133.095 57.095 131.837 57.9939 132.556 59.8817C133.23 61.7246 135.927 62.1741 136.017 62.4438C136.107 62.7135 135.388 63.8821 133.949 64.5114C132.511 65.1407 131.792 64.7361 131.522 64.4215C131.252 64.1518 129.994 64.9159 126.353 60.2863C122.712 55.6566 122.892 54.9824 123.252 53.8587C123.611 52.735 127.252 46.757 129.544 45.1838C131.837 43.6106 132.915 43.5207 133.14 44.2399C133.365 44.9141 133.14 45.4984 133.14 45.4984C133.14 45.4984 134.983 42.6667 138.174 44.0601C141.366 45.4085 139.837 47.2064 139.837 47.2064Z" fill="#263238" stroke="#263238" stroke-miterlimit="10" stroke-linecap="round" stroke-linejoin="round"/>
<path d="M143.298 60.1514C143.298 60.1514 144.197 60.9605 146.04 60.511" stroke="white" stroke-miterlimit="10" stroke-linecap="round" stroke-linejoin="round"/>
<path d="M130.668 66.2643L128.375 67.7027C128.375 67.7027 119.116 67.7027 118.487 68.3319C117.857 68.9612 100.238 84.6031 100.058 85.4122C99.8782 86.2212 94.3047 105.234 94.3047 105.234L100.328 107.616L108.553 89.4575L118.666 84.3334C118.666 84.3334 118.487 86.8505 116.464 90.3564C114.396 93.8174 107.519 101.279 107.519 101.279C107.519 101.279 114.531 95.3456 118.801 93.3679C123.071 91.3902 125.768 92.5139 129.139 88.2439C132.555 83.9738 134.443 80.5128 134.353 77.0968C134.308 73.6358 130.668 66.2643 130.668 66.2643Z" fill="#92E3A9" stroke="#263238" stroke-miterlimit="10" stroke-linecap="round" stroke-linejoin="round"/>
<path d="M118.666 84.2885C118.666 84.2885 119.205 82.1759 118.756 78.5801" stroke="#263238" stroke-miterlimit="10" stroke-linecap="round" stroke-linejoin="round"/>
<path d="M128.645 87.3C128.151 88.109 127.836 88.6484 127.836 88.6484" stroke="#263238" stroke-miterlimit="10" stroke-linecap="round" stroke-linejoin="round"/>
<path d="M129.005 68.1072L130.039 73.1864L132.421 74.4449L130.623 74.9843C130.623 74.9843 132.421 79.6588 131.162 82.4906C130.578 83.7941 129.859 85.1425 129.23 86.3111" stroke="#263238" stroke-miterlimit="10" stroke-linecap="round" stroke-linejoin="round"/>
<path d="M94.3502 105.234L93.3613 108.156L98.7101 110.313L99.3844 107.392L94.3502 105.234Z" fill="white" stroke="#263238" stroke-miterlimit="10" stroke-linecap="round" stroke-linejoin="round"/>
<path d="M91.203 113.01L89.7197 115.887L90.6636 116.381L91.5626 114.673L98.3048 118.224L97.4508 119.932L98.3947 120.427L99.8779 117.55L91.203 113.01Z" fill="#263238" stroke="#263238" stroke-miterlimit="10" stroke-linecap="round" stroke-linejoin="round"/>
<path d="M94.5296 148.204L69.134 134.945C67.8305 134.271 67.2911 132.607 68.0103 131.304L77.8539 112.471C78.5281 111.167 80.1912 110.628 81.4947 111.347L106.89 124.607C108.194 125.281 108.733 126.944 108.014 128.248L98.1703 147.081C97.4961 148.384 95.833 148.879 94.5296 148.204Z" fill="#A3A3A3" stroke="#263238" stroke-miterlimit="10" stroke-linecap="round" stroke-linejoin="round"/>
<path d="M98.71 110.313L99.7438 113.909C99.7438 113.909 99.564 115.887 99.564 116.471C99.564 117.055 100.823 118.359 100.148 118.674C99.4741 118.943 98.7999 119.033 98.5302 118.494C98.2605 117.909 97.9458 116.966 97.9458 116.966L97.0918 119.617C97.0918 119.617 95.5636 119.033 95.1141 118.674C94.6197 118.314 94.7545 116.786 94.7545 116.786C94.7545 116.786 91.788 115.437 91.5183 114.898C91.2486 114.314 91.5183 112.426 91.5183 112.426L93.4061 108.156L98.71 110.313Z" fill="white" stroke="#263238" stroke-miterlimit="10" stroke-linecap="round" stroke-linejoin="round"/>
<path d="M131.927 65.1407L130.668 66.2644L135.073 77.5463L139.478 72.7369C139.523 72.7369 134.803 65.8149 131.927 65.1407Z" fill="white" stroke="#263238" stroke-miterlimit="10" stroke-linecap="round" stroke-linejoin="round"/>
<path d="M142.265 72.8267L144.422 76.2877C144.422 76.2877 144.197 72.2424 143.388 69.4107L142.265 72.8267Z" fill="white" stroke="#263238" stroke-miterlimit="10" stroke-linecap="round" stroke-linejoin="round"/>
<path d="M139.613 77.9958C139.613 77.9958 138.894 79.3442 135.208 78.7599C131.477 78.2205 127.072 73.3661 123.521 72.8268C119.971 72.2874 114.127 76.063 109.543 75.209C104.958 74.355 100.598 71.9727 100.598 71.9727L93.1816 76.3327C93.1816 76.3327 100.463 79.5689 101.182 79.6588C101.902 79.7487 111.386 80.9174 114.307 79.7487C117.229 78.5801 121.184 75.7034 124.196 76.7372C127.207 77.771 130.758 82.1759 134.399 81.7264C137.95 81.232 139.613 77.9958 139.613 77.9958Z" fill="#263238" stroke="#263238" stroke-miterlimit="10" stroke-linecap="round" stroke-linejoin="round"/>
</svg>
