<svg width="319" height="339" viewBox="0 0 319 339" fill="none" xmlns="http://www.w3.org/2000/svg">
<path fill-rule="evenodd" clip-rule="evenodd" d="M256.632 261.483C262.025 217.072 253.588 170.603 229.497 128.877C205.406 87.1496 169.381 56.6078 128.223 39.0735C116.21 42.019 104.408 46.6938 93.1567 53.1895C81.4219 59.9646 71.1025 68.2497 62.3023 77.6579C57.0479 121.898 65.5158 168.15 89.5049 209.701C113.494 251.251 149.315 281.71 190.256 299.28C202.804 296.363 215.139 291.569 226.873 284.794C238.125 278.298 248.075 270.414 256.632 261.483Z" fill="url(#paint0_linear_1_1071)"/>
<circle cx="159.5" cy="169.289" r="104.973" transform="rotate(-30 159.5 169.289)" fill="url(#paint1_radial_1_1071)" stroke="#242424" stroke-width="4"/>
<circle cx="159.5" cy="169.288" r="92.5875" transform="rotate(-30 159.5 169.288)" fill="url(#paint2_linear_1_1071)" stroke="#888888" stroke-width="5" stroke-dasharray="2 5"/>
<circle cx="159.501" cy="169.289" r="88.253" transform="rotate(-30 159.501 169.289)" fill="black"/>
<path d="M122.281 199.854L124.774 202.346C125.913 203.486 126.771 204.575 127.348 205.612C127.925 206.65 128.253 207.644 128.335 208.594C128.409 209.536 128.267 210.432 127.908 211.28C127.541 212.121 126.988 212.911 126.249 213.65C125.659 214.24 125.035 214.715 124.377 215.075C123.712 215.427 123.017 215.648 122.291 215.736C121.565 215.811 120.806 215.743 120.012 215.533C119.225 215.316 118.404 214.936 117.55 214.393C116.702 213.844 115.824 213.114 114.915 212.206L112.422 209.713C111.282 208.573 110.428 207.488 109.858 206.457C109.295 205.419 108.976 204.429 108.901 203.486C108.827 202.543 108.976 201.654 109.349 200.82C109.715 199.979 110.268 199.189 111.008 198.449C111.604 197.853 112.228 197.378 112.88 197.025C113.538 196.666 114.226 196.445 114.945 196.364C115.664 196.269 116.417 196.33 117.204 196.547C117.984 196.757 118.798 197.137 119.646 197.686C120.494 198.222 121.372 198.945 122.281 199.854ZM122.454 205.399L119.218 202.163C118.649 201.593 118.12 201.132 117.631 200.779C117.143 200.413 116.688 200.142 116.268 199.965C115.847 199.789 115.454 199.701 115.088 199.701C114.714 199.694 114.365 199.765 114.04 199.915C113.714 200.064 113.409 200.281 113.124 200.566C112.771 200.918 112.527 201.305 112.391 201.726C112.249 202.139 112.232 202.591 112.34 203.079C112.449 203.567 112.7 204.11 113.093 204.707C113.487 205.29 114.036 205.935 114.742 206.64L117.977 209.876C118.547 210.445 119.076 210.913 119.564 211.28C120.06 211.639 120.521 211.91 120.948 212.094C121.382 212.27 121.786 212.368 122.159 212.389C122.532 212.395 122.885 212.328 123.217 212.185C123.543 212.036 123.848 211.819 124.133 211.534C124.492 211.174 124.736 210.788 124.865 210.374C125.001 209.954 125.011 209.496 124.896 209.001C124.774 208.499 124.513 207.953 124.112 207.362C123.712 206.759 123.159 206.104 122.454 205.399Z" fill="#E4F5FF"/>
<path d="M125.598 184.022L125.964 183.656L128.131 185.823L127.958 185.996C127.138 186.816 126.541 187.664 126.168 188.539C125.801 189.408 125.639 190.276 125.679 191.144C125.72 191.999 125.944 192.84 126.351 193.667C126.751 194.488 127.314 195.261 128.04 195.987L130.441 198.388C131.004 198.951 131.557 199.389 132.099 199.701C132.642 199.999 133.164 200.189 133.666 200.271C134.168 200.339 134.633 200.301 135.06 200.159C135.494 200.01 135.884 199.762 136.23 199.416C136.576 199.07 136.817 198.687 136.953 198.266C137.088 197.846 137.126 197.408 137.065 196.954C137.004 196.486 136.848 196.025 136.597 195.57C136.352 195.109 136.02 194.668 135.6 194.247C135.186 193.834 134.752 193.501 134.297 193.25C133.843 192.999 133.385 192.84 132.924 192.772C132.456 192.697 132.005 192.735 131.57 192.884C131.136 193.02 130.736 193.271 130.37 193.637C129.895 194.112 129.583 194.648 129.434 195.244C129.278 195.835 129.268 196.415 129.403 196.984C129.539 197.554 129.793 198.046 130.166 198.46L128.813 198.917C128.27 198.307 127.863 197.656 127.592 196.964C127.328 196.265 127.195 195.556 127.195 194.837C127.202 194.112 127.355 193.403 127.653 192.711C127.958 192.012 128.416 191.358 129.027 190.747C129.732 190.042 130.485 189.56 131.286 189.302C132.079 189.038 132.88 188.963 133.687 189.079C134.501 189.187 135.298 189.455 136.078 189.882C136.851 190.303 137.57 190.846 138.235 191.51C138.947 192.223 139.496 193.003 139.883 193.851C140.276 194.692 140.49 195.556 140.524 196.445C140.558 197.334 140.402 198.209 140.056 199.07C139.71 199.932 139.161 200.739 138.408 201.492C137.614 202.285 136.753 202.848 135.823 203.181C134.901 203.506 133.951 203.628 132.975 203.547C131.998 203.466 131.038 203.191 130.095 202.723C129.152 202.255 128.27 201.61 127.45 200.79L126.371 199.711C125.211 198.551 124.292 197.313 123.614 195.997C122.936 194.681 122.535 193.338 122.413 191.968C122.291 190.584 122.488 189.221 123.003 187.878C123.512 186.528 124.377 185.243 125.598 184.022Z" fill="#E4F5FF"/>
<path d="M143.851 193.016C143.444 192.609 143.241 192.128 143.241 191.571C143.241 191.015 143.478 190.5 143.953 190.025C144.428 189.55 144.943 189.313 145.499 189.313C146.056 189.313 146.537 189.516 146.944 189.923C147.344 190.323 147.545 190.802 147.545 191.358C147.538 191.907 147.297 192.419 146.822 192.894C146.347 193.369 145.835 193.61 145.286 193.617C144.73 193.617 144.251 193.416 143.851 193.016ZM135.325 184.47C134.918 184.063 134.714 183.581 134.714 183.025C134.714 182.469 134.952 181.953 135.427 181.478C135.901 181.003 136.417 180.766 136.973 180.766C137.529 180.766 138.011 180.969 138.418 181.376C138.818 181.777 139.018 182.255 139.018 182.811C139.011 183.361 138.771 183.873 138.296 184.347C137.821 184.822 137.309 185.063 136.759 185.07C136.203 185.07 135.725 184.87 135.325 184.47Z" fill="#E4F5FF"/>
<path d="M151.767 170.368L154.26 172.86C155.399 174 156.257 175.089 156.834 176.126C157.411 177.164 157.74 178.158 157.821 179.108C157.896 180.05 157.753 180.946 157.394 181.794C157.027 182.635 156.474 183.425 155.735 184.164C155.145 184.754 154.521 185.229 153.863 185.589C153.198 185.941 152.503 186.162 151.777 186.25C151.051 186.325 150.292 186.257 149.498 186.047C148.711 185.83 147.89 185.45 147.036 184.907C146.188 184.358 145.31 183.628 144.401 182.72L141.908 180.227C140.768 179.087 139.914 178.002 139.344 176.971C138.781 175.933 138.462 174.943 138.387 174C138.313 173.057 138.462 172.168 138.835 171.334C139.201 170.493 139.754 169.703 140.494 168.963C141.09 168.367 141.714 167.892 142.366 167.539C143.024 167.179 143.712 166.959 144.431 166.878C145.15 166.783 145.903 166.844 146.69 167.061C147.47 167.271 148.284 167.651 149.132 168.2C149.98 168.736 150.858 169.459 151.767 170.368ZM151.94 175.913L148.704 172.677C148.135 172.107 147.606 171.646 147.117 171.293C146.629 170.927 146.174 170.656 145.754 170.479C145.333 170.303 144.94 170.215 144.574 170.215C144.2 170.208 143.851 170.279 143.526 170.429C143.2 170.578 142.895 170.795 142.61 171.08C142.257 171.432 142.013 171.819 141.877 172.24C141.735 172.653 141.718 173.104 141.826 173.593C141.935 174.081 142.186 174.624 142.579 175.221C142.973 175.804 143.522 176.449 144.228 177.154L147.463 180.39C148.033 180.959 148.562 181.427 149.05 181.794C149.546 182.153 150.007 182.424 150.434 182.608C150.868 182.784 151.272 182.882 151.645 182.903C152.018 182.909 152.371 182.842 152.703 182.699C153.029 182.55 153.334 182.333 153.619 182.048C153.978 181.688 154.222 181.302 154.351 180.888C154.487 180.468 154.497 180.01 154.382 179.514C154.26 179.013 153.999 178.467 153.598 177.876C153.198 177.273 152.645 176.618 151.94 175.913Z" fill="#E4F5FF"/>
<path d="M163.671 158.463L166.164 160.956C167.304 162.096 168.162 163.184 168.738 164.222C169.315 165.26 169.644 166.254 169.725 167.203C169.8 168.146 169.657 169.041 169.298 169.889C168.932 170.73 168.379 171.521 167.639 172.26C167.049 172.85 166.425 173.325 165.767 173.684C165.103 174.037 164.407 174.258 163.681 174.346C162.956 174.42 162.196 174.353 161.402 174.142C160.616 173.925 159.795 173.545 158.94 173.003C158.092 172.453 157.214 171.724 156.305 170.815L153.812 168.322C152.673 167.183 151.818 166.098 151.248 165.067C150.685 164.029 150.366 163.038 150.292 162.096C150.217 161.153 150.366 160.264 150.739 159.43C151.106 158.589 151.658 157.798 152.398 157.059C152.995 156.462 153.619 155.987 154.27 155.635C154.928 155.275 155.616 155.055 156.335 154.973C157.054 154.878 157.807 154.939 158.594 155.156C159.374 155.367 160.188 155.747 161.036 156.296C161.884 156.832 162.762 157.554 163.671 158.463ZM163.844 164.008L160.609 160.773C160.039 160.203 159.51 159.742 159.022 159.389C158.533 159.023 158.079 158.752 157.658 158.575C157.238 158.399 156.844 158.311 156.478 158.311C156.105 158.304 155.755 158.375 155.43 158.524C155.104 158.674 154.799 158.891 154.514 159.175C154.161 159.528 153.917 159.915 153.782 160.335C153.639 160.749 153.622 161.2 153.731 161.689C153.839 162.177 154.09 162.72 154.484 163.317C154.877 163.9 155.426 164.544 156.132 165.25L159.367 168.485C159.937 169.055 160.466 169.523 160.955 169.889C161.45 170.249 161.911 170.52 162.338 170.703C162.773 170.88 163.176 170.978 163.549 170.998C163.922 171.005 164.275 170.937 164.607 170.795C164.933 170.646 165.238 170.429 165.523 170.144C165.883 169.784 166.127 169.398 166.256 168.984C166.391 168.563 166.401 168.105 166.286 167.61C166.164 167.108 165.903 166.562 165.503 165.972C165.103 165.368 164.55 164.714 163.844 164.008Z" fill="#E4F5FF"/>
<path d="M178.313 156.5L173.235 151.422C172.862 151.049 172.476 150.792 172.076 150.649C171.675 150.507 171.268 150.493 170.855 150.608C170.441 150.724 170.03 150.985 169.623 151.392C169.264 151.751 169.01 152.128 168.86 152.521C168.718 152.908 168.687 153.284 168.769 153.651C168.843 154.01 169.023 154.332 169.308 154.617L166.612 157.313C166.157 156.859 165.835 156.32 165.645 155.696C165.448 155.065 165.391 154.39 165.472 153.671C165.554 152.938 165.784 152.199 166.164 151.453C166.551 150.7 167.097 149.971 167.802 149.265C168.637 148.431 169.522 147.831 170.458 147.464C171.394 147.085 172.33 146.99 173.266 147.18C174.209 147.363 175.108 147.882 175.962 148.736L180.765 153.539C181.314 154.088 181.819 154.526 182.281 154.851C182.742 155.163 183.186 155.39 183.614 155.533L183.787 155.706L181.05 158.443C180.643 158.294 180.191 158.039 179.696 157.68C179.194 157.313 178.733 156.92 178.313 156.5ZM174.324 151.758L175.942 153.335L174.243 155.034C173.822 155.455 173.497 155.869 173.266 156.276C173.029 156.676 172.89 157.059 172.849 157.425C172.801 157.785 172.839 158.127 172.961 158.453C173.076 158.772 173.273 159.07 173.551 159.348C173.822 159.62 174.127 159.803 174.467 159.898C174.813 159.986 175.169 159.976 175.535 159.867C175.901 159.745 176.247 159.521 176.573 159.196C177.048 158.721 177.366 158.212 177.529 157.67C177.685 157.12 177.722 156.608 177.641 156.133C177.56 155.658 177.4 155.289 177.163 155.024L179.096 155.411C179.279 155.784 179.432 156.221 179.554 156.723C179.676 157.225 179.723 157.761 179.696 158.331C179.669 158.901 179.534 159.484 179.289 160.081C179.045 160.678 178.645 161.254 178.089 161.811C177.377 162.523 176.596 163.018 175.749 163.296C174.901 163.574 174.066 163.629 173.246 163.459C172.425 163.289 171.699 162.889 171.068 162.258C170.485 161.675 170.078 161.051 169.847 160.386C169.617 159.721 169.562 159.023 169.685 158.29C169.8 157.551 170.095 156.788 170.57 156.001C171.045 155.201 171.692 154.39 172.513 153.569L174.324 151.758Z" fill="#E4F5FF"/>
<path d="M179.706 142.286L188.457 151.036L185.771 153.722L174.762 142.713L177.295 140.179L179.706 142.286ZM182.159 145.531L181.334 146.355C180.568 145.589 179.954 144.792 179.493 143.964C179.038 143.13 178.757 142.292 178.648 141.451C178.533 140.603 178.611 139.779 178.882 138.979C179.16 138.172 179.656 137.412 180.368 136.7C180.863 136.205 181.392 135.825 181.955 135.56C182.511 135.289 183.095 135.16 183.705 135.174C184.316 135.174 184.95 135.34 185.608 135.672C186.259 135.998 186.927 136.503 187.612 137.188L194.958 144.534L192.272 147.22L185.201 140.149C184.685 139.633 184.207 139.304 183.766 139.162C183.332 139.013 182.922 139.016 182.535 139.172C182.142 139.321 181.755 139.586 181.375 139.966C180.955 140.386 180.676 140.834 180.541 141.309C180.405 141.77 180.385 142.245 180.48 142.733C180.582 143.215 180.775 143.693 181.06 144.168C181.351 144.636 181.718 145.09 182.159 145.531ZM188.355 138.338L187.449 139.65C186.764 138.952 186.211 138.209 185.791 137.422C185.364 136.629 185.099 135.828 184.997 135.021C184.896 134.2 184.98 133.396 185.252 132.61C185.523 131.809 186.008 131.06 186.707 130.361C187.249 129.818 187.816 129.408 188.406 129.13C188.996 128.838 189.613 128.702 190.258 128.723C190.895 128.736 191.557 128.923 192.242 129.282C192.933 129.635 193.656 130.188 194.409 130.941L201.48 138.012L198.774 140.719L191.692 133.637C191.156 133.101 190.671 132.766 190.237 132.63C189.81 132.487 189.406 132.498 189.026 132.66C188.64 132.816 188.263 133.078 187.897 133.444C187.524 133.817 187.27 134.214 187.134 134.634C186.998 135.041 186.958 135.462 187.012 135.896C187.073 136.323 187.219 136.747 187.449 137.168C187.68 137.575 187.982 137.965 188.355 138.338Z" fill="#E4F5FF"/>
<path d="M102.156 138.879L103.06 139.782C103.545 140.268 103.912 140.721 104.159 141.142C104.406 141.562 104.549 141.956 104.59 142.322C104.631 142.688 104.582 143.033 104.443 143.356C104.305 143.673 104.092 143.976 103.805 144.263C103.577 144.491 103.338 144.673 103.088 144.809C102.839 144.944 102.574 145.027 102.295 145.057C102.015 145.081 101.719 145.046 101.407 144.951C101.095 144.856 100.766 144.692 100.418 144.459C100.071 144.225 99.7035 143.915 99.3155 143.527L98.412 142.623C97.9263 142.138 97.5627 141.687 97.3213 141.272C97.0825 140.854 96.9455 140.465 96.9102 140.104C96.8722 139.74 96.9238 139.401 97.0649 139.087C97.2087 138.769 97.423 138.468 97.7079 138.183C97.9385 137.952 98.1786 137.769 98.4283 137.634C98.6779 137.492 98.9397 137.407 99.2137 137.377C99.4851 137.345 99.774 137.376 100.081 137.471C100.387 137.56 100.713 137.72 101.057 137.951C101.402 138.182 101.768 138.491 102.156 138.879ZM102.425 140.662L101.273 139.51C101.007 139.244 100.758 139.027 100.524 138.859C100.291 138.685 100.072 138.556 99.869 138.472C99.6655 138.388 99.4729 138.347 99.2911 138.35C99.112 138.35 98.9424 138.389 98.7823 138.468C98.6223 138.541 98.469 138.651 98.3224 138.798C98.1434 138.977 98.0186 139.169 97.948 139.375C97.8748 139.579 97.8626 139.8 97.9114 140.039C97.9629 140.275 98.081 140.534 98.2655 140.816C98.45 141.098 98.7091 141.406 99.0428 141.74L100.195 142.892C100.46 143.158 100.71 143.377 100.943 143.551C101.179 143.722 101.403 143.851 101.615 143.938C101.824 144.022 102.021 144.067 102.205 144.072C102.39 144.077 102.563 144.045 102.726 143.974C102.889 143.898 103.042 143.789 103.186 143.645C103.37 143.46 103.497 143.264 103.564 143.055C103.632 142.846 103.638 142.62 103.581 142.379C103.524 142.132 103.4 141.868 103.21 141.585C103.018 141.3 102.756 140.993 102.425 140.662Z" fill="#BDBDBD"/>
<path d="M104.464 131.59L104.887 132.013L107.935 139.97L107.142 140.763L104.285 133.006L101.078 136.213L100.459 135.595L104.464 131.59Z" fill="#BDBDBD"/>
<path d="M110.898 136.209C110.771 136.082 110.703 135.935 110.695 135.77C110.687 135.599 110.759 135.437 110.91 135.285C111.062 135.133 111.222 135.063 111.391 135.074C111.559 135.079 111.707 135.146 111.834 135.273C111.959 135.398 112.024 135.544 112.03 135.713C112.038 135.878 111.966 136.037 111.814 136.189C111.662 136.341 111.502 136.414 111.334 136.409C111.168 136.4 111.023 136.334 110.898 136.209ZM107.309 132.611C107.181 132.484 107.113 132.337 107.105 132.172C107.097 132.001 107.169 131.839 107.321 131.688C107.473 131.536 107.633 131.465 107.801 131.476C107.969 131.481 108.117 131.548 108.245 131.675C108.37 131.8 108.435 131.947 108.44 132.115C108.448 132.28 108.376 132.439 108.224 132.591C108.072 132.743 107.912 132.816 107.744 132.811C107.579 132.803 107.433 132.736 107.309 132.611Z" fill="#BDBDBD"/>
<path d="M113.552 127.483L114.455 128.387C114.941 128.873 115.307 129.326 115.554 129.746C115.801 130.167 115.945 130.56 115.986 130.926C116.026 131.293 115.977 131.637 115.839 131.96C115.701 132.278 115.488 132.58 115.2 132.868C114.972 133.096 114.733 133.277 114.484 133.413C114.234 133.549 113.97 133.632 113.69 133.661C113.411 133.686 113.115 133.651 112.803 133.556C112.491 133.461 112.161 133.296 111.814 133.063C111.467 132.83 111.099 132.519 110.711 132.131L109.808 131.228C109.322 130.742 108.958 130.292 108.717 129.876C108.478 129.459 108.341 129.069 108.306 128.708C108.268 128.345 108.319 128.006 108.46 127.691C108.604 127.373 108.819 127.072 109.103 126.787C109.334 126.557 109.574 126.374 109.824 126.238C110.073 126.097 110.335 126.011 110.609 125.982C110.881 125.949 111.17 125.98 111.476 126.075C111.783 126.165 112.108 126.325 112.453 126.555C112.798 126.786 113.164 127.095 113.552 127.483ZM113.82 129.266L112.669 128.114C112.403 127.848 112.153 127.631 111.92 127.463C111.686 127.289 111.468 127.161 111.265 127.076C111.061 126.992 110.868 126.952 110.687 126.954C110.508 126.954 110.338 126.994 110.178 127.072C110.018 127.146 109.865 127.255 109.718 127.402C109.539 127.581 109.414 127.774 109.344 127.98C109.27 128.183 109.258 128.405 109.307 128.643C109.359 128.879 109.477 129.138 109.661 129.421C109.846 129.703 110.105 130.011 110.438 130.344L111.59 131.496C111.856 131.762 112.106 131.982 112.339 132.156C112.575 132.326 112.799 132.455 113.011 132.542C113.219 132.626 113.416 132.671 113.601 132.676C113.785 132.682 113.959 132.649 114.122 132.579C114.284 132.503 114.438 132.393 114.581 132.249C114.766 132.065 114.892 131.868 114.96 131.659C115.028 131.45 115.033 131.225 114.976 130.983C114.919 130.737 114.796 130.472 114.606 130.19C114.413 129.905 114.151 129.597 113.82 129.266Z" fill="#BDBDBD"/>
<path d="M118.24 122.795L119.144 123.698C119.629 124.184 119.996 124.637 120.243 125.058C120.49 125.478 120.633 125.872 120.674 126.238C120.715 126.604 120.666 126.949 120.528 127.272C120.389 127.589 120.176 127.892 119.889 128.179C119.661 128.407 119.422 128.589 119.172 128.725C118.923 128.86 118.658 128.943 118.379 128.973C118.099 128.997 117.803 128.962 117.491 128.867C117.179 128.772 116.85 128.608 116.502 128.375C116.155 128.141 115.788 127.831 115.4 127.443L114.496 126.539C114.01 126.054 113.647 125.603 113.405 125.188C113.167 124.77 113.03 124.381 112.994 124.02C112.956 123.656 113.008 123.317 113.149 123.002C113.293 122.685 113.507 122.384 113.792 122.099C114.023 121.868 114.263 121.685 114.512 121.55C114.762 121.408 115.024 121.323 115.298 121.293C115.569 121.261 115.858 121.292 116.165 121.387C116.471 121.476 116.797 121.636 117.141 121.867C117.486 122.098 117.852 122.407 118.24 122.795ZM118.509 124.578L117.357 123.426C117.091 123.16 116.842 122.943 116.608 122.775C116.375 122.601 116.157 122.472 115.953 122.388C115.75 122.304 115.557 122.263 115.375 122.266C115.196 122.266 115.026 122.305 114.866 122.384C114.706 122.457 114.553 122.567 114.406 122.714C114.227 122.893 114.103 123.085 114.032 123.291C113.959 123.495 113.947 123.716 113.995 123.955C114.047 124.191 114.165 124.45 114.349 124.732C114.534 125.014 114.793 125.322 115.127 125.656L116.279 126.808C116.544 127.074 116.794 127.293 117.027 127.467C117.264 127.638 117.487 127.767 117.699 127.854C117.908 127.938 118.105 127.983 118.289 127.988C118.474 127.993 118.647 127.961 118.81 127.89C118.973 127.814 119.126 127.705 119.27 127.561C119.454 127.376 119.581 127.179 119.648 126.971C119.716 126.762 119.722 126.536 119.665 126.295C119.608 126.048 119.484 125.784 119.294 125.501C119.102 125.216 118.84 124.909 118.509 124.578Z" fill="#BDBDBD"/>
<path d="M124.569 121.83L122.302 119.563C122.128 119.39 121.942 119.274 121.744 119.218C121.546 119.155 121.343 119.158 121.134 119.226C120.925 119.293 120.719 119.429 120.515 119.633C120.325 119.823 120.191 120.022 120.112 120.231C120.036 120.437 120.011 120.634 120.035 120.821C120.062 121.006 120.137 121.159 120.259 121.281L119.506 122.034C119.349 121.876 119.233 121.68 119.16 121.444C119.087 121.208 119.064 120.951 119.091 120.675C119.118 120.392 119.202 120.107 119.343 119.82C119.484 119.527 119.688 119.247 119.954 118.981C120.274 118.661 120.61 118.433 120.963 118.298C121.318 118.159 121.675 118.131 122.033 118.212C122.392 118.288 122.735 118.49 123.063 118.819L125.114 120.87C125.261 121.016 125.429 121.16 125.619 121.301C125.812 121.44 125.993 121.543 126.164 121.611L126.229 121.676L125.444 122.461C125.319 122.412 125.174 122.327 125.008 122.205C124.84 122.08 124.694 121.955 124.569 121.83ZM122.782 119.783L123.319 120.304L122.558 121.065C122.344 121.28 122.17 121.488 122.037 121.692C121.902 121.893 121.811 122.084 121.765 122.266C121.719 122.448 121.717 122.62 121.761 122.783C121.801 122.943 121.89 123.091 122.025 123.226C122.164 123.365 122.321 123.46 122.497 123.511C122.674 123.563 122.858 123.56 123.051 123.503C123.243 123.441 123.432 123.317 123.617 123.133C123.847 122.902 124.002 122.65 124.08 122.376C124.159 122.102 124.18 121.843 124.142 121.598C124.106 121.351 124.026 121.157 123.901 121.016L124.585 121.057C124.68 121.19 124.755 121.368 124.809 121.59C124.863 121.813 124.884 122.058 124.87 122.327C124.856 122.59 124.795 122.86 124.687 123.137C124.578 123.408 124.405 123.663 124.166 123.902C123.868 124.2 123.547 124.404 123.205 124.512C122.866 124.618 122.537 124.636 122.217 124.565C121.896 124.489 121.614 124.329 121.37 124.085C121.134 123.849 120.972 123.595 120.886 123.324C120.796 123.05 120.778 122.766 120.833 122.473C120.884 122.178 121.001 121.876 121.183 121.57C121.365 121.263 121.606 120.959 121.907 120.658L122.782 119.783Z" fill="#BDBDBD"/>
<path d="M124.479 116.369L128.008 119.897L127.251 120.654L122.847 116.251L123.564 115.534L124.479 116.369ZM125.485 117.683L125.122 118.021C124.824 117.717 124.585 117.4 124.406 117.069C124.224 116.735 124.113 116.398 124.072 116.059C124.032 115.72 124.071 115.388 124.19 115.062C124.307 114.734 124.512 114.423 124.805 114.13C125.011 113.924 125.231 113.764 125.464 113.65C125.695 113.533 125.936 113.474 126.189 113.471C126.441 113.468 126.7 113.529 126.966 113.654C127.232 113.779 127.503 113.98 127.78 114.256L130.714 117.191L129.961 117.944L127.064 115.046C126.833 114.815 126.609 114.67 126.392 114.61C126.178 114.548 125.969 114.556 125.765 114.635C125.559 114.711 125.361 114.844 125.171 115.034C124.949 115.256 124.802 115.481 124.732 115.709C124.661 115.937 124.65 116.165 124.699 116.393C124.748 116.621 124.842 116.845 124.98 117.065C125.118 117.279 125.287 117.485 125.485 117.683ZM127.922 114.415L127.572 115.074C127.334 114.83 127.141 114.559 126.995 114.26C126.851 113.959 126.765 113.649 126.738 113.328C126.714 113.006 126.76 112.685 126.876 112.368C126.99 112.048 127.187 111.748 127.467 111.469C127.703 111.232 127.943 111.055 128.187 110.935C128.434 110.813 128.685 110.755 128.94 110.76C129.195 110.76 129.455 110.828 129.721 110.964C129.987 111.1 130.259 111.306 130.535 111.582L133.429 114.476L132.672 115.233L129.77 112.331C129.523 112.084 129.293 111.933 129.078 111.876C128.864 111.813 128.659 111.825 128.464 111.912C128.268 111.994 128.074 112.131 127.882 112.323C127.716 112.489 127.598 112.664 127.528 112.848C127.457 113.033 127.429 113.219 127.442 113.406C127.453 113.59 127.499 113.769 127.581 113.943C127.665 114.114 127.779 114.271 127.922 114.415Z" fill="#BDBDBD"/>
<path d="M162.334 217.213C161.831 216.817 161.265 216.684 160.638 216.814C160.01 216.944 159.421 217.284 158.871 217.835C158.468 218.237 158.181 218.655 158.009 219.087C157.841 219.516 157.786 219.929 157.845 220.326C157.907 220.719 158.083 221.061 158.373 221.351C158.616 221.594 158.883 221.745 159.173 221.804C159.463 221.857 159.757 221.85 160.056 221.782C160.352 221.711 160.638 221.612 160.913 221.484C161.185 221.354 161.428 221.227 161.641 221.103L162.813 220.428C163.112 220.253 163.461 220.076 163.861 219.895C164.264 219.711 164.693 219.581 165.149 219.504C165.604 219.421 166.066 219.439 166.534 219.558C167.001 219.676 167.448 219.948 167.875 220.375C168.366 220.866 168.681 221.439 168.82 222.093C168.962 222.744 168.905 223.432 168.647 224.157C168.393 224.879 167.916 225.59 167.218 226.288C166.566 226.94 165.897 227.398 165.211 227.665C164.527 227.928 163.861 228.008 163.213 227.904C162.568 227.798 161.979 227.514 161.446 227.052L162.582 225.915C162.955 226.229 163.355 226.398 163.781 226.422C164.207 226.439 164.631 226.348 165.051 226.146C165.471 225.939 165.862 225.655 166.223 225.294C166.643 224.874 166.953 224.428 167.151 223.957C167.346 223.484 167.419 223.027 167.369 222.586C167.315 222.142 167.123 221.754 166.791 221.422C166.489 221.12 166.159 220.959 165.801 220.938C165.443 220.918 165.067 220.986 164.674 221.143C164.28 221.299 163.879 221.493 163.47 221.724L162.032 222.523C161.117 223.03 160.263 223.3 159.47 223.336C158.677 223.371 157.974 223.083 157.361 222.47C156.852 221.961 156.546 221.379 156.442 220.725C156.338 220.065 156.415 219.396 156.673 218.718C156.93 218.035 157.349 217.403 157.929 216.823C158.515 216.237 159.142 215.821 159.807 215.575C160.47 215.326 161.116 215.249 161.743 215.344C162.374 215.436 162.926 215.704 163.399 216.148L162.334 217.213Z" fill="#E4F5FF"/>
<path d="M168.158 211.389L169.046 212.277L165.512 215.811L164.624 214.924L168.158 211.389ZM164.02 212.26L165.068 211.212L171.567 217.712C171.863 218.008 172.128 218.187 172.362 218.249C172.596 218.305 172.806 218.29 172.993 218.205C173.179 218.113 173.349 217.99 173.503 217.836C173.619 217.721 173.707 217.62 173.77 217.534C173.829 217.445 173.876 217.374 173.912 217.321L175.066 218.049C175.022 218.147 174.949 218.273 174.849 218.427C174.751 218.583 174.604 218.76 174.409 218.955C174.113 219.251 173.759 219.477 173.348 219.634C172.939 219.788 172.512 219.828 172.065 219.754C171.621 219.677 171.2 219.44 170.804 219.044L164.02 212.26Z" fill="#E4F5FF"/>
<path d="M178.063 209.547L174.032 205.516L175.079 204.468L181.899 211.287L180.851 212.335L179.697 211.181L179.626 211.252C179.812 211.758 179.858 212.301 179.763 212.881C179.666 213.458 179.359 214.004 178.844 214.519C178.418 214.946 177.946 215.231 177.428 215.376C176.907 215.518 176.362 215.495 175.794 215.305C175.223 215.113 174.647 214.727 174.067 214.147L169.734 209.813L170.782 208.765L175.044 213.028C175.541 213.525 176.077 213.782 176.651 213.8C177.228 213.815 177.734 213.605 178.17 213.17C178.43 212.909 178.628 212.578 178.764 212.175C178.904 211.77 178.927 211.338 178.835 210.879C178.747 210.417 178.489 209.973 178.063 209.547Z" fill="#E4F5FF"/>
<path d="M186.535 206.935C185.967 207.503 185.322 207.862 184.599 208.01C183.874 208.155 183.125 208.087 182.353 207.805C181.577 207.521 180.829 207.018 180.106 206.296C179.39 205.58 178.891 204.835 178.61 204.063C178.329 203.29 178.264 202.541 178.415 201.816C178.566 201.091 178.928 200.441 179.503 199.867C179.947 199.423 180.371 199.146 180.777 199.037C181.182 198.921 181.546 198.889 181.869 198.939C182.192 198.983 182.451 199.026 182.646 199.068L182.735 198.979L179.378 195.622L180.426 194.575L189.519 203.667L188.507 204.68L187.459 203.632L187.334 203.756C187.382 203.957 187.429 204.224 187.477 204.555C187.521 204.884 187.485 205.254 187.37 205.665C187.252 206.074 186.973 206.497 186.535 206.935ZM185.736 205.852C186.156 205.432 186.402 204.967 186.473 204.458C186.541 203.946 186.455 203.419 186.216 202.877C185.973 202.333 185.594 201.803 185.079 201.288C184.57 200.779 184.05 200.407 183.521 200.173C182.988 199.936 182.47 199.857 181.967 199.934C181.461 200.008 180.994 200.258 180.568 200.684C180.124 201.128 179.868 201.612 179.8 202.136C179.732 202.654 179.818 203.181 180.058 203.716C180.297 204.246 180.657 204.751 181.136 205.23C181.622 205.716 182.137 206.083 182.681 206.331C183.226 206.574 183.762 206.666 184.289 206.607C184.816 206.541 185.298 206.29 185.736 205.852Z" fill="#E4F5FF"/>
<path d="M194.816 203.485C194.638 203.663 194.465 203.807 194.296 203.916C194.13 204.029 194.007 204.098 193.928 204.125L193.27 202.935C193.59 202.745 193.839 202.544 194.016 202.331C194.194 202.118 194.28 201.857 194.274 201.55C194.274 201.242 194.164 200.851 193.945 200.378L193.608 199.649L184.231 195.316L185.368 194.18L192.684 197.731L192.755 197.66L189.204 190.343L190.34 189.207L195.26 199.916C195.482 200.398 195.612 200.851 195.65 201.274C195.692 201.701 195.641 202.097 195.499 202.464C195.36 202.828 195.132 203.169 194.816 203.485Z" fill="#E4F5FF"/>
<path d="M198.205 181.342L199.093 182.23L195.559 185.764L194.671 184.876L198.205 181.342ZM194.067 182.212L195.115 181.164L201.615 187.664C201.911 187.96 202.176 188.139 202.41 188.201C202.644 188.258 202.854 188.243 203.04 188.157C203.227 188.065 203.397 187.942 203.551 187.788C203.666 187.673 203.755 187.572 203.817 187.486C203.876 187.398 203.924 187.327 203.959 187.273L205.114 188.001C205.069 188.099 204.997 188.225 204.896 188.379C204.799 188.536 204.652 188.712 204.457 188.907C204.161 189.203 203.807 189.43 203.396 189.587C202.987 189.74 202.559 189.78 202.112 189.706C201.668 189.629 201.248 189.393 200.851 188.996L194.067 182.212Z" fill="#E4F5FF"/>
<path d="M206.601 186.585L199.781 179.766L200.829 178.718L207.649 185.537L206.601 186.585ZM199.178 178.096C198.973 178.3 198.728 178.407 198.441 178.416C198.157 178.422 197.917 178.327 197.721 178.132C197.526 177.936 197.431 177.697 197.437 177.412C197.446 177.125 197.553 176.88 197.757 176.675C197.961 176.471 198.205 176.366 198.489 176.36C198.777 176.351 199.018 176.445 199.213 176.64C199.409 176.835 199.502 177.077 199.493 177.364C199.487 177.648 199.382 177.892 199.178 178.096Z" fill="#E4F5FF"/>
<path d="M209.568 183.618L202.748 176.799L203.761 175.786L204.826 176.852L204.915 176.763C204.693 176.257 204.64 175.745 204.755 175.227C204.868 174.706 205.146 174.224 205.59 173.78C206.04 173.33 206.516 173.057 207.02 172.963C207.523 172.862 208.041 172.909 208.573 173.105L208.645 173.034C208.467 172.507 208.449 171.965 208.591 171.409C208.73 170.849 209.044 170.325 209.532 169.837C210.142 169.227 210.832 168.919 211.601 168.914C212.368 168.905 213.152 169.301 213.955 170.103L218.519 174.668L217.471 175.715L212.907 171.151C212.404 170.648 211.906 170.426 211.415 170.485C210.924 170.544 210.491 170.761 210.119 171.133C209.639 171.613 209.413 172.129 209.439 172.683C209.463 173.233 209.695 173.729 210.136 174.17L214.576 178.61L213.511 179.676L208.84 175.005C208.452 174.617 208.014 174.431 207.526 174.446C207.034 174.457 206.59 174.662 206.194 175.058C205.921 175.331 205.739 175.658 205.648 176.039C205.559 176.418 205.571 176.809 205.683 177.212C205.796 177.608 206.019 177.974 206.354 178.308L210.616 182.57L209.568 183.618Z" fill="#E4F5FF"/>
<path d="M223.436 170.035C222.779 170.692 222.067 171.113 221.3 171.3C220.534 171.481 219.76 171.438 218.978 171.171C218.197 170.899 217.457 170.413 216.758 169.715C216.06 169.016 215.571 168.273 215.293 167.486C215.015 166.693 214.956 165.917 215.116 165.16C215.275 164.396 215.663 163.706 216.279 163.091C216.634 162.736 217.044 162.444 217.509 162.216C217.973 161.988 218.481 161.865 219.031 161.848C219.579 161.827 220.155 161.95 220.759 162.216C221.362 162.482 221.982 162.934 222.619 163.57L223.063 164.014L217.806 169.271L216.9 168.365L221.092 164.174C220.707 163.789 220.286 163.523 219.831 163.375C219.378 163.224 218.923 163.202 218.468 163.308C218.015 163.412 217.599 163.653 217.22 164.032C216.803 164.449 216.545 164.914 216.448 165.426C216.35 165.932 216.384 166.431 216.55 166.922C216.715 167.414 216.986 167.847 217.362 168.223L217.966 168.827C218.481 169.342 219.006 169.69 219.542 169.87C220.078 170.045 220.599 170.066 221.105 169.932C221.608 169.796 222.071 169.517 222.495 169.093C222.77 168.818 222.98 168.531 223.125 168.232C223.27 167.927 223.346 167.615 223.351 167.295C223.354 166.973 223.282 166.648 223.134 166.323L224.43 165.595C224.667 166.045 224.79 166.526 224.799 167.038C224.805 167.547 224.695 168.059 224.47 168.574C224.242 169.086 223.898 169.573 223.436 170.035Z" fill="#E4F5FF"/>
<path d="M121.638 158.409L127.563 164.335L126.774 165.124L119.22 163.537L123.791 168.107L123.005 168.893L117.079 162.967L117.865 162.182L125.443 163.769L120.86 159.186L121.638 158.409Z" fill="#BDBDBD"/>
<path d="M130.75 161.311C130.443 161.617 130.114 161.844 129.761 161.99C129.408 162.131 129.048 162.197 128.679 162.186C128.312 162.172 127.951 162.083 127.596 161.917C127.24 161.752 126.908 161.514 126.599 161.205L126.428 161.034C126.07 160.676 125.804 160.304 125.63 159.919C125.454 159.531 125.359 159.148 125.345 158.771C125.332 158.394 125.39 158.04 125.52 157.709C125.651 157.378 125.839 157.089 126.086 156.842C126.401 156.527 126.726 156.31 127.063 156.191C127.402 156.069 127.742 156.032 128.084 156.081C128.423 156.127 128.76 156.246 129.094 156.439C129.425 156.629 129.745 156.879 130.054 157.188L130.392 157.526L127.103 160.814L126.489 160.2L129.024 157.664L128.967 157.607C128.761 157.423 128.531 157.273 128.276 157.159C128.023 157.043 127.763 156.999 127.494 157.029C127.226 157.059 126.962 157.203 126.705 157.461C126.534 157.632 126.413 157.826 126.342 158.043C126.269 158.257 126.252 158.486 126.29 158.73C126.327 158.975 126.42 159.227 126.566 159.487C126.713 159.748 126.919 160.011 127.185 160.277L127.356 160.448C127.565 160.657 127.79 160.825 128.031 160.953C128.273 161.075 128.518 161.149 128.768 161.176C129.02 161.201 129.266 161.172 129.505 161.091C129.746 161.007 129.97 160.862 130.176 160.655C130.442 160.39 130.613 160.11 130.689 159.817C130.765 159.524 130.781 159.217 130.738 158.897L131.556 158.804C131.605 159.042 131.621 159.3 131.605 159.577C131.588 159.854 131.514 160.14 131.381 160.436C131.251 160.729 131.04 161.02 130.75 161.311Z" fill="#BDBDBD"/>
<path d="M129.366 153.724L131.934 154.363L131.308 151.783L132.191 150.9L132.923 154.514L136.639 155.259L135.768 156.13L133.098 155.495L133.733 158.165L132.858 159.04L132.109 155.328L128.499 154.591L129.366 153.724Z" fill="#BDBDBD"/>
<path d="M134.836 148.255L135.414 148.833L133.033 151.213L132.455 150.635L134.836 148.255ZM132.191 148.759L132.944 148.006L137.327 152.39C137.476 152.539 137.612 152.628 137.734 152.658C137.856 152.688 137.966 152.679 138.064 152.63C138.161 152.581 138.252 152.514 138.336 152.43C138.399 152.368 138.458 152.297 138.515 152.219C138.572 152.135 138.614 152.071 138.641 152.027L139.26 152.638C139.219 152.717 139.158 152.813 139.077 152.927C139.001 153.041 138.895 153.166 138.76 153.301C138.575 153.486 138.369 153.619 138.141 153.7C137.913 153.781 137.667 153.783 137.404 153.704C137.141 153.62 136.863 153.431 136.57 153.138L132.191 148.759Z" fill="#BDBDBD"/>
<path d="M140.929 145.312L141.547 145.931L139.561 147.917L138.943 147.298L140.929 145.312Z" fill="#BDBDBD"/>
<path d="M141.022 139.024L145.536 140.461L144.103 135.943L144.995 135.052L146.663 140.807L148.877 143.021L148.092 143.806L145.878 141.592L140.123 139.924L141.022 139.024Z" fill="#BDBDBD"/>
<path d="M152.971 132.626L153.346 133.001C153.791 133.446 154.134 133.9 154.376 134.364C154.617 134.828 154.757 135.288 154.795 135.744C154.833 136.2 154.77 136.639 154.607 137.063C154.447 137.483 154.187 137.874 153.826 138.235C153.476 138.585 153.089 138.841 152.666 139.004C152.246 139.164 151.805 139.228 151.343 139.195C150.885 139.16 150.421 139.024 149.952 138.788C149.482 138.552 149.025 138.212 148.58 137.767L148.206 137.392C147.761 136.947 147.42 136.493 147.184 136.029C146.948 135.559 146.812 135.095 146.777 134.637C146.739 134.176 146.8 133.735 146.96 133.314C147.123 132.891 147.379 132.504 147.729 132.154C148.09 131.793 148.481 131.533 148.902 131.373C149.325 131.21 149.766 131.149 150.224 131.19C150.683 131.225 151.144 131.363 151.608 131.605C152.072 131.841 152.526 132.181 152.971 132.626ZM152.568 133.778L152.186 133.396C151.833 133.043 151.485 132.768 151.14 132.569C150.798 132.369 150.466 132.245 150.143 132.199C149.82 132.153 149.511 132.183 149.215 132.289C148.922 132.392 148.649 132.569 148.397 132.822C148.153 133.066 147.979 133.335 147.876 133.628C147.776 133.918 147.747 134.226 147.79 134.551C147.837 134.874 147.957 135.209 148.153 135.557C148.348 135.904 148.622 136.254 148.975 136.607L149.357 136.989C149.713 137.345 150.066 137.621 150.416 137.82C150.763 138.015 151.101 138.136 151.429 138.182C151.757 138.222 152.067 138.193 152.357 138.092C152.65 137.989 152.918 137.815 153.163 137.571C153.418 137.316 153.597 137.042 153.7 136.749C153.803 136.456 153.83 136.15 153.781 135.829C153.732 135.504 153.608 135.17 153.407 134.828C153.203 134.484 152.924 134.134 152.568 133.778Z" fill="#BDBDBD"/>
<path d="M158.726 127.27L160.895 129.44C160.931 129.622 160.936 129.86 160.912 130.156C160.885 130.449 160.78 130.787 160.598 131.169C160.417 131.547 160.104 131.956 159.662 132.399C159.301 132.759 158.907 133.029 158.478 133.208C158.049 133.382 157.603 133.459 157.139 133.44C156.675 133.416 156.208 133.291 155.739 133.066C155.27 132.835 154.814 132.499 154.371 132.057L153.912 131.597C153.469 131.154 153.126 130.708 152.882 130.258C152.64 129.805 152.501 129.356 152.463 128.911C152.422 128.463 152.487 128.029 152.658 127.608C152.826 127.185 153.102 126.782 153.484 126.4C153.937 125.946 154.394 125.647 154.856 125.5C155.317 125.348 155.77 125.324 156.215 125.427C156.663 125.527 157.086 125.728 157.485 126.029L156.699 126.815C156.45 126.636 156.184 126.511 155.902 126.44C155.622 126.367 155.333 126.374 155.035 126.461C154.734 126.545 154.431 126.739 154.127 127.043C153.853 127.317 153.666 127.604 153.566 127.905C153.465 128.207 153.444 128.516 153.5 128.833C153.557 129.151 153.686 129.475 153.887 129.806C154.091 130.134 154.359 130.465 154.693 130.799L155.161 131.267C155.503 131.609 155.847 131.875 156.195 132.065C156.545 132.252 156.889 132.366 157.228 132.407C157.565 132.445 157.885 132.409 158.189 132.301C158.496 132.19 158.775 132.008 159.027 131.755C159.307 131.476 159.51 131.226 159.638 131.007C159.763 130.784 159.841 130.591 159.874 130.429C159.904 130.263 159.915 130.125 159.906 130.014L158.58 128.687L157.208 130.058L156.573 129.423L158.726 127.27Z" fill="#BDBDBD"/>
<path d="M159.772 121.324L163.211 128.687L162.409 129.489L158.742 121.304L159.259 120.787L159.772 121.324ZM166.817 125.081L159.451 121.646L158.913 121.133L159.43 120.616L167.623 124.275L166.817 125.081ZM164.522 122.989L165.165 123.632L161.836 126.961L161.192 126.318L164.522 122.989Z" fill="#BDBDBD"/>
<defs>
<linearGradient id="paint0_linear_1_1071" x1="70.2409" y1="71.7382" x2="249.391" y2="271.793" gradientUnits="userSpaceOnUse">
<stop stop-color="#737272"/>
<stop offset="0.104106" stop-color="#141414"/>
<stop offset="0.875243" stop-color="#2E2E2E"/>
<stop offset="1" stop-color="#141414"/>
</linearGradient>
<radialGradient id="paint1_radial_1_1071" cx="0" cy="0" r="1" gradientUnits="userSpaceOnUse" gradientTransform="translate(159.5 169.289) rotate(90) scale(106.973)">
<stop stop-color="#A7A7A7"/>
<stop offset="1" stop-color="#161616"/>
</radialGradient>
<linearGradient id="paint2_linear_1_1071" x1="122.505" y1="81.9268" x2="200.21" y2="251.45" gradientUnits="userSpaceOnUse">
<stop stop-color="#141414"/>
<stop offset="1" stop-color="#4A4A4A"/>
</linearGradient>
</defs>
</svg>
