<svg width="31" height="32" viewBox="0 0 31 32" fill="none" xmlns="http://www.w3.org/2000/svg">
<path fill-rule="evenodd" clip-rule="evenodd" d="M7.54055 16C7.54055 11.4623 11.1041 7.78379 15.5 7.78379C19.8959 7.78379 23.4595 11.4623 23.4595 16C23.4595 20.5377 19.8959 24.2162 15.5 24.2162C11.1041 24.2162 7.54055 20.5377 7.54055 16ZM15.5 21.3333C12.6465 21.3333 10.3333 18.9455 10.3333 16C10.3333 13.0545 12.6465 10.6667 15.5 10.6667C18.3535 10.6667 20.6667 13.0545 20.6667 16C20.6667 18.9455 18.3535 21.3333 15.5 21.3333Z" fill="url(#paint0_linear_1_1340)"/>
<path fill-rule="evenodd" clip-rule="evenodd" d="M7.54055 16C7.54055 11.4623 11.1041 7.78379 15.5 7.78379C19.8959 7.78379 23.4595 11.4623 23.4595 16C23.4595 20.5377 19.8959 24.2162 15.5 24.2162C11.1041 24.2162 7.54055 20.5377 7.54055 16ZM15.5 21.3333C12.6465 21.3333 10.3333 18.9455 10.3333 16C10.3333 13.0545 12.6465 10.6667 15.5 10.6667C18.3535 10.6667 20.6667 13.0545 20.6667 16C20.6667 18.9455 18.3535 21.3333 15.5 21.3333Z" fill="url(#paint1_radial_1_1340)"/>
<path d="M23.7739 9.37915C24.8012 9.37915 25.634 8.51958 25.634 7.45918C25.634 6.39878 24.8012 5.53914 23.7739 5.53914C22.7467 5.53914 21.9139 6.39878 21.9139 7.45918C21.9139 8.51958 22.7467 9.37915 23.7739 9.37915Z" fill="url(#paint2_linear_1_1340)"/>
<path d="M23.7739 9.37915C24.8012 9.37915 25.634 8.51958 25.634 7.45918C25.634 6.39878 24.8012 5.53914 23.7739 5.53914C22.7467 5.53914 21.9139 6.39878 21.9139 7.45918C21.9139 8.51958 22.7467 9.37915 23.7739 9.37915Z" fill="url(#paint3_radial_1_1340)"/>
<path fill-rule="evenodd" clip-rule="evenodd" d="M15.5 0C11.2905 0 10.7626 0.0184185 9.10937 0.0962843C7.45958 0.17396 6.33283 0.444458 5.34691 0.840011C4.32765 1.24884 3.46325 1.79593 2.6015 2.68542C1.73981 3.57497 1.20981 4.46725 0.813761 5.51939C0.430568 6.53711 0.168523 7.70021 0.0932755 9.40322C0.0178429 11.1098 0 11.6547 0 16C0 20.3453 0.0178429 20.8902 0.0932755 22.5968C0.168523 24.2998 0.430568 25.4629 0.813761 26.4806C1.20981 27.5327 1.73981 28.425 2.6015 29.3146C3.46325 30.2041 4.32765 30.7512 5.34691 31.1601C6.33283 31.5555 7.45958 31.826 9.10937 31.9037C10.7626 31.9816 11.2905 32 15.5 32C19.7095 32 20.2374 31.9816 21.8906 31.9037C23.5404 31.826 24.6672 31.5555 25.6531 31.1601C26.6723 30.7512 27.5367 30.2041 28.3985 29.3146C29.2602 28.425 29.7902 27.5327 30.1863 26.4806C30.5694 25.4629 30.8315 24.2998 30.9067 22.5968C30.9822 20.8902 31 20.3453 31 16C31 11.6547 30.9822 11.1098 30.9067 9.40322C30.8315 7.70021 30.5694 6.53711 30.1863 5.51939C29.7902 4.46725 29.2602 3.57497 28.3985 2.68542C27.5367 1.79593 26.6723 1.24884 25.6531 0.840011C24.6672 0.444458 23.5404 0.17396 21.8906 0.0962843C20.2374 0.0184185 19.7095 0 15.5 0ZM15.5 2.88288C19.6387 2.88288 20.1289 2.8992 21.7633 2.97618C23.2746 3.04731 24.0953 3.30796 24.6415 3.52708C25.365 3.81733 25.8813 4.16404 26.4237 4.72397C26.9661 5.28383 27.302 5.81682 27.5831 6.56366C27.7954 7.12746 28.0479 7.97464 28.1168 9.53463C28.1914 11.2218 28.2072 11.7278 28.2072 16C28.2072 20.2722 28.1914 20.7782 28.1168 22.4654C28.0479 24.0254 27.7954 24.8725 27.5831 25.4363C27.302 26.1832 26.9661 26.7162 26.4237 27.276C25.8813 27.836 25.365 28.1827 24.6415 28.4729C24.0953 28.692 23.2746 28.9527 21.7633 29.0238C20.1292 29.1008 19.639 29.1171 15.5 29.1171C11.361 29.1171 10.8709 29.1008 9.23667 29.0238C7.72544 28.9527 6.90473 28.692 6.35855 28.4729C5.63505 28.1827 5.11871 27.836 4.57635 27.276C4.03398 26.7162 3.69804 26.1832 3.41686 25.4363C3.20459 24.8725 2.95209 24.0254 2.88317 22.4654C2.8086 20.7782 2.79279 20.2722 2.79279 16C2.79279 11.7278 2.8086 11.2218 2.88317 9.53463C2.95209 7.97464 3.20459 7.12746 3.41686 6.56366C3.69804 5.81682 4.03392 5.28383 4.57635 4.72397C5.11871 4.16404 5.63505 3.81733 6.35855 3.52708C6.90473 3.30796 7.72544 3.04731 9.23667 2.97618C10.8711 2.8992 11.3613 2.88288 15.5 2.88288Z" fill="url(#paint4_linear_1_1340)"/>
<path fill-rule="evenodd" clip-rule="evenodd" d="M15.5 0C11.2905 0 10.7626 0.0184185 9.10937 0.0962843C7.45958 0.17396 6.33283 0.444458 5.34691 0.840011C4.32765 1.24884 3.46325 1.79593 2.6015 2.68542C1.73981 3.57497 1.20981 4.46725 0.813761 5.51939C0.430568 6.53711 0.168523 7.70021 0.0932755 9.40322C0.0178429 11.1098 0 11.6547 0 16C0 20.3453 0.0178429 20.8902 0.0932755 22.5968C0.168523 24.2998 0.430568 25.4629 0.813761 26.4806C1.20981 27.5327 1.73981 28.425 2.6015 29.3146C3.46325 30.2041 4.32765 30.7512 5.34691 31.1601C6.33283 31.5555 7.45958 31.826 9.10937 31.9037C10.7626 31.9816 11.2905 32 15.5 32C19.7095 32 20.2374 31.9816 21.8906 31.9037C23.5404 31.826 24.6672 31.5555 25.6531 31.1601C26.6723 30.7512 27.5367 30.2041 28.3985 29.3146C29.2602 28.425 29.7902 27.5327 30.1863 26.4806C30.5694 25.4629 30.8315 24.2998 30.9067 22.5968C30.9822 20.8902 31 20.3453 31 16C31 11.6547 30.9822 11.1098 30.9067 9.40322C30.8315 7.70021 30.5694 6.53711 30.1863 5.51939C29.7902 4.46725 29.2602 3.57497 28.3985 2.68542C27.5367 1.79593 26.6723 1.24884 25.6531 0.840011C24.6672 0.444458 23.5404 0.17396 21.8906 0.0962843C20.2374 0.0184185 19.7095 0 15.5 0ZM15.5 2.88288C19.6387 2.88288 20.1289 2.8992 21.7633 2.97618C23.2746 3.04731 24.0953 3.30796 24.6415 3.52708C25.365 3.81733 25.8813 4.16404 26.4237 4.72397C26.9661 5.28383 27.302 5.81682 27.5831 6.56366C27.7954 7.12746 28.0479 7.97464 28.1168 9.53463C28.1914 11.2218 28.2072 11.7278 28.2072 16C28.2072 20.2722 28.1914 20.7782 28.1168 22.4654C28.0479 24.0254 27.7954 24.8725 27.5831 25.4363C27.302 26.1832 26.9661 26.7162 26.4237 27.276C25.8813 27.836 25.365 28.1827 24.6415 28.4729C24.0953 28.692 23.2746 28.9527 21.7633 29.0238C20.1292 29.1008 19.639 29.1171 15.5 29.1171C11.361 29.1171 10.8709 29.1008 9.23667 29.0238C7.72544 28.9527 6.90473 28.692 6.35855 28.4729C5.63505 28.1827 5.11871 27.836 4.57635 27.276C4.03398 26.7162 3.69804 26.1832 3.41686 25.4363C3.20459 24.8725 2.95209 24.0254 2.88317 22.4654C2.8086 20.7782 2.79279 20.2722 2.79279 16C2.79279 11.7278 2.8086 11.2218 2.88317 9.53463C2.95209 7.97464 3.20459 7.12746 3.41686 6.56366C3.69804 5.81682 4.03392 5.28383 4.57635 4.72397C5.11871 4.16404 5.63505 3.81733 6.35855 3.52708C6.90473 3.30796 7.72544 3.04731 9.23667 2.97618C10.8711 2.8992 11.3613 2.88288 15.5 2.88288Z" fill="url(#paint5_radial_1_1340)"/>
<defs>
<linearGradient id="paint0_linear_1_1340" x1="1.80875" y1="1.68233" x2="12.1809" y2="40.5494" gradientUnits="userSpaceOnUse">
<stop stop-color="#4E60D3"/>
<stop offset="0.142763" stop-color="#913BAF"/>
<stop offset="0.761458" stop-color="#D52D88"/>
<stop offset="1" stop-color="#F26D4F"/>
</linearGradient>
<radialGradient id="paint1_radial_1_1340" cx="0" cy="0" r="1" gradientUnits="userSpaceOnUse" gradientTransform="translate(9.38504 32) rotate(32.9853) scale(29.22 21.3112)">
<stop stop-color="#FED276"/>
<stop offset="0.17024" stop-color="#FDBD61" stop-opacity="0.975006"/>
<stop offset="0.454081" stop-color="#F6804D"/>
<stop offset="1" stop-color="#E83D5C" stop-opacity="0.01"/>
</radialGradient>
<linearGradient id="paint2_linear_1_1340" x1="1.80875" y1="1.68233" x2="12.1809" y2="40.5494" gradientUnits="userSpaceOnUse">
<stop stop-color="#4E60D3"/>
<stop offset="0.142763" stop-color="#913BAF"/>
<stop offset="0.761458" stop-color="#D52D88"/>
<stop offset="1" stop-color="#F26D4F"/>
</linearGradient>
<radialGradient id="paint3_radial_1_1340" cx="0" cy="0" r="1" gradientUnits="userSpaceOnUse" gradientTransform="translate(9.38504 32) rotate(32.9853) scale(29.22 21.3112)">
<stop stop-color="#FED276"/>
<stop offset="0.17024" stop-color="#FDBD61" stop-opacity="0.975006"/>
<stop offset="0.454081" stop-color="#F6804D"/>
<stop offset="1" stop-color="#E83D5C" stop-opacity="0.01"/>
</radialGradient>
<linearGradient id="paint4_linear_1_1340" x1="1.80875" y1="1.68233" x2="12.1809" y2="40.5494" gradientUnits="userSpaceOnUse">
<stop stop-color="#4E60D3"/>
<stop offset="0.142763" stop-color="#913BAF"/>
<stop offset="0.761458" stop-color="#D52D88"/>
<stop offset="1" stop-color="#F26D4F"/>
</linearGradient>
<radialGradient id="paint5_radial_1_1340" cx="0" cy="0" r="1" gradientUnits="userSpaceOnUse" gradientTransform="translate(9.38504 32) rotate(32.9853) scale(29.22 21.3112)">
<stop stop-color="#FED276"/>
<stop offset="0.17024" stop-color="#FDBD61" stop-opacity="0.975006"/>
<stop offset="0.454081" stop-color="#F6804D"/>
<stop offset="1" stop-color="#E83D5C" stop-opacity="0.01"/>
</radialGradient>
</defs>
</svg>
