<svg width="12" height="12" viewBox="0 0 12 12" fill="none" xmlns="http://www.w3.org/2000/svg">
<path d="M3.75 8.88L6 6.63L8.25 8.88L8.88 8.25L6.63 6L8.88 3.75L8.25 3.12L6 5.37L3.75 3.12L3.12 3.75L5.37 6L3.12 8.25L3.75 8.88ZM6 12C5.18 12 4.405 11.8425 3.675 11.5275C2.945 11.2125 2.3075 10.7825 1.7625 10.2375C1.2175 9.6925 0.7875 9.055 0.4725 8.325C0.1575 7.595 0 6.82 0 6C0 5.17 0.1575 4.39 0.4725 3.66C0.7875 2.93 1.2175 2.295 1.7625 1.755C2.3075 1.215 2.945 0.7875 3.675 0.4725C4.405 0.1575 5.18 0 6 0C6.83 0 7.61 0.1575 8.34 0.4725C9.07 0.7875 9.705 1.215 10.245 1.755C10.785 2.295 11.2125 2.93 11.5275 3.66C11.8425 4.39 12 5.17 12 6C12 6.82 11.8425 7.595 11.5275 8.325C11.2125 9.055 10.785 9.6925 10.245 10.2375C9.705 10.7825 9.07 11.2125 8.34 11.5275C7.61 11.8425 6.83 12 6 12Z" fill="#54585A"/>
</svg>
