<svg width="13" height="12" viewBox="0 0 13 12" fill="none" xmlns="http://www.w3.org/2000/svg">
<path d="M4.25 8.88L6.5 6.63L8.75 8.88L9.38 8.25L7.13 6L9.38 3.75L8.75 3.12L6.5 5.37L4.25 3.12L3.62 3.75L5.87 6L3.62 8.25L4.25 8.88ZM6.5 12C5.68 12 4.905 11.8425 4.175 11.5275C3.445 11.2125 2.8075 10.7825 2.2625 10.2375C1.7175 9.6925 1.2875 9.055 0.9725 8.325C0.6575 7.595 0.5 6.82 0.5 6C0.5 5.17 0.6575 4.39 0.9725 3.66C1.2875 2.93 1.7175 2.295 2.2625 1.755C2.8075 1.215 3.445 0.7875 4.175 0.4725C4.905 0.1575 5.68 0 6.5 0C7.33 0 8.11 0.1575 8.84 0.4725C9.57 0.7875 10.205 1.215 10.745 1.755C11.285 2.295 11.7125 2.93 12.0275 3.66C12.3425 4.39 12.5 5.17 12.5 6C12.5 6.82 12.3425 7.595 12.0275 8.325C11.7125 9.055 11.285 9.6925 10.745 10.2375C10.205 10.7825 9.57 11.2125 8.84 11.5275C8.11 11.8425 7.33 12 6.5 12Z" fill="white"/>
</svg>
