<svg width="31" height="32" viewBox="0 0 31 32" fill="none" xmlns="http://www.w3.org/2000/svg">
<path d="M28.7034 0.0023861H2.28752C1.03906 -0.0121577 0.0152369 1.02017 0 2.30893V29.6906C0.0147152 30.98 1.03845 32.0133 2.28752 31.9998H28.7034C29.9549 32.0158 30.9827 30.9825 31 29.6906V2.30695C30.9822 1.01565 29.9543 -0.0166202 28.7034 0.000202735" fill="#0A66C2"/>
<path d="M21.8206 27.266H26.4139L26.4158 18.8894C26.4158 14.7771 25.5574 11.6161 20.902 11.6161C19.1223 11.5479 17.4505 12.4957 16.5514 14.0827H16.4896V11.9959H12.0801V27.2655H16.6734V19.7117C16.6734 17.7198 17.0394 15.7906 19.4317 15.7906C21.79 15.7906 21.8206 18.07 21.8206 19.8407V27.266Z" fill="white"/>
<path d="M4.23145 7.15763C4.23171 8.67727 5.42531 9.90896 6.89743 9.90869C7.60437 9.90855 8.2823 9.61853 8.78209 9.10242C9.28188 8.58632 9.56259 7.88639 9.56246 7.15664C9.5622 5.637 8.3686 4.40531 6.89648 4.40558C5.42436 4.40585 4.23118 5.63798 4.23145 7.15763Z" fill="white"/>
<path d="M4.59603 27.266H9.19405V11.9959H4.59603V27.266Z" fill="white"/>
</svg>
