<svg width="20" height="20" viewBox="0 0 20 20" fill="none" xmlns="http://www.w3.org/2000/svg">
<path d="M8.70748 19.4558L0.544218 11.2925C-0.181406 10.5669 -0.181406 9.43311 0.544218 8.70748L8.70748 0.544218C9.43311 -0.181406 10.5669 -0.181406 11.2925 0.544218L19.4558 8.70748C20.1814 9.43311 20.1814 10.5669 19.4558 11.2925L11.2925 19.4558C10.5669 20.1814 9.38775 20.1814 8.70748 19.4558Z" fill="#A8A8A8"/>
<path d="M9.07031 10.0227C9.07031 10.2632 9.16587 10.494 9.33597 10.6641C9.50608 10.8342 9.73678 10.9297 9.97734 10.9297C10.2179 10.9297 10.4486 10.8342 10.6187 10.6641C10.7888 10.494 10.8844 10.2632 10.8844 10.0227C10.8844 9.78213 10.7888 9.55143 10.6187 9.38132C10.4486 9.21122 10.2179 9.11566 9.97734 9.11566C9.73678 9.11566 9.50608 9.21122 9.33597 9.38132C9.16587 9.55143 9.07031 9.78213 9.07031 10.0227Z" fill="white"/>
<path d="M12.6992 10.0227C12.6992 10.1418 12.7226 10.2598 12.7682 10.3698C12.8138 10.4799 12.8806 10.5799 12.9648 10.6641C13.0491 10.7484 13.1491 10.8152 13.2591 10.8608C13.3692 10.9064 13.4871 10.9298 13.6062 10.9298C13.7254 10.9298 13.8433 10.9064 13.9534 10.8608C14.0634 10.8152 14.1634 10.7484 14.2477 10.6641C14.3319 10.5799 14.3987 10.4799 14.4443 10.3698C14.4898 10.2598 14.5133 10.1418 14.5133 10.0227C14.5133 9.90355 14.4898 9.78559 14.4443 9.67553C14.3987 9.56547 14.3319 9.46546 14.2477 9.38122C14.1634 9.29698 14.0634 9.23016 13.9534 9.18457C13.8433 9.13897 13.7254 9.11551 13.6062 9.11551C13.4871 9.11551 13.3692 9.13897 13.2591 9.18457C13.1491 9.23016 13.0491 9.29698 12.9648 9.38122C12.8806 9.46546 12.8138 9.56547 12.7682 9.67553C12.7226 9.78559 12.6992 9.90355 12.6992 10.0227Z" fill="white"/>
<path d="M5.44141 10.0227C5.44139 10.1418 5.46484 10.2598 5.51041 10.3698C5.55598 10.4799 5.62279 10.5799 5.70702 10.6641C5.79125 10.7484 5.89124 10.8152 6.0013 10.8608C6.11135 10.9064 6.22931 10.9298 6.34844 10.9298C6.46756 10.9298 6.58552 10.9064 6.69557 10.8608C6.80563 10.8152 6.90562 10.7484 6.98985 10.6641C7.07408 10.5799 7.14089 10.4799 7.18646 10.3698C7.23204 10.2598 7.25548 10.1418 7.25547 10.0227C7.25548 9.90355 7.23204 9.78559 7.18646 9.67553C7.14089 9.56547 7.07408 9.46546 6.98985 9.38122C6.90562 9.29698 6.80563 9.23016 6.69557 9.18457C6.58552 9.13897 6.46756 9.11551 6.34844 9.11551C6.22931 9.11551 6.11135 9.13897 6.0013 9.18457C5.89124 9.23016 5.79125 9.29698 5.70702 9.38122C5.62279 9.46546 5.55598 9.56547 5.51041 9.67553C5.46484 9.78559 5.44139 9.90355 5.44141 10.0227Z" fill="white"/>
</svg>
