<svg width="89" height="19" viewBox="0 0 89 19" fill="none" xmlns="http://www.w3.org/2000/svg">
<path d="M5.84958 6.1571C4.11237 4.42387 2.40332 2.71491 0.698339 1.00993C1.00071 0.707657 1.29492 0.413348 1.57301 0.135254C7.27637 5.84269 12.9879 11.5541 18.6953 17.2615C18.4212 17.5317 18.1229 17.8259 17.8005 18.1403C16.1076 16.4434 14.3986 14.7343 12.6735 13.0092C12.48 13.5413 12.2865 14.0693 12.0931 14.5932C11.7182 15.6211 11.3434 16.6489 10.9685 17.6728C10.8154 18.0879 10.4284 18.2733 10.0938 18.0678C9.94875 17.979 9.81573 17.8098 9.75125 17.6485C9.00562 15.8146 8.25989 13.9806 7.55048 12.1386C7.38522 11.7113 7.1515 11.4655 6.72018 11.3002C4.85402 10.5827 3.00796 9.82495 1.14975 9.0834C0.774949 8.93823 0.609687 8.59566 0.738636 8.24902C0.819326 8.03132 0.992648 7.91043 1.20219 7.83382C2.5444 7.35016 3.89069 6.86651 5.2329 6.37878C5.42632 6.3143 5.62383 6.24177 5.84958 6.1571ZM8.74355 9.18409C8.12288 8.53119 7.52232 7.89431 6.9137 7.26957C6.87331 7.2252 6.7565 7.22122 6.68794 7.24132C5.59159 7.61622 4.49524 8.00316 3.40296 8.38204C3.33043 8.40622 3.26187 8.43438 3.14904 8.47876C4.64846 9.08738 6.09544 9.6759 7.54242 10.2603C7.58272 10.2765 7.65525 10.2684 7.67953 10.2401C8.05433 9.87738 8.42108 9.50656 8.74355 9.18409ZM9.65454 10.091C9.34411 10.4054 8.98542 10.756 8.6348 11.1188C8.59848 11.1591 8.59848 11.268 8.62266 11.3284C9.17487 12.7311 9.73513 14.1338 10.2913 15.5324C10.3074 15.5687 10.3316 15.605 10.372 15.6654C10.7952 14.4482 11.2063 13.2671 11.6134 12.0821C11.6296 12.0379 11.6094 11.9612 11.5771 11.929C10.9484 11.3204 10.3115 10.7157 9.65454 10.091Z" fill="#EA2F2F"/>
<path d="M13.6488 10.3207C13.3264 9.99825 13.016 9.69598 12.7178 9.37759C12.6774 9.33729 12.6935 9.2163 12.7178 9.14785C13.1571 7.92245 13.6045 6.70122 14.0479 5.4799C14.1728 5.13325 14.3018 4.78661 14.4389 4.40772C14.3582 4.4319 14.2978 4.44802 14.2414 4.4722C12.7298 5.02042 11.2184 5.56855 9.70681 6.12484C9.56981 6.17717 9.48115 6.16513 9.37629 6.05628C9.10227 5.76605 8.81204 5.48796 8.50977 5.18569C9.20296 4.93177 9.87208 4.68989 10.5371 4.44802C12.0929 3.88377 13.6488 3.31943 15.2047 2.74712C15.4868 2.64235 15.7488 2.64235 15.9705 2.85995C16.1922 3.07765 16.2043 3.33555 16.0995 3.6218C15.3054 5.79431 14.5195 7.96682 13.7254 10.1434C13.7053 10.1957 13.6811 10.2482 13.6488 10.3207Z" fill="#EA2F2F"/>
<path d="M31.8086 11.6465H30.8986L27.2386 6.09655V11.6465H26.3286V4.66655H27.2386L30.8986 10.2065V4.66655H31.8086V11.6465ZM35.7498 11.7365C35.2365 11.7365 34.7698 11.6199 34.3498 11.3865C33.9365 11.1532 33.6098 10.8232 33.3698 10.3965C33.1365 9.96321 33.0198 9.46321 33.0198 8.89655C33.0198 8.33655 33.1398 7.84321 33.3798 7.41655C33.6265 6.98321 33.9598 6.65321 34.3798 6.42655C34.7998 6.19321 35.2698 6.07655 35.7898 6.07655C36.3098 6.07655 36.7798 6.19321 37.1998 6.42655C37.6198 6.65321 37.9498 6.97988 38.1898 7.40655C38.4365 7.83321 38.5598 8.32988 38.5598 8.89655C38.5598 9.46321 38.4332 9.96321 38.1798 10.3965C37.9332 10.8232 37.5965 11.1532 37.1698 11.3865C36.7432 11.6199 36.2698 11.7365 35.7498 11.7365ZM35.7498 10.9365C36.0765 10.9365 36.3832 10.8599 36.6698 10.7065C36.9565 10.5532 37.1865 10.3232 37.3598 10.0165C37.5398 9.70988 37.6298 9.33655 37.6298 8.89655C37.6298 8.45655 37.5432 8.08321 37.3698 7.77655C37.1965 7.46988 36.9698 7.24321 36.6898 7.09655C36.4098 6.94321 36.1065 6.86655 35.7798 6.86655C35.4465 6.86655 35.1398 6.94321 34.8598 7.09655C34.5865 7.24321 34.3665 7.46988 34.1998 7.77655C34.0332 8.08321 33.9498 8.45655 33.9498 8.89655C33.9498 9.34321 34.0298 9.71988 34.1898 10.0265C34.3565 10.3332 34.5765 10.5632 34.8498 10.7165C35.1232 10.8632 35.4232 10.9365 35.7498 10.9365ZM40.8663 6.91655V10.1465C40.8663 10.4132 40.923 10.6032 41.0363 10.7165C41.1497 10.8232 41.3463 10.8765 41.6263 10.8765H42.2963V11.6465H41.4763C40.9697 11.6465 40.5897 11.5299 40.3363 11.2965C40.083 11.0632 39.9563 10.6799 39.9563 10.1465V6.91655H39.2463V6.16655H39.9563V4.78654H40.8663V6.16655H42.2963V6.91655H40.8663ZM48.4549 11.7365C47.9416 11.7365 47.4749 11.6199 47.0549 11.3865C46.6416 11.1532 46.3149 10.8232 46.0749 10.3965C45.8416 9.96321 45.7249 9.46321 45.7249 8.89655C45.7249 8.33655 45.8449 7.84321 46.0849 7.41655C46.3316 6.98321 46.6649 6.65321 47.0849 6.42655C47.5049 6.19321 47.9749 6.07655 48.4949 6.07655C49.0149 6.07655 49.4849 6.19321 49.9049 6.42655C50.3249 6.65321 50.6549 6.97988 50.8949 7.40655C51.1416 7.83321 51.2649 8.32988 51.2649 8.89655C51.2649 9.46321 51.1383 9.96321 50.8849 10.3965C50.6383 10.8232 50.3016 11.1532 49.8749 11.3865C49.4483 11.6199 48.9749 11.7365 48.4549 11.7365ZM48.4549 10.9365C48.7816 10.9365 49.0883 10.8599 49.3749 10.7065C49.6616 10.5532 49.8916 10.3232 50.0649 10.0165C50.2449 9.70988 50.3349 9.33655 50.3349 8.89655C50.3349 8.45655 50.2483 8.08321 50.0749 7.77655C49.9016 7.46988 49.6749 7.24321 49.3949 7.09655C49.1149 6.94321 48.8116 6.86655 48.4849 6.86655C48.1516 6.86655 47.8449 6.94321 47.5649 7.09655C47.2916 7.24321 47.0716 7.46988 46.9049 7.77655C46.7383 8.08321 46.6549 8.45655 46.6549 8.89655C46.6549 9.34321 46.7349 9.71988 46.8949 10.0265C47.0616 10.3332 47.2816 10.5632 47.5549 10.7165C47.8283 10.8632 48.1283 10.9365 48.4549 10.9365ZM55.1314 6.06655C55.7981 6.06655 56.3381 6.26988 56.7514 6.67655C57.1647 7.07655 57.3714 7.65655 57.3714 8.41655V11.6465H56.4714V8.54655C56.4714 7.99988 56.3347 7.58321 56.0614 7.29655C55.7881 7.00321 55.4147 6.85655 54.9414 6.85655C54.4614 6.85655 54.0781 7.00655 53.7914 7.30655C53.5114 7.60655 53.3714 8.04321 53.3714 8.61655V11.6465H52.4614V6.16655H53.3714V6.94655C53.5514 6.66655 53.7947 6.44988 54.1014 6.29655C54.4147 6.14321 54.7581 6.06655 55.1314 6.06655ZM65.8139 4.67655V5.41655H63.9139V11.6465H63.0039V5.41655H61.0939V4.67655H65.8139ZM67.8441 7.05655C68.0041 6.74321 68.2307 6.49988 68.5241 6.32655C68.8241 6.15321 69.1874 6.06655 69.6141 6.06655V7.00655H69.3741C68.3541 7.00655 67.8441 7.55988 67.8441 8.66655V11.6465H66.9341V6.16655H67.8441V7.05655ZM70.3245 8.88655C70.3245 8.32655 70.4379 7.83655 70.6645 7.41655C70.8912 6.98988 71.2012 6.65988 71.5945 6.42655C71.9945 6.19321 72.4379 6.07655 72.9245 6.07655C73.4045 6.07655 73.8212 6.17988 74.1745 6.38655C74.5279 6.59321 74.7912 6.85321 74.9645 7.16655V6.16655H75.8845V11.6465H74.9645V10.6265C74.7845 10.9465 74.5145 11.2132 74.1545 11.4265C73.8012 11.6332 73.3879 11.7365 72.9145 11.7365C72.4279 11.7365 71.9879 11.6165 71.5945 11.3765C71.2012 11.1365 70.8912 10.7999 70.6645 10.3665C70.4379 9.93321 70.3245 9.43988 70.3245 8.88655ZM74.9645 8.89655C74.9645 8.48321 74.8812 8.12321 74.7145 7.81655C74.5479 7.50988 74.3212 7.27655 74.0345 7.11655C73.7545 6.94988 73.4445 6.86655 73.1045 6.86655C72.7645 6.86655 72.4545 6.94655 72.1745 7.10655C71.8945 7.26655 71.6712 7.49988 71.5045 7.80655C71.3379 8.11321 71.2545 8.47321 71.2545 8.88655C71.2545 9.30655 71.3379 9.67321 71.5045 9.98655C71.6712 10.2932 71.8945 10.5299 72.1745 10.6965C72.4545 10.8565 72.7645 10.9365 73.1045 10.9365C73.4445 10.9365 73.7545 10.8565 74.0345 10.6965C74.3212 10.5299 74.5479 10.2932 74.7145 9.98655C74.8812 9.67321 74.9645 9.30988 74.9645 8.89655ZM77.0823 8.89655C77.0823 8.32988 77.1957 7.83655 77.4223 7.41655C77.649 6.98988 77.9623 6.65988 78.3623 6.42655C78.769 6.19321 79.2323 6.07655 79.7523 6.07655C80.4257 6.07655 80.979 6.23988 81.4123 6.56655C81.8523 6.89321 82.1423 7.34655 82.2823 7.92655H81.3023C81.209 7.59321 81.0257 7.32988 80.7523 7.13655C80.4857 6.94321 80.1523 6.84655 79.7523 6.84655C79.2323 6.84655 78.8123 7.02655 78.4923 7.38655C78.1723 7.73988 78.0123 8.24321 78.0123 8.89655C78.0123 9.55655 78.1723 10.0665 78.4923 10.4265C78.8123 10.7865 79.2323 10.9665 79.7523 10.9665C80.1523 10.9665 80.4857 10.8732 80.7523 10.6865C81.019 10.4999 81.2023 10.2332 81.3023 9.88655H82.2823C82.1357 10.4465 81.8423 10.8965 81.4023 11.2365C80.9623 11.5699 80.4123 11.7365 79.7523 11.7365C79.2323 11.7365 78.769 11.6199 78.3623 11.3865C77.9623 11.1532 77.649 10.8232 77.4223 10.3965C77.1957 9.96988 77.0823 9.46988 77.0823 8.89655ZM86.5566 11.6465L84.4066 9.22655V11.6465H83.4966V4.24655H84.4066V8.59655L86.5166 6.16655H87.7866L85.2066 8.89655L87.7966 11.6465H86.5566Z" fill="#444444"/>
</svg>
