<svg width="129" height="137" viewBox="0 0 129 137" fill="none" xmlns="http://www.w3.org/2000/svg">
<path d="M124.4 62.4579C124.4 62.4579 124.285 62.4293 124.056 62.372C123.826 62.3433 123.511 62.286 123.139 62.3433C122.766 62.4006 122.307 62.5439 121.906 62.8879C121.505 63.2032 121.161 63.6905 121.046 64.2638V64.2924L120.989 64.4931L120.903 64.2924C120.673 63.7478 120.272 63.3179 119.871 63.0312C119.441 62.7446 118.982 62.6299 118.581 62.6013C117.807 62.5439 117.348 62.8019 117.32 62.7732C117.32 62.7732 117.434 62.7159 117.635 62.6299C117.836 62.5726 118.18 62.4866 118.581 62.5153C118.982 62.5439 119.47 62.6586 119.928 62.9452C120.387 63.2319 120.788 63.6905 121.046 64.2638H120.903V64.2351C121.046 63.6332 121.419 63.1172 121.82 62.7732C122.25 62.4293 122.737 62.286 123.139 62.2286C123.54 62.1713 123.884 62.2286 124.084 62.286C124.285 62.4006 124.4 62.4579 124.4 62.4579Z" fill="#E0E0E0"/>
<path d="M17.5706 45.5751C17.5706 45.5751 17.456 45.5464 17.2267 45.4891C16.9974 45.4605 16.6821 45.4031 16.3094 45.4605C15.9368 45.5178 15.4782 45.6611 15.0769 46.0051C14.6756 46.3204 14.3316 46.8076 14.217 47.3809V47.4096L14.1597 47.6102L14.0737 47.4096C13.8444 46.865 13.4431 46.435 13.0418 46.1484C12.6118 45.8617 12.1532 45.7471 11.7519 45.7184C10.978 45.6611 10.5194 45.9191 10.4907 45.8904C10.4907 45.8904 10.6054 45.8331 10.806 45.7471C11.0067 45.6898 11.3506 45.6038 11.7519 45.6324C12.1532 45.6611 12.6405 45.7758 13.0991 46.0624C13.5577 46.349 13.959 46.8076 14.217 47.3809H14.0737V47.3522C14.217 46.7503 14.5896 46.2344 14.9909 45.8904C15.4209 45.5464 15.9081 45.4031 16.3094 45.3458C16.7107 45.2885 17.0547 45.3458 17.2553 45.4031C17.4846 45.5178 17.5993 45.5751 17.5706 45.5751Z" fill="#E0E0E0"/>
<path d="M91.7236 39.6417C91.7236 39.6417 91.609 39.7564 91.4083 39.9857C91.2077 40.215 90.9497 40.559 90.6631 41.0176C90.0898 41.9061 89.5165 43.3393 89.5452 44.9731C89.5452 45.0018 89.5452 45.0018 89.5452 45.0305H89.4019C89.1726 43.4253 88.3127 42.1355 87.5674 41.3902C86.8222 40.6449 86.2202 40.3297 86.2202 40.301C86.2202 40.301 86.2489 40.301 86.3349 40.3583C86.3922 40.387 86.5068 40.4443 86.6215 40.5303C86.8795 40.6736 87.2234 40.9316 87.6247 41.3329C87.9974 41.7055 88.4273 42.2214 88.7713 42.8234C89.1152 43.454 89.4019 44.1992 89.5165 45.0018H89.3732C89.3732 44.9731 89.3732 44.9731 89.3732 44.9445C89.3445 43.282 89.9465 41.8202 90.5484 40.9316C90.8351 40.473 91.1217 40.129 91.351 39.9284C91.4656 39.8137 91.5516 39.7277 91.609 39.699C91.695 39.6704 91.7236 39.6417 91.7236 39.6417Z" fill="#E0E0E0"/>
<path d="M101.727 108.348C97.1983 109.409 93.7587 113.909 93.902 118.553C91.007 115.371 85.7329 114.712 82.1499 117.119C78.567 119.498 77.1625 124.658 78.9969 128.527C74.7261 125.203 67.7608 126.12 64.5218 130.448C63.7766 127.725 61.6841 125.403 59.0471 124.371C56.41 123.368 53.2857 123.683 50.9066 125.203C50.1327 120.358 46.2345 116.173 41.4476 115.084C36.6895 113.966 31.3294 116.03 28.5204 120.014C26.1413 117.693 22.6443 116.546 19.348 117.033C16.0517 117.521 13.042 119.584 11.4082 122.508L14.3032 123.454C19.5773 124.429 24.2495 128.327 26.1126 133.372C28.7783 130.448 32.9059 128.957 36.8041 129.473C40.7024 129.989 44.314 132.512 46.1198 136.009H68.4201C73.9808 135.951 78.223 136.267 83.3538 136.009C85.3889 128.871 94.7332 122.508 101.756 124.945C103.16 119.527 107.775 115.084 113.221 113.852C111.215 109.696 106.199 107.288 101.727 108.348Z" fill="#EBEBEB"/>
<path d="M113.393 113.766C113.336 113.766 113.279 113.794 113.221 113.794C113.25 113.852 113.279 113.88 113.279 113.938L113.393 113.766Z" fill="#EBEBEB"/>
<path d="M55.7219 100.523C55.8939 99.2907 54.1454 98.2588 52.8269 98.1441C52.1963 98.0868 51.537 98.2014 50.9638 97.9721C49.6739 97.5135 49.158 95.851 47.8968 95.3351C46.9509 94.9338 45.8617 95.2778 44.9731 95.7364C44.0559 96.195 43.1673 96.7683 42.1354 96.8256C41.2468 96.8829 40.3009 96.5676 39.4983 96.9976C38.9251 97.3129 38.6098 97.9721 38.0938 98.3734C37.5779 98.7461 36.89 98.832 36.2594 98.8607C35.6001 98.8894 34.9408 98.8894 34.3676 99.176C33.7943 99.4626 33.2783 100.065 33.4217 100.695L55.7219 100.523Z" fill="#EBEBEB"/>
<path d="M118.323 30.6413C118.524 29.1508 116.431 27.947 114.884 27.8323C114.138 27.775 113.364 27.8896 112.648 27.6317C111.129 27.0871 110.498 25.1093 109.008 24.4787C107.89 24.0201 106.6 24.4213 105.511 24.966C104.421 25.5106 103.361 26.1985 102.157 26.2845C101.096 26.3418 99.9499 25.9692 99.0327 26.4851C98.3447 26.8578 97.9721 27.6603 97.3415 28.1189C96.7109 28.5776 95.9083 28.6636 95.1344 28.7209C94.3605 28.7495 93.5579 28.7782 92.87 29.0935C92.1821 29.4088 91.5801 30.1541 91.7234 30.8993L118.323 30.6413Z" fill="#EBEBEB"/>
<path d="M36.7183 22.9308C36.9189 21.383 34.7405 20.0932 33.078 19.9498C32.3041 19.8925 31.4728 20.0072 30.7276 19.7492C29.1224 19.1759 28.4632 17.1121 26.8867 16.4242C25.7115 15.9369 24.3643 16.3669 23.2177 16.9402C22.0712 17.5134 20.9533 18.23 19.6635 18.316C18.5456 18.3733 17.3417 17.972 16.3671 18.5167C15.6506 18.9179 15.2779 19.7492 14.59 20.2365C13.9307 20.7238 13.0995 20.8097 12.2682 20.8671C11.437 20.9244 10.6058 20.9244 9.88917 21.2684C9.14392 21.6123 8.54198 22.3862 8.6853 23.1888L36.7183 22.9308Z" fill="#EBEBEB"/>
<path d="M123.597 82.2071C123.884 80.1147 120.932 78.3949 118.696 78.1942C117.635 78.1083 116.546 78.2802 115.514 77.9076C113.336 77.1624 112.476 74.3247 110.355 73.4361C108.778 72.7768 106.944 73.3501 105.396 74.124C103.848 74.8979 102.329 75.8725 100.609 75.9872C99.1186 76.0731 97.4848 75.5285 96.1662 76.2451C95.1917 76.7897 94.6757 77.9076 93.7872 78.5669C92.8986 79.2261 91.7521 79.3408 90.6628 79.4268C89.5736 79.4841 88.4271 79.4841 87.4525 79.9427C86.4493 80.4013 85.6467 81.4619 85.8474 82.5224L123.597 82.2071Z" fill="#F5F5F5"/>
<path d="M40.1863 67.3021C40.4443 65.4103 37.7786 63.8338 35.7435 63.6905C34.7689 63.6045 33.7944 63.7478 32.8771 63.4325C30.8993 62.7446 30.1254 60.1935 28.205 59.3909C26.7718 58.789 25.1093 59.3336 23.7048 60.0215C22.3003 60.7095 20.9244 61.598 19.3766 61.7127C18.0294 61.7987 16.5389 61.2827 15.3637 61.9707C14.4751 62.4579 14.0165 63.4898 13.2139 64.0918C12.4113 64.6937 11.3794 64.8084 10.3762 64.8657C9.40165 64.923 8.36976 64.923 7.45253 65.353C6.56396 65.7542 5.8187 66.7288 5.99068 67.6747L40.1863 67.3021Z" fill="#EBEBEB"/>
<path d="M128.9 119.212C128.9 119.212 128.757 119.068 128.499 118.753C128.356 118.61 128.212 118.409 127.983 118.209C127.868 118.094 127.754 117.979 127.639 117.865C127.524 117.75 127.381 117.607 127.238 117.492C127.094 117.377 126.922 117.234 126.75 117.091C126.578 116.947 126.406 116.804 126.206 116.661C125.833 116.345 125.375 116.087 124.887 115.772C123.913 115.199 122.709 114.626 121.304 114.196C119.9 113.766 118.266 113.479 116.489 113.536C116.259 113.536 116.03 113.536 115.83 113.565C115.6 113.594 115.371 113.622 115.142 113.622C115.027 113.622 114.912 113.651 114.798 113.651C114.683 113.68 114.568 113.68 114.454 113.708C114.224 113.737 113.995 113.794 113.737 113.823C112.791 114.052 111.845 114.339 110.899 114.74C109.953 115.17 109.036 115.686 108.148 116.317C107.259 116.976 106.428 117.721 105.625 118.553C104.077 120.272 102.816 122.422 102.157 124.887L102.128 124.973L102.071 124.945C100.409 124.371 98.5454 124.285 96.7109 124.629C94.8764 124.973 93.0706 125.69 91.3795 126.693C89.6883 127.696 88.1405 129.015 86.7933 130.563C85.4748 132.11 84.3569 133.945 83.755 135.98L83.7263 136.037H83.669C80.8313 136.181 77.9363 136.152 74.9553 136.095C73.4648 136.066 71.9743 136.037 70.4551 136.037C68.9359 136.037 67.4167 136.037 65.8689 136.037C59.133 136.037 52.6263 136.037 46.435 136.037H46.3777L46.349 136.009C45.3458 134.117 43.8553 132.54 42.1355 131.422C40.4156 130.305 38.4665 129.617 36.4887 129.473C34.5396 129.33 32.5905 129.674 30.8707 130.362C29.1509 131.05 27.6317 132.11 26.4278 133.4L26.3705 133.486L26.3418 133.4C25.4819 131.136 24.1061 129.187 22.5296 127.639C21.727 126.894 20.8671 126.234 20.0072 125.661C19.1186 125.088 18.2014 124.658 17.3128 124.285C16.3956 123.913 15.4783 123.683 14.5898 123.511C14.3605 123.483 14.1311 123.454 13.9305 123.425C13.8158 123.397 13.7012 123.397 13.5865 123.368C13.4719 123.368 13.3572 123.339 13.2426 123.339C13.0133 123.311 12.8126 123.311 12.5833 123.282C12.354 123.282 12.1534 123.282 11.9527 123.282C10.2616 123.253 8.71373 123.54 7.36654 123.941C6.01935 124.343 4.87281 124.859 3.92691 125.403C3.46829 125.69 3.03834 125.948 2.66571 126.206C2.29309 126.464 1.97779 126.722 1.66249 126.951C1.37585 127.18 1.14654 127.41 0.917235 127.61C0.71659 127.811 0.544608 127.983 0.40129 128.126C0.544608 127.983 0.687926 127.811 0.888571 127.61C1.08922 127.41 1.31852 127.18 1.63382 126.951C1.92046 126.722 2.23576 126.435 2.60839 126.177C2.98101 125.89 3.41097 125.632 3.86958 125.346C4.81548 124.801 5.96203 124.285 7.30921 123.855C8.6564 123.454 10.2042 123.167 11.8954 123.167C12.096 123.167 12.3253 123.167 12.526 123.167C12.7553 123.196 12.9559 123.196 13.1852 123.225C13.2999 123.225 13.4146 123.253 13.5292 123.253C13.6439 123.282 13.7585 123.282 13.8732 123.311C14.1025 123.339 14.3318 123.368 14.5611 123.397C15.4497 123.569 16.3956 123.827 17.3128 124.171C18.23 124.543 19.1473 124.973 20.0358 125.546C20.9244 126.12 21.7843 126.779 22.5869 127.524C24.1921 129.072 25.5679 131.021 26.4278 133.314L26.3132 133.286C27.517 131.967 29.0362 130.907 30.7847 130.19C32.5332 129.473 34.4823 129.129 36.4601 129.301C38.4379 129.445 40.4157 130.133 42.1641 131.279C43.9126 132.397 45.4318 134.002 46.435 135.923L46.3777 135.894C52.569 135.894 59.0756 135.894 65.8116 135.894C67.3594 135.894 68.8786 135.894 70.3978 135.894C71.9169 135.894 73.4361 135.923 74.8979 135.951C77.8789 136.009 80.774 136.037 83.6117 135.894L83.5543 135.951C84.1563 133.888 85.2741 132.053 86.6213 130.477C87.9685 128.9 89.545 127.61 91.2362 126.578C92.9273 125.575 94.7618 124.83 96.5963 124.486C98.4594 124.142 100.351 124.228 102.014 124.801L101.928 124.859C102.587 122.365 103.877 120.215 105.425 118.467C106.227 117.607 107.058 116.861 107.976 116.202C108.864 115.543 109.81 115.056 110.756 114.626C111.702 114.196 112.677 113.909 113.622 113.708C113.852 113.68 114.11 113.622 114.339 113.594C114.454 113.565 114.568 113.565 114.683 113.536C114.798 113.536 114.912 113.508 115.027 113.508C115.256 113.479 115.486 113.45 115.715 113.45C115.944 113.45 116.173 113.45 116.403 113.422C118.18 113.393 119.842 113.68 121.247 114.11C122.651 114.54 123.855 115.113 124.859 115.715C125.346 116.03 125.804 116.317 126.177 116.603C126.378 116.747 126.55 116.89 126.722 117.033C126.894 117.177 127.037 117.32 127.18 117.435C127.324 117.549 127.467 117.693 127.582 117.807C127.696 117.922 127.811 118.037 127.926 118.151C128.155 118.352 128.298 118.553 128.441 118.725C128.785 119.04 128.9 119.212 128.9 119.212Z" fill="#263238"/>
<path d="M64.4074 11.2935L65.8979 14.3318C66.0126 14.5611 66.2132 14.7045 66.4425 14.7331L69.7961 15.2204C70.3981 15.3064 70.6274 16.0516 70.1974 16.4816L67.761 18.832C67.5891 19.004 67.5031 19.2333 67.5604 19.4913L68.1337 22.8163C68.2483 23.4182 67.6177 23.8768 67.0731 23.5902L64.0634 22.0137C63.8628 21.899 63.6048 21.899 63.3755 22.0137L60.3658 23.5902C59.8212 23.8768 59.1906 23.4182 59.3053 22.8163L59.8786 19.4913C59.9072 19.262 59.8499 19.004 59.6779 18.832L57.2415 16.4816C56.8115 16.0516 57.0409 15.3064 57.6428 15.2204L60.9964 14.7331C61.2257 14.7045 61.455 14.5611 61.541 14.3318L63.0315 11.2935C63.3755 10.7489 64.1494 10.7489 64.4074 11.2935Z" fill="#FF725E"/>
<path d="M58.7034 13.2999C58.6748 13.3286 56.783 11.5515 54.4612 9.34437C52.1395 7.13727 50.2764 5.33147 50.305 5.3028C50.3337 5.27414 52.2255 7.05128 54.5472 9.25838C56.869 11.4655 58.7321 13.2713 58.7034 13.2999Z" fill="#FF725E"/>
<path d="M54.719 15.1631C54.719 15.1918 53.0852 15.1344 51.0788 15.0198C49.0723 14.9051 47.4385 14.7618 47.4385 14.7331C47.4385 14.7045 49.0723 14.7618 51.0788 14.8765C53.0852 14.9911 54.719 15.1344 54.719 15.1631Z" fill="#FF725E"/>
<path d="M60.9104 9.74566C60.8817 9.77433 60.3944 8.7711 59.8498 7.56723C59.3052 6.3347 58.9039 5.33147 58.9326 5.33147C58.9613 5.30281 59.4485 6.30603 59.9931 7.5099C60.5378 8.71377 60.9677 9.717 60.9104 9.74566Z" fill="#FF725E"/>
<path d="M63.4615 6.10352e-05C63.4901 6.10352e-05 63.5475 2.00651 63.5475 4.47158C63.5475 6.93665 63.5188 8.9431 63.4615 8.9431C63.4042 8.9431 63.3755 6.93665 63.3755 4.47158C63.3755 2.00651 63.4042 6.10352e-05 63.4615 6.10352e-05Z" fill="#FF725E"/>
<path d="M68.5351 5.38882C68.5638 5.41748 68.1625 6.36338 67.5892 7.53859C67.0159 8.71379 66.5573 9.65969 66.5 9.63103C66.4713 9.60236 66.8726 8.65647 67.4459 7.48126C67.9905 6.30605 68.4778 5.36015 68.5351 5.38882Z" fill="#FF725E"/>
<path d="M76.704 6.85065C76.7326 6.87931 74.5542 8.45581 71.8312 10.3476C69.1081 12.2394 66.8723 13.7586 66.8723 13.7299C66.8437 13.7012 69.0221 12.1247 71.7452 10.233C74.4682 8.34116 76.6753 6.82199 76.704 6.85065Z" fill="#FF725E"/>
<path d="M76.9334 13.1853C76.9621 13.2139 75.8729 13.6726 74.5257 14.2172C73.1785 14.7331 72.0606 15.1344 72.0606 15.1057C72.0319 15.0771 73.1212 14.6185 74.4684 14.0739C75.8155 13.5579 76.9048 13.1566 76.9334 13.1853Z" fill="#FF725E"/>
<path d="M57.872 19.2906C57.872 19.3193 55.0343 20.3512 51.5087 21.5551C47.9831 22.7589 45.1167 23.7048 45.1167 23.6762C45.1167 23.6475 47.9544 22.6156 51.48 21.4117C54.977 20.2079 57.8433 19.262 57.872 19.2906Z" fill="#FF725E"/>
<path d="M80.2868 22.415C80.2868 22.4437 77.7645 21.7844 74.6975 20.9245C71.6304 20.0646 69.1367 19.3193 69.1367 19.2907C69.1367 19.262 71.6591 19.9213 74.7261 20.7812C77.7931 21.6411 80.2868 22.3863 80.2868 22.415Z" fill="#FF725E"/>
<path d="M55.5218 27.6031C55.4931 27.5744 56.267 26.8578 57.2129 26.0266C58.1875 25.1953 58.9901 24.5361 59.0187 24.5647C59.0474 24.5934 58.2735 25.31 57.3276 26.1412C56.353 26.9725 55.5504 27.6317 55.5218 27.6031Z" fill="#FF725E"/>
<path d="M63.6906 34.6257C63.662 34.6257 63.6333 32.1893 63.6333 29.1509C63.662 26.1412 63.6906 23.6762 63.748 23.6762C63.7766 23.6762 63.8053 26.1126 63.8053 29.1509C63.7766 32.1606 63.748 34.6257 63.6906 34.6257Z" fill="#FF725E"/>
<path d="M72.1466 28.205C72.118 28.2337 71.344 27.5458 70.3982 26.6572C69.4523 25.7686 68.707 25.0234 68.7357 24.9947C68.7643 24.966 69.5382 25.654 70.4841 26.5425C71.43 27.4311 72.1753 28.1764 72.1466 28.205Z" fill="#FF725E"/>
<path d="M78.2801 17.8861L78.3087 18.3734C78.3087 18.402 78.3374 18.4307 78.3661 18.4594L78.796 18.7173C78.882 18.7747 78.8533 18.8893 78.7674 18.918L78.3087 19.09C78.2801 19.09 78.2514 19.1186 78.2514 19.176L78.1368 19.6632C78.1081 19.7492 77.9934 19.7779 77.9361 19.6919L77.6208 19.3193C77.5921 19.2906 77.5635 19.2906 77.5348 19.2906L77.0475 19.3193C76.9615 19.3193 76.9042 19.2333 76.9616 19.1473L77.2195 18.746C77.2482 18.7173 77.2482 18.6887 77.2195 18.66L77.0189 18.2014C76.9902 18.1154 77.0475 18.0294 77.1335 18.0581L77.6208 18.1727C77.6495 18.1727 77.6781 18.1727 77.7068 18.1441L78.0794 17.8288C78.1654 17.7428 78.2801 17.8001 78.2801 17.8861Z" fill="#FF725E"/>
<path d="M81.4619 12.698L81.6912 12.9273C81.7199 12.956 81.7199 12.956 81.7485 12.956L82.0638 12.8987C82.1212 12.8987 82.1785 12.956 82.1498 13.0133L82.0065 13.2999C82.0065 13.3286 82.0065 13.3573 82.0065 13.3573L82.1498 13.6439C82.1785 13.7012 82.1212 13.7586 82.0638 13.7586L81.7485 13.7012C81.7199 13.7012 81.6912 13.7012 81.6912 13.7299L81.4619 13.9592C81.4332 13.9879 81.3473 13.9879 81.3473 13.9305L81.2899 13.6152C81.2899 13.5866 81.2613 13.5866 81.2613 13.5579L80.9746 13.4146C80.9173 13.3859 80.9173 13.2999 80.9746 13.2999L81.2613 13.1566C81.2899 13.1566 81.2899 13.128 81.2899 13.0993L81.3473 12.784C81.3473 12.6693 81.4046 12.6407 81.4619 12.698Z" fill="#FF725E"/>
<path d="M45.0879 8.79975L45.3172 9.02906C45.3459 9.05773 45.3459 9.05773 45.3745 9.05773L45.6898 9.0004C45.7472 9.0004 45.8045 9.05772 45.7758 9.11505L45.6325 9.40169C45.6325 9.43035 45.6325 9.45902 45.6325 9.45902L45.7758 9.74565C45.8045 9.80298 45.7472 9.86031 45.6898 9.86031L45.3745 9.80298C45.3459 9.80298 45.3172 9.80298 45.3172 9.83164L45.0879 10.0323C45.0592 10.061 44.9732 10.061 44.9732 10.0036L44.9159 9.68832C44.9159 9.65966 44.8872 9.65966 44.8872 9.631L44.6006 9.48768C44.5433 9.45901 44.5433 9.37302 44.6006 9.37302L44.8872 9.22971C44.9159 9.22971 44.9159 9.20104 44.9159 9.17238L44.9732 8.85708C44.9732 8.77109 45.0592 8.74243 45.0879 8.79975Z" fill="#FF725E"/>
<path d="M16.5677 78.0796C16.5677 78.0796 16.453 78.0509 16.2237 77.9936C15.9944 77.9649 15.6791 77.9076 15.3065 77.9649C14.9339 78.0223 14.4753 78.1656 14.074 78.5095C13.6727 78.8248 13.3287 79.3121 13.2141 79.8854V79.9141L13.1567 80.1147L13.0707 79.9141C12.8414 79.3694 12.4401 78.9395 12.0389 78.6529C11.6089 78.3662 11.1503 78.2516 10.749 78.2229C9.97507 78.1656 9.51646 78.4236 9.48779 78.3949C9.48779 78.3949 9.60245 78.3376 9.80309 78.2516C10.0037 78.1942 10.3477 78.1083 10.749 78.1369C11.1503 78.1656 11.6376 78.2802 12.0962 78.5669C12.5548 78.8535 12.9561 79.3121 13.2141 79.8854H13.0707V79.8567C13.2141 79.2548 13.5867 78.7389 13.988 78.3949C14.4179 78.0509 14.9052 77.9076 15.3065 77.8503C15.7078 77.793 16.0518 77.8503 16.2524 77.9076C16.4817 78.0223 16.5677 78.0796 16.5677 78.0796Z" fill="#263238"/>
<path d="M30.4405 76.9904C30.4405 76.9904 30.2972 77.1623 30.0106 77.4776C29.724 77.7929 29.3513 78.2802 28.95 78.9108C28.1475 80.172 27.3449 82.2071 27.3735 84.5289C27.3735 84.5575 27.3735 84.5862 27.3735 84.5862L27.1729 84.6149C26.8289 82.3218 25.6251 80.516 24.5932 79.4554C23.5326 78.3949 22.6727 77.9649 22.7014 77.9363C22.7014 77.9363 22.7587 77.9649 22.8447 77.9936C22.9307 78.0509 23.1027 78.1082 23.2747 78.2516C23.6473 78.4809 24.1346 78.8535 24.6792 79.3694C25.2238 79.8854 25.797 80.602 26.313 81.4905C26.8003 82.3791 27.2016 83.4397 27.3735 84.5862L27.1729 84.6149C27.1729 84.5862 27.1729 84.5575 27.1729 84.5289C27.1442 82.1498 27.9755 80.1147 28.8354 78.8248C29.2653 78.1942 29.6666 77.7069 29.9533 77.3916C30.0966 77.2197 30.2399 77.1337 30.2972 77.0477C30.4119 77.019 30.4405 76.9904 30.4405 76.9904Z" fill="#263238"/>
<path d="M101.355 59.9642C101.355 59.9642 101.125 59.8782 100.667 59.7922C100.237 59.7062 99.5488 59.6202 98.7462 59.7062C97.9436 59.8209 96.9977 60.1362 96.1665 60.8241C95.3352 61.4833 94.6473 62.5152 94.3606 63.6904V63.7191L94.3033 63.9198L94.2173 63.7191C93.7587 62.5726 92.9275 61.684 92.0389 61.1107C91.1503 60.5374 90.1758 60.2795 89.3732 60.2222C88.5706 60.1648 87.9113 60.2795 87.4814 60.3941C87.0514 60.5088 86.8221 60.6234 86.7935 60.5948C86.7935 60.5948 86.8508 60.5661 86.9654 60.5088C87.0801 60.4515 87.2521 60.3941 87.4527 60.3368C87.8827 60.1935 88.5419 60.0788 89.3732 60.1075C90.1758 60.1362 91.179 60.3941 92.0962 60.9961C93.0135 61.5693 93.8447 62.5152 94.332 63.6618H94.1887V63.6331C94.4753 62.4006 95.2205 61.3687 96.0518 60.6808C96.9117 59.9928 97.8863 59.6775 98.6888 59.5629C99.5201 59.4769 100.179 59.5629 100.609 59.6775C100.839 59.7349 101.011 59.7922 101.125 59.8495C101.297 59.9355 101.355 59.9355 101.355 59.9642Z" fill="#263238"/>
<path d="M120.416 49.502C120.416 49.502 120.273 49.4733 120.043 49.416C119.814 49.3587 119.441 49.33 119.011 49.3873C118.581 49.4447 118.065 49.6166 117.607 49.9893C117.148 50.3619 116.776 50.9065 116.632 51.5658V51.5944L116.575 51.7951L116.489 51.5944C116.231 50.9638 115.801 50.4766 115.314 50.1613C114.826 49.846 114.311 49.7026 113.881 49.674C113.451 49.6453 113.078 49.7026 112.849 49.76C112.619 49.8173 112.476 49.8746 112.476 49.8746C112.476 49.8746 112.505 49.846 112.562 49.8173C112.619 49.7886 112.705 49.76 112.82 49.7026C113.049 49.6166 113.422 49.5593 113.881 49.5593C114.339 49.588 114.884 49.7026 115.4 50.0466C115.916 50.3619 116.374 50.8778 116.632 51.5371H116.489V51.5084C116.661 50.8205 117.062 50.2472 117.521 49.8746C118.008 49.502 118.524 49.33 118.983 49.2727C119.441 49.2154 119.814 49.2727 120.043 49.3587C120.158 49.3873 120.273 49.416 120.33 49.4447C120.387 49.4733 120.416 49.4733 120.416 49.502Z" fill="#263238"/>
<path d="M107.947 45.2024C107.947 45.2024 107.804 45.3457 107.574 45.6324C107.345 45.8903 107.03 46.2916 106.686 46.8362C105.998 47.8968 105.339 49.588 105.367 51.5371C105.367 51.5657 105.367 51.5657 105.367 51.5944H105.224C105.081 50.6485 104.765 49.7886 104.364 49.0433C103.963 48.3268 103.504 47.7248 103.046 47.2662C102.616 46.8076 102.214 46.4923 101.899 46.2916C101.612 46.091 101.44 45.9763 101.44 45.9763C101.44 45.9763 101.498 46.005 101.555 46.0337C101.641 46.091 101.756 46.1483 101.899 46.2343C102.214 46.435 102.616 46.7216 103.074 47.1802C103.533 47.6102 104.02 48.2121 104.421 48.9574C104.823 49.7026 105.167 50.5912 105.31 51.5371H105.167C105.167 51.5084 105.167 51.5084 105.167 51.4797C105.138 49.502 105.855 47.7821 106.543 46.7216C106.887 46.177 107.23 45.7757 107.488 45.5177C107.603 45.3744 107.718 45.2884 107.775 45.2311C107.918 45.2311 107.947 45.2024 107.947 45.2024Z" fill="#263238"/>
<path d="M51.8813 53.2856C58.1299 53.2856 64.3499 53.2856 70.5986 53.2856C72.3471 53.2856 74.1242 53.2856 75.8727 53.2856C76.7899 53.2856 76.7899 51.8524 75.8727 51.8524C69.624 51.8524 63.404 51.8524 57.1554 51.8524C55.4069 51.8524 53.6298 51.8524 51.8813 51.8524C50.9641 51.8524 50.9641 53.2856 51.8813 53.2856Z" fill="#455A64"/>
<path d="M52.7125 25.8832H50.9927V135.951H52.7125V25.8832Z" fill="#455A64"/>
<path d="M52.6265 135.951C52.5979 135.951 52.5405 111.329 52.5405 80.9459C52.5405 50.5625 52.5692 25.9405 52.6265 25.9405C52.6552 25.9405 52.7125 50.5625 52.7125 80.9459C52.7125 111.329 52.6838 135.951 52.6265 135.951Z" fill="#263238"/>
<path d="M51.8813 42.1641C58.1299 42.1641 64.3499 42.1641 70.5986 42.1641C72.3471 42.1641 74.1242 42.1641 75.8727 42.1641C76.7899 42.1641 76.7899 40.7309 75.8727 40.7309C69.624 40.7309 63.404 40.7309 57.1554 40.7309C55.4069 40.7309 53.6298 40.7309 51.8813 40.7309C50.9641 40.7309 50.9641 42.1641 51.8813 42.1641Z" fill="#455A64"/>
<path d="M76.7325 26.1125H75.0127V135.951H76.7325V26.1125Z" fill="#455A64"/>
<path d="M75.0416 122.136C75.0129 122.136 74.9556 100.695 74.9556 74.2387C74.9556 47.7822 74.9842 26.3418 75.0416 26.3418C75.0702 26.3418 75.1275 47.7822 75.1275 74.2387C75.1275 100.666 75.0989 122.136 75.0416 122.136Z" fill="#263238"/>
<path d="M51.8525 126.664C58.1011 126.664 64.3211 126.664 70.5698 126.664C72.3183 126.664 74.0954 126.664 75.8439 126.664C76.7611 126.664 76.7611 125.231 75.8439 125.231C69.5952 125.231 63.3752 125.231 57.1266 125.231C55.3781 125.231 53.601 125.231 51.8525 125.231C50.9352 125.231 50.9352 126.664 51.8525 126.664Z" fill="#455A64"/>
<path d="M52.3686 104.421C58.216 104.421 64.0633 104.421 69.9107 104.421C71.5732 104.421 73.2357 104.421 74.8982 104.421C75.8154 104.421 75.8154 102.988 74.8982 102.988C69.0508 102.988 63.2034 102.988 57.3561 102.988C55.6936 102.988 54.0311 102.988 52.3686 102.988C51.4514 102.988 51.4514 104.421 52.3686 104.421Z" fill="#455A64"/>
<path d="M51.8525 88.9144C58.1011 88.9144 64.3211 88.9144 70.5698 88.9144C72.3183 88.9144 74.0954 88.9144 75.8439 88.9144C76.7611 88.9144 76.7611 87.4812 75.8439 87.4812C69.5952 87.4812 63.3752 87.4812 57.1266 87.4812C55.3781 87.4812 53.601 87.4812 51.8525 87.4812C50.9352 87.4812 50.9352 88.9144 51.8525 88.9144Z" fill="#455A64"/>
<path d="M51.8525 76.6464C58.1011 76.6464 64.3211 76.6464 70.5698 76.6464C72.3183 76.6464 74.0954 76.6464 75.8439 76.6464C76.7611 76.6464 76.7611 75.2132 75.8439 75.2132C69.5952 75.2132 63.3752 75.2132 57.1266 75.2132C55.3781 75.2132 53.601 75.2132 51.8525 75.2132C50.9352 75.2132 50.9352 76.6464 51.8525 76.6464Z" fill="#455A64"/>
<path d="M51.8525 64.6937C58.1011 64.6937 64.3211 64.6937 70.5698 64.6937C72.3183 64.6937 74.0954 64.6937 75.8439 64.6937C76.7611 64.6937 76.7611 63.2605 75.8439 63.2605C69.5952 63.2605 63.3752 63.2605 57.1266 63.2605C55.3781 63.2605 53.601 63.2605 51.8525 63.2605C50.9352 63.2605 50.9352 64.6937 51.8525 64.6937Z" fill="#455A64"/>
<path d="M52.1103 115.887C58.015 115.887 63.9484 115.887 69.8531 115.887C71.5442 115.887 73.2354 115.887 74.9265 115.887C75.8438 115.887 75.8438 114.454 74.9265 114.454C69.0218 114.454 63.0885 114.454 57.1838 114.454C55.4926 114.454 53.8015 114.454 52.1103 114.454C51.1644 114.454 51.1644 115.887 52.1103 115.887Z" fill="#455A64"/>
<path d="M71.63 43.6547L70.1681 40.4157C70.1681 40.4157 70.2541 38.6958 69.9961 38.5239C69.6522 38.3232 69.5662 38.4952 69.4802 39.0685L69.3369 39.9284C69.3369 39.9284 68.7923 38.7245 68.2477 38.6672C67.9037 38.6385 67.789 39.2405 67.789 39.2405C67.789 39.2405 67.2158 38.6958 66.7858 38.8105C66.3845 38.9252 66.4992 39.4984 66.4992 39.4984C66.4992 39.4984 66.0119 39.2118 65.7826 39.7277C65.5246 40.3297 66.6138 41.2182 66.7571 41.6195C67.1011 42.4508 66.3845 42.4794 66.3845 42.4794C66.3845 42.4794 64.5214 42.2501 64.6074 42.7088C64.6934 43.196 65.324 43.196 65.8112 43.2247C66.2125 43.2534 67.703 43.626 68.1903 43.7693C68.305 43.798 68.391 43.8266 68.477 43.884L69.5948 45.0305L71.63 43.6547Z" fill="#FFBE9D"/>
<path d="M70.8563 118.123L70.799 126.435L66.2988 126.492L66.3562 118.151L70.8563 118.123Z" fill="#FF725E"/>
<path d="M68.5918 126.148C68.5631 126.148 68.5631 124.314 68.5918 122.078C68.6491 119.842 68.7065 118.008 68.7351 118.008C68.7638 118.008 68.7638 119.842 68.7351 122.078C68.6778 124.314 68.6205 126.148 68.5918 126.148Z" fill="#263238"/>
<path d="M66.3276 123.827C66.3276 123.827 66.3563 123.769 66.4423 123.655C66.5283 123.54 66.6716 123.397 66.8436 123.225C67.0442 123.053 67.2735 122.881 67.5602 122.737C67.8468 122.594 68.2194 122.508 68.6207 122.508C69.3946 122.508 70.0539 122.909 70.3692 123.282C70.5412 123.483 70.6272 123.655 70.6845 123.769C70.7418 123.884 70.7705 123.97 70.7418 123.97C70.7132 123.97 70.5985 123.683 70.2832 123.339C69.9679 122.995 69.3373 122.651 68.6207 122.623C67.8755 122.623 67.2735 122.967 66.9009 123.282C66.5283 123.597 66.3563 123.827 66.3276 123.827Z" fill="#263238"/>
<path opacity="0.3" d="M66.2988 121.161V122.078H70.8563V121.161H66.2988Z" fill="black"/>
<path d="M66.2988 126.492L66.3275 125.633H70.799V126.435L66.2988 126.492Z" fill="#E0E0E0"/>
<path d="M61.4544 96.5103L61.397 104.507L57.0688 104.565L57.1262 96.5389L61.4544 96.5103Z" fill="#FF725E"/>
<path d="M59.2471 104.221C59.2184 104.221 59.2184 102.472 59.2471 100.323C59.3044 98.1728 59.3617 96.4243 59.3904 96.4243C59.4191 96.4243 59.4191 98.1728 59.3904 100.323C59.3617 102.472 59.3044 104.221 59.2471 104.221Z" fill="#263238"/>
<path d="M57.0977 101.985C57.0977 101.985 57.1263 101.928 57.2123 101.813C57.2983 101.698 57.413 101.555 57.6136 101.412C57.7856 101.268 58.0149 101.096 58.3015 100.953C58.5882 100.81 58.9321 100.724 59.3048 100.724C60.05 100.724 60.6806 101.096 60.9672 101.469C61.1392 101.641 61.2252 101.813 61.2825 101.928C61.3399 102.042 61.3685 102.128 61.3399 102.128C61.3112 102.128 61.2252 101.87 60.9099 101.526C60.5946 101.182 60.0213 100.867 59.3048 100.838C58.5882 100.838 58.0149 101.182 57.6709 101.469C57.2696 101.784 57.0977 102.014 57.0977 101.985Z" fill="#263238"/>
<path opacity="0.3" d="M57.0688 99.434V100.323H61.4544V99.434H57.0688Z" fill="black"/>
<path d="M57.0688 104.565V103.705H61.397V104.507L57.0688 104.565Z" fill="#E0E0E0"/>
<path d="M62.2573 42.9667L62.3719 42.938C62.7159 42.3074 63.4038 41.9348 64.1204 41.8775C64.837 41.8488 65.5249 42.1355 66.0695 42.5941C66.4422 42.9094 66.7288 43.3393 67.1014 43.6546C67.474 43.9699 67.9613 44.2279 68.4486 44.1132C68.5059 44.2852 68.162 44.3999 68.1906 44.6005C68.1906 44.6865 68.3053 44.7438 68.3913 44.7725C68.5346 44.8012 68.6492 44.7725 68.7926 44.7725C68.9359 44.7725 69.0792 44.8298 69.1079 44.9731C69.1365 45.0305 69.1079 45.1165 69.0792 45.1738C68.9359 45.7471 68.7066 46.2917 68.3053 46.7216C67.904 47.1516 67.3021 47.4096 66.7288 47.2949C66.2702 47.2089 65.8975 46.9223 65.5249 46.607C64.837 46.0624 64.1491 45.5178 63.4611 44.9445C63.1458 44.6865 62.8305 44.4285 62.5726 44.1132C62.3433 43.7979 62.1999 43.368 62.2573 42.9667Z" fill="#263238"/>
<path d="M62.6873 43.0813C62.4006 42.852 62.0853 42.6801 61.7414 42.5941C61.3974 42.5367 60.9961 42.5941 60.7095 42.7947C60.4515 42.9954 60.2795 43.3107 60.0789 43.5686C59.8782 43.8553 59.6203 44.1132 59.305 44.1706C59.2476 44.1706 59.1903 44.1706 59.133 44.2279C59.047 44.3139 59.1043 44.4285 59.219 44.4859C59.305 44.5432 59.4196 44.5145 59.5343 44.4859C59.3623 44.6865 59.133 44.8012 58.875 44.8585C58.9323 45.1165 59.219 45.2598 59.4483 45.2025C59.3623 45.6037 59.2476 45.9764 59.2476 46.3777C59.2476 46.7789 59.3623 47.2089 59.6203 47.4955C59.9069 47.8108 60.4228 48.0115 60.5375 48.4128" fill="#263238"/>
<path d="M65.5823 57.2412L60.2222 57.1838L60.8241 52.5977C60.8241 52.5977 60.4515 52.5117 60.4228 50.5339C60.3941 48.5561 60.3082 45.1738 60.3082 45.1738C62.6012 44.1706 65.267 44.5145 67.2447 46.0337L67.5314 46.263L65.5823 57.2412Z" fill="#FFBE9D"/>
<path d="M66.9293 48.7281C66.9579 48.6994 68.3051 48.3268 68.2478 49.674C68.1905 51.0212 66.8433 50.7059 66.8433 50.6772C66.8433 50.6199 66.9293 48.7281 66.9293 48.7281Z" fill="#FFBE9D"/>
<path d="M60.5374 48.4415C60.5087 48.4128 59.3048 48.0975 59.3335 49.4734C59.3908 50.8205 60.738 50.5052 60.738 50.4766C60.738 50.4192 60.5374 48.4415 60.5374 48.4415Z" fill="#FFBE9D"/>
<path d="M67.3594 48.5561C67.1587 49.7027 67.1874 50.3046 67.0154 51.0499C66.7288 52.2537 66.1268 53.171 65.0376 53.7729C63.9484 54.3748 62.4866 54.3748 61.5693 53.5436C60.9101 52.9703 60.4514 52.3397 60.3654 51.4798C60.2795 50.6199 60.0215 49.0147 60.0215 48.1548C60.0215 46.607 60.0501 45.2025 60.0501 45.2025L64.493 44.3999L67.0154 45.8904L67.3594 48.5561Z" fill="#263238"/>
<path d="M62.8018 54.4895C62.8018 54.5181 63.1457 54.6041 63.5757 54.5468C64.0056 54.4895 64.3209 54.3462 64.3209 54.3175C64.3209 54.2888 63.977 54.3748 63.5757 54.4321C63.1457 54.4895 62.8018 54.4608 62.8018 54.4895Z" fill="#263238"/>
<path d="M67.1588 50.5052C67.3021 49.33 67.3594 48.0115 67.5601 46.779C67.6174 46.3203 67.7894 45.6611 67.7607 45.1738C67.732 44.7152 67.5887 44.8585 67.3881 44.4286C67.1301 43.9126 66.1555 43.54 65.5823 43.4253C65.009 43.3107 64.923 42.8234 64.493 43.196C64.1778 42.7087 63.5472 42.4508 62.9739 42.5941C62.4006 42.7374 61.942 43.2247 61.8847 43.798C61.5694 43.5113 61.0534 43.454 60.6808 43.6546C60.3082 43.8839 60.1075 44.3712 60.2508 44.8012C59.9355 44.8585 59.6489 45.0878 59.5056 45.3745C59.3623 45.6611 59.3909 46.0337 59.5916 46.2917C59.7922 46.607 60.1648 46.779 60.3942 47.0943C60.6521 47.4382 60.6808 47.9542 60.4515 48.3268" fill="#263238"/>
<path d="M61.4547 50.2473C61.4261 50.2473 61.3688 50.7919 61.5981 51.4511C61.8274 52.0817 62.2573 52.483 62.286 52.4543C62.3146 52.4257 61.942 52.0244 61.7127 51.4225C61.4834 50.7919 61.4834 50.2473 61.4547 50.2473Z" fill="#455A64"/>
<path d="M60.8525 49.2727C60.8238 49.2727 60.6519 49.7313 60.7665 50.3619C60.8812 50.9639 61.1965 51.3651 61.2251 51.3365C61.2538 51.3078 60.9958 50.9065 60.8812 50.3333C60.7665 49.76 60.8812 49.2727 60.8525 49.2727Z" fill="#455A64"/>
<path d="M66.4421 44.5719C66.0981 44.0272 65.6395 43.5686 65.0662 43.3393C64.4929 43.11 63.7763 43.1673 63.2891 43.5686" fill="#263238"/>
<path d="M66.3275 47.5816C66.2988 47.5816 66.3275 47.4096 66.3848 47.1803C66.4134 46.951 66.4994 46.607 66.4994 46.2344C66.4994 45.8617 66.4134 45.5464 66.2988 45.3458C66.1841 45.1451 66.0981 45.0305 66.0981 45.0018C66.0981 45.0018 66.2415 45.0592 66.3848 45.2885C66.5281 45.4891 66.6428 45.8617 66.6428 46.2344C66.6428 46.6357 66.5568 46.9796 66.4994 47.2089C66.3848 47.4382 66.3275 47.5816 66.3275 47.5816Z" fill="#455A64"/>
<path d="M65.4103 48.0115C65.3817 47.9828 65.4677 47.7249 65.5823 47.3809C65.697 47.0369 65.7543 46.7503 65.8116 46.779C65.8403 46.779 65.869 47.0943 65.7543 47.4382C65.611 47.8108 65.439 48.0402 65.4103 48.0115Z" fill="#455A64"/>
<path d="M61.1394 47.6675C61.1394 47.6675 60.9674 47.5242 60.8241 47.1803C60.6808 46.865 60.5948 46.349 60.6808 45.8044C60.7954 45.2598 61.0821 44.8298 61.3401 44.5719C61.598 44.3139 61.7987 44.2279 61.7987 44.2279C61.8273 44.2566 61.6267 44.3712 61.426 44.6292C61.1967 44.8872 60.9388 45.2885 60.8528 45.8044C60.7381 46.3203 60.8241 46.779 60.9388 47.1229C61.0534 47.4669 61.1681 47.6675 61.1394 47.6675Z" fill="#455A64"/>
<path d="M65.9837 42.6227C65.9837 42.6514 65.8117 42.5654 65.5537 42.4508C65.2958 42.3361 64.9231 42.1928 64.4932 42.1928C64.0632 42.1928 63.7193 42.3934 63.5186 42.5941C63.318 42.7947 63.2893 42.9954 63.2606 42.9954C63.232 42.9954 63.232 42.7947 63.4326 42.5367C63.5186 42.4221 63.6619 42.2788 63.8339 42.1928C64.0059 42.1068 64.2352 42.0495 64.4645 42.0495C64.9231 42.0495 65.3244 42.2215 65.5824 42.3648C65.869 42.4794 66.0123 42.5941 65.9837 42.6227Z" fill="#455A64"/>
<path d="M59.9354 43.8839C59.9067 43.8839 59.964 43.712 60.1074 43.5113C60.2507 43.3107 60.5087 43.0814 60.8813 42.9667C61.2539 42.852 61.5979 42.9094 61.8272 43.024C62.0565 43.11 62.1711 43.2247 62.1425 43.2533C62.1425 43.282 61.9992 43.196 61.7699 43.1387C61.5405 43.0814 61.2252 43.0527 60.9099 43.1387C60.566 43.2247 60.3367 43.4253 60.1647 43.5973C60.0214 43.7406 59.9641 43.8839 59.9354 43.8839Z" fill="#455A64"/>
<path d="M61.3975 48.8714C61.3975 48.8427 61.6268 48.7854 61.9707 48.6421C62.3147 48.4701 62.8306 48.2121 63.2893 47.7535L63.5472 47.4955L63.4039 47.8395C63.3179 48.0402 63.2606 48.2695 63.2033 48.4988C63.1746 48.6134 63.1746 48.7567 63.2033 48.7567C63.2319 48.7854 63.3466 48.7281 63.4612 48.6708C63.8339 48.4414 64.1205 48.1548 64.3785 47.8682L64.6078 47.5815L64.4931 47.9255C64.3785 48.2695 64.2925 48.6134 64.2065 48.9001L64.0918 48.8427C64.7224 48.2408 64.9231 47.7249 64.9517 47.7535C64.9517 47.7535 64.9231 47.8968 64.8084 48.0975C64.6938 48.3268 64.4931 48.6134 64.1778 48.9287L64.0058 49.1007L64.0632 48.8714C64.1492 48.5848 64.2352 48.2408 64.3498 47.8968L64.4645 47.9542C64.2065 48.2695 63.8912 48.5561 63.5186 48.8141C63.4612 48.8427 63.4039 48.8714 63.3466 48.9287C63.2893 48.9574 63.1746 48.9861 63.0886 48.9287C63.0026 48.8714 63.0026 48.7567 63.0026 48.6994C63.0026 48.6134 63.0313 48.5848 63.0313 48.4988C63.0886 48.2695 63.1459 48.0402 63.2319 47.8108L63.3466 47.8968C62.8593 48.3555 62.3434 48.6134 61.9707 48.7567C61.6268 48.8427 61.3975 48.9001 61.3975 48.8714Z" fill="#455A64"/>
<path d="M63.9771 43.626C63.8911 43.454 63.7191 43.3393 63.5471 43.282C63.3751 43.2247 63.1745 43.2247 63.0025 43.282C62.5439 43.368 62.1426 43.5973 61.856 43.9413C61.7986 44.0273 61.7413 44.1419 61.7986 44.2279C61.8273 44.2566 61.8846 44.2852 61.942 44.2852C62.6012 44.3426 63.2892 44.3139 63.9484 44.2279" fill="#263238"/>
<path d="M55.2344 83.6117C55.3204 83.7837 56.4096 87.3953 58.8173 88.0259C61.2251 88.6565 68.6776 88.2265 68.8782 88.0259C69.0789 87.8252 71.286 86.6214 72.3465 84.099C73.4071 81.5766 65.7826 77.191 65.7826 77.191L55.2344 83.6117Z" fill="#263238"/>
<path d="M73.5792 84.5863L73.6365 86.6214C73.6365 86.9367 73.6078 88.5132 73.5505 88.7998L72.6333 101.383C72.5473 101.354 72.0027 109.122 71.9454 111.845C71.888 114.482 71.6874 121.62 71.6874 121.62H65.5534L65.1521 109.782L64.8941 96.9689L64.5215 88.0259L73.5792 84.5863Z" fill="#263238"/>
<path d="M55.2344 81.6053C55.2344 81.6053 55.3777 81.8059 55.349 84.5863C55.3204 86.7074 56.6102 99.8353 56.6102 99.8353L61.8557 99.6633L62.8876 86.5067L55.2344 81.6053Z" fill="#263238"/>
<path d="M65.0086 88.1979C65.0086 88.1979 64.8653 88.2265 64.5786 88.2552C64.292 88.2839 63.8907 88.3125 63.3748 88.3412C62.3716 88.3985 60.9384 88.4272 59.3905 88.1119C57.8427 87.7966 56.6102 86.908 56.0082 86.0768C55.6929 85.6755 55.521 85.2742 55.435 85.0162C55.3776 84.8729 55.3776 84.7582 55.349 84.7009C55.3203 84.6149 55.3203 84.5863 55.3203 84.5863C55.349 84.5576 55.4636 85.2169 56.0942 86.0194C56.6962 86.822 57.9 87.6533 59.4192 87.9686C60.9384 88.2839 62.3429 88.2839 63.3748 88.2552C63.8621 88.2265 64.2633 88.2265 64.5786 88.1979C64.8366 88.1979 65.0086 88.1979 65.0086 88.1979Z" fill="#455A64"/>
<path d="M71.2 87.9399C71.2 87.9686 70.942 88.0259 70.5407 88.1119C70.1108 88.1979 69.5375 88.2839 68.8782 88.3412C68.219 88.3985 67.6457 88.3985 67.2158 88.3985C66.7858 88.3985 66.5278 88.3699 66.5278 88.3412C66.5278 88.3125 66.7858 88.3125 67.2158 88.2839C67.6457 88.2552 68.219 88.2266 68.8782 88.1692C69.5375 88.1119 70.1108 88.0259 70.5407 87.9686C70.942 87.9686 71.2 87.9112 71.2 87.9399Z" fill="#455A64"/>
<path d="M71.0279 90.233C71.0279 90.2617 70.6839 90.233 70.1393 90.147C69.5947 90.061 68.8495 89.9177 68.0469 89.7171C67.2443 89.5164 66.499 89.2871 65.9831 89.1151C65.4672 88.9432 65.1519 88.7998 65.1519 88.7712C65.1519 88.7425 65.4958 88.8572 66.0118 89.0005C66.5277 89.1438 67.273 89.3731 68.0755 89.5738C68.8781 89.7744 69.6234 89.9177 70.168 90.0324C70.7126 90.147 71.0279 90.233 71.0279 90.233Z" fill="#455A64"/>
<path d="M69.5661 46.1484C69.5947 46.0624 68.8208 44.8012 68.8208 44.8012C68.8208 44.8012 70.512 42.9954 71.5152 43.0527L72.4897 44.3999L69.5661 46.1484Z" fill="white"/>
<path d="M77.5919 51.7951C77.2193 50.6486 72.5758 43.9699 72.5758 43.9699C70.856 43.9699 69.1935 46.0337 69.1935 46.0337L72.4898 52.9703L69.0215 56.152L72.9197 60.7668C72.9197 60.7668 75.3848 57.6711 76.13 56.5533C77.7925 54.0595 77.9645 52.9416 77.5919 51.7951Z" fill="#FF725E"/>
<path opacity="0.3" d="M55.0625 83.239C55.0625 83.239 55.4638 85.8188 57.6136 86.564C59.7633 87.3379 64.7508 86.564 64.7508 86.564L65.3241 84.7009L65.9547 86.908L73.6652 85.9334L73.5505 84.185L65.3814 80.8026L55.0625 83.239Z" fill="black"/>
<path d="M71.8594 74.64C71.6874 73.7227 71.4868 73.2641 71.4581 72.7195C71.3434 71.0857 71.3434 67.1301 71.4581 66.6428C71.6014 65.9836 72.9486 60.7668 72.9486 60.7668L72.49 56.7252L66.8146 55.7793L66.4133 54.8621C66.4133 54.8621 62.6297 53.8875 60.222 55.1774L59.8207 56.152L58.3302 56.5246C58.1009 56.6106 56.9543 56.9259 56.0658 57.1839C55.0912 57.4418 54.26 58.1297 53.83 59.047C53.6867 59.3336 53.572 59.6776 53.4287 60.0502C53.0274 61.2254 50.7917 67.6461 50.677 69.5952C50.5624 71.8883 52.5975 71.9743 53.83 71.6876C55.0339 71.401 56.4384 68.6206 56.4384 68.6206L57.2123 74.038C57.2123 74.038 57.0403 75.1846 56.6677 76.2165C55.9224 78.2802 54.8332 82.2645 54.8332 82.2645C55.2632 83.583 56.811 85.7041 57.6136 85.9908C58.4162 86.2774 63.8336 86.0481 63.8336 86.0481L65.4388 81.8059L66.9006 86.2487L74.5824 85.0449L71.8594 74.64Z" fill="#FF725E"/>
<path d="M65.3814 73.0635C65.4101 73.0922 64.2922 73.8374 62.9163 74.6973C61.5405 75.5572 60.3939 76.2451 60.3653 76.1878C60.3366 76.1592 61.4545 75.4139 62.8304 74.554C64.2062 73.7228 65.3527 73.0348 65.3814 73.0635Z" fill="#263238"/>
<path d="M63.3462 75.2992C63.3749 75.3279 62.1997 76.1018 60.7379 77.0477C59.276 77.9649 58.0721 78.7102 58.0435 78.6529C58.0148 78.6242 59.19 77.8503 60.6519 76.9044C62.1137 75.9872 63.3462 75.2706 63.3462 75.2992Z" fill="#263238"/>
<path d="M69.4229 69.2226C69.4516 69.2512 69.1363 69.9391 68.5057 70.6557C67.8751 71.3723 67.2158 71.7736 67.2158 71.7449C67.1872 71.7163 67.7891 71.2577 68.391 70.5697C68.993 69.8531 69.3943 69.1939 69.4229 69.2226Z" fill="#263238"/>
<path d="M69.5663 69.9678C69.5949 69.9678 69.4803 70.1971 69.3083 70.5411C69.1363 70.8851 68.8497 71.3437 68.5057 71.831C68.1617 72.3182 67.7891 72.7195 67.5312 72.9775C67.2445 73.2641 67.0725 73.4075 67.0439 73.4075C67.0152 73.3788 67.6745 72.6909 68.3911 71.745C69.079 70.7704 69.5376 69.9392 69.5663 69.9678Z" fill="#263238"/>
<path d="M69.7667 76.9904C69.7381 76.9904 69.824 76.7038 69.9674 76.2165C70.1107 75.7579 70.2827 75.0986 70.4546 74.382C70.6266 73.6654 70.7413 73.0062 70.8273 72.5189C70.9133 72.0316 70.9706 71.745 70.9993 71.745C71.0279 71.745 70.9993 72.0603 70.9419 72.5475C70.8846 73.0348 70.7699 73.6941 70.598 74.4393C70.426 75.1559 70.2253 75.8152 70.082 76.2738C69.8814 76.7038 69.7667 76.9904 69.7667 76.9904Z" fill="#263238"/>
<path d="M72.5761 60.1362C72.5475 60.1649 72.0315 59.2763 71.2576 58.3017C70.4837 57.3272 69.7671 56.6106 69.7958 56.5819C69.7958 56.5819 69.9964 56.7252 70.3117 57.0119C70.5983 57.2985 70.9996 57.7285 71.4009 58.2157C71.8022 58.703 72.0888 59.1903 72.3181 59.5629C72.4901 59.8782 72.6048 60.1075 72.5761 60.1362Z" fill="#263238"/>
<path d="M73.8087 58.1011C73.7801 58.1297 73.4074 57.4132 72.6622 56.8399C71.9169 56.2666 71.143 56.0946 71.1717 56.0373C71.1717 56.0086 71.3723 56.0373 71.659 56.1233C71.9456 56.2093 72.3469 56.4099 72.7482 56.6966C73.1208 56.9832 73.4074 57.3272 73.5794 57.6138C73.7514 57.9004 73.8374 58.0724 73.8087 58.1011Z" fill="#263238"/>
<path d="M57.1836 74.038C57.155 74.038 56.6963 71.0857 56.1517 67.4168C55.6358 63.7478 55.2345 60.7668 55.2632 60.7668C55.2918 60.7668 55.7504 63.7192 56.2951 67.3881C56.8397 71.057 57.2123 74.038 57.1836 74.038Z" fill="#263238"/>
<path d="M66.8721 55.7793C66.8721 55.808 66.4708 55.7793 65.8115 55.7507C65.1523 55.722 64.2637 55.722 63.2891 55.7507C62.3146 55.808 61.426 55.894 60.7667 55.98C60.1362 56.066 59.7349 56.1233 59.7349 56.1233C59.7349 56.1233 59.8209 56.0946 59.9928 56.0373C60.1648 55.98 60.4228 55.9513 60.7381 55.894C61.3687 55.7793 62.2573 55.6647 63.2605 55.6074C64.2637 55.55 65.1523 55.5787 65.7829 55.636C66.0982 55.6647 66.3561 55.6933 66.5568 55.722C66.7861 55.7507 66.8721 55.7793 66.8721 55.7793Z" fill="#263238"/>
<g opacity="0.3">
<path d="M56.4382 68.8213C56.1229 66.5282 55.7216 64.2351 55.4063 61.942C54.575 64.1778 55.0337 66.8435 56.4382 68.8213Z" fill="black"/>
</g>
<g opacity="0.3">
<path d="M72.4326 52.8556C72.9772 52.3397 73.6652 52.0244 74.3817 51.9098C74.7257 51.8524 75.127 51.8811 75.385 52.1104C75.4423 52.1677 75.4996 52.225 75.4996 52.311C75.4996 52.397 75.4136 52.4544 75.3276 52.4544C75.2416 52.483 75.1843 52.4544 75.0983 52.4544C74.2098 52.311 73.2639 52.569 72.4326 52.8556Z" fill="black"/>
</g>
<g opacity="0.3">
<path d="M60.0789 56.1806C60.7955 56.4099 61.5694 56.3526 62.3433 56.2953C63.6905 56.1806 65.009 56.0086 66.3275 55.7793C64.2064 55.4927 62.028 55.6073 59.9355 56.1519" fill="black"/>
</g>
<g opacity="0.3">
<path d="M59.8208 77.6496C62.8305 76.8184 65.6108 75.0699 67.6746 72.7195C65.2955 74.2387 62.1712 75.9872 59.8208 77.6496Z" fill="black"/>
</g>
<path d="M74.2958 52.5403C74.2958 52.5977 73.8085 52.4544 73.2639 52.6263C72.7193 52.7697 72.3753 53.1136 72.3467 53.085C72.3467 53.085 72.404 52.9703 72.5473 52.827C72.6906 52.6837 72.9199 52.5403 73.2352 52.4544C73.5219 52.3684 73.8085 52.3684 74.0092 52.397C74.1811 52.4544 74.2958 52.5117 74.2958 52.5403Z" fill="#263238"/>
<path d="M46.2059 49.2154L43.5689 49.3301C42.7376 50.3046 41.6484 51.0785 40.3586 51.5085C36.6323 52.741 32.6767 50.6486 31.5015 46.8363C30.3263 43.0241 32.4188 38.9539 36.145 37.7213C39.8713 36.4888 43.8269 38.5812 45.0021 42.3935C45.4893 43.9986 45.4034 45.6325 44.8874 47.0943L46.2059 49.2154Z" fill="white"/>
<path d="M46.2057 49.2154C46.2057 49.2154 46.177 49.1581 46.1197 49.0721C46.0624 48.9861 45.9764 48.8428 45.8617 48.6708C45.6324 48.2982 45.2884 47.7822 44.8585 47.0943H44.9158C44.9158 47.1229 44.8871 47.1229 44.8585 47.0943C44.8585 47.0943 44.8298 47.0656 44.8585 47.0656C45.1738 46.177 45.4318 44.9445 45.2024 43.54C45.1165 42.8234 44.8871 42.0782 44.5145 41.3616C44.1419 40.6163 43.6546 39.8997 42.9667 39.2978C42.3074 38.6672 41.4762 38.1799 40.5589 37.8359C39.6417 37.5206 38.5812 37.3773 37.5493 37.492C36.4887 37.6066 35.4568 37.9793 34.5109 38.6099C34.0523 38.8965 33.6224 39.2978 33.2211 39.6991C32.8484 40.129 32.4758 40.5877 32.2178 41.0749C31.9312 41.5622 31.7306 42.1068 31.5586 42.6514C31.4153 43.196 31.3006 43.7406 31.2719 44.2853C31.2146 45.3745 31.3866 46.4637 31.7879 47.4382C32.5618 49.3874 34.1956 50.7919 35.8868 51.3938C37.6066 52.0244 39.3264 51.8811 40.6449 51.3652C41.9921 50.8492 42.938 50.0466 43.54 49.3014H43.5686C44.4285 49.2727 45.0591 49.2441 45.5177 49.2441C45.7471 49.2441 45.919 49.2441 46.0337 49.2154C45.919 49.2154 45.7471 49.2441 45.5464 49.2441C45.0878 49.2727 44.4285 49.3014 43.5686 49.3587H43.5973C42.9954 50.104 42.0208 50.9352 40.6736 51.4511C39.3264 51.9671 37.5779 52.1391 35.8295 51.5085C34.9696 51.1932 34.1096 50.7059 33.3931 50.018C32.6765 49.33 32.0459 48.4701 31.6446 47.4669C31.2433 46.4637 31.0426 45.3745 31.1 44.2566C31.1286 43.6833 31.2433 43.1387 31.3866 42.5654C31.5586 42.0208 31.7592 41.4762 32.0745 40.9603C32.3612 40.4443 32.7338 39.9857 33.1064 39.5558C33.5077 39.1545 33.9377 38.7532 34.4249 38.4665C35.3708 37.8359 36.4601 37.4633 37.5206 37.3487C38.5812 37.234 39.6417 37.3773 40.6163 37.6926C41.5622 38.0366 42.3934 38.5525 43.0813 39.1831C43.7693 39.8137 44.2852 40.559 44.6292 41.3042C45.0018 42.0495 45.2024 42.8234 45.3171 43.54C45.5177 44.9732 45.2598 46.2057 44.9158 47.1229L44.8585 47.0943C44.8585 47.0656 44.8871 47.0656 44.9158 47.0943C45.3458 47.7822 45.6897 48.3268 45.8904 48.6994C46.005 48.8714 46.091 49.0147 46.1483 49.1007C46.177 49.1581 46.2057 49.2154 46.2057 49.2154Z" fill="#263238"/>
<path d="M36.0015 43.454L38.0939 40.7883L40.215 43.4254L36.0015 43.454Z" fill="#FF725E"/>
<path d="M39.1545 48.3268L37.2341 48.3555L37.1768 43.0241H39.0972L39.1545 48.3268Z" fill="#FF725E"/>
</svg>
