<svg width="17" height="20" viewBox="0 0 17 20" fill="none" xmlns="http://www.w3.org/2000/svg">
<path d="M8.13066 17.8918C5.97624 17.8918 3.82183 17.5497 1.77837 16.8655C1.00167 16.5973 0.4099 16.0518 0.151 15.3398C-0.117146 14.6278 -0.0246818 13.8419 0.400653 13.1392L1.46399 11.3731C1.68591 11.0032 1.88933 10.2635 1.88933 9.82894V7.15673C1.88933 3.71706 4.69099 0.915396 8.13066 0.915396C11.5703 0.915396 14.372 3.71706 14.372 7.15673V9.82894C14.372 10.2543 14.5754 11.0032 14.7973 11.3823L15.8514 13.1392C16.249 13.8049 16.323 14.6093 16.0548 15.3398C15.7867 16.0703 15.2042 16.6251 14.4737 16.8655C12.4395 17.5497 10.2851 17.8918 8.13066 17.8918ZM8.13066 2.30236C5.45844 2.30236 3.27629 4.47527 3.27629 7.15673V9.82894C3.27629 10.5039 2.9989 11.5025 2.65678 12.0851L1.59344 13.8511C1.39002 14.1932 1.33454 14.5539 1.45475 14.859C1.5657 15.1734 1.84309 15.4138 2.2222 15.5432C6.0872 16.8377 10.1834 16.8377 14.0484 15.5432C14.3812 15.4323 14.6401 15.1826 14.7603 14.8497C14.8805 14.5169 14.8528 14.1563 14.6679 13.8511L13.6045 12.0851C13.2532 11.484 12.985 10.4947 12.985 9.8197V7.15673C12.985 4.47527 10.8121 2.30236 8.13066 2.30236Z" fill="#3E3D67"/>
<path d="M9.85154 2.55201C9.78681 2.55201 9.72209 2.54276 9.65736 2.52427C9.38921 2.4503 9.13031 2.39482 8.88066 2.35784C8.09472 2.25613 7.33651 2.3116 6.62454 2.52427C6.36564 2.60749 6.08824 2.52427 5.91256 2.3301C5.73688 2.13592 5.6814 1.85853 5.78311 1.60888C6.16221 0.638003 7.08686 0 8.14095 0C9.19504 0 10.1197 0.628757 10.4988 1.60888C10.5912 1.85853 10.545 2.13592 10.3693 2.3301C10.2306 2.47804 10.0365 2.55201 9.85154 2.55201Z" fill="#3E3D67"/>
<path d="M8.13147 20C7.21607 20 6.32842 19.6301 5.68117 18.9829C5.03392 18.3356 4.66406 17.448 4.66406 16.5326H6.05103C6.05103 17.0781 6.27294 17.6144 6.66129 18.0028C7.04964 18.3911 7.58593 18.613 8.13147 18.613C9.27802 18.613 10.2119 17.6791 10.2119 16.5326H11.5989C11.5989 18.4466 10.0455 20 8.13147 20Z" fill="#3E3D67"/>
<circle cx="12.1063" cy="3.3472" r="2.66297" fill="#FD3C22"/>
</svg>
