<svg width="25" height="25" viewBox="0 0 25 25" fill="none" xmlns="http://www.w3.org/2000/svg">
<path d="M12.239 24.166C10.5801 24.166 9.02105 23.8522 7.56178 23.2246C6.10251 22.597 4.83156 21.7419 3.74895 20.6593C2.66631 19.5766 1.81119 18.3058 1.18358 16.8468C0.555983 15.3878 0.242188 13.8288 0.242188 12.1699C0.242188 10.5111 0.555983 8.95197 1.18358 7.4927C1.81119 6.03343 2.66594 4.76235 3.74782 3.67948C4.82971 2.59661 6.10034 1.74032 7.55971 1.1106C9.01906 0.480876 10.5784 0.166016 12.2377 0.166016C13.897 0.166016 15.4565 0.480698 16.9163 1.11006C18.3762 1.73941 19.6473 2.5952 20.7299 3.67744C21.8124 4.75971 22.6684 6.03076 23.2979 7.4906C23.9274 8.95047 24.2422 10.5103 24.2422 12.1702C24.2422 13.8297 23.9273 15.3891 23.2976 16.8483C22.6679 18.3074 21.8116 19.5781 20.7287 20.6601C19.6458 21.7422 18.3749 22.597 16.9159 23.2246C15.4569 23.8522 13.8979 24.166 12.239 24.166ZM2.2554 12.1696H12.2386V2.18632C9.46014 2.18632 7.10163 3.15372 5.16313 5.08852C3.22464 7.02333 2.2554 9.38367 2.2554 12.1696Z" fill="#029BF7"/>
</svg>
