<svg width="76" height="25" viewBox="0 0 76 25" fill="none" xmlns="http://www.w3.org/2000/svg">
<path d="M1.89 6.25H3.15C4.04 6.25 4.44 5.82 4.44 5.12C4.44 4.4 4.04 3.98 3.15 3.98H1.89V6.25ZM5.61 5.12C5.61 6.11 4.96 7.18 3.15 7.18H1.89V10H0.75V3.05H3.15C4.8 3.05 5.61 3.99 5.61 5.12ZM7.83727 7.1V10H6.69727V4.49H7.83727V5.29C8.15727 4.74 8.70727 4.4 9.48727 4.4V5.58H9.19727C8.35727 5.58 7.83727 5.93 7.83727 7.1ZM15.7852 7.24C15.7852 8.97 14.5052 10.09 12.9252 10.09C11.3552 10.09 10.1652 8.97 10.1652 7.24C10.1652 5.51 11.4052 4.4 12.9752 4.4C14.5452 4.4 15.7852 5.51 15.7852 7.24ZM11.3252 7.24C11.3252 8.49 12.0652 9.1 12.9252 9.1C13.7752 9.1 14.6152 8.49 14.6152 7.24C14.6152 5.99 13.8052 5.39 12.9552 5.39C12.0952 5.39 11.3252 5.99 11.3252 7.24ZM16.5321 7.22C16.5321 5.52 17.6821 4.4 19.1321 4.4C20.0321 4.4 20.7021 4.82 21.0421 5.29V4.49H22.1921V10.09C22.1921 11.59 21.2221 12.72 19.5021 12.72C18.0321 12.72 16.9421 11.99 16.8021 10.77H17.9321C18.1021 11.34 18.7121 11.73 19.5021 11.73C20.3821 11.73 21.0421 11.19 21.0421 10.09V9.17C20.6921 9.64 20.0321 10.09 19.1321 10.09C17.6821 10.09 16.5321 8.92 16.5321 7.22ZM21.0421 7.24C21.0421 6.06 20.2321 5.39 19.3721 5.39C18.5221 5.39 17.7021 6.03 17.7021 7.22C17.7021 8.41 18.5221 9.1 19.3721 9.1C20.2321 9.1 21.0421 8.43 21.0421 7.24ZM24.8295 7.1V10H23.6895V4.49H24.8295V5.29C25.1495 4.74 25.6995 4.4 26.4795 4.4V5.58H26.1895C25.3495 5.58 24.8295 5.93 24.8295 7.1ZM29.8473 5.36C29.0773 5.36 28.4573 5.88 28.3373 6.75H31.3873C31.3673 5.9 30.6973 5.36 29.8473 5.36ZM32.4273 8.36C32.1173 9.32 31.2473 10.09 29.8973 10.09C28.3173 10.09 27.1473 8.97 27.1473 7.24C27.1473 5.51 28.2673 4.4 29.8973 4.4C31.4673 4.4 32.5773 5.49 32.5773 7.11C32.5773 7.3 32.5673 7.48 32.5373 7.67H28.3273C28.4073 8.58 29.0573 9.13 29.8973 9.13C30.5973 9.13 30.9873 8.79 31.1973 8.36H32.4273ZM37.8092 8.46C37.8092 9.39 36.9992 10.09 35.6992 10.09C34.3792 10.09 33.4492 9.31 33.3992 8.31H34.5792C34.6192 8.76 35.0492 9.13 35.6792 9.13C36.3392 9.13 36.6892 8.85 36.6892 8.47C36.6892 7.39 33.4892 8.01 33.4892 5.99C33.4892 5.11 34.3092 4.4 35.6092 4.4C36.8592 4.4 37.6792 5.07 37.7392 6.17H36.5992C36.5592 5.69 36.1892 5.36 35.5692 5.36C34.9592 5.36 34.6392 5.61 34.6392 5.98C34.6392 7.09 37.7492 6.47 37.8092 8.46ZM43.151 8.46C43.151 9.39 42.341 10.09 41.041 10.09C39.721 10.09 38.791 9.31 38.741 8.31H39.921C39.961 8.76 40.391 9.13 41.021 9.13C41.681 9.13 42.031 8.85 42.031 8.47C42.031 7.39 38.831 8.01 38.831 5.99C38.831 5.11 39.651 4.4 40.951 4.4C42.201 4.4 43.021 5.07 43.081 6.17H41.941C41.901 5.69 41.531 5.36 40.911 5.36C40.301 5.36 39.981 5.61 39.981 5.98C39.981 7.09 43.091 6.47 43.151 8.46ZM0.74 19.46V15.05H1.88V19.48C1.88 20.56 2.49 21.07 3.45 21.07C4.42 21.07 5.03 20.56 5.03 19.48V15.05H6.17V19.46C6.17 21.23 4.89 22.07 3.44 22.07C1.98 22.07 0.74 21.23 0.74 19.46ZM8.7943 17.3C9.1443 16.84 9.8143 16.4 10.7143 16.4C12.1643 16.4 13.3043 17.52 13.3043 19.22C13.3043 20.92 12.1643 22.09 10.7143 22.09C9.8043 22.09 9.1543 21.63 8.7943 21.2V24.62H7.6543V16.49H8.7943V17.3ZM12.1443 19.22C12.1443 18.03 11.3243 17.39 10.4643 17.39C9.6143 17.39 8.7943 18.06 8.7943 19.24C8.7943 20.43 9.6143 21.1 10.4643 21.1C11.3243 21.1 12.1443 20.41 12.1443 19.22ZM14.0516 19.22C14.0516 17.52 15.2016 16.4 16.6616 16.4C17.3816 16.4 18.1416 16.74 18.5616 17.26V14.6H19.7116V22H18.5616V21.17C18.2116 21.67 17.5516 22.09 16.6516 22.09C15.2016 22.09 14.0516 20.92 14.0516 19.22ZM18.5616 19.24C18.5616 18.06 17.7516 17.39 16.8916 17.39C16.0416 17.39 15.2216 18.03 15.2216 19.22C15.2216 20.41 16.0416 21.1 16.8916 21.1C17.7516 21.1 18.5616 20.43 18.5616 19.24ZM20.829 19.22C20.829 17.52 21.979 16.4 23.429 16.4C24.359 16.4 24.999 16.84 25.339 17.29V16.49H26.489V22H25.339V21.18C24.989 21.65 24.329 22.09 23.409 22.09C21.979 22.09 20.829 20.92 20.829 19.22ZM25.339 19.24C25.339 18.06 24.529 17.39 23.669 17.39C22.819 17.39 21.999 18.03 21.999 19.22C21.999 20.41 22.819 21.1 23.669 21.1C24.529 21.1 25.339 20.43 25.339 19.24ZM28.1663 20.47V17.42H27.5163V16.49H28.1663V15.12H29.3163V16.49H30.6563V17.42H29.3163V20.47C29.3163 20.88 29.4763 21.05 29.9563 21.05H30.6563V22H29.7563C28.7763 22 28.1663 21.59 28.1663 20.47ZM34.027 17.36C33.257 17.36 32.637 17.88 32.517 18.75H35.567C35.547 17.9 34.877 17.36 34.027 17.36ZM36.607 20.36C36.297 21.32 35.427 22.09 34.077 22.09C32.497 22.09 31.327 20.97 31.327 19.24C31.327 17.51 32.447 16.4 34.077 16.4C35.647 16.4 36.757 17.49 36.757 19.11C36.757 19.3 36.747 19.48 36.717 19.67H32.507C32.587 20.58 33.237 21.13 34.077 21.13C34.777 21.13 35.167 20.79 35.377 20.36H36.607Z" fill="#029BF7"/>
<path d="M0 11H46.2328V11.5H0V11ZM0 23H37.127V23.5H0V23Z" fill="#029BF7"/>
<path d="M72 8C73.6569 8 75 6.65685 75 5C75 3.34315 73.6569 2 72 2C70.3431 2 69 3.34315 69 5C69 6.65685 70.3431 8 72 8Z" fill="#E98E94" stroke="#E98E94" stroke-width="1.2"/>
<path d="M60 14L62.2929 11.7071C62.6834 11.3166 63.3166 11.3166 63.7071 11.7071L65.2929 13.2929C65.6834 13.6834 66.3166 13.6834 66.7071 13.2929L70 10M70 10V12.5M70 10H67.5" stroke="#019FFE" stroke-width="1.2" stroke-linecap="round" stroke-linejoin="round"/>
<path d="M75 10.5V12C75 16.714 75 19.0711 73.5355 20.5355C72.0711 22 69.714 22 65 22C60.286 22 57.9289 22 56.4645 20.5355C55 19.0711 55 16.714 55 12C55 10.8717 55 9.87835 55.0201 9M66.5 2H65C60.286 2 57.9289 2 56.4645 3.46447C56.0235 3.90538 55.7154 4.4272 55.5 5.0699" stroke="#019FFE" stroke-width="1.2" stroke-linecap="round"/>
</svg>
