<svg width="24" height="25" viewBox="0 0 24 25" fill="none" xmlns="http://www.w3.org/2000/svg">
<path d="M17.7379 0C18.0075 0.0313519 18.2834 0.0501631 18.553 0.0877854C21.4249 0.48909 23.6822 2.79032 23.9644 5.66843C24.1525 7.61852 23.5756 9.32406 22.1899 10.7412C20.9546 12.0015 19.4497 12.6536 17.694 12.6348C15.4116 12.616 13.6245 11.6127 12.3893 9.70028C11.5867 8.45875 10.5646 7.537 9.17256 7.01656C9.00953 6.95385 8.83396 6.8598 8.72736 6.73439C8.45773 6.42087 8.55179 5.9694 8.91547 5.74367C9.06596 5.64961 9.23526 5.58064 9.40456 5.51794C10.69 5.05393 11.6431 4.20743 12.3391 3.04114C12.7404 2.37647 13.1919 1.74944 13.7876 1.24154C14.5776 0.564334 15.4994 0.225734 16.5152 0.100326C16.8914 0.0501631 17.2739 0.0313519 17.6564 0C17.6752 0 17.7065 0 17.7379 0ZM17.5749 1.40457C17.4306 1.40457 17.2739 1.3983 17.1234 1.40457C16.0449 1.47354 15.0542 1.76825 14.3143 2.61475C13.9945 2.9847 13.7123 3.39228 13.449 3.80612C12.8533 4.75295 12.1134 5.55556 11.1665 6.15752C10.9283 6.308 10.9283 6.3519 11.1665 6.51493C12.1447 7.15451 12.9097 7.99474 13.5367 8.97919C13.7687 9.34287 14.0509 9.68774 14.3707 9.98245C15.4053 10.9418 16.6531 11.3431 18.0577 11.2553C19.3431 11.1738 20.4342 10.6471 21.3057 9.71282C22.2526 8.70329 22.6915 7.48684 22.6288 6.08854C22.5724 4.73414 22.0331 3.59293 21.0549 2.68999C20.0893 1.80587 18.923 1.3544 17.5749 1.40457Z" fill="#029BF7"/>
<path d="M0 17.6511C0.0313519 17.3815 0.0501631 17.1056 0.0877854 16.836C0.48909 13.9642 2.78405 11.6943 5.66843 11.4309C8.25809 11.1926 10.2897 12.221 11.7005 14.4094C12.4655 15.5882 13.4562 16.4723 14.7793 16.9739C14.8671 17.0053 14.9549 17.0429 15.0426 17.0805C15.3185 17.1997 15.444 17.4129 15.444 17.7076C15.444 17.996 15.3123 18.1967 15.0489 18.3158C14.6413 18.4976 14.2275 18.6607 13.8387 18.8801C12.9483 19.3818 12.2711 20.1091 11.7256 20.9619C10.4778 22.912 8.69702 23.978 6.37698 23.9905C3.9378 24.003 2.10058 22.8618 0.852772 20.7801C0.33233 19.9273 0.0752446 18.993 0.0438927 17.996C0.0438927 17.9145 0.0125408 17.8267 0 17.7452C0 17.7076 0 17.6762 0 17.6511ZM1.3983 17.5508C1.38575 19.1059 1.9062 20.3098 2.922 21.2754C3.91899 22.2223 5.1229 22.68 6.50866 22.6236C8.18912 22.5609 9.5059 21.8272 10.4276 20.4477C11.1048 19.4257 11.8698 18.5227 12.8982 17.8518C13.0926 17.7201 13.0926 17.6574 12.8982 17.532C11.9012 16.8862 11.1237 16.0397 10.4966 15.0364C10.3022 14.7229 10.0702 14.4094 9.80061 14.1523C8.66567 13.0612 7.29873 12.6098 5.7374 12.7791C3.21671 13.0675 1.34186 15.2747 1.3983 17.5508Z" fill="#029BF7"/>
<path d="M4.27013 0C4.48332 0.0376223 4.70279 0.0564334 4.91598 0.119137C5.96313 0.420116 6.66542 1.09105 6.9225 2.15074C7.16705 3.13519 6.9225 4.01932 6.20141 4.76549C5.70605 5.27339 5.11036 5.53048 4.42062 5.61826C4.69652 5.63707 4.97241 5.66216 5.24831 5.68097C6.97894 5.78756 8.45875 7.39905 8.41485 9.12341C8.40231 9.49336 8.22047 9.72536 7.85679 9.80061C7.70003 9.83196 7.53073 9.8445 7.3677 9.8445C5.27339 9.8445 3.17281 9.8445 1.07851 9.8445C1.04715 9.8445 1.0158 9.8445 0.98445 9.8445C0.376223 9.83823 0.206923 9.72536 0 9.15476C0 9.14222 0 9.12341 0 9.11087C0.0188112 9.01681 0.0438927 8.92902 0.0501631 8.83497C0.1693 7.18586 1.58641 5.78756 3.24179 5.68097C3.37347 5.6747 3.50514 5.65589 3.63682 5.64334C3.7685 5.63707 3.90018 5.6308 4.03186 5.62453C3.3233 5.53048 2.73389 5.24831 2.23226 4.74668C0.890394 3.40482 1.2917 0.934287 3.29822 0.206923C3.57412 0.100326 3.88137 0.0627038 4.17607 0C4.20743 0 4.23878 0 4.27013 0ZM4.23878 1.40457C3.39855 1.3983 2.8154 1.97517 2.80913 2.80286C2.80913 3.63055 3.37974 4.21997 4.18862 4.22624C5.02258 4.23251 5.62453 3.64936 5.6308 2.84048C5.63707 2.00025 5.06647 1.41084 4.23878 1.40457ZM4.23251 8.45248C5.03512 8.45248 5.844 8.45248 6.64661 8.45248C6.90369 8.45248 6.94758 8.3835 6.81591 8.15777C6.42087 7.45549 5.82519 7.06045 5.01004 7.04164C4.49586 7.0291 3.97542 7.03537 3.46125 7.04164C2.6461 7.04791 2.05042 7.43667 1.64284 8.12642C1.49235 8.3835 1.53624 8.45248 1.83722 8.45248C2.63356 8.45248 3.43617 8.45248 4.23251 8.45248Z" fill="#029BF7"/>
<path d="M20.009 19.7956C20.2598 19.8144 20.5043 19.8395 20.7551 19.852C22.5359 19.9711 23.9342 21.4259 23.9844 23.2067C23.9969 23.6895 23.8025 23.934 23.3197 24.003C23.1818 24.0218 23.0376 24.0281 22.8996 24.0281C20.8367 24.0281 18.7737 24.0281 16.7045 24.0281C16.5352 24.0281 16.3596 24.0218 16.1903 23.9842C15.8015 23.9089 15.6072 23.6707 15.6134 23.2756C15.6511 21.94 16.2655 20.9431 17.4193 20.2659C18.015 19.921 18.6671 19.8395 19.338 19.8081C19.4258 19.8018 19.5199 19.8081 19.6077 19.7956C17.9523 19.6263 16.8675 18.1841 17.0305 16.6478C17.1748 15.3248 18.41 14.2024 19.802 14.2024C21.2066 14.2024 22.4419 15.3311 22.5736 16.6667C22.7303 18.1904 21.6455 19.6325 20.009 19.7956ZM19.7958 18.4035C20.6235 18.4035 21.2129 17.8141 21.2191 16.9927C21.2191 16.1713 20.6423 15.5819 19.8271 15.5819C18.9869 15.5756 18.3975 16.1525 18.3975 16.9802C18.3912 17.8141 18.9681 18.3973 19.7958 18.4035ZM19.8083 22.6235C20.6047 22.6235 21.401 22.6235 22.2036 22.6235C22.492 22.6235 22.5359 22.5545 22.398 22.31C21.9967 21.614 21.401 21.2252 20.5858 21.2127C20.0779 21.2064 19.57 21.2064 19.0621 21.2127C18.247 21.2189 17.6513 21.6077 17.2375 22.2975C17.0807 22.5545 17.1246 22.6298 17.4193 22.6298C18.2156 22.6298 19.012 22.6235 19.8083 22.6235Z" fill="#029BF7"/>
<path d="M17.0122 8.465C16.8115 8.36468 16.6234 8.31451 16.498 8.19538C16.0026 7.7251 15.5261 7.24228 15.0495 6.75319C14.7611 6.45848 14.7674 6.05718 15.037 5.78755C15.3066 5.51792 15.7079 5.51792 16.0026 5.80009C16.2723 6.05091 16.5293 6.31426 16.7802 6.57762C16.9369 6.74065 17.0498 6.73438 17.2065 6.57135C17.9151 5.85025 18.6299 5.1417 19.3447 4.43315C19.6583 4.1259 20.047 4.09455 20.3292 4.35163C20.6302 4.62753 20.6364 5.04137 20.3417 5.34862C19.9592 5.74993 19.5579 6.13869 19.1692 6.52746C18.6299 7.06671 18.1032 7.60596 17.5577 8.13267C17.4072 8.27062 17.2065 8.34587 17.0122 8.465Z" fill="#029BF7"/>
<path d="M6.34547 14.2213C7.30484 14.2213 8.11372 14.842 8.35199 15.7575C8.59027 16.6918 8.17642 17.6574 7.32992 18.1089C7.14181 18.2092 7.03521 18.3346 6.98505 18.5478C6.90353 18.899 6.65272 19.0683 6.30158 19.0557C5.96298 19.0369 5.74978 18.8425 5.68708 18.4914C5.58048 17.9145 5.93789 17.2749 6.52731 17.0116C6.8471 16.8674 7.06029 16.6604 7.05402 16.2842C7.04775 15.9205 6.82202 15.6446 6.47715 15.5945C6.08211 15.538 5.76232 15.7324 5.662 16.0961C5.63065 16.2152 5.61184 16.3406 5.58048 16.4598C5.48643 16.7984 5.21053 16.974 4.84685 16.9363C4.51452 16.8987 4.3076 16.673 4.28878 16.3218C4.201 15.1932 5.16037 14.2213 6.34547 14.2213Z" fill="#029BF7"/>
<path d="M6.99174 20.5104C6.99174 20.9055 6.72838 21.1688 6.32708 21.1626C5.93832 21.1563 5.6875 20.8992 5.6875 20.5104C5.6875 20.1154 5.95086 19.8521 6.35216 19.8583C6.73465 19.8646 6.99174 20.1217 6.99174 20.5104Z" fill="#029BF7"/>
</svg>
