<svg width="264" height="197" viewBox="0 0 264 197" fill="none" xmlns="http://www.w3.org/2000/svg">
<path d="M237.547 181.368H220.07V181.474H237.547V181.368Z" fill="#EBEBEB"/>
<path d="M174.873 182.846H170.28V182.952H174.873V182.846Z" fill="#EBEBEB"/>
<path d="M219.542 176.51H209.405V176.616H219.542V176.51Z" fill="#EBEBEB"/>
<path d="M50.5298 177.355H27.7202V177.461H50.5298V177.355Z" fill="#EBEBEB"/>
<path d="M58.5549 177.355H55.2285V177.461H58.5549V177.355Z" fill="#EBEBEB"/>
<path d="M118.906 179.626H69.4321V179.731H118.906V179.626Z" fill="#EBEBEB"/>
<path d="M125.875 149.318H23.9183C22.2815 149.318 20.9087 147.946 20.9087 146.309V3.0096C20.9087 1.3728 22.2815 0 23.9183 0H125.875C127.512 0 128.885 1.3728 128.885 3.0096V146.309C128.885 147.998 127.512 149.318 125.875 149.318ZM23.9183 0.1056C22.3343 0.1056 21.0143 1.3728 21.0143 3.0096V146.309C21.0143 147.893 22.2815 149.213 23.9183 149.213H125.875C127.459 149.213 128.779 147.946 128.779 146.309V3.0096C128.779 1.4256 127.512 0.1056 125.875 0.1056H23.9183Z" fill="#EBEBEB"/>
<path d="M240.082 149.318H138.125C136.488 149.318 135.115 147.946 135.115 146.309V3.00962C135.115 1.37282 136.488 1.52588e-05 138.125 1.52588e-05H240.082C241.718 1.52588e-05 243.091 1.37282 243.091 3.00962V146.309C243.091 147.998 241.718 149.318 240.082 149.318ZM138.125 0.105615C136.541 0.105615 135.221 1.37282 135.221 3.00962V146.309C135.221 147.893 136.488 149.213 138.125 149.213H240.082C241.666 149.213 242.986 147.946 242.986 146.309V3.00962C242.986 1.42562 241.718 0.105615 240.082 0.105615H138.125Z" fill="#EBEBEB"/>
<path d="M264 172.867H0V172.973H264V172.867Z" fill="#EBEBEB"/>
<path d="M62.9904 137.174C62.568 132.053 57.3408 130.152 51.1632 130.68C44.9856 131.208 40.1808 134.006 40.656 139.128L62.9904 137.174Z" fill="#F0F0F0"/>
<path d="M51.0047 128.357C53.8559 128.093 54.8063 125.664 54.5423 122.813C54.2783 119.962 52.9583 117.744 50.1071 117.955C47.2559 118.219 46.3055 120.648 46.5695 123.499C46.7807 126.403 48.1007 128.621 51.0047 128.357Z" fill="#F0F0F0"/>
<path d="M179.573 28.512C179.731 30.096 178.517 31.4688 176.986 31.6272C175.402 31.7856 174.029 30.5712 173.87 29.04C173.712 27.456 174.926 26.0832 176.458 25.9248C178.042 25.7664 179.414 26.928 179.573 28.512Z" fill="#F5F5F5"/>
<path d="M195.465 27.1392C195.624 28.7232 194.409 30.096 192.878 30.2544C191.294 30.4128 189.921 29.1984 189.763 27.6672C189.605 26.0832 190.819 24.7104 192.35 24.552C193.934 24.3936 195.307 25.5552 195.465 27.1392Z" fill="#F5F5F5"/>
<path d="M211.306 25.7664C211.464 27.3504 210.25 28.7232 208.718 28.8816C207.187 29.04 205.762 27.8256 205.603 26.2944C205.445 24.7104 206.659 23.3376 208.19 23.1792C209.774 23.0208 211.2 24.1824 211.306 25.7664Z" fill="#F5F5F5"/>
<path d="M180.999 44.7216C181.157 46.3056 179.943 47.6784 178.411 47.8368C176.827 47.9952 175.455 46.7808 175.296 45.2496C175.138 43.6656 176.352 42.2928 177.883 42.1344C179.467 41.976 180.84 43.1376 180.999 44.7216Z" fill="#F5F5F5"/>
<path d="M196.891 43.296C197.05 44.88 195.835 46.2528 194.304 46.4112C192.72 46.5696 191.347 45.3552 191.189 43.824C191.03 42.24 192.245 40.8672 193.776 40.7088C195.36 40.5504 196.733 41.712 196.891 43.296Z" fill="#F5F5F5"/>
<path d="M212.731 41.9232C212.889 43.5072 211.675 44.88 210.144 45.0384C208.56 45.1968 207.187 43.9824 207.029 42.4512C206.87 40.92 208.085 39.4944 209.616 39.336C211.2 39.1776 212.625 40.3392 212.731 41.9232Z" fill="#F5F5F5"/>
<path d="M182.424 60.8784C182.582 62.4624 181.368 63.8352 179.837 63.9936C178.253 64.152 176.88 62.9376 176.721 61.4064C176.563 59.8224 177.777 58.4496 179.309 58.2912C180.893 58.1328 182.265 59.2944 182.424 60.8784Z" fill="#F5F5F5"/>
<path d="M198.264 59.5056C198.422 61.0896 197.208 62.4624 195.676 62.6208C194.092 62.7792 192.72 61.5648 192.561 60.0336C192.403 58.4496 193.617 57.0768 195.148 56.9184C196.732 56.76 198.158 57.9216 198.264 59.5056Z" fill="#F5F5F5"/>
<path d="M214.157 58.1328C214.315 59.7168 213.101 61.0896 211.57 61.248C209.986 61.4064 208.613 60.192 208.454 58.6608C208.296 57.1296 209.51 55.704 211.042 55.5456C212.626 55.3872 213.998 56.5488 214.157 58.1328Z" fill="#F5F5F5"/>
<path d="M210.725 59.0304L178.094 61.8816L207.029 26.7168L177.408 29.3568C177.038 29.4096 176.774 29.1456 176.722 28.776C176.669 28.4064 176.933 28.1424 177.302 28.0896L209.933 25.2384L180.998 60.4032L210.619 57.816C210.989 57.7632 211.253 58.0272 211.306 58.3968C211.358 58.7136 211.094 59.0304 210.725 59.0304Z" fill="#E6E6E6"/>
<path d="M211.253 121.81C211.147 121.493 210.883 121.282 210.514 121.229C209.035 121.123 207.768 120.595 206.765 119.539C205.445 118.219 204.705 116.213 204.547 113.89C204.547 113.467 204.177 113.098 203.702 113.098C203.227 113.098 202.805 113.52 202.858 113.995C203.016 116.794 203.966 119.17 205.55 120.754C206.817 122.021 208.402 122.76 210.25 122.918C210.302 122.918 210.302 122.918 210.355 122.918C210.989 122.971 211.411 122.338 211.253 121.81Z" fill="#F0F0F0"/>
<path d="M209.563 131.894C202.541 131.261 197.525 126.509 195.941 119.064C195.835 118.589 196.152 118.114 196.627 118.061C197.05 118.008 197.525 118.272 197.578 118.694C199.003 125.4 203.491 129.677 209.722 130.205C216.533 130.786 223.872 126.298 225.192 114.998C225.245 114.523 225.667 114.206 226.09 114.259C226.565 114.312 226.934 114.734 226.882 115.21C225.562 125.875 218.539 132.686 209.563 131.894Z" fill="#F0F0F0"/>
<path d="M196.363 111.672C195.888 111.619 195.519 111.197 195.571 110.722C196.839 100.056 203.861 93.2448 212.837 93.984C220.757 94.6704 226.037 100.584 226.882 109.507C226.935 109.982 226.565 110.405 226.09 110.405C225.615 110.458 225.245 110.088 225.192 109.613C224.453 101.587 219.701 96.2544 212.679 95.6736C205.867 95.0928 198.528 99.5808 197.208 110.88C197.208 111.355 196.786 111.725 196.363 111.672Z" fill="#F0F0F0"/>
<path d="M209.88 127.406C208.56 127.301 207.346 126.984 206.237 126.509C205.762 126.298 205.603 125.77 205.814 125.347C206.026 124.978 206.501 124.819 206.87 124.978C207.926 125.453 209.088 125.717 210.355 125.77C215.53 126.086 220.968 122.39 221.549 113.573C221.866 108.134 220.018 103.699 216.533 101.587C216.163 101.376 216.005 100.901 216.216 100.478C216.427 100.056 217.008 99.8448 217.43 100.109C221.443 102.538 223.608 107.501 223.238 113.626C222.71 122.179 217.378 127.829 210.302 127.406C210.144 127.406 210.038 127.406 209.88 127.406Z" fill="#F0F0F0"/>
<path d="M202.382 122.126C201.96 122.39 201.432 122.285 201.168 121.862C199.689 119.275 198.95 115.949 199.161 112.358C199.637 104.174 204.547 98.6304 211.2 98.5248C211.675 98.5248 212.097 98.9472 212.045 99.4224C212.045 99.8448 211.675 100.214 211.2 100.214C206.289 100.32 201.326 104.016 200.798 112.464C200.587 115.738 201.221 118.747 202.541 121.07C202.857 121.387 202.752 121.862 202.382 122.126Z" fill="#F0F0F0"/>
<path d="M213.893 121.44C213.735 121.07 213.893 120.595 214.263 120.384C216.48 119.064 217.853 116.266 217.853 112.834C217.853 110.141 217.061 107.818 215.635 106.392C214.527 105.283 213.101 104.702 211.359 104.702C208.771 104.702 206.659 106.128 205.498 108.662C205.339 109.032 204.864 109.243 204.442 109.085C203.967 108.926 203.755 108.398 203.967 107.923C205.392 104.861 208.138 103.013 211.359 103.013C213.523 103.013 215.424 103.752 216.85 105.178C218.592 106.973 219.595 109.666 219.543 112.834C219.49 116.846 217.853 120.173 215.107 121.81C214.685 122.074 214.104 121.915 213.893 121.44Z" fill="#F0F0F0"/>
<path d="M207.821 115.21C207.346 115.421 206.818 115.104 206.66 114.629C206.607 114.418 206.554 114.154 206.501 113.942C206.026 110.774 207.716 108.029 210.461 107.554C211.887 107.29 213.101 107.606 214.104 108.504C214.474 108.874 214.474 109.454 214.052 109.771L213.999 109.824C213.682 110.035 213.26 109.982 212.943 109.771C212.362 109.296 211.623 109.085 210.778 109.243C208.719 109.613 207.927 111.778 208.191 113.731C208.244 113.942 208.244 114.101 208.296 114.259C208.402 114.629 208.244 115.051 207.821 115.21Z" fill="#F0F0F0"/>
<path d="M210.619 118.483C210.038 118.43 209.722 117.797 210.038 117.269L210.091 117.163C210.25 116.899 210.514 116.794 210.83 116.794C211.094 116.794 211.358 116.794 211.622 116.741C213.418 116.424 214.262 114.734 214.262 112.992C214.262 112.57 214.579 112.2 215.002 112.147C215.477 112.094 215.952 112.464 215.952 112.939C216.005 115.685 214.368 117.955 211.939 118.43C211.464 118.483 211.042 118.536 210.619 118.483Z" fill="#F0F0F0"/>
<path d="M210.989 115.368C210.091 115.315 209.405 114.682 209.194 113.837C209.035 113.362 209.458 112.834 209.986 112.886H210.197C210.514 112.886 210.725 113.098 210.831 113.414C210.883 113.573 210.989 113.678 211.147 113.678C211.57 113.731 211.623 113.15 211.623 112.992C211.623 112.886 211.623 112.57 211.517 112.411C211.359 112.2 211.306 111.989 211.306 111.778C211.359 111.038 212.309 110.722 212.784 111.302C213.154 111.778 213.365 112.411 213.312 113.15C213.207 114.523 212.203 115.474 210.989 115.368Z" fill="#F0F0F0"/>
<path d="M195.096 96.4656C194.621 96.4128 194.304 95.9904 194.304 95.568L194.938 88.2288L202.277 88.8624C202.752 88.9152 203.069 89.3376 203.069 89.76C203.016 90.2352 202.594 90.552 202.171 90.552L196.522 90.0768L196.047 95.7264C195.994 96.1488 195.571 96.5184 195.096 96.4656Z" fill="#F0F0F0"/>
<path d="M229.944 99.5279C229.469 99.4751 229.152 99.0528 229.152 98.6304L229.627 92.9808L223.978 92.5055C223.502 92.4527 223.186 92.0303 223.186 91.6079C223.238 91.1327 223.661 90.8159 224.083 90.8159L231.422 91.4495L230.789 98.7888C230.789 99.2112 230.366 99.5279 229.944 99.5279Z" fill="#F0F0F0"/>
<path d="M227.304 138.864L219.965 138.23C219.49 138.178 219.173 137.755 219.173 137.333C219.226 136.858 219.648 136.541 220.07 136.541L225.72 137.016L226.195 131.366C226.248 130.891 226.67 130.574 227.093 130.574C227.568 130.627 227.885 131.05 227.885 131.472L227.304 138.864Z" fill="#F0F0F0"/>
<path d="M198.159 136.33L190.819 135.696L191.453 128.357C191.506 127.882 191.928 127.565 192.351 127.565C192.826 127.618 193.143 128.04 193.143 128.462L192.667 134.112L198.317 134.587C198.792 134.64 199.109 135.062 199.109 135.485C199.056 136.013 198.634 136.382 198.159 136.33Z" fill="#F0F0F0"/>
<path d="M39.4416 120.49C39.1776 120.49 38.9136 120.278 38.8608 120.014L38.4912 115.526L42.9792 115.157C43.2432 115.157 43.5072 115.368 43.56 115.632C43.56 115.896 43.3488 116.16 43.0848 116.213L39.6 116.53L39.9168 120.014C39.9696 120.173 39.7584 120.437 39.4416 120.49Z" fill="#E0E0E0"/>
<path d="M60.8782 118.589C60.6142 118.589 60.3502 118.378 60.2974 118.114L59.9806 114.629L56.4958 114.946C56.2318 114.946 55.9678 114.734 55.915 114.47C55.915 114.206 56.1262 113.942 56.3902 113.89L60.8782 113.52L61.2478 118.008C61.3534 118.325 61.1422 118.589 60.8782 118.589Z" fill="#E0E0E0"/>
<path d="M63.0961 137.966L58.6081 138.336C58.3441 138.336 58.0801 138.125 58.0273 137.861C58.0273 137.597 58.2385 137.333 58.5025 137.28L61.9873 136.963L61.6705 133.478C61.6705 133.214 61.8817 132.95 62.1457 132.898C62.4097 132.898 62.6737 133.109 62.7265 133.373L63.0961 137.966Z" fill="#E0E0E0"/>
<path d="M45.1442 139.55L40.6562 139.92L40.2866 135.432C40.2866 135.168 40.4978 134.904 40.7618 134.851C41.0258 134.851 41.2898 135.062 41.3426 135.326L41.6594 138.811L45.1442 138.494C45.4082 138.494 45.6722 138.706 45.725 138.97C45.6194 139.286 45.4082 139.55 45.1442 139.55Z" fill="#E0E0E0"/>
<path d="M60.5088 45.408L43.296 46.9392L42.9264 42.9264C42.5568 38.7552 45.672 35.0592 49.8432 34.6896C54.0144 34.32 57.7104 37.4352 58.08 41.6064L58.2912 43.9296L60.7728 43.7184L60.5616 41.3952C60.0864 35.7984 55.176 31.68 49.632 32.1552C44.088 32.6304 39.9696 37.5408 40.4448 43.0848L40.8144 47.1504C38.808 47.52 37.3824 49.368 37.5408 51.48L38.7552 65.5248C38.9664 67.7424 40.92 69.3792 43.1376 69.2208L62.4096 67.5312C64.6272 67.32 66.264 65.3664 66.1056 63.1488L64.8912 49.104C64.68 46.8336 62.7264 45.1968 60.5088 45.408ZM53.1696 56.232L53.592 61.0896C53.6448 61.8816 53.064 62.568 52.272 62.6736C51.48 62.7264 50.7936 62.1456 50.688 61.3536L50.2656 56.496C49.632 56.1264 49.1568 55.44 49.104 54.648C48.9984 53.328 50.0016 52.1136 51.3216 52.008C52.6416 51.9024 53.856 52.9056 53.9616 54.2256C54.0672 55.0176 53.7504 55.7568 53.1696 56.232Z" fill="#EBEBEB"/>
<path d="M89.9714 53.5392L88.229 50.688C87.2786 50.7936 86.5394 50.7936 85.589 50.688L83.8466 53.5392L83.5298 53.4336C82.421 53.1168 81.3122 52.6944 80.309 52.1136L79.9922 51.9552L80.7314 48.8928C80.7842 48.6288 81.0482 48.4704 81.3122 48.5232C81.5762 48.576 81.7346 48.84 81.6818 49.104L81.101 51.5328C81.8402 51.9552 82.6322 52.272 83.477 52.536L85.1666 49.7376L85.4834 49.7904C86.4866 49.9488 87.4898 49.9488 88.4402 49.7904L88.757 49.7376L90.4466 52.536C91.2386 52.272 92.0306 51.9552 92.8226 51.5328L92.0834 48.3648L92.3474 48.2064C93.0338 47.7312 93.6674 47.0976 94.1954 46.464C94.3538 46.2528 94.6178 46.2 94.829 46.3584C95.0402 46.5168 95.093 46.8336 94.9346 46.992C94.4066 47.6256 93.8258 48.2592 93.1394 48.7344L93.9314 51.9552L93.6146 52.1136C92.6114 52.6944 91.5026 53.1696 90.3938 53.4336L89.9714 53.5392ZM79.3058 47.3616C79.1474 47.2032 79.0418 47.0448 78.8834 46.8336L75.6626 47.6256L75.5042 47.3088C74.9234 46.3056 74.4482 45.1968 74.1842 44.088L74.0786 43.7712L76.9298 42.0288C76.877 41.5536 76.8242 41.1312 76.8242 40.7088C76.8242 40.2864 76.877 39.864 76.9298 39.3888L74.0786 37.6464L74.1842 37.3296C74.501 36.2208 74.9234 35.112 75.5042 34.1088L75.6626 33.792L78.8834 34.584C79.4114 33.8976 80.045 33.264 80.7842 32.6832L80.2034 30.2544C80.1506 29.9904 80.309 29.7792 80.5202 29.6736C80.7842 29.6208 80.9954 29.7792 81.101 29.9904L81.8402 33.0528L81.5762 33.2112C80.7842 33.792 80.045 34.5312 79.4642 35.3232L79.3058 35.5872L76.1378 34.848C75.7154 35.5872 75.3986 36.3792 75.1346 37.224L77.933 38.9136L77.8802 39.2304C77.7746 39.7584 77.7746 40.2864 77.7746 40.7088C77.7746 41.184 77.8274 41.6592 77.8802 42.1872L77.933 42.504L75.1346 44.1936C75.3986 44.9856 75.7154 45.7776 76.1378 46.5696L79.3058 45.8304L79.4642 46.0944C79.6226 46.3584 79.8338 46.5696 79.9922 46.7808C80.1506 46.9392 80.1506 47.256 79.9922 47.4144C79.781 47.5728 79.4642 47.5728 79.3058 47.3616ZM98.2082 47.6256L96.9938 47.3616C96.7298 47.3088 96.5714 47.0448 96.6242 46.7808C96.677 46.5168 96.941 46.3584 97.205 46.4112L97.733 46.5168C98.1554 45.7776 98.4722 44.9856 98.7362 44.1408L95.9378 42.4512L95.9906 42.1344C96.0962 41.6064 96.0962 41.0784 96.0962 40.656C96.0962 40.1808 96.0434 39.7056 95.9906 39.1776L95.9378 38.8608L98.7362 37.1712C98.4722 36.3792 98.1554 35.5872 97.733 34.7952L94.565 35.5344L94.4066 35.2704C93.8258 34.4784 93.0866 33.7392 92.2946 33.1584L92.0306 33L92.7698 29.832C92.0306 29.4096 91.2386 29.0928 90.3938 28.8288L88.7042 31.68L88.3874 31.6272C87.3842 31.4688 86.381 31.4688 85.4306 31.6272L85.1138 31.68L83.4242 28.8816C83.3186 28.9344 83.213 28.9344 83.1074 28.9872C82.8962 29.04 82.6322 28.9344 82.5266 28.7232C82.421 28.4592 82.5794 28.1952 82.7906 28.1424C83.0018 28.0896 83.2658 27.984 83.477 27.9312L83.7938 27.8256L85.5362 30.6768C86.4866 30.5712 87.2258 30.5712 88.1762 30.6768L89.9186 27.8256L90.2354 27.9312C91.3442 28.248 92.453 28.6704 93.4562 29.2512L93.773 29.4096L92.981 32.6304C93.6674 33.1584 94.301 33.792 94.8818 34.5312L98.2082 33.792L98.3666 34.1088C98.9474 35.112 99.4226 36.2208 99.6866 37.3296L99.7922 37.6464L96.941 39.3888C96.9938 39.864 97.0466 40.2864 97.0466 40.7088C97.0466 41.1312 96.9938 41.5536 96.941 42.0288L99.7922 43.7712L99.6866 44.088C99.3698 45.1968 98.9474 46.3056 98.3666 47.3088L98.2082 47.6256ZM86.8034 45.1968C84.4274 45.144 82.4738 43.1904 82.421 40.8144C82.3682 38.4384 84.1106 36.432 86.4338 36.168C86.6978 36.1152 86.9618 36.3792 86.9618 36.6432C86.9618 36.8544 86.8034 37.0656 86.5394 37.1184C84.533 37.3296 83.0018 39.2832 83.4242 41.3952C83.6882 42.8208 84.8498 43.9296 86.2226 44.1936C88.5458 44.6688 90.5522 42.8736 90.5522 40.656C90.5522 39.9168 90.341 39.1776 89.9186 38.5968C89.7602 38.3856 89.813 38.1216 89.9714 38.016C90.1826 37.8576 90.4994 37.8576 90.6578 38.1216C91.1858 38.8608 91.4498 39.7584 91.4498 40.7088C91.4498 43.2432 89.3378 45.3024 86.8034 45.1968Z" fill="#F0F0F0"/>
<path d="M57.1827 92.1888L56.0739 90.3408C55.4403 90.4464 54.9651 90.4464 54.3315 90.3408L53.2227 92.1888L53.0115 92.136C52.2723 91.9248 51.5859 91.6608 50.9523 91.2912L50.7411 91.1856L51.2163 89.1792C51.2691 89.0208 51.4275 88.9152 51.5859 88.968C51.7443 89.0208 51.8499 89.1792 51.7971 89.3376L51.4275 90.8688C51.9027 91.1328 52.4307 91.344 52.9587 91.5024L54.0675 89.7072L54.2787 89.76C54.9123 89.8656 55.5459 89.8656 56.1795 89.76L56.3907 89.7072L57.4995 91.5024C58.0275 91.344 58.5555 91.1328 59.0307 90.8688L58.5555 88.8096L58.7139 88.704C59.1363 88.3872 59.5587 88.0176 59.8755 87.5952C59.9811 87.4896 60.1395 87.4368 60.2979 87.5424C60.4563 87.648 60.4563 87.8592 60.3507 87.9648C60.0339 88.3872 59.6115 88.7568 59.1891 89.0736L59.6643 91.1856L59.4531 91.2912C58.8195 91.6608 58.0803 91.9776 57.3939 92.136L57.1827 92.1888ZM50.3187 88.2288C50.2131 88.1232 50.1075 88.0176 50.0547 87.912L47.9427 88.3872L47.8371 88.176C47.4675 87.5424 47.1507 86.8032 46.9923 86.1168L46.9395 85.9056L48.7875 84.7968C48.7347 84.48 48.7347 84.216 48.7347 83.952C48.7347 83.688 48.7347 83.424 48.7875 83.1072L46.9395 81.9984L46.9923 81.7872C47.2035 81.048 47.4675 80.3616 47.8371 79.728L47.9427 79.5168L50.0547 79.992C50.4243 79.5168 50.7939 79.1472 51.2691 78.7776L50.8995 77.1936C50.8467 77.0352 50.9523 76.8768 51.1107 76.824C51.2691 76.7712 51.4275 76.8768 51.4803 77.0352L51.9555 78.9888L51.7971 79.0944C51.2691 79.464 50.7939 79.9392 50.4243 80.4672L50.3187 80.6256L48.2595 80.1504C47.9955 80.6256 47.7843 81.1536 47.6259 81.6816L49.4211 82.7904L49.3683 83.0016C49.3155 83.3712 49.2627 83.688 49.2627 83.952C49.2627 84.2688 49.3155 84.5856 49.3683 84.9024L49.4211 85.1136L47.6259 86.2224C47.7843 86.7504 47.9955 87.2784 48.2595 87.7536L50.3187 87.2784L50.4243 87.4368C50.5299 87.5952 50.6355 87.7536 50.7939 87.8592C50.8995 87.9648 50.8995 88.176 50.7939 88.2816C50.5827 88.3344 50.4243 88.3344 50.3187 88.2288ZM62.4627 88.3872L61.6707 88.2288C61.5123 88.176 61.4067 88.0176 61.4595 87.8592C61.5123 87.7008 61.6707 87.5952 61.8291 87.648L62.1459 87.7536C62.4099 87.2784 62.6211 86.7504 62.7795 86.2224L60.9843 85.1136L61.0371 84.9024C61.0899 84.5328 61.1427 84.216 61.1427 83.952C61.1427 83.6352 61.0899 83.3184 61.0371 83.0016L60.9843 82.7904L62.7795 81.6816C62.6211 81.1536 62.4099 80.6256 62.1459 80.1504L60.0867 80.6256L59.9811 80.4672C59.6115 79.9392 59.1363 79.464 58.6083 79.0944L58.4499 78.9888L58.9251 76.9296C58.4499 76.6656 57.9219 76.4544 57.3939 76.296L56.2851 78.0912L56.0739 78.0384C55.4403 77.9328 54.8067 77.9328 54.1731 78.0384L53.9619 78.0912L52.8531 76.296C52.8003 76.296 52.6947 76.3488 52.6419 76.3488C52.4835 76.4016 52.3251 76.296 52.2723 76.1904C52.2195 76.032 52.2723 75.8736 52.4307 75.8208C52.5891 75.768 52.7475 75.7152 52.9059 75.6624L53.1171 75.6096L54.2259 77.4576C54.8595 77.352 55.3347 77.352 55.9683 77.4576L57.0771 75.6096L57.2883 75.6624C58.0275 75.8736 58.7139 76.1376 59.3475 76.5072L59.5587 76.6128L59.0835 78.7248C59.5587 79.0944 59.9283 79.464 60.2979 79.9392L62.4099 79.464L62.5155 79.6752C62.8851 80.3088 63.2019 81.048 63.3603 81.7344L63.4131 81.9456L61.5651 83.0544C61.6179 83.3712 61.6179 83.6352 61.6179 83.8992C61.6179 84.1632 61.6179 84.4272 61.5651 84.744L63.4131 85.8528L63.3603 86.064C63.1491 86.8032 62.8851 87.4896 62.5155 88.1232L62.4627 88.3872ZM55.1235 86.8032C53.5923 86.7504 52.3251 85.4832 52.2723 83.952C52.2195 82.4208 53.3811 81.1536 54.8595 80.9424C55.0179 80.9424 55.1763 81.048 55.1763 81.2592C55.1763 81.4176 55.0707 81.5232 54.9123 81.576C53.5923 81.7344 52.6419 82.9488 52.9059 84.3744C53.0643 85.272 53.8035 86.0112 54.7011 86.1696C56.1795 86.4336 57.4995 85.3248 57.4995 83.8992C57.4995 83.424 57.3411 82.9488 57.0771 82.5792C56.9715 82.4736 57.0243 82.2624 57.1299 82.2096C57.2883 82.104 57.4995 82.104 57.5523 82.2624C57.8691 82.7376 58.0803 83.3184 58.0803 83.952C58.1331 85.536 56.7603 86.856 55.1235 86.8032Z" fill="#E6E6E6"/>
<path d="M132 196.416C188.542 196.416 234.379 193.745 234.379 190.45C234.379 187.154 188.542 184.483 132 184.483C75.4573 184.483 29.6206 187.154 29.6206 190.45C29.6206 193.745 75.4573 196.416 132 196.416Z" fill="#F5F5F5"/>
<path d="M191.875 47.9952H174.663L162.519 186.965H179.731C184.642 186.965 188.971 183.005 189.394 178.094L200.007 56.8128C200.429 51.9552 196.786 47.9952 191.875 47.9952Z" fill="#407BFF"/>
<path d="M188.39 47.9952H130.205C125.294 47.9952 120.965 51.9552 120.542 56.8656L109.929 178.147C109.507 183.058 113.15 187.018 118.008 187.018H176.193C181.104 187.018 185.433 183.058 185.856 178.147L196.469 56.8656C196.891 51.9552 193.301 47.9952 188.39 47.9952Z" fill="#407BFF"/>
<path opacity="0.3" d="M188.39 47.9952H130.205C125.294 47.9952 120.965 51.9552 120.542 56.8656L109.929 178.147C109.507 183.058 113.15 187.018 118.008 187.018H176.193C181.104 187.018 185.433 183.058 185.856 178.147L196.469 56.8656C196.891 51.9552 193.301 47.9952 188.39 47.9952Z" fill="white"/>
<path opacity="0.4" d="M188.126 50.8465H172.762C171.864 50.8465 171.019 51.4272 170.65 52.3248C169.435 55.5456 166.267 57.7105 162.941 57.7105H153.859C150.533 57.7105 147.734 55.4928 147.101 52.3248C146.942 51.48 146.15 50.8465 145.253 50.8465H129.888C126.562 50.8465 123.605 53.5392 123.341 56.8656L112.728 178.147C112.411 181.474 114.893 184.166 118.219 184.166H176.405C179.731 184.166 182.688 181.474 182.952 178.147L193.565 56.8656C193.934 53.5392 191.453 50.8465 188.126 50.8465Z" fill="white"/>
<path d="M173.659 116.688H132.95C131.736 116.688 130.838 115.685 130.944 114.523L131.155 112.2C131.261 110.986 132.317 110.035 133.531 110.035H174.24C175.454 110.035 176.352 111.038 176.246 112.2L176.035 114.523C175.93 115.738 174.874 116.688 173.659 116.688Z" fill="white"/>
<path d="M172.762 126.72H132.053C130.839 126.72 129.941 125.717 130.047 124.555L130.258 122.232C130.363 121.018 131.419 120.067 132.634 120.067H173.343C174.557 120.067 175.455 121.07 175.349 122.232L175.138 124.555C175.032 125.77 173.976 126.72 172.762 126.72Z" fill="white"/>
<path opacity="0.1" d="M161.304 53.1168C161.198 54.4368 159.984 55.5456 158.664 55.5456C157.344 55.5456 156.341 54.4368 156.446 53.1168C156.552 51.7968 157.766 50.688 159.086 50.688C160.406 50.688 161.409 51.744 161.304 53.1168Z" fill="black"/>
<path opacity="0.1" d="M160.195 53.1168C160.143 53.856 159.509 54.4368 158.77 54.4368C158.031 54.4368 157.503 53.856 157.555 53.1168C157.608 52.3776 158.242 51.7968 158.981 51.7968C159.72 51.744 160.248 52.3776 160.195 53.1168Z" fill="black"/>
<g opacity="0.8">
<path d="M180.998 57.1297C180.628 57.1297 180.311 56.8129 180.364 56.4433L180.47 55.1233C180.523 54.7537 180.839 54.4369 181.262 54.4369C181.631 54.4369 181.948 54.7537 181.895 55.1233L181.79 56.4433C181.737 56.8129 181.367 57.1297 180.998 57.1297Z" fill="white"/>
<path d="M186.647 57.1297C186.278 57.1297 185.961 56.8129 186.014 56.4433L186.278 53.3809C186.33 53.0113 186.647 52.6945 187.07 52.6945C187.439 52.6945 187.756 53.0113 187.703 53.3809L187.439 56.4433C187.386 56.8129 187.07 57.1297 186.647 57.1297Z" fill="white"/>
<path d="M183.796 57.1297C183.427 57.1297 183.11 56.8129 183.163 56.4433L183.374 54.2785C183.427 53.9089 183.743 53.5921 184.166 53.5921C184.535 53.5921 184.852 53.9089 184.799 54.2785L184.588 56.4433C184.535 56.8129 184.219 57.1297 183.796 57.1297Z" fill="white"/>
</g>
<g opacity="0.8">
<path d="M132.316 57.1297H128.726C128.515 57.1297 128.356 56.9713 128.356 56.7073L128.515 54.8065C128.515 54.5953 128.726 54.3841 128.937 54.3841H132.528C132.739 54.3841 132.897 54.5425 132.897 54.8065L132.739 56.7073C132.739 56.9713 132.58 57.1297 132.316 57.1297Z" fill="white"/>
<path d="M134.006 56.6017C133.795 56.6017 133.636 56.4433 133.636 56.1793L133.689 55.2817C133.689 55.0705 133.9 54.8593 134.111 54.8593C134.323 54.8593 134.481 55.0177 134.481 55.2817L134.428 56.1793C134.428 56.4433 134.217 56.6017 134.006 56.6017Z" fill="white"/>
</g>
<path d="M166.947 101.386C174.046 94.5901 174.75 83.8045 168.519 77.2952C162.289 70.7859 151.483 71.0179 144.383 77.8134C137.284 84.6088 136.58 95.3945 142.811 101.904C149.042 108.413 159.848 108.181 166.947 101.386Z" fill="white"/>
<path d="M155.707 88.9153C151.219 88.9153 147.47 90.6049 147.101 94.3009L146.731 98.4193H162.941L163.31 94.3009C163.68 90.6577 160.195 88.9153 155.707 88.9153Z" fill="#407BFF"/>
<path d="M155.865 87.2256C157.925 87.2256 158.928 85.536 159.086 83.4768C159.245 81.4176 158.611 79.728 156.499 79.728C154.44 79.728 153.437 81.4176 153.278 83.4768C153.12 85.536 153.806 87.2256 155.865 87.2256Z" fill="#407BFF"/>
<path d="M171.811 113.203C170.702 113.203 169.752 113.626 169.699 114.523L169.593 115.526H173.606L173.712 114.523C173.764 113.626 172.92 113.203 171.811 113.203Z" fill="#407BFF"/>
<path d="M171.811 112.781C172.339 112.781 172.55 112.358 172.603 111.83C172.656 111.302 172.497 110.88 171.969 110.88C171.441 110.88 171.23 111.302 171.177 111.83C171.125 112.411 171.336 112.781 171.811 112.781Z" fill="#407BFF"/>
<path d="M159.456 136.805H143.616C141.768 136.805 140.395 135.326 140.553 133.478C140.712 131.63 142.349 130.152 144.197 130.152H160.037C161.885 130.152 163.257 131.63 163.099 133.478C162.941 135.274 161.304 136.805 159.456 136.805Z" fill="#407BFF"/>
<path d="M157.555 174.187H140.606C138.653 174.187 137.227 172.603 137.386 170.65L138.442 158.294C138.6 156.341 140.342 154.757 142.296 154.757H159.245C161.198 154.757 162.624 156.341 162.466 158.294L161.41 170.65C161.198 172.603 159.509 174.187 157.555 174.187Z" fill="#407BFF"/>
<g opacity="0.6">
<path d="M152.328 161.41C152.433 160.248 151.536 159.298 150.374 159.298C149.213 159.298 148.157 160.248 148.051 161.41C147.998 162.096 148.262 162.73 148.79 163.099L148.421 167.376C148.368 168.062 148.896 168.643 149.582 168.643C150.269 168.643 150.902 168.062 150.955 167.376L151.325 163.099C151.853 162.677 152.275 162.096 152.328 161.41Z" fill="white"/>
</g>
<path d="M159.403 157.291H157.238L157.766 151.166C158.083 147.47 155.338 144.514 151.694 144.514C148.051 144.514 144.778 147.523 144.461 151.166L143.933 157.291H141.768L142.296 151.166C142.718 146.309 147.048 142.296 151.906 142.296C156.763 142.296 160.406 146.256 159.984 151.166L159.403 157.291Z" fill="#407BFF"/>
<path d="M172.075 122.602L172.128 122.021C172.181 121.44 171.758 120.912 171.125 120.912C170.544 120.912 170.016 121.387 169.963 122.021L169.91 122.602C169.646 122.602 169.435 122.813 169.435 123.024L169.277 124.608C169.277 124.872 169.435 125.03 169.699 125.03H171.864C172.128 125.03 172.339 124.819 172.339 124.608L172.498 123.024C172.498 122.76 172.286 122.602 172.075 122.602ZM171.072 121.176C171.547 121.176 171.864 121.546 171.811 122.021L171.758 122.602H170.122L170.174 122.021C170.227 121.546 170.65 121.176 171.072 121.176Z" fill="#407BFF"/>
<path d="M139.287 123.235L138.547 123.077C138.442 123.077 138.389 122.971 138.442 122.866L138.759 122.126C138.811 121.968 138.653 121.862 138.495 121.968L137.914 122.549C137.861 122.602 137.755 122.602 137.703 122.549L137.227 121.968C137.122 121.862 136.911 121.968 136.963 122.126L137.175 122.866C137.175 122.971 137.122 123.024 137.016 123.077L136.224 123.235C136.066 123.288 136.013 123.499 136.171 123.552L136.911 123.71C137.016 123.71 137.069 123.816 137.016 123.922L136.752 124.608C136.699 124.766 136.858 124.872 137.016 124.766L137.597 124.186C137.65 124.133 137.755 124.133 137.808 124.186L138.283 124.766C138.389 124.872 138.6 124.766 138.547 124.608L138.336 123.869C138.336 123.763 138.389 123.71 138.495 123.658L139.287 123.499C139.445 123.499 139.498 123.235 139.287 123.235Z" fill="#263238"/>
<path d="M144.303 123.235L143.563 123.077C143.458 123.077 143.405 122.971 143.458 122.866L143.775 122.126C143.827 121.968 143.669 121.862 143.511 121.968L142.93 122.549C142.877 122.602 142.771 122.602 142.719 122.549L142.243 121.968C142.138 121.862 141.927 121.968 141.979 122.126L142.191 122.866C142.191 122.971 142.138 123.024 142.032 123.077L141.24 123.235C141.082 123.288 141.029 123.499 141.187 123.552L141.927 123.71C142.032 123.71 142.085 123.816 142.032 123.922L141.715 124.661C141.663 124.819 141.821 124.925 141.979 124.819L142.56 124.238C142.613 124.186 142.719 124.186 142.771 124.238L143.247 124.819C143.352 124.925 143.563 124.819 143.511 124.661L143.299 123.922C143.299 123.816 143.352 123.763 143.458 123.71L144.25 123.552C144.461 123.499 144.461 123.235 144.303 123.235Z" fill="#263238"/>
<path d="M149.318 123.235L148.579 123.077C148.473 123.077 148.421 122.971 148.473 122.866L148.79 122.126C148.843 121.968 148.685 121.862 148.526 121.968L147.945 122.549C147.893 122.602 147.787 122.602 147.734 122.549L147.259 121.968C147.153 121.862 146.942 121.968 146.995 122.126L147.206 122.866C147.206 122.971 147.153 123.024 147.048 123.077L146.256 123.235C146.097 123.288 146.045 123.499 146.203 123.552L146.942 123.71C147.048 123.71 147.101 123.816 147.048 123.922L146.731 124.661C146.678 124.819 146.837 124.925 146.995 124.819L147.576 124.238C147.629 124.186 147.734 124.186 147.787 124.238L148.262 124.819C148.368 124.925 148.579 124.819 148.526 124.661L148.315 123.922C148.315 123.816 148.368 123.763 148.473 123.71L149.265 123.552C149.424 123.499 149.477 123.235 149.318 123.235Z" fill="#263238"/>
<path d="M154.282 123.235L153.542 123.077C153.437 123.077 153.384 122.971 153.437 122.866L153.754 122.126C153.806 121.968 153.648 121.862 153.49 121.968L152.909 122.549C152.856 122.602 152.75 122.602 152.698 122.549L152.222 121.968C152.117 121.862 151.906 121.968 151.958 122.126L152.17 122.866C152.17 122.971 152.117 123.024 152.011 123.077L151.219 123.235C151.061 123.288 151.008 123.499 151.166 123.552L151.906 123.71C152.011 123.71 152.064 123.816 152.011 123.922L151.694 124.661C151.642 124.819 151.8 124.925 151.958 124.819L152.539 124.238C152.592 124.186 152.698 124.186 152.75 124.238L153.226 124.819C153.331 124.925 153.542 124.819 153.49 124.661L153.278 123.922C153.278 123.816 153.331 123.763 153.437 123.71L154.229 123.552C154.44 123.499 154.44 123.235 154.282 123.235Z" fill="#263238"/>
<path d="M159.298 123.235L158.559 123.077C158.453 123.077 158.4 122.971 158.453 122.866L158.77 122.126C158.823 121.968 158.664 121.862 158.506 121.968L157.925 122.549C157.872 122.602 157.767 122.602 157.714 122.549L157.239 121.968C157.133 121.862 156.922 121.968 156.975 122.126L157.186 122.866C157.186 122.971 157.133 123.024 157.027 123.077L156.235 123.235C156.077 123.288 156.024 123.499 156.183 123.552L156.922 123.71C157.027 123.71 157.08 123.816 157.027 123.922L156.711 124.661C156.658 124.819 156.816 124.925 156.975 124.819L157.555 124.238C157.608 124.186 157.714 124.186 157.767 124.238L158.242 124.819C158.347 124.925 158.559 124.819 158.506 124.661L158.295 123.922C158.295 123.816 158.347 123.763 158.453 123.71L159.245 123.552C159.456 123.499 159.456 123.235 159.298 123.235Z" fill="#263238"/>
<path d="M164.314 123.235L163.575 123.077C163.469 123.077 163.416 122.971 163.469 122.866L163.786 122.126C163.839 121.968 163.68 121.862 163.522 121.968L162.941 122.549C162.888 122.602 162.783 122.602 162.73 122.549L162.255 121.968C162.149 121.862 161.938 121.968 161.991 122.126L162.202 122.866C162.202 122.971 162.149 123.024 162.043 123.077L161.251 123.235C161.093 123.288 161.04 123.499 161.199 123.552L161.938 123.71C162.043 123.71 162.096 123.816 162.043 123.922L161.727 124.661C161.674 124.819 161.832 124.925 161.991 124.819L162.571 124.238C162.624 124.186 162.73 124.186 162.783 124.238L163.258 124.819C163.363 124.925 163.575 124.819 163.522 124.661L163.311 123.922C163.311 123.816 163.363 123.763 163.469 123.71L164.261 123.552C164.419 123.499 164.472 123.235 164.314 123.235Z" fill="#263238"/>
<path d="M152.275 112.306H142.877C142.296 112.306 141.768 112.781 141.715 113.362C141.662 113.942 142.085 114.418 142.665 114.418H152.064C152.645 114.418 153.173 113.942 153.225 113.362C153.278 112.781 152.856 112.306 152.275 112.306Z" fill="#263238"/>
<path d="M161.779 112.306H156.34C155.76 112.306 155.232 112.781 155.179 113.362C155.126 113.942 155.548 114.418 156.129 114.418H161.568C162.148 114.418 162.676 113.942 162.729 113.362C162.782 112.781 162.36 112.306 161.779 112.306Z" fill="#263238"/>
<path d="M168.96 160.142C165.423 161.568 162.307 163.627 160.195 165.95C158.928 164.894 157.186 164.155 155.074 163.838L154.81 163.786L154.704 165.053L154.862 165.106C156.974 165.898 158.664 167.323 159.773 169.171L159.931 169.488L160.142 169.171C162.307 165.686 165.475 162.782 169.066 160.934L169.171 160.882L169.224 160.037L168.96 160.142Z" fill="#263238"/>
<path opacity="0.2" d="M121.757 56.1792C121.123 57.3408 120.648 58.608 120.542 59.9808L112.675 149.846H137.016L141.926 131.102L140.342 112.358L145.253 93.6144L143.669 74.8704L148.579 56.1264H121.757V56.1792Z" fill="black"/>
<path d="M141.504 69.6432L146.362 50.8992H84.8497L79.9393 69.6432L81.5761 88.3872L76.6657 107.131L78.3025 125.875L73.3921 144.619H134.904L139.814 125.875L138.178 107.131L143.088 88.3872L141.504 69.6432Z" fill="#407BFF"/>
<path opacity="0.7" d="M141.504 69.6432L146.362 50.8992H84.8497L79.9393 69.6432L81.5761 88.3872L76.6657 107.131L78.3025 125.875L73.3921 144.619H134.904L139.814 125.875L138.178 107.131L143.088 88.3872L141.504 69.6432Z" fill="white"/>
<path opacity="0.5" d="M141.504 69.6433H79.9395L84.8499 50.8993H146.362L141.504 69.6433Z" fill="white"/>
<path opacity="0.5" d="M138.178 107.131H76.6655L81.5759 88.3873H143.088L138.178 107.131Z" fill="white"/>
<path opacity="0.5" d="M134.904 144.619H73.3921L78.3025 125.875H139.814L134.904 144.619Z" fill="white"/>
<path opacity="0.2" d="M133.267 77.4576C132.739 77.616 132.053 77.7216 131.314 77.7216C130.205 77.7216 129.255 77.5104 128.727 77.1936C128.568 77.088 128.41 77.0352 128.251 77.0352C128.093 77.0352 127.935 77.088 127.829 77.1408C127.829 77.1408 127.829 77.1408 127.776 77.1408C127.565 77.2464 127.301 77.352 127.037 77.4576C126.509 77.616 125.928 77.6688 125.242 77.6688C125.083 77.6688 124.872 77.6688 124.714 77.6688C124.186 77.616 123.711 77.5632 123.288 77.4048C123.235 77.4048 123.13 77.352 123.077 77.352C122.602 77.2992 122.179 77.6688 122.179 78.1968V78.7776H98.2082C96.3602 78.7776 94.8818 80.256 94.8818 82.104V85.4832C94.8818 87.3312 96.3602 88.8096 98.2082 88.8096H125.4C125.453 88.8096 125.506 88.8096 125.559 88.8096C125.875 89.0736 126.139 89.2848 126.456 89.5488C126.826 89.8656 127.248 90.1296 127.671 90.4464C127.987 90.6576 128.357 90.6576 128.674 90.4464C132.106 87.9648 134.271 86.2752 134.271 81.576V78.1968C134.376 77.7216 133.795 77.2992 133.267 77.4576Z" fill="black"/>
<path d="M124.872 87.0673H97.6799C95.8319 87.0673 94.3535 85.5889 94.3535 83.7409V80.3617C94.3535 78.5137 95.8319 77.0353 97.6799 77.0353H124.872C126.72 77.0353 128.198 78.5137 128.198 80.3617V83.7409C128.251 85.5889 126.773 87.0673 124.872 87.0673Z" fill="#407BFF"/>
<path d="M130.785 75.8737C129.677 75.8737 128.726 75.6625 128.198 75.3457C127.881 75.1873 127.565 75.1873 127.248 75.3457C126.72 75.6625 125.769 75.8737 124.661 75.8737C123.921 75.8737 123.235 75.7681 122.707 75.6097C122.179 75.4513 121.598 75.8209 121.598 76.4017V79.7809C121.598 84.4801 123.816 86.1697 127.195 88.6513C127.512 88.8625 127.881 88.8625 128.198 88.6513C131.63 86.1697 133.795 84.4801 133.795 79.7809V76.4017C133.795 75.8209 133.214 75.3985 132.686 75.6097C132.211 75.7681 131.525 75.8737 130.785 75.8737Z" fill="#407BFF"/>
<path opacity="0.3" d="M130.785 75.8737C129.677 75.8737 128.726 75.6625 128.198 75.3457C127.881 75.1873 127.565 75.1873 127.248 75.3457C126.72 75.6625 125.769 75.8737 124.661 75.8737C123.921 75.8737 123.235 75.7681 122.707 75.6097C122.179 75.4513 121.598 75.8209 121.598 76.4017V79.7809C121.598 84.4801 123.816 86.1697 127.195 88.6513C127.512 88.8625 127.881 88.8625 128.198 88.6513C131.63 86.1697 133.795 84.4801 133.795 79.7809V76.4017C133.795 75.8209 133.214 75.3985 132.686 75.6097C132.211 75.7681 131.525 75.8737 130.785 75.8737Z" fill="white"/>
<path opacity="0.2" d="M127.248 75.3457C126.72 75.6625 125.769 75.8737 124.661 75.8737C123.921 75.8737 123.235 75.7681 122.707 75.6097C122.179 75.4513 121.598 75.8209 121.598 76.4017V79.7809C121.598 84.4801 123.816 86.1697 127.195 88.6513C127.353 88.7569 127.512 88.8097 127.723 88.8097V75.1345C127.565 75.2401 127.406 75.2401 127.248 75.3457Z" fill="white"/>
<path d="M132.633 78.8833C130.416 79.7809 128.515 81.1537 127.3 82.6321C126.456 81.9457 125.241 81.4705 123.868 81.2593H123.71V82.0513L123.816 82.1041C125.241 82.6321 126.403 83.5297 127.248 84.7441L127.353 84.9553L127.459 84.7441C128.673 82.4737 130.574 80.5729 132.792 79.4113L132.844 79.3585V78.8305L132.633 78.8833Z" fill="#263238"/>
<path d="M145.306 56.1792H142.982C141.662 56.1792 140.712 55.1232 140.818 53.856L141.029 51.5328C141.134 50.2128 142.296 49.2096 143.563 49.2096H145.886C147.206 49.2096 148.157 50.2656 148.051 51.5328L147.84 53.856C147.734 55.1232 146.573 56.1792 145.306 56.1792Z" fill="#407BFF"/>
<path d="M146.256 51.48L145.728 50.952L144.461 52.1136L143.405 50.952L142.771 51.48L143.88 52.6944L142.613 53.856L143.088 54.384L144.355 53.2224L145.464 54.384L146.045 53.856L144.989 52.6944L146.256 51.48Z" fill="white"/>
<path d="M93.1394 76.296C94.5122 77.7744 95.7794 79.3056 97.0466 80.8368C98.3138 82.368 99.581 83.952 100.795 85.536C100.848 85.5888 100.848 85.5888 100.848 85.5888C100.848 85.5888 100.848 85.5888 100.848 85.6416C100.848 85.6416 100.848 85.6944 100.901 85.6944C100.901 85.7472 100.954 85.7472 101.007 85.8C101.059 85.8528 101.165 85.9056 101.323 85.9584C101.376 85.9584 101.429 85.9584 101.482 85.9584C101.535 85.9584 101.535 85.9584 101.587 85.9584H101.64C101.693 85.9584 101.64 85.9584 101.746 85.9056L103.066 85.1664C104.861 84.216 106.603 83.3184 108.504 82.4736L110.035 84.3744C108.557 85.7472 106.973 87.4368 105.442 88.704L104.28 89.6544C104.227 89.7072 104.122 89.76 104.069 89.8128C103.963 89.8656 103.911 89.9184 103.805 89.9712C103.594 90.0768 103.435 90.1824 103.224 90.288C102.802 90.4464 102.379 90.552 101.957 90.6576C101.059 90.7632 100.162 90.7104 99.317 90.3936C98.8946 90.2352 98.4722 90.024 98.1026 89.76C97.8914 89.6544 97.733 89.496 97.5746 89.3376C97.469 89.2848 97.4162 89.1792 97.3106 89.1264L97.0994 88.9152C95.7266 87.4896 94.301 86.0112 92.981 84.5856C91.6082 83.1072 90.2882 81.6288 89.021 80.0976L93.1394 76.296Z" fill="#FFC3BD"/>
<path d="M107.712 83.6352L108.927 79.6752L112.148 81.312C112.148 81.312 111.672 84.216 109.296 84.6912L107.712 83.6352Z" fill="#FFC3BD"/>
<path d="M110.247 78.6192L113.151 79.4112L112.2 81.312L108.927 79.6752L110.247 78.6192Z" fill="#FFC3BD"/>
<path d="M76.0849 77.4048C75.7153 79.0944 75.2929 80.7312 74.8705 82.4208C74.3953 84.0576 73.9201 85.7472 73.4449 87.384L73.2337 88.0176L73.1281 88.3344C73.1281 88.3872 73.0753 88.44 73.0753 88.44C73.0225 88.5984 72.9697 88.7568 72.9697 88.968C72.9697 89.3376 73.0225 89.7072 73.2865 90.0768C73.2865 90.1296 73.4977 90.3408 73.6033 90.4992L74.0257 90.9744L74.8705 91.9248C75.4513 92.5584 76.0321 93.2448 76.5601 93.9312L74.7121 96.0432C73.9729 95.6208 73.2337 95.1456 72.4945 94.6704L71.3857 93.9312L70.8577 93.5616C70.6993 93.456 70.5409 93.3504 70.2241 93.0864C69.2209 92.2416 68.4817 91.0272 68.2177 89.7072C68.0593 89.0208 68.0593 88.3344 68.1121 87.648C68.1121 87.4896 68.1649 87.2784 68.1649 87.1728L68.2177 86.856L68.3233 86.2224C68.6401 84.5328 68.9569 82.8432 69.2737 81.1536C69.6433 79.464 70.0129 77.7744 70.4353 76.1376L76.0849 77.4048Z" fill="#FFC3BD"/>
<path d="M74.7646 93.6671L76.9294 92.5583L77.8798 96.2543C77.8798 96.2543 76.1374 96.9407 74.7646 96.0431V93.6671Z" fill="#B55B52"/>
<path d="M79.9923 91.344L80.0451 94.776L77.6163 96.36L76.7715 92.6112L79.9923 91.344Z" fill="#B55B52"/>
<path d="M87.0674 59.928C87.1202 60.192 87.2786 60.3504 87.4898 60.3504C87.6482 60.2976 87.7539 60.0864 87.7011 59.8224C87.6483 59.5584 87.4899 59.4 87.2787 59.4C87.1203 59.4528 87.0146 59.664 87.0674 59.928Z" fill="#263238"/>
<path d="M87.2783 60.4032C87.2783 60.4032 88.1759 61.776 88.9679 62.4096C88.5983 62.9376 87.7535 62.8848 87.7535 62.8848L87.2783 60.4032Z" fill="#ED847E"/>
<path d="M85.8527 58.6608C85.7999 58.6608 85.7999 58.6608 85.7471 58.608C85.6943 58.5552 85.6943 58.4496 85.7471 58.3968C86.3279 57.7632 87.0671 57.8688 87.0671 57.8688C87.1727 57.8688 87.2255 57.9744 87.1727 58.0272C87.1727 58.1328 87.0671 58.1856 87.0143 58.1328C87.0143 58.1328 86.4335 58.0272 85.9583 58.5552C85.9055 58.6608 85.8527 58.6608 85.8527 58.6608Z" fill="#263238"/>
<path d="M79.464 63.624C80.0448 66.0528 80.6256 70.488 78.5664 72.1248C78.5664 72.1248 79.3584 74.6064 84.9024 74.6064C90.9744 74.6064 87.8064 73.0224 87.8064 73.0224C84.48 72.3888 84.5856 69.4848 85.1664 67.6368L79.464 63.624Z" fill="#FFC3BD"/>
<path d="M77.9331 72.5472C77.5635 71.8608 77.1939 71.1216 77.9859 70.8576C78.8835 70.5936 84.6915 70.1184 86.4339 70.5936C85.9059 71.544 86.8035 72.6528 86.8035 72.6528L77.9331 72.5472Z" fill="#263238"/>
<path d="M82.7378 185.856H86.5394L86.909 178.147H83.1074L82.7378 185.856Z" fill="#FFC3BD"/>
<path d="M58.5552 184.8L62.4096 185.011L64.7856 177.408L60.9312 177.25L58.5552 184.8Z" fill="#FFC3BD"/>
<path d="M62.3042 184.694L58.661 183.902C58.5026 183.85 58.397 183.955 58.3442 184.061L57.077 186.806C56.9714 187.07 57.1298 187.44 57.4466 187.493C58.7138 187.757 59.3474 187.81 60.9314 188.126C61.9346 188.338 64.1522 188.866 65.4722 189.182C66.7922 189.446 67.3202 188.179 66.7922 187.915C64.4162 186.806 63.413 185.856 62.7794 184.958C62.6738 184.853 62.5154 184.747 62.3042 184.694Z" fill="#263238"/>
<path d="M86.3281 185.434H82.7377C82.5793 185.434 82.4737 185.539 82.4737 185.645L81.8401 188.602C81.7873 188.918 81.9985 189.182 82.3153 189.182C83.6353 189.182 85.4833 189.077 87.1201 189.077C89.0209 189.077 90.7105 189.182 92.9281 189.182C94.3009 189.182 94.6705 187.81 94.0897 187.704C91.5025 187.123 89.3905 187.07 87.1729 185.698C86.9089 185.539 86.6449 185.434 86.3281 185.434Z" fill="#263238"/>
<path d="M71.6495 73.2336C68.7983 74.6064 68.0063 82.896 68.0063 82.896L75.1343 86.1696C75.1343 86.1696 76.8767 83.5824 77.0351 79.464C77.1407 75.1872 74.6063 71.808 71.6495 73.2336Z" fill="#264A99"/>
<path opacity="0.4" d="M75.504 78.3024C74.2368 80.3088 74.3424 83.3712 74.7648 86.0112L75.0816 86.1696C75.0816 86.1696 76.824 83.5824 76.9824 79.464C76.9824 79.2 76.9824 78.936 76.9824 78.7248L75.504 78.3024Z" fill="black"/>
<path d="M91.5025 73.0224C91.5025 73.0224 95.0401 76.9824 91.7137 101.64C86.3809 101.64 76.6129 101.64 74.0257 101.64C73.9201 98.9472 75.6097 85.6416 72.9697 72.864C72.9697 72.864 75.9793 72.2304 78.8833 72.1248C81.1537 72.0192 84.4273 71.9664 86.4337 72.1248C89.0209 72.336 91.5025 73.0224 91.5025 73.0224Z" fill="#264A99"/>
<path opacity="0.6" d="M91.5025 73.0224C91.5025 73.0224 95.0401 76.9824 91.7137 101.64C86.3809 101.64 76.6129 101.64 74.0257 101.64C73.9201 98.9472 75.6097 85.6416 72.9697 72.864C72.9697 72.864 75.9793 72.2304 78.8833 72.1248C81.1537 72.0192 84.4273 71.9664 86.4337 72.1248C89.0209 72.336 91.5025 73.0224 91.5025 73.0224Z" fill="#264A99"/>
<path opacity="0.2" d="M93.034 80.52L92.9812 80.4672L89.4435 78.5664C89.0739 84.0048 91.5028 87.384 92.9284 88.8624C93.1924 85.4304 93.1924 82.6848 93.034 80.52Z" fill="black"/>
<path opacity="0.2" d="M86.9088 178.147L86.7504 182.107H82.896L83.1072 178.147H86.9088Z" fill="black"/>
<path opacity="0.2" d="M60.9312 177.25L64.7856 177.461L63.5712 181.315L59.7168 181.104L60.9312 177.25Z" fill="black"/>
<path d="M78.2497 61.1424C79.0945 64.3104 79.4113 66.2112 81.4177 67.5312C84.3745 69.5376 88.0177 67.2144 88.1233 63.888C88.2289 60.8784 86.8033 56.1792 83.4241 55.5456C80.0449 54.912 77.4049 57.9744 78.2497 61.1424Z" fill="#FFC3BD"/>
<path d="M85.4304 101.64C85.4304 101.64 81.6816 126.931 79.6224 136.435C77.352 146.837 65.2608 181.157 65.2608 181.157L59.3472 179.89C59.3472 179.89 66.9504 151.906 68.8512 137.386C69.5904 131.736 70.488 122.602 71.5968 114.998C72.7056 107.606 74.0256 101.693 74.0256 101.693H85.4304V101.64Z" fill="#5C8FFF"/>
<path d="M66.6337 179.15L65.5249 181.315L58.8721 179.89L59.4529 177.883L66.6337 179.15Z" fill="#407BFF"/>
<path opacity="0.6" d="M66.6337 179.15L65.5249 181.315L58.8721 179.89L59.4529 177.883L66.6337 179.15Z" fill="white"/>
<path opacity="0.6" d="M83.0545 110.616C78.7249 111.461 79.1473 127.67 79.6753 136.013C80.9425 130.099 82.7377 118.8 84.0049 110.722C83.7409 110.616 83.4241 110.563 83.0545 110.616Z" fill="#4A72CC"/>
<path d="M91.7137 101.64C91.7137 101.64 93.4561 126.403 93.1393 136.488C92.7697 146.995 87.8065 181.368 87.8065 181.368H82.2097C82.2097 181.368 81.9985 147.576 81.7345 137.28C81.4705 126.034 80.0977 101.64 80.0977 101.64H91.7137Z" fill="#5C8FFF"/>
<path d="M88.8626 179.15L88.5458 181.474H81.7346L81.5762 179.414L88.8626 179.15Z" fill="#407BFF"/>
<path opacity="0.6" d="M88.8626 179.15L88.5458 181.474H81.7346L81.5762 179.414L88.8626 179.15Z" fill="white"/>
<path d="M89.4434 77.6688C89.4434 84.3216 92.981 87.0672 92.981 87.0672L98.7362 81.4704C98.7362 81.4704 96.7826 78.0912 94.0898 75.0288C90.7634 71.1216 89.4434 73.392 89.4434 77.6688Z" fill="#264A99"/>
<path opacity="0.2" d="M87.9123 65.1024C87.7539 65.5248 87.3843 66.2112 86.4339 66.4752C85.0083 66.8976 85.0083 68.0592 85.0083 68.0592C86.3811 67.6368 87.4899 66.528 87.9123 65.1024Z" fill="#ED847E"/>
<path d="M86.4337 54.8592C87.5953 53.3808 85.8001 53.2752 85.8001 53.2752C86.2753 51.48 84.1633 52.4304 84.1633 52.4304C82.8961 50.688 82.1569 52.8 82.1569 52.8C80.8369 51.3216 80.5729 53.7504 80.5729 53.7504C79.2529 51.8496 78.5665 54.5952 78.5665 54.5952C77.3521 52.6416 76.6129 55.176 76.6129 55.176C74.0785 54.2784 75.2929 56.9184 75.2929 56.9184C73.1281 56.9712 74.8705 58.6608 74.8705 58.6608C72.2833 58.6608 74.5537 60.1392 74.5537 60.1392C72.4945 61.512 75.0817 61.8288 75.0817 61.8288C73.3921 64.4688 76.2961 63.4656 76.2961 63.4656C75.1345 66.0528 77.7217 64.8912 77.7217 64.8912C77.5633 67.3728 78.9889 66.6864 79.6753 66.264C79.8337 66.792 80.0449 67.32 80.5201 67.3728C81.4177 67.4784 81.5761 65.7888 81.5761 65.7888C81.5761 65.7888 82.4209 66.4224 83.1073 66.1056C83.7937 65.736 83.5297 64.8384 83.5297 64.8384C83.5297 64.8384 84.0577 65.2608 84.5329 64.8384C84.8497 64.6272 84.8497 62.9376 84.4273 62.3568L85.8001 61.8288C85.8001 61.8288 86.8033 61.6704 86.3809 60.3504C85.9057 59.0304 86.3281 57.9216 86.3281 57.9216C87.8593 57.1824 86.5921 56.3376 86.5921 56.3376C88.4401 55.2288 86.4337 54.8592 86.4337 54.8592Z" fill="#263238"/>
<path d="M83.6353 61.3008C83.8465 62.1456 84.3745 62.832 84.9553 63.2544C85.8001 63.888 86.4865 63.2544 86.3809 62.304C86.3281 61.4064 85.8001 60.0336 84.8497 59.7696C83.9521 59.5056 83.4241 60.3504 83.6353 61.3008Z" fill="#FFC3BD"/>
</svg>
