<svg width="21" height="21" viewBox="0 0 21 21" fill="none" xmlns="http://www.w3.org/2000/svg">
<path d="M10.3008 0.492584C4.64278 0.492584 0.0507812 5.08458 0.0507812 10.7426C0.0507812 16.4006 4.64278 20.9926 10.3008 20.9926C15.9588 20.9926 20.5508 16.4006 20.5508 10.7426C20.5508 5.08458 15.9588 0.492584 10.3008 0.492584ZM8.70178 4.65408V7.21658C8.70178 7.64708 8.35328 8.01608 7.90228 8.01608H5.33978L8.70178 4.65408ZM14.3803 16.8311H6.34428C5.83178 16.8311 5.38078 16.4416 5.33978 15.9086V8.40558H7.98428C8.78378 8.40558 9.17328 7.99558 9.17328 7.19608V4.67458H14.3803C14.4008 4.67458 14.4213 4.67458 14.4213 4.67458C14.8928 4.69508 15.2618 5.10508 15.2413 5.57658V15.9086C15.2413 15.9291 15.2413 15.9291 15.2413 15.9496C15.2618 16.4416 14.8723 16.8311 14.3803 16.8311Z" fill="#F30617"/>
<path d="M13.7038 6.92963H10.3418V7.54463H13.7038V6.92963Z" fill="#F30617"/>
<path d="M13.7038 12.7926H10.3418V13.3461H13.7038V12.7926Z" fill="#F30617"/>
<path d="M13.7038 11.3166H10.3418V11.8701H13.7038V11.3166Z" fill="#F30617"/>
<path d="M9.78794 9.84061H6.83594V13.3666H9.80844V9.84061H9.78794ZM9.23444 12.7721H7.38944V10.3736H9.23444V12.7721Z" fill="#F30617"/>
<path d="M13.7038 8.36462H10.3418V8.97962H13.7038V8.36462Z" fill="#F30617"/>
<path d="M13.7653 9.84061H10.3418V10.3941H13.7653V9.84061Z" fill="#F30617"/>
<path d="M13.7854 14.3916H6.83594V15.0476H13.7854V14.3916Z" fill="#F30617"/>
</svg>
