<svg width="18" height="18" viewBox="0 0 18 18" fill="none" xmlns="http://www.w3.org/2000/svg">
<path d="M13.6312 16.5C13.0437 16.5 12.5406 16.2906 12.1219 15.8719C11.7031 15.4531 11.4937 14.95 11.4937 14.3625C11.4937 14.275 11.5031 14.1719 11.5219 14.0531C11.5406 13.9344 11.5688 13.825 11.6063 13.725L5.925 10.425C5.7375 10.6375 5.50625 10.8094 5.23125 10.9406C4.95625 11.0719 4.675 11.1375 4.3875 11.1375C3.8 11.1375 3.29688 10.9281 2.87813 10.5094C2.45938 10.0906 2.25 9.5875 2.25 9C2.25 8.4 2.45938 7.89375 2.87813 7.48125C3.29688 7.06875 3.8 6.8625 4.3875 6.8625C4.675 6.8625 4.95 6.91875 5.2125 7.03125C5.475 7.14375 5.7125 7.30625 5.925 7.51875L11.6063 4.25625C11.5688 4.16875 11.5406 4.06875 11.5219 3.95625C11.5031 3.84375 11.4937 3.7375 11.4937 3.6375C11.4937 3.0375 11.7031 2.53125 12.1219 2.11875C12.5406 1.70625 13.0437 1.5 13.6312 1.5C14.2312 1.5 14.7375 1.70625 15.15 2.11875C15.5625 2.53125 15.7687 3.0375 15.7687 3.6375C15.7687 4.225 15.5625 4.72812 15.15 5.14687C14.7375 5.56562 14.2312 5.775 13.6312 5.775C13.3437 5.775 13.0656 5.72812 12.7969 5.63437C12.5281 5.54062 12.3 5.3875 12.1125 5.175L6.43125 8.325C6.45625 8.425 6.47813 8.54062 6.49688 8.67187C6.51563 8.80312 6.525 8.9125 6.525 9C6.525 9.0875 6.51563 9.18125 6.49688 9.28125C6.47813 9.38125 6.45625 9.48125 6.43125 9.58125L12.1125 12.8062C12.3 12.6312 12.5187 12.4906 12.7687 12.3844C13.0188 12.2781 13.3062 12.225 13.6312 12.225C14.2312 12.225 14.7375 12.4312 15.15 12.8437C15.5625 13.2562 15.7687 13.7625 15.7687 14.3625C15.7687 14.95 15.5625 15.4531 15.15 15.8719C14.7375 16.2906 14.2312 16.5 13.6312 16.5ZM13.6312 4.65C13.9187 4.65 14.1594 4.55312 14.3531 4.35937C14.5469 4.16562 14.6437 3.925 14.6437 3.6375C14.6437 3.35 14.5469 3.10937 14.3531 2.91562C14.1594 2.72187 13.9187 2.625 13.6312 2.625C13.3437 2.625 13.1031 2.72187 12.9094 2.91562C12.7156 3.10937 12.6188 3.35 12.6188 3.6375C12.6188 3.925 12.7156 4.16562 12.9094 4.35937C13.1031 4.55312 13.3437 4.65 13.6312 4.65ZM4.3875 10.0125C4.675 10.0125 4.91563 9.91562 5.10938 9.72187C5.30312 9.52812 5.4 9.2875 5.4 9C5.4 8.7125 5.30312 8.47187 5.10938 8.27812C4.91563 8.08437 4.675 7.9875 4.3875 7.9875C4.1 7.9875 3.85937 8.08437 3.66562 8.27812C3.47187 8.47187 3.375 8.7125 3.375 9C3.375 9.2875 3.47187 9.52812 3.66562 9.72187C3.85937 9.91562 4.1 10.0125 4.3875 10.0125ZM13.6312 15.375C13.9187 15.375 14.1594 15.2781 14.3531 15.0844C14.5469 14.8906 14.6437 14.65 14.6437 14.3625C14.6437 14.075 14.5469 13.8344 14.3531 13.6406C14.1594 13.4469 13.9187 13.35 13.6312 13.35C13.3437 13.35 13.1031 13.4469 12.9094 13.6406C12.7156 13.8344 12.6188 14.075 12.6188 14.3625C12.6188 14.65 12.7156 14.8906 12.9094 15.0844C13.1031 15.2781 13.3437 15.375 13.6312 15.375Z" fill="#54585A"/>
</svg>
