<svg width="198" height="28" viewBox="0 0 198 28" fill="none" xmlns="http://www.w3.org/2000/svg">
<path d="M26.603 12.9793C25.8568 11.5942 25.2514 10.9194 23.8857 10.0336L23.8786 11.4817C25.3429 13.3659 25.4768 13.3729 25.8638 15.5872C26.3776 18.5539 25.2655 21.4574 22.1466 22.4625C20.732 22.8634 19.1972 22.7368 17.7895 22.3359C15.579 21.6962 13.8121 20.2341 12.5024 18.4064C12.5309 18.343 12.5517 18.2729 12.5799 18.2094C12.756 17.8016 12.8475 17.3519 12.8475 16.8809C12.8475 14.9967 11.3198 13.4782 9.44033 13.4782C7.56082 13.4782 6.0332 15.0037 6.0332 16.8809C6.0332 17.4924 6.19486 18.069 6.47656 18.5609C6.77224 19.1936 7.27215 19.728 7.93368 20.0794C8.22936 20.2341 8.54631 20.3395 8.85594 20.3959C11.517 24.0936 15.3818 27.0602 19.3102 27.1306C20.9785 27.1024 21.7878 27.0533 23.3718 26.1535C25.5683 24.902 26.814 22.8773 27.5535 20.7755C28.4614 18.1743 27.9053 15.3833 26.603 12.9793Z" fill="#019FFE"/>
<path d="M22.4684 4.77225C21.2583 3.07527 21.4555 3.15977 19.9362 1.94867C18.0231 0.420698 15.2306 0.0897523 13.0154 0.399572C10.2651 0.786837 8.05674 2.48381 6.52322 4.75112C5.63697 6.05376 5.21525 7.20855 5.18701 8.60976L6.47402 7.94085C7.51511 5.77914 7.51511 5.75801 9.20318 4.2864C11.4749 2.30074 14.6893 2.10356 17.0173 4.4061C18.0231 5.47638 18.6208 6.89871 18.9092 8.32813C19.3593 10.5813 18.8811 12.8275 17.8615 14.8415C16.8553 14.933 15.9836 15.468 15.4419 16.2567C15.0267 16.82 14.7805 17.5172 14.7805 18.2704C14.7805 20.1577 16.3069 21.6787 18.1848 21.6787C20.0627 21.6787 21.589 20.1507 21.589 18.2704C21.589 17.8339 21.5045 17.4185 21.3569 17.0382C23.3824 12.9965 24.1635 8.41969 22.4684 4.77225Z" fill="#03A1FA"/>
<path d="M15.1744 6.48706C14.1827 6.48706 13.2892 6.90992 12.67 7.58651C8.12586 7.76974 3.53245 9.34142 1.30939 12.5763C0.27544 14.3947 0.275441 14.6344 0.0644114 16.1638C-0.266287 18.5952 0.718462 21.1888 2.05517 22.9789C3.72225 25.2058 6.34613 26.249 9.06838 26.4958C10.6372 26.6367 11.7836 26.5168 13.0219 25.8615L11.8188 25.058C9.12486 25.0367 9.38513 25.1003 7.30294 24.4376C4.43278 23.5286 2.74447 20.6813 3.63085 17.531C4.08115 16.1285 5.03068 14.9162 6.14208 13.9718C7.87958 12.4917 10.0603 11.8294 12.2974 11.7375C12.9025 12.6892 13.9647 13.3165 15.1744 13.3165C17.0597 13.3165 18.5793 11.7871 18.5793 9.90515C18.5793 8.02346 17.0526 6.48706 15.1744 6.48706Z" fill="#019FFE"/>
<path d="M46.2066 9.47V20H43.6416V13.685L41.2866 20H39.2166L36.8466 13.67V20H34.2816V9.47H37.3116L40.2666 16.76L43.1916 9.47H46.2066ZM57.0811 9.47L53.4361 16.52V20H50.8711V16.52L47.2261 9.47H50.1361L52.1761 13.88L54.2011 9.47H57.0811ZM57.6796 14.72C57.6796 13.68 57.9046 12.755 58.3546 11.945C58.8046 11.125 59.4296 10.49 60.2296 10.04C61.0396 9.58 61.9546 9.35 62.9746 9.35C64.2246 9.35 65.2946 9.68 66.1846 10.34C67.0746 11 67.6696 11.9 67.9696 13.04H65.1496C64.9396 12.6 64.6396 12.265 64.2496 12.035C63.8696 11.805 63.4346 11.69 62.9446 11.69C62.1546 11.69 61.5146 11.965 61.0246 12.515C60.5346 13.065 60.2896 13.8 60.2896 14.72C60.2896 15.64 60.5346 16.375 61.0246 16.925C61.5146 17.475 62.1546 17.75 62.9446 17.75C63.4346 17.75 63.8696 17.635 64.2496 17.405C64.6396 17.175 64.9396 16.84 65.1496 16.4H67.9696C67.6696 17.54 67.0746 18.44 66.1846 19.1C65.2946 19.75 64.2246 20.075 62.9746 20.075C61.9546 20.075 61.0396 19.85 60.2296 19.4C59.4296 18.94 58.8046 18.305 58.3546 17.495C57.9046 16.685 57.6796 15.76 57.6796 14.72ZM76.0954 18.14H72.1654L71.5354 20H68.8504L72.6604 9.47H75.6304L79.4404 20H76.7254L76.0954 18.14ZM75.4354 16.16L74.1304 12.305L72.8404 16.16H75.4354ZM85.9699 20L83.7799 16.025H83.1649V20H80.5999V9.47H84.9049C85.7349 9.47 86.4399 9.615 87.0199 9.905C87.6099 10.195 88.0499 10.595 88.3399 11.105C88.6299 11.605 88.7749 12.165 88.7749 12.785C88.7749 13.485 88.5749 14.11 88.1749 14.66C87.7849 15.21 87.2049 15.6 86.4349 15.83L88.8649 20H85.9699ZM83.1649 14.21H84.7549C85.2249 14.21 85.5749 14.095 85.8049 13.865C86.0449 13.635 86.1649 13.31 86.1649 12.89C86.1649 12.49 86.0449 12.175 85.8049 11.945C85.5749 11.715 85.2249 11.6 84.7549 11.6H83.1649V14.21ZM92.9501 11.525V13.655H96.3851V15.635H92.9501V17.945H96.8351V20H90.3851V9.47H96.8351V11.525H92.9501ZM106.075 9.47V11.525H103.285V20H100.72V11.525H97.9303V9.47H106.075ZM109.928 11.525V13.655H113.363V15.635H109.928V17.945H113.813V20H107.363V9.47H113.813V11.525H109.928ZM122.033 18.14H118.103L117.473 20H114.788L118.598 9.47H121.568L125.378 20H122.663L122.033 18.14ZM121.373 16.16L120.068 12.305L118.778 16.16H121.373ZM138.462 9.47V20H135.897V13.685L133.542 20H131.472L129.102 13.67V20H126.537V9.47H129.567L132.522 16.76L135.447 9.47H138.462ZM141.507 20.12C141.057 20.12 140.687 19.99 140.397 19.73C140.117 19.46 139.977 19.13 139.977 18.74C139.977 18.34 140.117 18.005 140.397 17.735C140.687 17.465 141.057 17.33 141.507 17.33C141.947 17.33 142.307 17.465 142.587 17.735C142.877 18.005 143.022 18.34 143.022 18.74C143.022 19.13 142.877 19.46 142.587 19.73C142.307 19.99 141.947 20.12 141.507 20.12ZM149.52 20.105C148.53 20.105 147.62 19.875 146.79 19.415C145.97 18.955 145.315 18.315 144.825 17.495C144.345 16.665 144.105 15.735 144.105 14.705C144.105 13.675 144.345 12.75 144.825 11.93C145.315 11.11 145.97 10.47 146.79 10.01C147.62 9.55 148.53 9.32 149.52 9.32C150.51 9.32 151.415 9.55 152.235 10.01C153.065 10.47 153.715 11.11 154.185 11.93C154.665 12.75 154.905 13.675 154.905 14.705C154.905 15.735 154.665 16.665 154.185 17.495C153.705 18.315 153.055 18.955 152.235 19.415C151.415 19.875 150.51 20.105 149.52 20.105ZM149.52 17.765C150.36 17.765 151.03 17.485 151.53 16.925C152.04 16.365 152.295 15.625 152.295 14.705C152.295 13.775 152.04 13.035 151.53 12.485C151.03 11.925 150.36 11.645 149.52 11.645C148.67 11.645 147.99 11.92 147.48 12.47C146.98 13.02 146.73 13.765 146.73 14.705C146.73 15.635 146.98 16.38 147.48 16.94C147.99 17.49 148.67 17.765 149.52 17.765ZM165.752 20H163.187L158.897 13.505V20H156.332V9.47H158.897L163.187 15.995V9.47H165.752V20ZM170.177 18.02H173.537V20H167.612V9.47H170.177V18.02ZM177.325 9.47V20H174.76V9.47H177.325ZM188.604 20H186.039L181.749 13.505V20H179.184V9.47H181.749L186.039 15.995V9.47H188.604V20ZM193.028 11.525V13.655H196.463V15.635H193.028V17.945H196.913V20H190.463V9.47H196.913V11.525H193.028Z" fill="#4D4D4D"/>
</svg>
