<svg width="35" height="13" viewBox="0 0 35 13" fill="none" xmlns="http://www.w3.org/2000/svg">
<path d="M4.05951 8.0071L6.54351 1.0711H7.98351L4.85151 9.4111H3.26751L0.123508 1.0711H1.58751L4.05951 8.0071ZM11.9115 3.8431C10.9875 3.8431 10.2435 4.4671 10.0995 5.5111H13.7595C13.7355 4.4911 12.9315 3.8431 11.9115 3.8431ZM15.0075 7.4431C14.6355 8.5951 13.5915 9.5191 11.9715 9.5191C10.0755 9.5191 8.67154 8.1751 8.67154 6.0991C8.67154 4.0231 10.0155 2.6911 11.9715 2.6911C13.8555 2.6911 15.1875 3.9991 15.1875 5.9431C15.1875 6.1711 15.1755 6.3871 15.1395 6.6151H10.0875C10.1835 7.7071 10.9635 8.3671 11.9715 8.3671C12.8115 8.3671 13.2795 7.9591 13.5315 7.4431H15.0075ZM17.9018 5.9311V9.4111H16.5338V2.7991H17.9018V3.7591C18.2858 3.0991 18.9458 2.6911 19.8818 2.6911V4.1071H19.5338C18.5258 4.1071 17.9018 4.5271 17.9018 5.9311ZM21.1393 9.4111V2.7991H22.5073V9.4111H21.1393ZM21.8353 1.9231C21.3433 1.9231 20.9593 1.5391 20.9593 1.0471C20.9593 0.555102 21.3433 0.171102 21.8353 0.171102C22.3153 0.171102 22.6993 0.555102 22.6993 1.0471C22.6993 1.5391 22.3153 1.9231 21.8353 1.9231ZM24.4713 9.4111V3.9151H23.6913V2.7991H24.4713V2.3311C24.4713 0.807102 25.2513 0.147102 26.9793 0.147102V1.2871C26.1393 1.2871 25.8513 1.5751 25.8513 2.3311V2.7991H27.0753V3.9151H25.8513V9.4111H24.4713ZM30.8917 7.8391L32.8237 2.7991H34.2397L30.1837 12.5191H28.7677L30.1117 9.3031L27.5077 2.7991H29.0317L30.8917 7.8391Z" fill="#019FFE"/>
</svg>
