<svg width="56" height="56" viewBox="0 0 56 56" fill="none" xmlns="http://www.w3.org/2000/svg">
<g filter="url(#filter0_d_3365_167)">
<circle cx="28" cy="23" r="18" fill="#029BF7"/>
</g>
<path d="M24.2793 20.2093H31.7212" stroke="white" stroke-width="1.5" stroke-linecap="round"/>
<path d="M24.2793 23.4651H29.3956" stroke="white" stroke-width="1.5" stroke-linecap="round"/>
<path d="M18 21.6047C18 21.99 18.3124 22.3023 18.6977 22.3023C19.083 22.3023 19.3953 21.99 19.3953 21.6047H18ZM19.6963 26.3734C19.5488 26.0174 19.1407 25.8484 18.7847 25.9958C18.4288 26.1433 18.2597 26.5513 18.4072 26.9073L19.6963 26.3734ZM29.6113 32.0881L30.1155 31.2362L28.9147 30.5254L28.4104 31.3774L29.6113 32.0881ZM25.8845 31.2362L26.3887 32.0881L27.5895 31.3774L27.0852 30.5254L25.8845 31.2362ZM28.4104 31.3774C28.2312 31.6803 27.7688 31.6803 27.5895 31.3774L26.3887 32.0881C27.1084 33.3039 28.8916 33.3039 29.6113 32.0881L28.4104 31.3774ZM26.6047 14.3953H29.3953V13H26.6047V14.3953ZM36.6047 21.6047V22.5349H38V21.6047H36.6047ZM24.0953 28.8061C22.9275 28.786 22.3156 28.7117 21.8359 28.513L21.3019 29.8021C22.0507 30.1123 22.9036 30.1811 24.0713 30.2012L24.0953 28.8061ZM18.4072 26.9073C18.95 28.218 19.9913 29.2593 21.3019 29.8021L21.8359 28.513C20.8672 28.1117 20.0975 27.3421 19.6963 26.3734L18.4072 26.9073ZM36.6047 22.5349C36.6047 23.628 36.6043 24.4129 36.562 25.0323C36.5202 25.6454 36.4396 26.0452 36.3037 26.3734L37.5928 26.9073C37.811 26.3808 37.9074 25.8114 37.9541 25.1273C38.0004 24.4494 38 23.6089 38 22.5349H36.6047ZM31.9287 30.2012C33.0964 30.1811 33.9493 30.1123 34.698 29.8021L34.1641 28.513C33.6845 28.7117 33.0725 28.786 31.9047 28.8061L31.9287 30.2012ZM36.3037 26.3734C35.9024 27.3421 35.1328 28.1117 34.1641 28.513L34.698 29.8021C36.0087 29.2593 37.05 28.218 37.5928 26.9073L36.3037 26.3734ZM29.3953 14.3953C30.9313 14.3953 32.0344 14.3961 32.8948 14.4779C33.7448 14.5587 34.2857 14.7137 34.7168 14.9779L35.446 13.7882C34.7586 13.367 33.979 13.1793 33.0269 13.0888C32.0851 12.9993 30.9044 13 29.3953 13V14.3953ZM38 21.6047C38 20.0956 38.0007 18.9149 37.9112 17.9731C37.8207 17.021 37.6329 16.2413 37.2118 15.5541L36.022 16.2831C36.2863 16.7143 36.4413 17.2552 36.5221 18.1052C36.6039 18.9656 36.6047 20.0686 36.6047 21.6047H38ZM34.7168 14.9779C35.2488 15.3039 35.6961 15.7512 36.022 16.2831L37.2118 15.5541C36.7708 14.8344 36.1657 14.2292 35.446 13.7882L34.7168 14.9779ZM26.6047 13C25.0956 13 23.9149 12.9993 22.9731 13.0888C22.021 13.1793 21.2413 13.367 20.5541 13.7882L21.2831 14.9779C21.7143 14.7137 22.2552 14.5587 23.1052 14.4779C23.9656 14.3961 25.0686 14.3953 26.6047 14.3953V13ZM19.3953 21.6047C19.3953 20.0686 19.3961 18.9656 19.4779 18.1052C19.5587 17.2552 19.7137 16.7143 19.9779 16.2831L18.7882 15.5541C18.367 16.2413 18.1793 17.021 18.0888 17.9731C17.9993 18.9149 18 20.0956 18 21.6047H19.3953ZM20.5541 13.7882C19.8344 14.2292 19.2292 14.8344 18.7882 15.5541L19.9779 16.2831C20.3039 15.7512 20.7512 15.3039 21.2831 14.9779L20.5541 13.7882ZM27.0852 30.5254C26.8964 30.2063 26.7306 29.9247 26.5694 29.7035C26.3995 29.4706 26.2048 29.2608 25.9348 29.1037L25.2332 30.31C25.2773 30.3355 25.3374 30.3823 25.4417 30.5254C25.5546 30.6804 25.6822 30.8944 25.8845 31.2362L27.0852 30.5254ZM24.0713 30.2012C24.4798 30.2083 24.7385 30.2135 24.9357 30.2353C25.12 30.2557 25.1914 30.2856 25.2332 30.31L25.9348 29.1037C25.6624 28.9453 25.379 28.8805 25.0893 28.8484C24.8125 28.8178 24.4779 28.8127 24.0953 28.8061L24.0713 30.2012ZM30.1155 31.2362C30.3178 30.8944 30.4453 30.6804 30.5582 30.5254C30.6625 30.3823 30.7226 30.3355 30.7667 30.31L30.0652 29.1037C29.7952 29.2608 29.6004 29.4706 29.4306 29.7035C29.2694 29.9247 29.1036 30.2063 28.9147 30.5254L30.1155 31.2362ZM31.9047 28.8061C31.522 28.8127 31.1875 28.8178 30.9107 28.8484C30.6209 28.8805 30.3376 28.9453 30.0652 29.1037L30.7667 30.31C30.8086 30.2856 30.88 30.2557 31.0643 30.2353C31.2615 30.2135 31.5202 30.2083 31.9287 30.2012L31.9047 28.8061Z" fill="white"/>
<defs>
<filter id="filter0_d_3365_167" x="0" y="0" width="56" height="56" filterUnits="userSpaceOnUse" color-interpolation-filters="sRGB">
<feFlood flood-opacity="0" result="BackgroundImageFix"/>
<feColorMatrix in="SourceAlpha" type="matrix" values="0 0 0 0 0 0 0 0 0 0 0 0 0 0 0 0 0 0 127 0" result="hardAlpha"/>
<feOffset dy="5"/>
<feGaussianBlur stdDeviation="5"/>
<feComposite in2="hardAlpha" operator="out"/>
<feColorMatrix type="matrix" values="0 0 0 0 0 0 0 0 0 0 0 0 0 0 0 0 0 0 0.15 0"/>
<feBlend mode="normal" in2="BackgroundImageFix" result="effect1_dropShadow_3365_167"/>
<feBlend mode="normal" in="SourceGraphic" in2="effect1_dropShadow_3365_167" result="shape"/>
</filter>
</defs>
</svg>
