<svg width="23" height="22" viewBox="0 0 23 22" fill="none" xmlns="http://www.w3.org/2000/svg">
<path d="M11.6605 21.6667C5.67723 21.6667 0.827148 16.8166 0.827148 10.8333C0.827148 4.85008 5.67723 0 11.6605 0C17.6437 0 22.4938 4.85008 22.4938 10.8333C22.4938 16.8166 17.6437 21.6667 11.6605 21.6667ZM11.6605 19.5C13.959 19.5 16.1634 18.5869 17.7887 16.9616C19.4141 15.3363 20.3271 13.1319 20.3271 10.8333C20.3271 8.53479 19.4141 6.33039 17.7887 4.70507C16.1634 3.07976 13.959 2.16667 11.6605 2.16667C9.36194 2.16667 7.15754 3.07976 5.53222 4.70507C3.90691 6.33039 2.99381 8.53479 2.99381 10.8333C2.99381 13.1319 3.90691 15.3363 5.53222 16.9616C7.15754 18.5869 9.36194 19.5 11.6605 19.5ZM10.1676 6.94958L15.4532 10.4726C15.5127 10.5121 15.5614 10.5658 15.5951 10.6287C15.6288 10.6916 15.6465 10.7619 15.6465 10.8333C15.6465 10.9047 15.6288 10.975 15.5951 11.038C15.5614 11.1009 15.5127 11.1545 15.4532 11.1941L10.1666 14.7171C10.1014 14.7603 10.0257 14.7851 9.94759 14.7887C9.86947 14.7924 9.79181 14.7749 9.72284 14.738C9.65387 14.7012 9.59617 14.6463 9.55584 14.5793C9.51552 14.5123 9.49409 14.4356 9.49381 14.3574V7.30925C9.49396 7.23087 9.51536 7.154 9.55574 7.08682C9.59611 7.01964 9.65395 6.96467 9.7231 6.92777C9.79224 6.89086 9.8701 6.8734 9.94839 6.87724C10.0267 6.88108 10.1024 6.90608 10.1676 6.94958Z" fill="#0D2B68"/>
</svg>
