<svg width="27" height="27" viewBox="0 0 27 27" fill="none" xmlns="http://www.w3.org/2000/svg">
<path d="M7.98293 10.3329C8.70367 10.3329 9.39488 10.0466 9.90452 9.53695C10.4142 9.02731 10.7005 8.33609 10.7005 7.61536C10.7005 6.89462 10.4142 6.2034 9.90452 5.69377C9.39488 5.18413 8.70367 4.89782 7.98293 4.89782C7.26219 4.89782 6.57098 5.18413 6.06134 5.69377C5.5517 6.2034 5.26539 6.89462 5.26539 7.61536C5.26539 8.33609 5.5517 9.02731 6.06134 9.53695C6.57098 10.0466 7.26219 10.3329 7.98293 10.3329ZM7.98293 12.5069C7.34056 12.5069 6.70448 12.3804 6.11101 12.1346C5.51753 11.8888 4.97829 11.5284 4.52407 11.0742C4.06984 10.62 3.70953 10.0808 3.46371 9.48728C3.21788 8.89381 3.09136 8.25773 3.09136 7.61536C3.09136 6.97299 3.21788 6.33691 3.46371 5.74343C3.70953 5.14996 4.06984 4.61072 4.52407 4.15649C4.97829 3.70227 5.51753 3.34196 6.11101 3.09613C6.70448 2.85031 7.34056 2.72379 7.98293 2.72379C9.28025 2.72379 10.5244 3.23915 11.4418 4.15649C12.3591 5.07384 12.8745 6.31803 12.8745 7.61536C12.8745 8.91268 12.3591 10.1569 11.4418 11.0742C10.5244 11.9916 9.28025 12.5069 7.98293 12.5069ZM19.3966 14.681C19.9732 14.681 20.5262 14.4519 20.9339 14.0442C21.3416 13.6365 21.5706 13.0835 21.5706 12.5069C21.5706 11.9303 21.3416 11.3774 20.9339 10.9697C20.5262 10.5619 19.9732 10.3329 19.3966 10.3329C18.82 10.3329 18.267 10.5619 17.8593 10.9697C17.4516 11.3774 17.2226 11.9303 17.2226 12.5069C17.2226 13.0835 17.4516 13.6365 17.8593 14.0442C18.267 14.4519 18.82 14.681 19.3966 14.681ZM19.3966 16.855C18.2434 16.855 17.1375 16.3969 16.322 15.5815C15.5066 14.7661 15.0485 13.6601 15.0485 12.5069C15.0485 11.3538 15.5066 10.2478 16.322 9.43238C17.1375 8.61696 18.2434 8.15887 19.3966 8.15887C20.5498 8.15887 21.6557 8.61696 22.4711 9.43238C23.2866 10.2478 23.7447 11.3538 23.7447 12.5069C23.7447 13.6601 23.2866 14.7661 22.4711 15.5815C21.6557 16.3969 20.5498 16.855 19.3966 16.855ZM22.1141 23.3771V22.8336C22.1141 22.1128 21.8278 21.4216 21.3182 20.912C20.8085 20.4024 20.1173 20.116 19.3966 20.116C18.6759 20.116 17.9846 20.4024 17.475 20.912C16.9654 21.4216 16.6791 22.1128 16.6791 22.8336V23.3771H14.505V22.8336C14.505 22.1912 14.6315 21.5551 14.8774 20.9617C15.1232 20.3682 15.4835 19.8289 15.9377 19.3747C16.392 18.9205 16.9312 18.5602 17.5247 18.3144C18.1181 18.0685 18.7542 17.942 19.3966 17.942C20.039 17.942 20.675 18.0685 21.2685 18.3144C21.862 18.5602 22.4012 18.9205 22.8555 19.3747C23.3097 19.8289 23.67 20.3682 23.9158 20.9617C24.1616 21.5551 24.2882 22.1912 24.2882 22.8336V23.3771H22.1141ZM11.244 23.3771V19.029C11.244 18.1641 10.9004 17.3347 10.2888 16.7231C9.67727 16.1116 8.84781 15.768 7.98293 15.768C7.11805 15.768 6.28859 16.1116 5.67702 16.7231C5.06546 17.3347 4.72188 18.1641 4.72188 19.029V23.3771H2.54785V19.029C2.54785 17.5876 3.12047 16.2051 4.13975 15.1858C5.15902 14.1666 6.54146 13.5939 7.98293 13.5939C9.4244 13.5939 10.8068 14.1666 11.8261 15.1858C12.8454 16.2051 13.418 17.5876 13.418 19.029V23.3771H11.244Z" fill="#019FFE"/>
</svg>
