<svg width="25" height="24" viewBox="0 0 25 24" fill="none" xmlns="http://www.w3.org/2000/svg">
<path d="M2.34277 21.5534C2.34277 19.5516 3.17256 17.6317 4.64959 16.2163C6.12663 14.8008 8.12991 14.0055 10.2188 14.0055C12.3076 14.0055 14.3109 14.8008 15.7879 16.2163C17.2649 17.6317 18.0947 19.5516 18.0947 21.5534H16.1257C16.1257 20.052 15.5034 18.6121 14.3956 17.5505C13.2878 16.4889 11.7854 15.8925 10.2188 15.8925C8.65212 15.8925 7.14966 16.4889 6.04188 17.5505C4.93411 18.6121 4.31177 20.052 4.31177 21.5534H2.34277ZM10.2188 13.0621C6.95514 13.0621 4.31177 10.5288 4.31177 7.40121C4.31177 4.27359 6.95514 1.74036 10.2188 1.74036C13.4824 1.74036 16.1257 4.27359 16.1257 7.40121C16.1257 10.5288 13.4824 13.0621 10.2188 13.0621ZM10.2188 11.1751C12.3945 11.1751 14.1567 9.4863 14.1567 7.40121C14.1567 5.31613 12.3945 3.62731 10.2188 3.62731C8.04301 3.62731 6.28076 5.31613 6.28076 7.40121C6.28076 9.4863 8.04301 11.1751 10.2188 11.1751ZM18.3743 14.6688C19.7579 15.266 20.932 16.2333 21.7557 17.4546C22.5793 18.6759 23.0174 20.0992 23.0172 21.5534H21.0482C21.0484 20.4627 20.7199 19.3952 20.1022 18.4791C19.4845 17.5631 18.6038 16.8375 17.5661 16.3897L18.3733 14.6688H18.3743ZM17.697 4.01697C18.6889 4.40879 19.537 5.07417 20.1336 5.92867C20.7303 6.78316 21.0486 7.78827 21.0482 8.81643C21.0486 10.1112 20.5439 11.3593 19.633 12.3156C18.7222 13.2719 17.4712 13.8673 16.1257 13.9848V12.0856C16.8552 11.9855 17.5319 11.6639 18.0566 11.168C18.5813 10.6722 18.9263 10.0282 19.041 9.33056C19.1556 8.63297 19.0339 7.91852 18.6937 7.29211C18.3534 6.66569 17.8126 6.1603 17.1506 5.85014L17.697 4.01697Z" fill="#019FFE"/>
</svg>
