<svg width="24" height="23" viewBox="0 0 24 23" fill="none" xmlns="http://www.w3.org/2000/svg">
<path d="M17.7147 16.1937V20.8379H15.857V16.1937C15.857 12.0594 18.3129 8.49826 21.8453 6.89043L22.6144 8.58093C21.153 9.24559 19.9139 10.3169 19.0451 11.6668C18.1762 13.0168 17.7144 14.5883 17.7147 16.1937ZM8.42628 16.1937V20.8379H6.56859V16.1937C6.56873 14.5885 6.1068 13.0172 5.23797 11.6674C4.36914 10.3176 3.13013 9.24645 1.66895 8.58186L2.43803 6.89043C4.2239 7.7027 5.73821 9.01187 6.80008 10.6616C7.86195 12.3113 8.4265 14.2318 8.42628 16.1937ZM12.1417 11.5495C10.9099 11.5495 9.72865 11.0602 8.8577 10.1892C7.98674 9.31829 7.49744 8.13702 7.49744 6.90529C7.49744 5.67357 7.98674 4.4923 8.8577 3.62134C9.72865 2.75038 10.9099 2.26108 12.1417 2.26108C13.3734 2.26108 14.5546 2.75038 15.4256 3.62134C16.2966 4.4923 16.7859 5.67357 16.7859 6.90529C16.7859 8.13702 16.2966 9.31829 15.4256 10.1892C14.5546 11.0602 13.3734 11.5495 12.1417 11.5495ZM12.1417 9.69182C12.5076 9.69182 12.8699 9.61975 13.208 9.47971C13.5461 9.33967 13.8533 9.13442 14.112 8.87567C14.3708 8.61691 14.576 8.30973 14.7161 7.97165C14.8561 7.63357 14.9282 7.27123 14.9282 6.90529C14.9282 6.53936 14.8561 6.17701 14.7161 5.83893C14.576 5.50086 14.3708 5.19367 14.112 4.93492C13.8533 4.67617 13.5461 4.47091 13.208 4.33088C12.8699 4.19084 12.5076 4.11876 12.1417 4.11876C11.4026 4.11876 10.6939 4.41234 10.1713 4.93492C9.6487 5.4575 9.35512 6.16626 9.35512 6.90529C9.35512 7.64433 9.6487 8.35309 10.1713 8.87567C10.6939 9.39824 11.4026 9.69182 12.1417 9.69182Z" fill="#019FFE"/>
</svg>
