<svg width="23" height="23" viewBox="0 0 23 23" fill="none" xmlns="http://www.w3.org/2000/svg">
<path d="M11.1416 13.6542V15.4949C9.67707 15.4949 8.2725 16.0767 7.2369 17.1123C6.2013 18.1479 5.61951 19.5524 5.61951 21.017H3.77881C3.77881 19.0643 4.55453 17.1915 5.93533 15.8107C7.31612 14.4299 9.18888 13.6542 11.1416 13.6542ZM11.1416 12.7338C8.09066 12.7338 5.61951 10.2627 5.61951 7.21172C5.61951 4.16075 8.09066 1.68961 11.1416 1.68961C14.1926 1.68961 16.6637 4.16075 16.6637 7.21172C16.6637 10.2627 14.1926 12.7338 11.1416 12.7338ZM11.1416 10.8931C13.1756 10.8931 14.823 9.24569 14.823 7.21172C14.823 5.17774 13.1756 3.53031 11.1416 3.53031C9.10765 3.53031 7.46022 5.17774 7.46022 7.21172C7.46022 9.24569 9.10765 10.8931 11.1416 10.8931ZM16.6637 20.5568L13.9588 21.9788L14.4751 18.9674L12.2875 16.834L15.3117 16.3941L16.6637 13.6542L18.0166 16.3941L21.04 16.834L18.8523 18.9674L19.3677 21.9788L16.6637 20.5568Z" fill="#019FFE"/>
</svg>
